<?xml version="1.0" encoding="utf-8"?>
<!-- Generator: Adobe Illustrator 25.0.0, SVG Export Plug-In . SVG Version: 6.00 Build 0)  -->
<svg version="1.1" id="Layer_1" xmlns="http://www.w3.org/2000/svg" xmlns:xlink="http://www.w3.org/1999/xlink" x="0px" y="0px"
	 viewBox="0 0 879.1 631.5" style="enable-background:new 0 0 879.1 631.5;" xml:space="preserve">
<style type="text/css">
	.st0{fill:#A0A0A0;}
	.st1{fill:#FFFFFF;}
	.st2{fill:#17A2B7;}
	.st3{fill:#FFB6B6;}
	.st4{fill:#FFB8B8;}
	.st5{fill:#383838;}
	.st6{fill:#E6E6E6;}
	.st7{opacity:0.15;enable-background:new    ;}
	.st8{fill:#2F2E41;}
</style>
<rect id="b93b1ef9-49b5-4354-905b-d9dddde45a10" x="0.3" y="0.4" class="st0" width="644.7" height="412.9"/>
<rect id="ef7485f9-8ecd-46d9-949e-abdd8aa9e360" x="18.7" y="52.2" class="st1" width="607.9" height="336.7"/>
<rect id="b4c2a7ec-beab-40bc-b587-23a202562f78" width="644.7" height="27.4"/>
<circle id="bd6d3ebf-cb6f-4fcb-b7cd-ad5a287d3324" class="st0" cx="20.4" cy="14" r="5.1"/>
<circle id="efb1158e-7a7d-4adb-9063-fc7dc50c76d5" class="st0" cx="39.6" cy="14" r="5.1"/>
<circle id="b51f9e19-f36b-4f29-afd5-008bb0fc20dd" class="st0" cx="58.9" cy="14" r="5.1"/>
<rect id="b636d421-4358-445b-b124-1d058e78c733" x="93.5" y="79.8" class="st0" width="118.9" height="129"/>
<rect id="ab9c902d-64a9-4a2b-a9ec-6dc7022c80f6" x="263.2" y="79.8" class="st0" width="118.9" height="129"/>
<rect id="f4a232af-026e-479b-8040-5c62e5965d9e" x="432.9" y="79.8" class="st0" width="118.9" height="129"/>
<rect id="ada16aa4-f84d-4851-87ee-a2852d96226a" x="93.5" y="232.2" class="st0" width="118.9" height="129"/>
<rect id="ebfcbe07-3b81-4d69-a4f5-6a8318d20e8d" x="263.2" y="232.2" class="st0" width="118.9" height="129"/>
<rect id="ead16b6d-d132-49a9-a42f-1f570e523a46" x="432.9" y="232.2" class="st0" width="118.9" height="129"/>
<path id="ab8ff6e3-f37e-4992-8347-ee905fdba816-79" class="st1" d="M291.9,265.3l21.7-8.6l2.5,42.9c0,0,4.5,13.1,3,18.2
	c0,0,1,8.6-1.5,9.1s-9.6,1.5-10.1,1s-0.5-2-0.5-2s-5.1,3.5-5.6,7.6c0,0-21.2,6.6-21.7,0.5s10.6-11.1,10.6-11.1l8.6-13.1L291.9,265.3
	z"/>
<path id="e647835b-1773-4993-9de9-376235a5ef39-80" class="st1" d="M337.9,265.3l21.7-8.6l2.5,42.9c0,0,4.5,13.1,3,18.2
	c0,0,1,8.6-1.5,9.1s-9.6,1.5-10.1,1s-0.5-2-0.5-2s-5.1,3.5-5.6,7.6c0,0-21.2,6.6-21.7,0.5s10.6-11.1,10.6-11.1l8.6-13.1L337.9,265.3
	z"/>
<path id="ee50e840-b8e9-4cc0-9b2e-64e12816c6e5-81" class="st2" d="M340,99.5c0,0-4.6,12.9,0.7,18.8l-4.5,15.4
	c0,0,15.9,47.6,11.3,54.3c0,0-16.9,8.5-50.8-3l13.8-53.4l-2-22.5l2.7-10.6l6-0.6c0,0-3.6,13.6,3,15.7s13.1-15.4,13.1-15.4L340,99.5z
	"/>
<path id="b668efb4-5504-4326-941b-9be143c4d030-82" class="st1" d="M126.4,182.9l5.8,2.4l27.9-36.6l8.8,43l5.8-1.1
	c3.7-37.1,6.8-74.9,3.1-92.7L156.1,97l-9.8,31.3l-4.8,21.2L126.4,182.9z"/>
<path id="b699d661-049e-451c-8a7e-64343ac1c335-83" class="st1" d="M480.7,97.6c0,0-8,11.1-7.6,15.5s5.4,77.3,5.4,77.3l11.9,0.6
	l-3.5-52.5l2.9-14.2l7.2,66.1l14.6,0.4l-13-85.7l-2.5-7.6L480.7,97.6z"/>
<path id="a4f25674-ecb7-42aa-ae9a-d508200b11eb-84" class="st2" d="M525.7,276c-2.1-2.5-5.8-3.9-9.2-4.7c0.1-0.3-10.6-2.5-10.8-2.1
	l-4-3.2l-12.4,6.4l-7-4.8l-3.2,1.1c0.1-0.6-10.1,1.2-10.1,1.2c-1.9,0.1-4.4,0.2-7.2,0.4c-9.7,0.8-10.5,26-10.5,26
	c4.5-1.8,9.3-2.8,14.1-3l2.6,30.2c13.6-1.2,27.8,0.2,42.5,3.5l6.9-23.7l16.1-6.3C533.4,297.3,530.7,282,525.7,276z"/>
<path id="b6d7fb25-d94e-4ba0-9382-3f72a4c565e4-85" class="st1" d="M180.4,261.6c-1.7-2.1-4.7-3.2-7.6-3.8c0.1-0.3-8.7-2.1-8.9-1.7
	l-3.3-2.7l-10.2,5.3l-5.7-3.9l-2.7,0.9c0.1-0.5-8.3,1-8.3,1c-1.6,0.1-3.7,0.2-5.9,0.3c-8,0.6-8.7,21.4-8.7,21.4
	c3.7-1.5,7.6-2.3,11.6-2.4l2.2,60.9c11.2-1,22.9,0.2,35,2.9l5.7-55.6l13.3-5.2C186.8,279.1,184.6,266.6,180.4,261.6z"/>
<path id="abb48a01-b3b6-4bc9-9e6f-5cc93133d8eb-86" d="M749.5,277.9h57v-30.5c0-15.7-12.8-28.5-28.5-28.5s-28.5,12.8-28.5,28.5
	V277.9z"/>
<path id="f1b40e10-dbea-4491-93e9-bf21ee1afe95-87" class="st3" d="M724,617.2h-12.3l-5.8-47.3H724V617.2z"/>
<path id="f19e2682-d3fb-40a9-8809-be7b68a78ac9-88" d="M727.1,613.2H703c-8.5,0-15.4,6.9-15.4,15.4v0.5h39.5V613.2z"/>
<path id="b3618d44-3857-42e4-aed2-10e127155f21-89" class="st3" d="M870.6,600.8l-10.7,6l-28.3-38.3l15.8-8.9L870.6,600.8z"/>
<path id="a172411a-a77d-4e4f-ac70-c8342021cfb1-90" d="M871.3,595.8l-21,11.9l0,0c-7.4,4.2-10,13.6-5.8,21l0.2,0.4l34.4-19.4
	L871.3,595.8z"/>
<path id="bd1532c7-07e2-44c0-82ff-fc8e0d37942d-91" d="M792.2,404.5l0.9,4.7c0,0,2.8,2.8,1.4,4.3s-0.9,8-0.9,8
	c0.8,12.1,16.6,79.9,19.4,93.2c0,0,21.8,14.2,38.8,42.1s17.5,35,17.5,35l-18.9,8l-47.3-57.2c0,0-13.2-8-18-15.1S751,447.1,751,447.1
	l-16.6,76.6c0,0,0.9,27.9-3.3,45.9c-2.6,11.3-4.2,22.9-4.7,34.5l-22.2-2.4c0,0,1.4-67.2,3.8-74.3c0,0-9.9-81.8,9.9-114.5l16-42.7
	l15.7-6L792.2,404.5z"/>
<path id="e2a54528-859f-4f0e-9aca-6130773a8d3b-92" class="st4" d="M778.2,226.3c-29.8,0.5-29.8,44.9,0,45.4
	C808.1,271.2,808.1,226.8,778.2,226.3z"/>
<path id="aeace49c-5333-476f-965d-52da8fac2318-93" d="M755.3,247.8h5.1l1.4-3.5l-0.7,3.5h27.7l-0.9-7.2l6.7,7.2h6.7v-3.9
	c0-12.7-10.3-23-23-23.1c-12.7,0-23,10.3-23.1,23l0,0l0,0L755.3,247.8z"/>
<path id="aa5a3aa9-e50b-4b43-b42d-0c1415925835-94" d="M747.5,285l56.4,0.5L792,406.4c0,0-66-3.5-66-23.6l6.2-17.9L747.5,285z"/>
<path id="aca4d347-909c-4b66-b72e-6bb1477aee43-95" class="st3" d="M806.3,418c-3.3-4-2.7-9.9,1.3-13.2c0.4-0.3,0.9-0.7,1.4-0.9
	l-2.5-21.3l12.6-4.6l3,30.1c2.2,4.7,0.2,10.3-4.5,12.5C813.7,422.5,809,421.4,806.3,418z"/>
<path id="eab38d24-ad2d-4cbe-aaaa-db975580c866-96" d="M796.5,295.9l7.4-10.4c0,0,5.1-1.1,11.1,5.9s9.5,94.5,9.5,94.5l-22,5l-13-62
	L796.5,295.9z"/>
<polygon class="st1" points="672.1,390.7 673.8,468.5 724.1,495.1 815.7,478.7 818,397.9 759.9,377.4 "/>
<path d="M724,495.9L673,469l-1.7-78.9l88.7-13.4l0.2,0.1l58.7,20.7l-2.3,82L724,495.9z M674.6,468l49.7,26.2L815,478l2.2-79.6
	l-57.4-20.2L673,391.4L674.6,468z"/>
<polygon points="723,411.8 722.8,411.7 671.8,391.5 672.4,390 723.2,410.2 817.9,397.1 818.1,398.7 "/>
<rect x="722.8" y="411" transform="matrix(0.9999 -1.216441e-02 1.216441e-02 0.9999 -5.4574 8.8355)" class="st5" width="1.6" height="84.1"/>
<polygon points="716.5,407.8 698.2,400.3 786.6,386.3 804.9,393.7 "/>
<rect x="682" y="407" transform="matrix(0.3955 -0.9185 0.9185 0.3955 28.3087 880.2076)" width="1.6" height="23.2"/>
<rect x="691.7" y="433.6" transform="matrix(0.3955 -0.9185 0.9185 0.3955 9.7289 905.1379)" width="1.6" height="23.2"/>
<polygon class="st1" points="392.1,498.7 393.8,576.5 444.1,603.1 535.7,586.7 538,505.9 479.9,485.4 "/>
<path d="M444,603.9L393,577l-1.7-78.9l88.7-13.4l0.2,0.1l58.7,20.7l-2.3,82L444,603.9z M394.6,576l49.7,26.2L535,586l2.2-79.6
	l-57.4-20.2L393,499.4L394.6,576z"/>
<polygon points="443,519.8 442.8,519.7 391.8,499.5 392.4,498 443.2,518.2 537.9,505.1 538.1,506.7 "/>
<rect x="442.8" y="519" transform="matrix(0.9999 -1.216441e-02 1.216441e-02 0.9999 -6.7918 5.4375)" width="1.6" height="84.1"/>
<polygon points="432.1,514 418.2,508.3 506.6,494.3 520.5,499.9 "/>
<rect x="402" y="515" transform="matrix(0.3955 -0.9185 0.9185 0.3955 -240.1635 688.3124)" width="1.6" height="23.2"/>
<rect x="411.7" y="541.6" transform="matrix(0.3955 -0.9185 0.9185 0.3955 -258.7433 713.2428)" width="1.6" height="23.2"/>
<polygon class="st2" points="479.6,509.4 481.5,599.6 539.9,630.5 646.3,611.5 648.9,517.7 581.4,494 "/>
<path d="M539.7,631.5l-59.2-31.3l-1.9-91.6L581.5,493l0.2,0.1l68.1,24l-2.7,95.2L539.7,631.5z M482.4,599.1l57.7,30.5l105.3-18.8
	l2.6-92.4L581.4,495l-100.8,15.3L482.4,599.1z"/>
<polygon points="538.6,533.9 538.3,533.8 479.2,510.3 479.9,508.5 538.8,531.9 648.8,516.8 649,518.6 "/>
<rect x="538.4" y="532.9" transform="matrix(0.9999 -1.216441e-02 1.216441e-02 0.9999 -7.0359 6.6037)" width="1.9" height="97.6"/>
<polygon points="526.9,527.1 509.8,520.6 612.4,504.2 629.5,510.8 "/>
<rect x="491" y="528.3" transform="matrix(0.3955 -0.9185 0.9185 0.3955 -200.1702 779.3661)" width="1.9" height="26.9"/>
<rect x="502.3" y="559.1" transform="matrix(0.3955 -0.9185 0.9185 0.3955 -221.6794 808.2913)" class="st1" width="1.9" height="26.9"/>
<path id="af1e2e82-f248-43bd-a869-489ddf745161-97" class="st3" d="M700.7,403.6c4.7-2.2,6.7-7.8,4.5-12.5c-0.2-0.5-0.5-1-0.8-1.4
	l11.4-18.1l-9.3-9.6l-15.8,25.8c-4,3.3-4.7,9.2-1.4,13.3C692,404.4,696.7,405.5,700.7,403.6L700.7,403.6z"/>
<path id="ed6195a6-5e50-4e12-8380-54bfefa6b2ae-98" d="M756.1,289.7l-8.2-5.4c0,0-6.3,1.4-13,14.3s-33.8,70.7-33.8,70.7l11.1,11.3
	l29.7-45.3L756.1,289.7z"/>
<g>
	<ellipse transform="matrix(0.357 -0.9341 0.9341 0.357 -697.4634 125.5109)" cx="-257.6" cy="569.4" rx="8.6" ry="2.7"/>
	<ellipse transform="matrix(0.1602 -0.9871 0.9871 0.1602 -804.4554 219.168)" cx="-273.4" cy="582.3" rx="17.2" ry="17.2"/>
	<rect x="-281.2" y="595.8" width="5.2" height="9.3"/>
	<rect x="-270.8" y="595.8" width="5.2" height="9.3"/>
	<ellipse cx="-276.9" cy="605.3" rx="4.3" ry="1.6"/>
	<ellipse cx="-266.5" cy="605.1" rx="4.3" ry="1.6"/>
	
		<ellipse transform="matrix(0.9996 -2.937368e-02 2.937368e-02 0.9996 -17.0958 -7.7694)" class="st1" cx="-273" cy="578" rx="5.9" ry="5.9"/>
	<circle cx="-273" cy="578" r="2"/>
	<path class="st6" d="M-290.1,566.4c-1.4-6.2,3-12.5,9.9-14c6.9-1.5,13.5,2.3,14.9,8.5c1.4,6.2-3.2,8.5-10,10
		C-282.1,572.4-288.7,572.6-290.1,566.4z"/>
	<ellipse transform="matrix(0.4285 -0.9035 0.9035 0.4285 -686.2736 63.7258)" cx="-292.8" cy="574.4" rx="2.7" ry="8.6"/>
	<path class="st1" d="M-281.9,588.5c0,1.7,4.3,5,9.1,5c4.8,0,9.3-4.7,9.3-6.4c0-1.7-4.5,0.3-9.3,0.3S-281.9,586.9-281.9,588.5z"/>
	<path class="st2" d="M-152.7,535.7l-18.6,18.4l-42.1,41.6l-0.9,0.8l-4.8,4.7l-10-9.8l-0.9-0.9l-18.2-18h0l-5.8-5.8l-3.4-3.4
		l-10.3-10.1l-1.4-1.4l-16.4-16.2c-3.3-3.2-6-7-8.2-11c-0.2-0.4-0.4-0.7-0.6-1.1c-11.6-23.1-2.3-51.3,20.9-62.9
		c8.9-4.5,19-6,28.8-4.3h0c0.2,0,0.3,0,0.5,0.1c1.6,0.3,3.2,0.7,4.7,1.1c4.1,1.2,8,2.9,11.6,5.2c0.4,0.2,0.8,0.5,1.1,0.7
		c2.7,1.8,5.1,3.8,7.4,6l0.1-0.1l0.1,0.1c1.4-1.4,2.8-2.6,4.3-3.8c0.3-0.3,0.7-0.5,1-0.8c10.4-7.6,23.4-10.7,36.1-8.4
		c1.6,0.3,3.2,0.7,4.8,1.1c0.5,0.1,1,0.3,1.6,0.5c0.4,0.1,0.8,0.3,1.2,0.4c3.4,1.2,6.7,2.8,9.7,4.8c0.7,0.4,1.3,0.9,2,1.4
		c20.9,15.2,25.6,44.5,10.3,65.4C-149.4,532.1-151,534-152.7,535.7z"/>
	<path class="st7" d="M-171.4,554.1l-42.1,41.6l-0.9,0.8l-4.8,4.7l-10-9.8l-0.9-0.9l-18.2-18c2.9-0.7,7.4,0.3,9.1,1.1
		c3.9,1.9,7.1,5.1,11.1,6.9c3.5,1.6,7.5,2,11.3,1.2c7.1-1.5,12.6-7,17.4-12.4c4.8-5.4,9.8-11.2,16.6-13.7
		C-179.1,554.3-175.2,554-171.4,554.1z"/>
	<path d="M-140.7,470.2c-5.8-5.8-13-10-20.9-12.2c-0.5-0.1-1-0.3-1.6-0.4c-2.3-0.5-4.6-0.9-6.9-1.1c-0.4,0-0.8-0.1-1.2-0.1
		c-2-0.1-4.1-0.1-6.1,0c-11.2,0.8-21.8,5.5-29.8,13.3l-0.1-0.1l-0.1,0.1c-5.3-5.1-11.6-9-18.6-11.2c-0.4-0.1-0.8-0.3-1.2-0.4
		c-5.4-1.6-11-2.2-16.6-1.8c-0.2,0-0.3,0-0.5,0c-10.3,0.8-20,4.9-27.7,11.7c-0.7,0.6-1.4,1.3-2.1,2c-13.3,13.3-17.5,33.3-10.6,50.8
		c0.1,0.4,0.3,0.7,0.5,1.1c2.4,5.7,5.8,10.8,10.2,15.1l15.5,15.3l1.2,1.2L-224,587l0.9,0.9l8.8,8.7l6.8,6.7l66.8-65.9
		C-122.2,518.8-122.2,488.8-140.7,470.2z M-141.6,536.5l-65.9,65.1l-6-5.9l-8.6-8.5l-0.9-0.9l-32.9-32.5l-1.2-1.2l-16.4-16.2
		c-4.2-4.2-7.6-9.2-9.9-14.6c-0.2-0.4-0.3-0.7-0.5-1.1c-6.7-17.1-2.7-36.6,10.3-49.6c0.7-0.7,1.5-1.5,2.3-2.1h0
		c7.4-6.5,16.7-10.4,26.5-11.2c1.3-0.1,2.6-0.2,3.9-0.2c0.5,0,1,0,1.5,0c4,0.1,8,0.8,11.8,1.9c0.4,0.1,0.8,0.2,1.2,0.4
		c4.2,1.4,8.1,3.3,11.7,5.8c2.3,1.6,4.5,3.4,6.5,5.4l0.4,0.4l0.1-0.1l0.1,0.1l0.4-0.4c9-9,21.4-13.9,34.2-13.5c0.5,0,1,0,1.5,0.1
		c0.4,0,0.8,0.1,1.2,0.1c2.6,0.2,5.1,0.7,7.6,1.3c0.5,0.1,1.1,0.3,1.6,0.4c24.4,7.4,38.2,33.2,30.9,57.6
		C-132.2,524.4-136.2,531.1-141.6,536.5z"/>
	<path class="st7" d="M-234.2,459.4c-2.6,2-5.3,3.9-7,6.6c-1.2,2-1.8,4.4-2.1,6.8c-0.8,4.6-1.1,9.2-2.6,13.6
		c-1.5,4.4-4.4,8.5-8.7,10.2c-2.7,1-5.6,1-8.5,0.8c-7.1-0.5-14.1-1.7-20.5-4.8c-3.5-1.7-7-4.1-10.9-4.3c-0.8-0.1-1.6,0-2.4,0.1
		c7.1-22.2,29.5-35.8,52.4-31.9h0c0.2,0,0.3,0,0.5,0.1c1.6,0.3,3.2,0.7,4.7,1.1C-237.5,458.1-235.8,458.7-234.2,459.4z"/>
	<circle cx="-261.6" cy="454.7" r="17.2"/>
	<rect x="-269.4" y="468.2" width="5.2" height="9.3"/>
	<rect x="-259" y="468.2" width="5.2" height="9.3"/>
	<ellipse cx="-265.1" cy="477.6" rx="4.3" ry="1.6"/>
	<ellipse cx="-254.6" cy="477.4" rx="4.3" ry="1.6"/>
	<circle class="st1" cx="-261.1" cy="450.4" r="5.9"/>
	<ellipse transform="matrix(0.7073 -0.7069 0.7069 0.7073 -395.0941 -51.0217)" cx="-259.2" cy="451.6" rx="1.9" ry="2"/>
	<path class="st6" d="M-278.2,438.7c-1.4-6.2,3-12.5,9.9-14c6.9-1.5,13.5,2.3,14.9,8.5c1.4,6.2-3.2,8.5-10,10
		C-270.3,444.8-276.8,445-278.2,438.7z"/>
	<ellipse transform="matrix(0.7715 -0.6362 0.6362 0.7715 -388.9841 47.0302)" cx="-129" cy="565" rx="2.7" ry="8.6"/>
	<circle cx="-114.1" cy="582.2" r="17.2"/>
	<rect x="-111.5" y="595.6" width="5.2" height="9.3"/>
	<rect x="-121.9" y="595.6" width="5.2" height="9.3"/>
	<ellipse class="st8" cx="-110.6" cy="605.1" rx="4.3" ry="1.6"/>
	<ellipse class="st8" cx="-121" cy="604.9" rx="4.3" ry="1.6"/>
	<path class="st2" d="M-108.1,573c-5.4-4.5-8.4-8.6-4.4-13.5c4.1-4.9,11.7-5.3,17.1-0.8c5.4,4.5,6.5,12.1,2.5,17
		C-96.9,580.6-102.7,577.5-108.1,573z"/>
	<circle class="st1" cx="-120" cy="573.3" r="5.9"/>
	<circle cx="-122.1" cy="571.8" r="2"/>
	<path class="st1" d="M-128.9,578.1c-1.2,1.2-2,5-0.4,6.7c1.7,1.7,6.6-0.1,7.8-1.3s-1.8-1.3-3.5-3
		C-126.6,578.8-127.7,576.9-128.9,578.1z"/>
	<ellipse transform="matrix(0.9341 -0.357 0.357 0.9341 -219.8308 3.3477)" cx="-100.8" cy="597.1" rx="2.7" ry="8.6"/>
</g>
</svg>
