<?xml version="1.0" encoding="utf-8"?>
<!-- Generator: Adobe Illustrator 25.0.0, SVG Export Plug-In . SVG Version: 6.00 Build 0)  -->
<svg version="1.1" id="Layer_1" xmlns="http://www.w3.org/2000/svg" xmlns:xlink="http://www.w3.org/1999/xlink" x="0px" y="0px"
	 viewBox="0 0 500 500" style="enable-background:new 0 0 500 500;" xml:space="preserve">
<style type="text/css">
	.st0{fill:#17A2B7;}
	.st1{opacity:0.7;fill:#FFFFFF;enable-background:new    ;}
	.st2{fill:#263238;}
	.st3{fill:none;stroke:#263238;stroke-miterlimit:10;}
	.st4{fill:#FFFFFF;stroke:#263238;stroke-linejoin:round;}
	.st5{fill:none;stroke:#263238;stroke-linecap:round;stroke-linejoin:round;}
	.st6{fill:none;stroke:#263238;stroke-linejoin:round;}
	.st7{fill:#6B6B6B;stroke:#263238;stroke-linecap:round;stroke-linejoin:round;}
	.st8{fill:#263238;stroke:#263238;stroke-linejoin:round;}
	.st9{fill:#A1A1A1;stroke:#263238;stroke-linecap:round;stroke-linejoin:round;}
	.st10{fill:none;stroke:#263238;stroke-width:4;stroke-linejoin:round;}
	.st11{fill:#FFFFFF;stroke:#263238;stroke-linecap:round;stroke-linejoin:round;}
	.st12{fill:#263238;stroke:#263238;stroke-linecap:round;stroke-linejoin:round;}
	.st13{fill:#FFFFFF;stroke:#263238;stroke-miterlimit:10;}
	.st14{fill:#17A2B7;stroke:#263238;stroke-miterlimit:10;}
	.st15{fill:#17A2B7;stroke:#263238;stroke-linecap:round;stroke-linejoin:round;}
	.st16{fill:#FFFFFF;}
	.st17{fill:none;stroke:#FFFFFF;stroke-linecap:round;stroke-linejoin:round;}
	.st18{fill:#D4D4D4;stroke:#6E6E6E;stroke-linecap:round;stroke-linejoin:round;}
	.st19{fill:#D4D4D4;stroke:#6E6E6E;stroke-miterlimit:10;}
	.st20{clip-path:url(#SVGID_2_);}
	.st21{opacity:0.15;enable-background:new    ;}
	.st22{fill:#999999;}
	.st23{clip-path:url(#SVGID_4_);}
	.st24{opacity:0.4;fill:#FFFFFF;enable-background:new    ;}
	.st25{opacity:0.4;enable-background:new    ;}
	.st26{clip-path:url(#SVGID_6_);}
	.st27{clip-path:url(#SVGID_8_);}
	.st28{opacity:0.5;fill:#FFFFFF;enable-background:new    ;}
	.st29{opacity:0.2;enable-background:new    ;}
	.st30{opacity:0.5;}
</style>
<g id="freepik--background-simple--inject-207">
	<path class="st0" d="M324.2,63.2c0,0-72.7-25.9-144.1,15.3S72.6,201.5,41.7,267S28.6,399,83.1,429.4s91.6-14.4,168-16.6
		s97,8.8,160.5-34.4s74.9-145.2,24.9-220.7S324.2,63.2,324.2,63.2z"/>
	<path class="st1" d="M324.2,63.2c0,0-72.7-25.9-144.1,15.3S72.6,201.5,41.7,267S28.6,399,83.1,429.4s91.6-14.4,168-16.6
		s97,8.8,160.5-34.4s74.9-145.2,24.9-220.7S324.2,63.2,324.2,63.2z"/>
</g>
<g id="freepik--Plants--inject-207">
	<path class="st2" d="M16.1,435.4c2.1-0.3,6.1-2.9,6.1-2.9s-2.5-2.1-2.7-2.2c-2-1.3-6.7-2.6-8.8-0.9c-1.3,1.2-1.5,3.2-0.3,4.5
		c0.1,0.1,0.2,0.2,0.2,0.3C12,435.5,14.4,435.6,16.1,435.4z"/>
	<path class="st2" d="M55,415.6c0,0-0.9-3.1-1-3.3c-1-2.2-4.2-5.9-6.9-5.6c-1.8,0.2-3,1.9-2.8,3.6c0,0.1,0,0.2,0.1,0.3
		c0.4,1.9,2.3,3.3,3.9,4.1C50.3,415.6,55,415.6,55,415.6z"/>
	<path class="st2" d="M60.1,468.6c0.9,1.1,1.8,2.2,2.5,3.2h1.9c-1-1.2-2.1-2.6-3.3-4.1c-0.7-0.9-1.5-1.8-2.4-2.8
		c0.8-0.9,1.5-1.9,2.1-2.9c1.8,0.4,3.7,0.5,5.6,0.4c0.1,1.1,0.2,2.2,0.3,3.2c0.2,2.3,0.4,4.4,0.4,6.1h1.6c-0.1-1.8-0.3-3.9-0.6-6.3
		c-0.1-1.1-0.3-2.4-0.5-3.6c0.4-0.1,4-1.2,5.3-2.4s2.4-2.7,2.3-4.4c-0.1-1.6-1.4-2.8-3-2.7c-0.1,0-0.2,0-0.3,0
		c-2.3,0.4-4.1,4.3-4.4,6.4c0,0.1,0,1.5,0,2.4c-0.1-0.5-0.1-1-0.2-1.5c-0.2-1-0.3-2.1-0.5-3.2c-0.1-0.5-0.2-1.1-0.3-1.6
		s-0.3-1.1-0.4-1.6c-0.3-1.3-0.8-2.6-1.2-3.8c0.9-0.1,4.1-0.7,5.4-1.5s2.8-2.3,2.9-4c0.2-1.6-1-2.9-2.5-3.1c-0.1,0-0.2,0-0.3,0
		c-2.4,0.1-4.7,3.7-5.3,5.7c0,0.1-0.3,1.6-0.4,2.5c-0.3-0.8-0.6-1.5-0.9-2.3c-0.9-2.2-1.8-4.4-2.8-6.6c-0.3-0.7-0.6-1.4-0.8-2
		c0.3,0,4.1-0.6,5.7-1.6c1.3-0.9,2.8-2.3,2.9-4c0.2-1.5-0.9-2.9-2.5-3.1c-0.1,0-0.2,0-0.3,0c-2.4,0.1-4.7,3.6-5.3,5.7
		c0,0.2-0.4,2.3-0.5,2.9c-0.6-1.5-1.2-3-1.8-4.5c-0.7-2-1.4-4.1-1.8-6.2c0.2,0,4.1-0.6,5.7-1.6c1.3-0.9,2.8-2.3,2.9-4
		c0.2-1.5-0.9-2.9-2.5-3.1c-0.1,0-0.2,0-0.3,0c-2.4,0.1-4.7,3.7-5.3,5.7c0,0.1-0.3,1.8-0.5,2.6h-0.1c-0.4-2.1-0.7-4.3-0.7-6.4
		c0-1.2,0-2.3,0-3.4c0.8,0,4.2-0.2,5.7-0.9s3-2,3.3-3.7c0.3-1.5-0.6-3-2.1-3.4c-0.1,0-0.2,0-0.3-0.1c-2.4-0.2-5.1,3.1-5.9,5.1
		c0,0.1-0.4,1.2-0.6,2.1c0-0.5,0.1-1,0.1-1.5c0.2-1.8,0.4-3.4,0.6-4.9c0.1-0.8,0.3-1.6,0.4-2.2c0.7-0.4,3.6-2.1,4.6-3.4
		s1.8-3.2,1.3-4.8c-0.4-1.5-1.9-2.4-3.4-2c-0.1,0-0.2,0.1-0.3,0.1c-2.2,0.9-3.1,5.1-2.9,7.2c0,0.2,0.6,3,0.6,3l0,0
		c-0.1,0.7-0.3,1.4-0.4,2.2c-0.3,1.4-0.5,3.1-0.7,4.9c-0.2,1.9-0.3,3.9-0.3,5.8c0,2.2,0.2,4.4,0.5,6.5c0,0,0,0,0,0.1
		c-0.3-0.6-1.3-2.3-1.4-2.4c-1.3-1.7-4.7-4.3-7-3.5c-1.5,0.5-2.2,2.1-1.7,3.6c0,0.1,0.1,0.2,0.1,0.3c0.7,1.5,2.6,2.4,4.1,2.8
		c1.8,0.4,5.6-0.4,5.9-0.4c0.4,2.2,1,4.3,1.7,6.4c0.4,1.2,0.9,2.5,1.3,3.7c-0.3-0.5-0.6-1-0.6-1c-1.2-1.7-4.7-4.3-7-3.5
		c-1.4,0.6-2.1,2.2-1.5,3.7c0,0,0,0.1,0,0.1c0.7,1.5,2.6,2.4,4.1,2.8s4.8-0.2,5.7-0.4c0.2,0.5,0.4,0.9,0.5,1.4
		c0.9,2.2,1.8,4.5,2.6,6.7c0.3,0.8,0.5,1.6,0.8,2.3l-0.5-0.9c-1.2-1.7-4.7-4.3-7-3.5c-1.5,0.5-2.2,2.1-1.7,3.6
		c0,0.1,0.1,0.2,0.1,0.3c0.7,1.5,2.6,2.4,4.1,2.8s4.5-0.2,5.5-0.4c0.2,0.8,0.5,1.6,0.7,2.4c0.1,0.5,0.3,1.1,0.4,1.6s0.2,1.1,0.3,1.6
		c0.2,1,0.3,2.1,0.5,3.1c0.1,0.7,0.2,1.4,0.3,2c-0.3-0.8-0.9-2.3-0.9-2.4c-0.9-1.6-2.2-3-3.8-4c-0.1-0.2-0.2-0.4-0.3-0.5
		c-0.9-1.3-2.7-1.5-3.9-0.6c-0.1,0.1-0.2,0.1-0.2,0.2c-1.7,1.6-1,5.9-0.1,7.8c0,0.1,0.8,1.3,1.2,2l-1-1.1c-0.7-0.8-1.4-1.5-2.2-2.3
		l-1.1-1.1c-0.4-0.4-0.8-0.8-1.3-1.1c-1-0.9-2.1-1.7-3.1-2.5c0.7-0.6,3.1-2.8,3.7-4.3s1-3.5,0.2-5c-0.7-1.4-2.4-1.9-3.8-1.2
		c-0.1,0-0.2,0.1-0.2,0.1c-2,1.4-1.9,5.7-1.3,7.7c0,0.1,0.7,1.5,1,2.3c-0.7-0.5-1.3-1-2-1.4c-2-1.4-4-2.7-6-4l-1.8-1.2
		c0.2-0.2,3.1-2.8,3.8-4.4c0.6-1.5,1-3.5,0.2-5c-0.7-1.4-2.4-1.9-3.8-1.2c-0.1,0-0.2,0.1-0.2,0.1c-2,1.4-1.9,5.7-1.3,7.7
		c0,0.1,0.9,2.2,1.2,2.7c-1.3-0.9-2.7-1.8-4-2.8c-1.7-1.3-3.4-2.7-4.9-4.1c0.1-0.1,3.1-2.8,3.9-4.5c0.6-1.5,1-3.5,0.2-5
		c-0.7-1.4-2.4-1.9-3.8-1.2c-0.1,0-0.2,0.1-0.2,0.1c-2,1.4-1.9,5.7-1.3,7.7c0,0.1,0.7,1.7,1,2.4l-0.1,0.1c-1.5-1.5-2.9-3.2-4.1-5
		c-0.7-1-1.3-1.9-1.9-2.9c0.6-0.4,3.4-2.5,4.2-3.9s1.4-3.3,0.8-4.9c-0.6-1.5-2.2-2.2-3.6-1.6c-0.1,0-0.2,0.1-0.3,0.1
		c-2.1,1.1-2.5,5.4-2.1,7.5c0,0.1,0.4,1.2,0.6,2.1c-0.2-0.4-0.5-0.9-0.7-1.3c-0.9-1.6-1.6-3.1-2.2-4.4c-0.3-0.8-0.6-1.5-0.9-2.1
		c0.4-0.8,1.9-3.8,1.9-5.4s-0.3-3.6-1.6-4.7c-1.2-1-2.9-0.9-4,0.2c-0.1,0.1-0.1,0.2-0.2,0.2c-1.3,2,0.2,6,1.5,7.6
		c0.1,0.1,2.1,2.2,2.2,2.2l0,0c0.2,0.6,0.5,1.3,0.8,2c0.6,1.4,1.2,2.9,2.1,4.5c0.9,1.7,1.9,3.4,2.9,5c1.2,1.8,2.6,3.5,4.1,5.1h0
		c-0.6-0.3-2.4-1.2-2.5-1.3c-2-0.7-6.3-1-7.8,0.9c-0.9,1.3-0.7,3,0.6,3.9c0.1,0.1,0.2,0.1,0.3,0.2c1.4,0.9,3.5,0.6,5,0
		c1.7-0.6,4.4-3.4,4.6-3.6c1.6,1.6,3.2,3,5,4.4c1,0.8,2.1,1.6,3.1,2.3c-0.5-0.3-1-0.5-1.1-0.5c-2-0.7-6.3-1-7.8,0.9
		c-0.9,1.3-0.7,3,0.6,3.9c0.1,0.1,0.2,0.1,0.3,0.2c1.4,0.9,3.5,0.6,4.9,0s3.9-2.9,4.5-3.5l1.2,0.9c2,1.4,4,2.7,5.9,4.1
		c0.7,0.5,1.3,1,2,1.5c-0.5-0.2-0.9-0.4-1-0.5c-2-0.7-6.3-1-7.8,0.9c-0.9,1.2-0.7,3,0.6,3.9c0.1,0.1,0.2,0.1,0.3,0.2
		c1.4,0.9,3.5,0.6,5,0s3.7-2.6,4.4-3.4c0.6,0.5,1.3,1.1,1.9,1.6c0.4,0.4,0.8,0.7,1.2,1.1l1.2,1.2c0.7,0.8,1.4,1.6,2.1,2.3
		c0.5,0.5,0.9,1,1.3,1.6c-0.7-0.5-2-1.4-2.1-1.5c-1.8-1-6-1.9-7.8-0.3c-1.1,1.1-1.1,2.9,0,4c0.1,0.1,0.2,0.1,0.2,0.2
		c1.3,1.1,3.3,1.1,4.9,0.8c1.7-0.4,4.7-2.5,5.1-2.8C58.8,467,59.5,467.8,60.1,468.6z"/>
	<path class="st2" d="M450,436.8c-2.1-0.3-6.1-2.9-6.1-2.9s2.5-2.1,2.7-2.2c2-1.3,6.7-2.6,8.8-0.9c1.3,1.2,1.5,3.2,0.3,4.5
		c-0.1,0.1-0.2,0.2-0.2,0.3C454.2,436.9,451.8,437,450,436.8z"/>
	<path class="st2" d="M412.1,417c0,0,0.9-3.1,1-3.3c1-2.2,4.2-5.9,6.9-5.6c1.8,0.2,3,1.9,2.8,3.6c0,0.1,0,0.2-0.1,0.3
		c-0.4,1.9-2.3,3.3-3.9,4.1C416.9,417,412.1,417,412.1,417z"/>
	<path class="st2" d="M407.7,468.6c-0.9,1.1-1.8,2.2-2.5,3.2h-1.9c1-1.2,2.1-2.6,3.4-4.1c0.7-0.9,1.5-1.8,2.4-2.8
		c-0.8-0.9-1.5-1.9-2.1-2.9c-1.8,0.4-3.7,0.5-5.6,0.4c-0.1,1.1-0.2,2.2-0.3,3.2c-0.2,2.3-0.4,4.4-0.4,6.1h-1.5
		c0.1-1.8,0.3-3.9,0.6-6.3c0.1-1.1,0.3-2.4,0.5-3.6c-0.4-0.1-4-1.2-5.3-2.4s-2.4-2.7-2.3-4.4c0.1-1.6,1.4-2.8,2.9-2.7
		c0.1,0,0.2,0,0.3,0c2.3,0.4,4.1,4.3,4.4,6.4c0,0.1,0,1.5,0,2.4c0.1-0.5,0.1-1,0.2-1.5c0.2-1,0.4-2.1,0.5-3.2
		c0.1-0.5,0.2-1.1,0.3-1.6s0.3-1.1,0.4-1.6c0.4-1.3,0.8-2.6,1.2-3.8c-0.9-0.1-4.1-0.7-5.5-1.5s-2.8-2.3-2.9-4
		c-0.2-1.6,1-2.9,2.5-3.1c0.1,0,0.2,0,0.3,0c2.4,0.1,4.7,3.7,5.3,5.7c0,0.1,0.3,1.6,0.4,2.5c0.3-0.8,0.5-1.5,0.9-2.3
		c0.9-2.2,1.8-4.4,2.8-6.6l0.9-2c-0.3,0-4.1-0.6-5.6-1.6c-1.3-0.9-2.8-2.3-2.9-4c-0.2-1.5,1-2.9,2.5-3.1c0.1,0,0.2,0,0.3,0
		c2.4,0.1,4.7,3.6,5.3,5.7c0,0.2,0.4,2.3,0.5,2.9c0.6-1.5,1.2-3,1.8-4.5c0.7-2,1.3-4.1,1.8-6.2c-0.1,0-4.1-0.6-5.7-1.6
		c-1.3-0.9-2.8-2.3-2.9-4c-0.2-1.6,1-2.9,2.5-3.1c0.1,0,0.2,0,0.3,0c2.4,0.1,4.7,3.7,5.3,5.7c0,0.1,0.3,1.8,0.5,2.6h0.1
		c0.4-2.1,0.6-4.3,0.7-6.4c0-1.2,0-2.3,0-3.4c-0.8,0-4.2-0.2-5.7-0.9s-3-2-3.3-3.7c-0.3-1.5,0.6-3,2.1-3.4c0.1,0,0.2,0,0.3,0
		c2.4-0.2,5.1,3.1,5.9,5.1c0,0.1,0.4,1.2,0.6,2.1c0-0.5-0.1-1-0.1-1.5c-0.1-1.8-0.4-3.4-0.6-4.9c-0.1-0.8-0.3-1.6-0.4-2.2
		c-0.7-0.4-3.6-2.1-4.6-3.4s-1.8-3.2-1.3-4.8c0.4-1.5,1.9-2.4,3.4-2c0.1,0,0.2,0.1,0.3,0.1c2.2,0.9,3.1,5.1,2.9,7.2
		c0,0.2-0.6,3-0.6,3l0,0c0.1,0.7,0.3,1.4,0.5,2.2c0.3,1.4,0.5,3.1,0.7,4.9c0.2,1.9,0.3,3.9,0.3,5.8c0,2.2-0.2,4.4-0.5,6.5
		c0,0,0,0,0,0.1c0.3-0.6,1.3-2.3,1.4-2.4c1.3-1.7,4.7-4.3,7-3.5c1.5,0.5,2.2,2.2,1.7,3.6c0,0.1-0.1,0.2-0.1,0.3
		c-0.7,1.5-2.6,2.4-4.1,2.8c-1.8,0.4-5.5-0.4-5.9-0.4c-0.4,2.2-1,4.3-1.7,6.4c-0.4,1.2-0.9,2.5-1.3,3.7l0.6-1c1.3-1.7,4.7-4.3,7-3.5
		c1.5,0.5,2.2,2.1,1.7,3.6c0,0.1-0.1,0.2-0.1,0.3c-0.7,1.5-2.6,2.4-4.1,2.8s-4.8-0.2-5.7-0.4l-0.6,1.4c-0.9,2.2-1.8,4.5-2.6,6.7
		c-0.3,0.8-0.5,1.6-0.8,2.3c0.3-0.5,0.5-0.9,0.5-0.9c1.3-1.7,4.7-4.3,7-3.5c1.5,0.5,2.2,2.1,1.7,3.6c0,0.1-0.1,0.2-0.1,0.3
		c-0.7,1.5-2.6,2.4-4.1,2.8s-4.5-0.2-5.5-0.4c-0.2,0.8-0.5,1.6-0.7,2.4c-0.1,0.5-0.3,1.1-0.4,1.6s-0.2,1.1-0.3,1.6
		c-0.2,1-0.3,2.1-0.5,3.1c-0.1,0.7-0.2,1.4-0.2,2c0.3-0.8,0.9-2.3,0.9-2.4c0.9-1.6,2.2-3,3.9-4c0.1-0.2,0.2-0.4,0.3-0.5
		c0.9-1.3,2.7-1.5,3.9-0.6c0.1,0.1,0.2,0.1,0.2,0.2c1.7,1.6,1,5.9,0.1,7.8c-0.1,0.1-0.8,1.3-1.3,2c0.3-0.4,0.7-0.8,1-1.1
		c0.7-0.8,1.4-1.5,2.2-2.3l1.2-1.1c0.4-0.4,0.8-0.8,1.3-1.1c1-0.9,2-1.7,3.1-2.5c-0.7-0.6-3-2.8-3.7-4.3s-1-3.5-0.2-5
		c0.7-1.4,2.4-1.9,3.8-1.2c0.1,0,0.2,0.1,0.3,0.2c2,1.4,1.9,5.7,1.3,7.7c0,0.1-0.6,1.5-1,2.3c0.6-0.5,1.3-1,2-1.4c2-1.4,4-2.7,6-4
		l1.8-1.2c-0.2-0.2-3.1-2.8-3.8-4.4c-0.6-1.5-1-3.5-0.2-5c0.7-1.4,2.4-1.9,3.8-1.2c0.1,0,0.2,0.1,0.3,0.2c2,1.4,1.9,5.7,1.3,7.7
		c0,0.1-0.9,2.2-1.2,2.7c1.4-0.9,2.7-1.8,4-2.8c1.7-1.3,3.4-2.6,4.9-4.1c-0.1-0.1-3.1-2.8-3.9-4.5c-0.6-1.5-1-3.5-0.2-5
		c0.7-1.4,2.4-1.9,3.8-1.2c0.1,0,0.2,0.1,0.2,0.1c2,1.4,1.9,5.7,1.3,7.7c0,0.1-0.7,1.7-1,2.4l0.1,0.1c1.5-1.5,2.9-3.2,4.1-5
		c0.7-1,1.3-1.9,1.9-2.9c-0.6-0.4-3.4-2.5-4.2-3.9s-1.4-3.3-0.8-4.9c0.6-1.5,2.2-2.2,3.6-1.6c0.1,0,0.2,0.1,0.3,0.1
		c2.1,1.1,2.5,5.4,2.1,7.5c0,0.1-0.4,1.2-0.6,2.1c0.2-0.4,0.5-0.9,0.7-1.3c0.9-1.6,1.6-3.1,2.2-4.4c0.3-0.8,0.6-1.5,0.9-2.1
		c-0.4-0.8-1.9-3.8-1.9-5.4s0.3-3.6,1.6-4.7c1.2-1,2.9-0.9,4,0.2c0.1,0.1,0.1,0.2,0.2,0.2c1.3,2-0.2,6-1.6,7.6
		c-0.1,0.1-2.1,2.2-2.2,2.2l0,0c-0.2,0.6-0.5,1.3-0.8,2c-0.6,1.4-1.2,2.9-2.1,4.5c-0.9,1.7-1.9,3.4-2.9,5c-1.2,1.8-2.5,3.5-4,5.1
		h-0.1c0.6-0.3,2.4-1.2,2.5-1.3c2-0.7,6.3-1,7.8,0.9c0.9,1.3,0.7,3-0.6,3.9c-0.1,0.1-0.2,0.1-0.2,0.2c-1.4,0.9-3.5,0.6-5,0
		c-1.7-0.6-4.4-3.4-4.6-3.6c-1.6,1.6-3.2,3-5,4.4c-1,0.8-2.1,1.6-3.1,2.3c0.5-0.3,1-0.5,1.1-0.5c2-0.7,6.3-1,7.8,0.9
		c0.9,1.3,0.7,3-0.6,3.9c-0.1,0.1-0.2,0.1-0.2,0.2c-1.4,0.9-3.5,0.6-5,0s-3.9-2.9-4.5-3.5l-1.2,0.9c-2,1.4-4,2.7-5.9,4.1
		c-0.7,0.5-1.3,1-2,1.5l1-0.5c2-0.7,6.3-1,7.8,0.9c0.9,1.3,0.7,3-0.6,3.9c-0.1,0.1-0.2,0.1-0.3,0.2c-1.4,0.9-3.5,0.6-5,0
		s-3.7-2.6-4.4-3.4c-0.6,0.5-1.3,1.1-1.9,1.6c-0.4,0.4-0.8,0.7-1.2,1.1l-1.1,1.2c-0.7,0.8-1.4,1.6-2.1,2.3l-1.3,1.6
		c0.7-0.5,2-1.4,2.1-1.5c1.9-1,6.1-1.9,7.8-0.3c1.1,1.1,1.1,2.9,0,4c-0.1,0.1-0.1,0.1-0.2,0.2c-1.3,1.1-3.3,1.1-4.9,0.8
		c-1.7-0.4-4.7-2.5-5.1-2.8C409.1,467,408.4,467.8,407.7,468.6z"/>
</g>
<polyline class="st3" points="202.9,115.6 275.5,78.9 351.3,118.8 "/>
<rect x="162.5" y="107.1" class="st2" width="230.1" height="75.8"/>
<g id="freepik--Pennants--inject-207">
	<path class="st0" d="M25.4,60.1c6.8-5.8,13.4-11.7,19.9-17.7c-8.6-2.6-17.2-5.4-25.8-8.3C21.3,42.8,23.3,51.5,25.4,60.1z"/>
	<path class="st2" d="M55.5,69.1C62,63,68.3,56.9,74.6,50.6c-8.7-2.2-17.4-4.6-26-7.2C50.7,52,53,60.5,55.5,69.1z"/>
	<path class="st0" d="M84.7,76.5C91,70.2,97.1,63.7,103,57.2c-8.8-1.8-17.5-3.9-26.2-6.1C79.3,59.6,81.9,68.1,84.7,76.5z"/>
	<path class="st2" d="M115.3,82.9c5.9-6.6,11.7-13.3,17.4-20.1c-8.8-1.5-17.6-3.1-26.4-4.9C109.2,66.2,112.2,74.6,115.3,82.9z"/>
	<path class="st0" d="M145,87.8c5.7-6.9,11.2-13.8,16.6-20.8c-8.9-1.1-17.8-2.4-26.6-3.9C138.2,71.4,141.5,79.6,145,87.8z"/>
	<path class="st2" d="M175.9,91.6c5.3-7.1,10.6-14.2,15.6-21.5c-8.9-0.7-17.8-1.6-26.6-2.7C168.4,75.6,172.1,83.6,175.9,91.6z"/>
	<path class="st0" d="M205.8,94.1c5.1-7.3,10-14.7,14.8-22.1c-8.9-0.4-17.8-0.9-26.7-1.6C197.6,78.3,201.6,86.2,205.8,94.1z"/>
	<path class="st2" d="M236.8,95.3c4.8-7.5,9.4-15.1,13.8-22.7c-8.9,0-17.8-0.2-26.8-0.5C228,79.9,232.4,87.6,236.8,95.3z"/>
	<path class="st0" d="M266.8,95.3c4.4-7.7,8.7-15.4,12.9-23.2c-8.9,0.4-17.8,0.6-26.8,0.6C257.4,80.2,262,87.8,266.8,95.3z"/>
	<path class="st2" d="M297.8,94c4.1-7.9,8.1-15.8,11.9-23.8c-8.9,0.7-17.8,1.3-26.7,1.7C287.8,79.3,292.8,86.7,297.8,94z"/>
	<path class="st0" d="M327.7,91.4c3.8-8,7.4-16.1,10.9-24.2c-8.9,1.1-17.8,2-26.6,2.8C317.1,77.2,322.3,84.4,327.7,91.4z"/>
	<path class="st2" d="M358.6,87.5c3.5-8.2,6.8-16.4,9.9-24.7c-8.8,1.5-17.7,2.8-26.5,3.9C347.4,73.8,352.9,80.7,358.6,87.5z"/>
	<path class="st0" d="M388.3,82.5c3.1-8.3,6.1-16.7,8.9-25c-8.8,1.8-17.6,3.5-26.4,5C376.5,69.3,382.3,75.9,388.3,82.5z"/>
	<path class="st2" d="M418.8,76.1c2.8-8.5,5.4-16.9,7.9-25.4c-8.7,2.2-17.4,4.3-26.2,6.1C406.5,63.3,412.6,69.7,418.8,76.1z"/>
	<path class="st0" d="M448.1,68.6c2.4-8.6,4.7-17.1,6.9-25.7c-8.7,2.6-17.3,5-26,7.2C435.2,56.3,441.6,62.5,448.1,68.6z"/>
	<path class="st2" d="M478.1,59.5c2.1-8.7,4-17.3,5.8-26c-8.5,3-17.1,5.8-25.8,8.4C464.7,47.9,471.4,53.7,478.1,59.5z"/>
	<path class="st2" d="M492.9,30.7C336.4,87,165.2,87,8.8,30.7L9,30.1c156.3,56.3,327.3,56.3,483.6,0
		C492.7,30.3,492.8,30.5,492.9,30.7z"/>
</g>
<g id="freepik--Clothe--inject-207">
	<path class="st4" d="M429.2,278.9l-3.1-2.1c-4.4-3.2-7.9-7.5-10-12.5l-2.5-6h-4.1l-2.6,6c-2.1,5-5.6,9.4-10,12.5l-3.1,2.1
		c-1.8,1.3-2.8,3.4-2.8,5.7H432C432,282.3,431,280.2,429.2,278.9z M412.7,282.1h-17.6c0-1.9,3-3.6,4.2-4.6l2.1-1.7
		c3.2-2.7,5.6-6.2,6.9-10.1l1.8-4.8h2.8l1.8,4.8c1.4,3.9,3.7,7.4,6.9,10.1l2.1,1.7c1.2,1,4.1,2.7,4.1,4.6H412.7z"/>
	<path class="st5" d="M411.6,258.2v-4.4c0,0,2.5-1.9,2.5-4.6s-2.1-3.8-4.4-2.9"/>
	<path class="st4" d="M399.9,272.3c0,0,4.6,5.4,10.5,5.5c6.2,0.1,13.5-5.3,13.5-5.3c1.7,1.4,3.5,2.7,5.4,3.7
		c3.2,1.8,5.4,4.4,7.1,8.9c1.9,5,6.1,18.6,6.1,18.6l-12.1,0.6l1.6,27.4h-40.2l2.7-27.9h-11.7c0,0,3.9-18.4,5.7-22
		S399.9,272.3,399.9,272.3z"/>
	<line class="st6" x1="394.6" y1="303.7" x2="395.2" y2="289.1"/>
	<line class="st6" x1="430.4" y1="304.2" x2="429.5" y2="290"/>
	<path class="st4" d="M423,278.9l-3.1-2.1c-4.4-3.2-7.9-7.5-10-12.5l-2.6-6h-4.1l-2.5,6c-2.1,5-5.6,9.4-10,12.5l-3.1,2.1
		c-1.8,1.3-2.8,3.4-2.8,5.7h40.8C425.8,282.3,424.8,280.2,423,278.9z M406.5,282.1h-17.6c0-1.9,3-3.6,4.2-4.6l2.1-1.7
		c3.2-2.7,5.6-6.2,6.9-10.1l1.8-4.8h2.8l1.8,4.8c1.4,3.9,3.7,7.4,6.9,10.1l2.1,1.7c1.2,1,4.1,2.7,4.1,4.6H406.5z"/>
	<path class="st5" d="M405.3,258.2v-4.4c0,0,2.5-1.9,2.5-4.6s-2.1-3.8-4.4-2.9"/>
	<path class="st7" d="M393.6,272.3c0,0,4.6,5.4,10.5,5.5c6.2,0.1,13.5-5.3,13.5-5.3c1.7,1.4,3.5,2.7,5.4,3.7
		c3.2,1.8,5.4,4.4,7.1,8.9c1.9,5,6.1,18.6,6.1,18.6l-12.1,0.6l1.6,27.4h-40.2l2.7-27.9h-11.7c0,0,3.9-18.4,5.6-22
		S393.6,272.3,393.6,272.3z"/>
	<line class="st6" x1="388.4" y1="303.7" x2="389" y2="289.1"/>
	<line class="st6" x1="424.1" y1="304.2" x2="423.2" y2="290"/>
	<polygon class="st4" points="388.4,264.5 399.3,265.1 399.3,311.7 386.4,311.7 	"/>
	<path class="st4" d="M412,277.9l-3.1-2.1c-4.4-3.1-7.9-7.5-10-12.5l-2.6-6h-4.1l-2.6,6c-2.1,5-5.6,9.4-10,12.5l-3.1,2.1
		c-1.8,1.3-2.8,3.4-2.8,5.7h40.8C414.8,281.4,413.8,279.3,412,277.9z M395.5,281.1H378c0-1.9,3-3.6,4.2-4.6l2.1-1.7
		c3.2-2.7,5.6-6.2,6.9-10.1l1.8-4.8h2.8l1.8,4.8c1.4,3.9,3.7,7.4,6.9,10.1l2.1,1.7c1.2,1,4.1,2.7,4.1,4.6H395.5z"/>
	<path class="st5" d="M394.3,257.2v-4.4c0,0,2.5-1.9,2.5-4.6s-2.1-3.8-4.4-2.9"/>
	<path class="st4" d="M388.4,264.5l4.7,41.6l5.8-42.8c0,0,9.9,10.1,13.1,11.9s6.2,4.1,7.1,8.9s5.6,52,5.6,52l-10.9,0.6l1,26.7h-44.1
		l2.6-27.9H363c0,0,6.5-51.1,8.3-54.6S388.4,264.5,388.4,264.5z"/>
	<path class="st4" d="M388.4,264.5l5.8,44.4l-1.4,1.8l-12.9-38.3C379.9,272.4,384,265.9,388.4,264.5z"/>
	<path class="st4" d="M398.9,263.3l-7.9,58.5l18-49.8C409,272,398.9,262.3,398.9,263.3z"/>
	<path class="st4" d="M371.3,280.8c0,0-8.5,41-10.3,50.7s-2.8,25.4-2.8,25.4l16.1,0.5l4.6-69.2"/>
	<path class="st4" d="M418.1,280.8c0,0,8.4,41,10.3,50.7s2.8,25.4,2.8,25.4l-16.1,0.5l-4.6-69.2"/>
	<line class="st6" x1="391" y1="321.8" x2="391" y2="363.8"/>
	<path class="st4" d="M394.8,278.9l-3.1-2.1c-4.4-3.2-7.9-7.5-10-12.5l-2.6-6h-4.1l-2.5,6c-2.1,5-5.6,9.4-10,12.5l-3.1,2.1
		c-1.8,1.3-2.8,3.4-2.8,5.7h40.8C397.6,282.3,396.6,280.2,394.8,278.9z M378.3,282.1h-17.5c0-1.9,3-3.6,4.2-4.6l2.1-1.7
		c3.2-2.7,5.6-6.2,7-10.1l1.8-4.8h2.8l1.8,4.8c1.4,3.9,3.7,7.4,6.9,10.1l2.1,1.7c1.2,1,4.1,2.7,4.1,4.6L378.3,282.1z"/>
	<path class="st5" d="M377.1,258.2v-4.4c0,0,2.5-1.9,2.5-4.6s-2.1-3.8-4.4-2.9"/>
	<path class="st8" d="M371.2,265.5l4.8,13.6l5.8-14.8c0,0,9.9,10.1,13.1,11.9s6.2,4.1,7.1,8.9s5.6,52,5.6,52l-10.9,0.6l1,26.7h-44.1
		l2.7-27.9h-10.4c0,0,6.5-51.1,8.3-54.6S371.2,265.5,371.2,265.5z"/>
	<polygon class="st4" points="366.8,268.8 369.5,283.2 375.1,273.8 371.5,263.7 	"/>
	<polygon class="st4" points="381.7,264.2 376.8,274.1 381.9,283.8 386,267.6 	"/>
	<line class="st6" x1="396.6" y1="337.5" x2="394.3" y2="292.7"/>
	<line class="st6" x1="356.2" y1="336.4" x2="360.3" y2="292.7"/>
	<path class="st4" d="M378.8,278.9l-3.1-2.1c-4.4-3.2-7.9-7.5-10-12.5l-2.6-6h-4.1l-2.5,6c-2.1,5-5.6,9.4-10,12.5l-3.1,2.1
		c-1.8,1.3-2.8,3.4-2.8,5.7h40.8C381.6,282.3,380.6,280.2,378.8,278.9z M362.3,282.1h-17.5c0-1.9,3-3.6,4.2-4.6l2.1-1.7
		c3.2-2.7,5.6-6.2,7-10.1l1.8-4.8h2.8l1.8,4.8c1.4,3.9,3.7,7.4,6.9,10.1l2.1,1.7c1.2,1,4.1,2.7,4.1,4.6L362.3,282.1z"/>
	<path class="st5" d="M361.1,258.2v-4.4c0,0,2.5-1.9,2.5-4.6s-2.1-3.8-4.4-2.9"/>
	<path class="st7" d="M355.2,265.5l4.8,13.6l5.8-14.8c0,0,9.9,10.1,13.1,11.9s6.2,4.1,7.1,8.9s5.6,52,5.6,52l-10.9,0.6l1,26.7h-44.1
		l2.7-27.9h-10.4c0,0,6.5-51.1,8.3-54.6S355.2,265.5,355.2,265.5z"/>
	<polygon class="st4" points="350.8,268.8 353.5,283.2 359.1,273.8 355.5,263.7 	"/>
	<polygon class="st4" points="365.7,264.2 360.8,274.1 365.9,283.8 370,267.6 	"/>
	<line class="st6" x1="380.6" y1="337.5" x2="378.3" y2="292.7"/>
	<line class="st6" x1="340.2" y1="336.4" x2="344.3" y2="292.7"/>
	<path class="st4" d="M364,278.9l-3-2.1c-4.4-3.2-7.9-7.5-10-12.5l-2.6-6h-4.1l-2.5,6c-2.1,5-5.6,9.4-10,12.5l-3.1,2.1
		c-1.8,1.3-2.8,3.4-2.8,5.7h40.8C366.8,282.3,365.8,280.2,364,278.9z M347.5,282.1H330c0-1.9,3-3.6,4.2-4.6l2.1-1.7
		c3.2-2.7,5.6-6.2,6.9-10.1l1.8-4.8h2.8l1.8,4.8c1.4,3.9,3.7,7.4,6.9,10.1l2.1,1.7c1.2,1,4.1,2.7,4.1,4.6L347.5,282.1z"/>
	<path class="st5" d="M346.4,258.2v-4.4c0,0,2.5-1.9,2.5-4.6s-2.1-3.8-4.4-2.9"/>
	<path class="st9" d="M334.7,272.3c0,0,4.6,5.4,10.5,5.5c6.2,0.1,13.5-5.3,13.5-5.3c1.7,1.4,3.5,2.7,5.4,3.7
		c3.2,1.8,5.4,4.4,7.1,8.9c1.9,5,6.1,18.6,6.1,18.6l-12.1,0.6l1.6,27.4h-40.2l2.7-27.9h-11.7c0,0,3.9-18.4,5.6-22
		S334.7,272.3,334.7,272.3z"/>
	<line class="st6" x1="329.4" y1="303.7" x2="330" y2="289.1"/>
	<line class="st6" x1="365.2" y1="304.2" x2="364.3" y2="290"/>
	<path class="st4" d="M349.2,278.9l-3.1-2.1c-4.4-3.2-7.9-7.5-10-12.5l-2.6-6h-4.1l-2.6,6c-2.1,5-5.6,9.4-10,12.5l-3,2.1
		c-1.8,1.3-2.8,3.4-2.8,5.7H352C352.1,282.3,351,280.2,349.2,278.9z M332.7,282.1h-17.5c0-1.9,3-3.6,4.2-4.6l2.1-1.7
		c3.2-2.7,5.6-6.2,6.9-10.1l1.8-4.8h2.8l1.8,4.8c1.4,3.9,3.7,7.4,6.9,10.1l2.1,1.7c1.2,1,4.1,2.7,4.1,4.6H332.7z"/>
	<path class="st5" d="M331.6,258.2v-4.4c0,0,2.5-1.9,2.5-4.6s-2.1-3.8-4.4-2.9"/>
	<path class="st4" d="M319.9,272.3c0,0,4.6,5.4,10.5,5.5c6.2,0.1,13.5-5.3,13.5-5.3c1.7,1.4,3.5,2.7,5.4,3.7
		c3.2,1.8,5.4,4.4,7.1,8.9c1.9,5,6.1,18.6,6.1,18.6l-12.1,0.6l1.7,27.4h-40.2l2.7-27.9h-11.7c0,0,3.9-18.4,5.7-22
		S319.9,272.3,319.9,272.3z"/>
	<line class="st6" x1="314.6" y1="303.7" x2="315.2" y2="289.1"/>
	<line class="st6" x1="350.4" y1="304.2" x2="349.5" y2="290"/>
	<path class="st10" d="M306,471.5V255.9c0-3.5,2.8-6.4,6.4-6.4h126.2c3.5,0,6.4,2.8,6.4,6.4v216.7"/>
	<path class="st4" d="M268.3,278.9l-3.1-2.1c-4.4-3.2-7.9-7.5-10-12.5l-2.6-6h-4.1l-2.6,6c-2.1,5-5.6,9.4-10,12.5l-3.1,2.1
		c-1.8,1.3-2.8,3.4-2.8,5.7h40.8C271.1,282.3,270.1,280.2,268.3,278.9z M251.8,282.1h-17.6c0-1.9,3-3.6,4.2-4.6l2.1-1.7
		c3.2-2.7,5.6-6.2,6.9-10.1l1.8-4.8h2.8l1.8,4.8c1.4,3.9,3.7,7.4,6.9,10.1l2.1,1.7c1.2,1,4.1,2.7,4.1,4.6H251.8z"/>
	<path class="st5" d="M250.6,258.2v-4.4c0,0,2.5-1.9,2.5-4.6s-2.1-3.8-4.4-2.9"/>
	<path class="st4" d="M239,272.3c0,0,4.6,5.4,10.5,5.5c6.2,0.1,13.5-5.3,13.5-5.3c1.7,1.4,3.5,2.7,5.4,3.7c3.2,1.8,5.4,4.4,7.1,8.9
		c1.9,5,6.1,18.6,6.1,18.6l-12.1,0.6l1.6,27.4H231l2.7-27.9H222c0,0,3.9-18.4,5.6-22S239,272.3,239,272.3z"/>
	<line class="st6" x1="233.7" y1="303.7" x2="234.3" y2="289.1"/>
	<line class="st6" x1="269.5" y1="304.2" x2="268.5" y2="290"/>
	<path class="st4" d="M262,278.9l-3-2.1c-4.4-3.2-7.9-7.5-10-12.5l-2.6-6h-4.1l-2.6,6c-2.1,5-5.6,9.4-10,12.5l-3.1,2.1
		c-1.8,1.3-2.8,3.4-2.8,5.7h40.8C264.8,282.3,263.8,280.2,262,278.9z M245.5,282.1H228c0-1.9,3-3.6,4.2-4.6l2.1-1.7
		c3.2-2.7,5.6-6.2,6.9-10.1l1.8-4.8h2.8l1.8,4.8c1.4,3.9,3.7,7.4,6.9,10.1l2.1,1.7c1.2,1,4.1,2.7,4.1,4.6L245.5,282.1z"/>
	<path class="st5" d="M244.4,258.2v-4.4c0,0,2.5-1.9,2.5-4.6s-2.1-3.8-4.4-2.9"/>
	<path class="st7" d="M232.7,272.3c0,0,4.6,5.4,10.5,5.5c6.2,0.1,13.5-5.3,13.5-5.3c1.7,1.4,3.5,2.7,5.4,3.7
		c3.2,1.8,5.4,4.4,7.1,8.9c1.9,5,6.1,18.6,6.1,18.6l-12.1,0.6l1.6,27.4h-40.2l2.7-27.9h-11.7c0,0,3.9-18.4,5.6-22
		S232.7,272.3,232.7,272.3z"/>
	<line class="st6" x1="227.4" y1="303.7" x2="228" y2="289.1"/>
	<line class="st6" x1="263.2" y1="304.2" x2="262.3" y2="290"/>
	<polygon class="st4" points="227.5,264.5 238.4,265.1 238.4,311.7 225.4,311.7 	"/>
	<path class="st4" d="M251.1,277.9l-3.1-2.1c-4.4-3.1-7.9-7.5-10-12.5l-2.6-6h-4.1l-2.6,6c-2.1,5-5.6,9.4-10,12.5l-3.1,2.1
		c-1.8,1.3-2.8,3.4-2.8,5.7h40.8C253.9,281.4,252.8,279.3,251.1,277.9z M234.6,281.1H217c0-1.9,3-3.6,4.2-4.6l2.1-1.7
		c3.2-2.7,5.6-6.2,6.9-10.1l1.8-4.8h2.8l1.8,4.8c1.4,3.9,3.7,7.4,6.9,10.1l2.1,1.7c1.2,1,4.1,2.7,4.1,4.6H234.6z"/>
	<path class="st5" d="M233.4,257.2v-4.4c0,0,2.5-1.9,2.5-4.6s-2.1-3.8-4.4-2.9"/>
	<path class="st4" d="M227.5,264.5l4.7,41.6l5.8-42.8c0,0,9.9,10.1,13.1,11.9s6.2,4.1,7.1,8.9s5.6,52,5.6,52l-10.9,0.6l1,26.7h-44.1
		l2.6-27.9h-10.3c0,0,6.5-51.1,8.3-54.6S227.5,264.5,227.5,264.5z"/>
	<path class="st4" d="M227.5,264.5l5.8,44.4l-1.4,1.8L219,272.5C219,272.5,223.1,265.9,227.5,264.5z"/>
	<path class="st4" d="M238,263.3l-7.9,58.5l18-49.8C248.1,272,237.9,262.3,238,263.3z"/>
	<path class="st4" d="M210.4,280.8c0,0-8.4,41-10.3,50.7s-2.8,25.4-2.8,25.4l16.1,0.5l4.6-69.2"/>
	<path class="st4" d="M257.1,280.8c0,0,8.4,41,10.3,50.7s2.8,25.4,2.8,25.4l-16.1,0.5l-4.6-69.2"/>
	<line class="st6" x1="230.1" y1="321.8" x2="230.1" y2="363.8"/>
	<path class="st4" d="M233.9,278.9l-3.1-2.1c-4.4-3.2-7.9-7.5-10-12.5l-2.6-6h-4.1l-2.6,6c-2.1,5-5.6,9.4-10,12.5l-3.1,2.1
		c-1.8,1.3-2.8,3.4-2.8,5.7h40.8C236.6,282.3,235.6,280.2,233.9,278.9z M217.3,282.1h-17.5c0-1.9,3-3.6,4.2-4.6l2.1-1.7
		c3.2-2.7,5.5-6.2,6.9-10.1l1.8-4.8h2.8l1.8,4.8c1.4,3.9,3.7,7.4,6.9,10.1l2.1,1.7c1.2,1,4.1,2.7,4.1,4.6L217.3,282.1z"/>
	<path class="st5" d="M216.2,258.2v-4.4c0,0,2.5-1.9,2.5-4.6s-2.1-3.8-4.4-2.9"/>
	<path class="st8" d="M210.3,265.5l4.7,13.6l5.8-14.8c0,0,9.9,10.1,13.1,11.9s6.2,4.1,7.1,8.9s5.6,52,5.6,52l-10.9,0.6l1,26.7h-44.1
		l2.7-27.9h-10.3c0,0,6.5-51.1,8.3-54.6S210.3,265.5,210.3,265.5z"/>
	<polygon class="st4" points="205.9,268.8 208.5,283.2 214.1,273.8 210.6,263.7 	"/>
	<polygon class="st4" points="220.8,264.2 215.9,274.1 220.9,283.8 225.1,267.6 	"/>
	<line class="st6" x1="235.7" y1="337.5" x2="233.3" y2="292.7"/>
	<line class="st6" x1="195.2" y1="336.4" x2="199.4" y2="292.7"/>
	<path class="st4" d="M217.9,278.9l-3.1-2.1c-4.4-3.2-7.9-7.5-10-12.5l-2.6-6h-4.1l-2.6,6c-2.1,5-5.6,9.4-10,12.5l-3.1,2.1
		c-1.8,1.3-2.8,3.4-2.8,5.7h40.8C220.6,282.3,219.6,280.2,217.9,278.9z M201.3,282.1h-17.5c0-1.9,3-3.6,4.2-4.6l2.1-1.7
		c3.2-2.7,5.5-6.2,6.9-10.1l1.8-4.8h2.8l1.8,4.8c1.4,3.9,3.7,7.4,6.9,10.1l2.1,1.7c1.2,1,4.1,2.7,4.1,4.6L201.3,282.1z"/>
	<path class="st5" d="M200.2,258.2v-4.4c0,0,2.5-1.9,2.5-4.6s-2.1-3.8-4.4-2.9"/>
	<path class="st7" d="M194.3,265.5l4.7,13.6l5.8-14.8c0,0,9.9,10.1,13.1,11.9s6.2,4.1,7.1,8.9s5.6,52,5.6,52l-10.9,0.6l1,26.7h-44.1
		l2.7-27.9h-10.3c0,0,6.5-51.1,8.3-54.6S194.3,265.5,194.3,265.5z"/>
	<polygon class="st4" points="189.9,268.8 192.5,283.2 198.1,273.8 194.6,263.7 	"/>
	<polygon class="st4" points="204.8,264.2 199.9,274.1 204.9,283.8 209.1,267.6 	"/>
	<line class="st6" x1="219.7" y1="337.5" x2="217.3" y2="292.7"/>
	<line class="st6" x1="179.2" y1="336.4" x2="183.4" y2="292.7"/>
	<path class="st4" d="M203.1,278.9l-3.1-2.1c-4.4-3.2-7.9-7.5-10-12.5l-2.6-6h-4.1l-2.6,6c-2.1,5-5.6,9.4-10,12.5l-3.1,2.1
		c-1.8,1.3-2.8,3.4-2.8,5.7h40.8C205.9,282.3,204.9,280.2,203.1,278.9z M186.6,282.1h-17.5c0-1.9,3-3.6,4.2-4.6l2.1-1.7
		c3.2-2.7,5.6-6.2,6.9-10.1l1.8-4.8h2.8l1.8,4.8c1.4,3.9,3.7,7.4,6.9,10.1l2.1,1.7c1.2,1,4.1,2.7,4.1,4.6H186.6z"/>
	<path class="st5" d="M185.4,258.2v-4.4c0,0,2.5-1.9,2.5-4.6s-2.1-3.8-4.4-2.9"/>
	<path class="st9" d="M173.8,272.3c0,0,4.6,5.4,10.5,5.5c6.2,0.1,13.5-5.3,13.5-5.3c1.7,1.4,3.5,2.7,5.4,3.7
		c3.2,1.8,5.4,4.4,7.1,8.9c1.9,5,6.1,18.6,6.1,18.6l-12.1,0.6l1.6,27.4h-40.2l2.7-27.9h-11.7c0,0,3.9-18.4,5.6-22
		S173.8,272.3,173.8,272.3z"/>
	<line class="st6" x1="168.5" y1="303.7" x2="169.1" y2="289.1"/>
	<line class="st6" x1="204.3" y1="304.2" x2="203.3" y2="290"/>
	<path class="st4" d="M188.3,278.9l-3.1-2.1c-4.4-3.2-7.9-7.5-10-12.5l-2.6-6h-4.1l-2.6,6c-2.1,5-5.6,9.4-10,12.5l-3,2.1
		c-1.8,1.3-2.8,3.4-2.8,5.7H191C191.1,282.3,190.1,280.2,188.3,278.9z M171.8,282.1h-17.5c0-1.9,3-3.6,4.2-4.6l2.1-1.7
		c3.2-2.7,5.6-6.2,6.9-10.1l1.8-4.8h2.8l1.8,4.8c1.4,3.9,3.7,7.4,6.9,10.1l2.1,1.7c1.2,1,4.1,2.7,4.1,4.6H171.8z"/>
	<path class="st5" d="M170.6,258.2v-4.4c0,0,2.5-1.9,2.5-4.6s-2.1-3.8-4.4-2.9"/>
	<path class="st4" d="M159,272.3c0,0,4.6,5.4,10.5,5.5c6.2,0.1,13.5-5.3,13.5-5.3c1.7,1.4,3.5,2.7,5.4,3.7c3.2,1.8,5.4,4.4,7.1,8.9
		c1.9,5,6.1,18.6,6.1,18.6l-12.1,0.6l1.7,27.4H151l2.7-27.9H142c0,0,3.9-18.4,5.7-22S159,272.3,159,272.3z"/>
	<line class="st6" x1="153.7" y1="303.7" x2="154.3" y2="289.1"/>
	<line class="st6" x1="189.5" y1="304.2" x2="188.5" y2="290"/>
	<path class="st10" d="M145,471.5V255.9c0-3.5,2.8-6.4,6.4-6.4l0,0h126.2c3.5,0,6.4,2.8,6.4,6.4v216.7"/>
</g>
<g id="freepik--character-1--inject-207">
	<path class="st11" d="M-157.7,166.8c0,0,7.4,3.3,11.1,6.6c2.1,1.8,3.9,3.9,5.3,6.2c0,0-5.3,1.6-7,3.3c-1.4,1.5-2.6,3.2-3.7,4.9
		l-8.6-21L-157.7,166.8z"/>
	<path class="st11" d="M-150.5,159.7c0,0-4.9,4.9-6.2,8.1l-1.2,3.2l-16.5-10.1l4.9-12.3l4.7-14c0,0,1.5-4.7,8.6-3.2
		c7.1,1.5,10.6,3.7,10.6,9.1S-150.5,159.7-150.5,159.7z"/>
	<path class="st12" d="M-153.4,162.9c1.5-1.8,2.9-3.2,2.9-3.2s1.2-3.3,2.4-7.4l-5.6-11.4l-4.8-1.3l-1.3,5.9c0,3.7,0.6,7.4,2,10.9
		C-156.6,158.8-155.2,161-153.4,162.9z"/>
	<path class="st11" d="M-184.4,346.2c0.4,4.6,0.4,9.1,0,13.7c-0.6,8.3-4,16.2-4,23.4s1.7,34.2,0.6,40.2s-3.4,10.3-2.3,12.5
		c1,1.7,2.6,2.8,4.6,3.1c1.1,0.3,35.3,0,35.3,0s0.9-0.3,0.9-2.3s-4.6-4.3-7.1-5.4c-2.6-1.1-14.8-3.4-16.2-5.7
		c-1.2-1.9-1.8-4.1-1.7-6.3c0-2,5.1-32.8,6.8-38.8s4.6-34.8,4.6-34.8L-184.4,346.2z"/>
	<polygon class="st12" points="-175.7,439.6 -191,438.2 -191,441.7 -172.7,442.5 -172.7,439.7 	"/>
	<path class="st11" d="M-179.9,346c0.4,5.1,0.5,10.2,0.2,15.3c-0.5,6.2-2.7,9.4-2,18.2c0.7,8.9,5.7,36.5,5.7,42.1s-1.5,16.8,0.2,18
		s35.5,0,35.5,0h5.9c0,0,1.5-1.2-1.5-4s-16-5.7-20.7-9.4c-2.5-1.9-4.7-4-6.7-6.4c0,0,2.7-35,2.7-45.3s1.2-19.7,1.5-24.4
		s0.2-5.9,0.2-5.9L-179.9,346z"/>
	<path class="st12" d="M-195.9,289.4c0,0,1.7,18.5,2,24.9c0.3,6.4,1,31.5,1,31.5s10.1,4.7,20.9,5.2c10.8,0.5,25.4-3.5,25.4-3.5
		s1.2-36.2,1.2-45.3v-12.1C-162,294.2-179.4,293.9-195.9,289.4z"/>
	<path class="st11" d="M-198.8,281.2l-0.2,9.4c10.3,4.7,21.5,7.1,32.8,7.1c18.7,0,26.4-5.4,26.4-5.4l-2.3-10.1
		C-142.2,282.2-180.7,286.2-198.8,281.2z"/>
	<path class="st13" d="M-131.6,201.3c0,0,3.1-8.1,3.1-12.2s1.8-7.9,3.7-9.2s8.5-3.4,8.5-3.4l1.8,17.9c0,0-8.7,7.3-10.2,8.9
		c-1,1-1.9,2.1-2.8,3.3L-131.6,201.3z"/>
	<polygon class="st12" points="-119,168.7 -118.8,193.3 -93.6,200.7 -87.2,198.4 -86.4,169.9 -110.6,168.1 	"/>
	<polygon class="st11" points="-105.1,170.4 -104.9,197.2 -93.6,200.7 -94.1,171.5 	"/>
	<polygon class="st11" points="-93.6,200.7 -87.2,198.4 -86.4,169.9 -110.6,168.1 -119,168.7 -94.6,171.7 	"/>
	<line class="st5" x1="-94.1" y1="171.5" x2="-86.4" y2="169.9"/>
	<path class="st11" d="M-96.4,176.5c0,1.8-1.5,3.3-3.3,3.3c-1.8,0-3.3-1.5-3.3-3.3c0-1.8,1.5-3.3,3.3-3.3l0,0
		C-97.9,173.2-96.4,174.7-96.4,176.5z"/>
	<ellipse class="st11" cx="-111.9" cy="181.7" rx="5.5" ry="9.2"/>
	<line class="st5" x1="-92.7" y1="169.3" x2="-113.9" y2="161.4"/>
	<rect x="-100.5" y="181.5" class="st11" width="1.7" height="15"/>
	<path class="st13" d="M-128.6,191.7c0,0,0.6-9,1.2-10.6c0.6-1.6,8.1-6.5,9-7.7s2.8,1.4,1.4,3.3s-4.7,5.7-4.7,5.7s2.2,9.4-2,12.4"/>
	<polygon class="st13" points="-137.3,205.3 -130.8,198.8 -125.1,205.5 -130.4,212.1 	"/>
	<path class="st14" d="M-147.3,211c0,0,9-7.7,10.6-6.9s9.2,6.1,8.4,8.7c-0.8,2.6-15.7,17.3-18.1,18.3S-147.3,211-147.3,211z"/>
	<path class="st15" d="M-176.8,158.8c0,0-10.8,13.6-13.8,28.1c-3,14.5-0.5,36.5-1.5,42.9c-1,6.4-2.5,30.5-3.9,34.2
		c-1.5,3.7-6.7,11.1-5.2,14.3c1,2,2.2,4,3.7,5.7c0,0,5.9,3.5,22.7,3.5s25.1,0,28.6-1.7s3.9,0.2,5.4-3.2s2.2-3.9,1-9.1
		s-4-11.1-4-16.8s0-41.9-2.5-56.4s-1.7-20-4.2-23.6s-12.3-9.1-17.5-13.3C-173.2,159.1-176.8,158.8-176.8,158.8z"/>
	<path class="st11" d="M-173.4,155.2c0,0,18.7,15.3,20,16.2s3,5.2,3,5.2l-10.6,4.7c0,0-12.3-17-14.8-19.2l-2.5-2.2
		C-178.2,159.9-176.6,153.4-173.4,155.2z"/>
	<path class="st12" d="M-156.8,423.9c-1.3,5.5-2,11.1-2,16.8h26.6c0,0,2.7-2.7-2-6.9S-156.8,423.9-156.8,423.9z"/>
	<polygon class="st12" points="-132.1,440.6 -132.1,444.1 -181.7,444.1 -181.7,439.9 	"/>
	<path class="st13" d="M-111.1,205.7c0,0,4.1-2.6,4.3-5.1s0-7.9,1.4-10s4.3-5.3,5.1-6.9s2-2.8,2.4-0.4s0.4,3.3-1,4.7
		c-0.8,0.8-1.5,1.8-2,2.9c0,0,9.8-5.7,11.8-7.3s3.9-2.2,3.9-0.2s-1.6,2.4-3.1,3.9c-1.9,1.7-3.8,3.3-5.9,4.7
		c-0.6,0.4-0.6,1.4,1.6,0.8s7.5-4.7,8.5-5.5s1.8-0.6,1.6,1.2s-1.8,3.5-3,4.7s-5.9,5.1-5.9,5.1s0.4,1.8,1.8,0.4
		c1.9-1.6,4-3.1,6.1-4.5c0,0,1.6-0.8,1.8,0.6s-0.8,2.8-2.4,3.9s-4.1,4.7-5.9,6.3s-10.6,3.5-11.4,3.9s-5.1,3.5-5.1,3.5L-111.1,205.7z
		"/>
	<polygon class="st13" points="-117,208.2 -110.4,204.3 -104.5,213.3 -110.9,218.2 	"/>
	<path class="st14" d="M-175.6,176.4c0,0-7.9,2.4-8.1,13.2c-0.2,10.8,5.1,17.3,5.9,18.1c0.8,0.8,30.1,34,32.8,35.4
		c2.3,1.4,5,1.6,7.5,0.6c3-1,26.1-22.2,27.5-23.6s-1.2-5.1-3.1-8.4s-6.3-4.3-8.6-3.1s-16.9,10-16.9,10s-15.5-22.6-21.2-30.1
		s-6.5-9.2-10.6-9.8"/>
	<path class="st12" d="M-175.1,130.3c0,0-0.2,8.9-3.4,12.6s-5.7,3.4-5.7,3.4s-0.7,4.4,2.5,5.7c3.2,1.2,5.7-1.5,5.7-1.5
		s1,0.7-0.2,2.7c-0.6,1.1-1.5,2-2.5,2.7c0.5,1.4,2,2.1,3.4,1.7c2.6-0.7,5.4-4.4,5.4-4.4s-1.5,2,2,3.4c3.5,1.4,5.7,0.5,5.7,0.5
		c-0.8-2.7-1.2-5.5-1.2-8.4c0-4.7,1-11.3,4.2-11.6s10.6,1.5,11.6-1.7c0.6-1.7,0.9-3.4,1-5.2L-175.1,130.3z"/>
	<path class="st11" d="M-135.7,137.9c0,0,0.5,5.2,2,6.4s2.7,1.5,1.2,2.2c-1.5,0.6-3.1,1-4.7,1.2c-0.2,3-1.1,6-2.5,8.6
		c-2.5,5.2-5.6,8.9-8.1,7.1s-7.9-5.2-10.4-11.6c-2.5-6.4-1.2-8.4-1.2-8.4s-4-1.7-4-4.9s2.6-7.5,5.3-5.5c1.5,1,2.5,2.5,2.8,4.3
		c0,0,5.7,1.2,6.2-2.2c0.2-1.4,0.4-2.8,0.5-4.2l12.3,0.7L-135.7,137.9z"/>
	<path class="st2" d="M-139.1,139.7c0,1.1-0.5,2-1,2c-0.5,0-1-0.9-1-2s0.5-2,1-2C-139.5,137.7-139.1,138.5-139.1,139.7z"/>
	<path class="st5" d="M-140.4,150.8c-2.2-0.1-4.1-1.3-5.2-3.2"/>
	<path class="st11" d="M-175.1,130.3l40.2,3.9c0,0,0.7-12.6-1.2-17.7s-9.6-11.1-18-10.8c-8.4,0.2-17.5,3.7-19,8.6
		C-174.7,119.2-175.1,130.3-175.1,130.3z"/>
	<path class="st11" d="M-135,134.2l15.3,3c-3.5,1.7-7.2,2.7-11.1,3c-5.7,0.2-13.6-6.6-13.6-6.6L-135,134.2z"/>
</g>
<g id="freepik--Floor--inject-207">
	<line class="st5" x1="12.3" y1="471.9" x2="490.4" y2="471.9"/>
</g>
<g>
	<path class="st16" d="M182.4,150.4h5.2v2.5h-8.4V137h3.2V150.4z"/>
	<path class="st16" d="M199.4,149.9H193l-1,3h-3.3l5.7-15.9h3.7l5.7,15.9h-3.4L199.4,149.9z M198.5,147.3l-2.3-6.6l-2.3,6.6H198.5z"
		/>
	<path class="st16" d="M209,137v9.8c0,1.1,0.3,1.9,0.8,2.5c0.6,0.6,1.3,0.9,2.4,0.9c1,0,1.8-0.3,2.4-0.9c0.6-0.6,0.8-1.4,0.8-2.5
		V137h3.2v9.8c0,1.3-0.3,2.5-0.9,3.4c-0.6,0.9-1.4,1.6-2.3,2.1c-1,0.5-2.1,0.7-3.3,0.7c-1.2,0-2.3-0.2-3.2-0.7
		c-1-0.5-1.7-1.2-2.3-2.1c-0.6-0.9-0.8-2.1-0.8-3.4V137H209z"/>
	<path class="st16" d="M235.3,152.9h-3.2l-7.2-10.9v10.9h-3.2V137h3.2l7.2,10.9V137h3.2V152.9z"/>
	<path class="st16" d="M248.4,138c1.3,0.7,2.2,1.6,2.9,2.8s1,2.6,1,4.2c0,1.6-0.3,3-1,4.2c-0.7,1.2-1.7,2.1-2.9,2.8
		c-1.3,0.7-2.7,1-4.4,1h-5.5V137h5.5C245.7,137,247.2,137.3,248.4,138z M247.8,148.8c0.9-0.9,1.4-2.2,1.4-3.8s-0.5-2.9-1.4-3.9
		s-2.2-1.4-3.9-1.4h-2.3v10.5h2.3C245.6,150.2,246.9,149.7,247.8,148.8z"/>
	<path class="st16" d="M263,152.9l-3.5-6.2H258v6.2h-3.2V137h6c1.2,0,2.3,0.2,3.1,0.6c0.9,0.4,1.5,1,1.9,1.8
		c0.4,0.7,0.6,1.6,0.6,2.5c0,1-0.3,2-0.9,2.8c-0.6,0.8-1.5,1.4-2.7,1.7l3.8,6.4H263z M258,144.3h2.7c0.9,0,1.5-0.2,1.9-0.6
		c0.4-0.4,0.6-1,0.6-1.7c0-0.7-0.2-1.3-0.6-1.7c-0.4-0.4-1.1-0.6-1.9-0.6H258V144.3z"/>
	<path class="st16" d="M282,137l-5.4,10.3v5.5h-3.2v-5.5L268,137h3.6l3.4,7.3l3.4-7.3H282z"/>
	<path class="st16" d="M306.6,137v15.9h-3.2v-10.3l-4.3,10.3h-2.4l-4.3-10.3v10.3h-3.2V137h3.6l5,11.8l5-11.8H306.6z"/>
	<path class="st16" d="M313,152c-1.2-0.7-2.2-1.7-3-2.9c-0.7-1.2-1.1-2.6-1.1-4.2c0-1.5,0.4-2.9,1.1-4.2s1.7-2.2,3-2.9
		c1.2-0.7,2.6-1,4.1-1c1.5,0,2.9,0.3,4.1,1c1.2,0.7,2.2,1.7,2.9,2.9c0.7,1.2,1.1,2.6,1.1,4.2c0,1.6-0.4,3-1.1,4.2
		c-0.7,1.2-1.7,2.2-2.9,2.9c-1.2,0.7-2.6,1-4.1,1S314.2,152.7,313,152z M319.6,149.5c0.7-0.4,1.3-1,1.7-1.9c0.4-0.8,0.6-1.7,0.6-2.8
		s-0.2-2-0.6-2.8c-0.4-0.8-1-1.4-1.7-1.8c-0.7-0.4-1.6-0.6-2.5-0.6c-1,0-1.8,0.2-2.5,0.6s-1.3,1-1.7,1.8c-0.4,0.8-0.6,1.7-0.6,2.8
		s0.2,2,0.6,2.8c0.4,0.8,1,1.4,1.7,1.9s1.6,0.6,2.5,0.6C318,150.2,318.9,150,319.6,149.5z"/>
	<path class="st16" d="M336.5,152.9l-5.8-7.1v7.1h-3.2V137h3.2v7.1l5.8-7.1h3.8l-6.6,7.9l6.7,8H336.5z"/>
	<path class="st16" d="M345.8,150.4h5.2v2.5h-8.4V137h3.2V150.4z"/>
	<path class="st16" d="M356.2,139.6v4h5.3v2.5h-5.3v4.2h6v2.6h-9.2V137h9.2v2.6H356.2z"/>
	<path class="st16" d="M376,137v2.6h-4.2v13.3h-3.2v-13.3h-4.2V137H376z"/>
</g>
<text transform="matrix(1 0 0 1 405.62 -47.4476)" class="st16" style="font-family:'Poppins-SemiBold'; font-size:22.745px;">LAUNDRY MOKLET</text>
<g id="freepik--character-2--inject-207">
	<path class="st11" d="M258.5,252.5c0,0-7.5,20.8-7.5,25.3s-0.2,37,0,42.8s-0.2,7.2,0,10.8s5.2,10.8,5.8,11.5s5,0.2,6-0.8
		s-0.2-2.8-0.2-2.8s1.8-0.8,2-2c0.1-0.8-0.2-1.7-0.8-2.2c0,0,2-2,0.8-3.5c-0.7-0.9-1.9-1.4-3-1.2c0,0,2-4.8,1.5-7.8s-1.2-6-1.2-6
		s10.2-53.8,10.8-55.5l0.5-1.8v-2.5L258.5,252.5z"/>
	<path class="st11" d="M255.2,323.5c0,0-1.8,8.2-1,9.8s4.2,6.5,6,6.8s2-1.5,1-3.5s-1.8-4-1.8-4c1.8-2.5,2.3-5.8,1.2-8.8"/>
	<polygon class="st11" points="312.2,388.7 325,456.7 340,456.7 342.2,387.5 	"/>
	<path class="st15" d="M340,456.7c0,0,0.8-6.2-3.8-8.8s-11,0-11,1.8c-0.1,1.7-0.2,3.3-0.5,5c0,0-3.5,6.2-5,9.8s1.8,6.5,3.5,7
		s19,0,19,0s3.8-1.5,3-5c-0.3-1.6-0.7-3.2-1.2-4.8L340,456.7z"/>
	<path class="st11" d="M344.9,469c-1.8,0.2-6.5,0.5-6.5,0.5s-4.5-4.8-6-4.5s-5.5,5-5.5,5h-6c0.6,0.7,1.4,1.2,2.3,1.5
		c1.8,0.5,19,0,19,0C343.4,471,344.3,470.1,344.9,469z"/>
	<rect x="325.7" y="454.5" class="st11" width="13" height="5.2"/>
	<path class="st11" d="M274.5,386.2c0,0,2.5,30.2,5,43.2S283,449,283,449s-2.8,4.2-3.5,5.2c-0.5,0.7-1.1,1.2-1.8,1.8
		c0,0-11.8,6.5-14.8,8.2s-4.5,3.8-3.5,5.8s4.2,2,5.5,2h33.5c1.5-1.9,2.3-4.3,2.2-6.8c-0.2-3.8-1-5-1-5s1.8-3,1.2-5.2
		c-0.2-1.1-0.7-2.2-1.5-3c0,0,2.5-51.8,2.5-56.8v-11.8h-27.7L274.5,386.2z"/>
	<path class="st15" d="M300.7,465.2c-0.2-3.8-1-5-1-5s1.8-3,1.2-5.2c-0.2-0.9-0.5-1.7-1-2.5c-4,2.3-12.5,2.7-12.5,2.7
		c0.3-1.8,0.1-3.7-0.5-5.5c-1-3.5-4-0.8-4-0.8s-2.8,4.2-3.5,5.2c-0.5,0.7-1.1,1.2-1.8,1.8c0,0-11.8,6.5-14.8,8.2s-4.5,3.8-3.5,5.8
		s4.2,2,5.5,2h33.5C300,470.1,300.8,467.7,300.7,465.2z"/>
	<path class="st11" d="M280.5,454.2c1.5,0.5,2.8,1.3,3.8,2.5c0.7,1,1.4,2.1,2,3.2l-6.8,3c0,0-3-4-4.8-4.8
		C274.7,458.2,278.5,453.7,280.5,454.2z"/>
	<path class="st11" d="M294.7,468c-3.2,1-27.2,1.2-28.8,1s-1-2.5-1.8-4c-0.5-0.9-2.3,0.1-3.6,1c-1.4,1.3-1.8,2.7-1.1,4
		c1,2,4.2,2,5.5,2h33.5c1.5-1.9,2.3-4.3,2.2-6.8C298.7,465,298,467,294.7,468z"/>
	<path class="st11" d="M261.5,315.5c0,0-2,25.2-2,32.5s-0.5,37.8-0.5,37.8c6.4,2.1,13,3.5,19.8,4c9.8,0.5,22.2-1.8,22.2-1.8
		c4.4,2.6,9.2,4.3,14.2,5c7.5,0.8,24-0.8,26-1.5s7.5-2.8,7.5-2.8l0.8-69.5L298.2,304L261.5,315.5z"/>
	<line class="st5" x1="301" y1="388" x2="300.7" y2="345"/>
	<path class="st12" d="M303.7,203.5c0,0-10.8,3.5-20.5,7.8s-14.2,6.8-19.8,18.5S252.7,251,252.7,251l16.5,9.8l-10.5,55l23.8,19.5
		l8.2-6.8l11,12c0,0,16.5-6.5,22-8.5s26.8-10.8,26.8-10.8l4-66.5l-0.2-31c0,0-3.8-5-12-11s-15-9.8-22.5-11S303.7,203.5,303.7,203.5z
		"/>
	<path class="st17" d="M304.5,219.7c0,0-13.5,85-13.5,104.8"/>
	<line class="st17" x1="269.2" y1="260.7" x2="278" y2="225.7"/>
	<path class="st11" d="M300.9,201.4c0,0-4.7,5.6-6,10.3s-4.3,5.9-1.1,6.1s14.8-1.4,17.1-0.2s10.3,9.3,12.2,8.3s2.4-5,3.6-8.9
		s-0.9-11.5-5.8-15.3S307.3,196.6,300.9,201.4z"/>
	<path class="st11" d="M304.8,202.1c0,0-1,16.1,1,16.1s14.2-14.4,14.2-14.4L304.8,202.1z"/>
	<path class="st12" d="M304.8,202.1c0,0-0.1,2.2-0.2,4.9c2.8,2,6.2,3,9.7,2.7l0.5-0.1c2.8-3.1,5.1-5.8,5.1-5.8L304.8,202.1z"/>
	<path class="st11" d="M304.5,175.2c0,0-1.2-5.1-4.1-1s1.4,10.6,1.4,10.6L304.5,175.2z"/>
	<path class="st18" d="M306.4,163c0,0-2.9-0.4-2.9,3.4c0.1,2.6,0.4,5.2,1.1,7.8l4.4-10.8l-1.8-0.2"/>
	<path class="st13" d="M307.1,160.6c0,0-6.7,26.6-6.5,30.3s4.3,12.6,11,12.6s15-2,17.7-5.7s8.6-17.3,10.2-21.6s1.8-9.8-1.8-14.6
		s-17.3-5.7-22.8-5.1C311.9,156.7,309.1,158.2,307.1,160.6z"/>
	<path class="st19" d="M306.4,163l30.7-1.6c0,0,1.2-0.4,1.8-2.8s-7.5-7.9-18.5-9.6s-18.3,1.6-17.5,7.5S306.4,163,306.4,163z"/>
	<path class="st11" d="M338.2,181.9c0,0,5.5-2,6.3,2.4s-3.1,6.3-5.9,6.9s-4.1-0.4-4.1-0.4L338.2,181.9z"/>
	<path class="st19" d="M338.8,161.8c0,0-0.3,0.2-0.6,0.4c-1.2,0.9-3.7,3-3.3,4.5c0.9,3.1,1.4,6.2,1.8,9.4c0,1.8-5.5,15.5-7.5,16.5
		c-1.2,0.6-2.4,1-3.7,1.2c-0.5-2.7-1.5-5.3-3.2-7.5c-0.7-0.8-1.6-1.3-2.5-1.7c0,0-3.3,2.9-6.1,1.6c-2.6-1.2-2-5.5-2-5.5
		s-6.7,2.8-8.9,4.7s-3.7,4.3-3.7,9.8s7.9,13.2,16.1,12.4s14-3.1,16.5-8.9s7.3-17.5,8.6-20.4s3.1-6.9,2.6-10.4
		S338.8,161.8,338.8,161.8z"/>
	<path class="st3" d="M316.2,174.4c0,0.8-4.5,6.3-4.5,6.3"/>
	<line class="st3" x1="312.5" y1="177.6" x2="307.7" y2="178.2"/>
	<path class="st3" d="M320.3,178.5c0,0,3.1,2.8,5.5,3"/>
	<path class="st3" d="M309.9,168.3c0,0,2.6-3.5,7.1,0"/>
	<path class="st3" d="M322.7,170.1c0,0,6.7-0.8,7.3,6.3"/>
	<path class="st2" d="M324.2,175.6c-0.4,1-1.1,1.7-1.7,1.5s-0.7-1.2-0.3-2.2s1.1-1.7,1.7-1.5S324.5,174.6,324.2,175.6z"/>
	<path class="st2" d="M312.9,172.8c-0.4,1-1.1,1.7-1.7,1.5s-0.7-1.2-0.3-2.2s1.1-1.7,1.7-1.5S313.3,171.8,312.9,172.8z"/>
	<path class="st5" d="M308.3,187.8c0,0,2.6,3.5,10.4,3.1"/>
	<path class="st11" d="M315,306.2c-2.4,1.1-4.7,2.4-6.9,3.8c-1.4,1.1-5.2,3.7-5.6,4.8s2,1.6,3.2,1.1c1.1-0.6,2.2-1.2,3.3-1.9
		l2.5-0.4l5.6-6.7C317.1,306.9,317,306.1,315,306.2z"/>
	<path class="st11" d="M348.8,263l2.8,12c0,0-5.5,3-13,12c-4.4,5.4-9.3,10.4-14.5,15c0,0-1.6,2.2-6.6,3.4s-8.1,8.5-9.6,10.8
		s-2.3,4.3-1.3,4.6s3.2-1.3,3.2-1.3s-0.8,3,1.2,2.8c1.2-0.2,2.3-1.1,2.8-2.2c0,0-0.1,4.4,2.4,2.4s1.6-1.4,1.6-1.4s0.4,2.8,2.2,1
		s6.3-5.3,6.3-5.3s3.5-2,4.2-4.5c0.5-1.6,1.5-3.1,2.8-4.2c0,0,21.5-12.3,27.2-16.8s10.1-12.7,10.9-14s-4.8-21.5-4.8-21.5L348.8,263z
		"/>
	<path class="st5" d="M309.7,319.5c0,0,4.8-9,7-10"/>
	<path class="st5" d="M313.7,320c0,0,3.8-7,6.9-9"/>
	<path class="st5" d="M317.8,321c0,0,2.9-5.7,6.2-7.4"/>
	<path class="st12" d="M350.2,219.7c0,0,5.8,3.2,8.2,8s13.5,30.1,13.5,30.1l-25.2,9l-5.5-17.8"/>
	<polyline class="st17" points="336.6,242.5 344.2,266.8 349.4,265.1 	"/>
</g>
<g id="freepik--Table--inject-207">
	<path class="st11" d="M345.5,288H311c-7.8,0-14.1-1.2-14.1,2.4s1,4.4,3.9,4.4h51.2c0,0,4.9,0,4.9-3.6S349,288,345.5,288z"/>
	<path class="st9" d="M345.5,294.4H311c-7.8,0-14.1-1.2-14.1,2.4s1,4.4,3.9,4.4h51.2c0,0,4.9,0,4.9-3.6S349,294.4,345.5,294.4z"/>
	<path class="st11" d="M345.5,300.7H311c-7.8,0-14.1-1.2-14.1,2.4s1,4.4,3.9,4.4h51.2c0,0,4.9,0,4.9-3.6S349,300.7,345.5,300.7z"/>
	<path class="st9" d="M345.5,307.1H311c-7.8,0-14.1-1.2-14.1,2.4s1,4.4,3.9,4.4h51.2c0,0,4.9,0,4.9-3.6S349,307.1,345.5,307.1z"/>
	<path class="st11" d="M282.4,286.2c2.5,1.2,4.5,3.2,5.7,5.7c1.3,3.2,2.3,6.4,3,9.8c0,0,9,0,9.2,3.4s-0.8,4.8-2.7,6.4
		c-2,1.4-4.4,2-6.8,1.9c-0.8-0.3-12.5-0.5-12.5-0.5l0.3-25.5C278.6,287.3,280.2,284,282.4,286.2z"/>
	<path class="st11" d="M255.8,282.1c0,0-4.1,1.4-9.2,8.1s-1.9,20.9,0,22.6s37-1.1,37-1.1S286,306,286,296s-6.3-14.7-15.2-16
		C261.8,278.6,255.8,282.1,255.8,282.1z"/>
	<ellipse class="st11" cx="268" cy="278.7" rx="17.1" ry="16.3"/>
	<ellipse class="st11" cx="267.9" cy="288.9" rx="7.5" ry="6.7"/>
	<ellipse class="st12" cx="267.7" cy="291.9" rx="2.7" ry="2"/>
	<ellipse class="st2" cx="260.9" cy="279.6" rx="1.4" ry="2.2"/>
	<path class="st2" d="M276.1,279.6c0,1.2-0.6,2.2-1.4,2.2s-1.4-1-1.4-2.2s0.6-2.2,1.4-2.2S276.1,278.4,276.1,279.6z"/>
	<path class="st11" d="M252,277.9c1.4-3.1,3.3-6,5.6-8.6c-1.1-3.5-4.8-5.5-8.3-4.4s-5.5,4.8-4.4,8.3c0.9,2.8,3.4,4.7,6.4,4.7
		C251.5,277.9,251.8,277.9,252,277.9z"/>
	<circle class="st11" cx="251.3" cy="271.3" r="3.7"/>
	<path class="st11" d="M282.1,277.9c-1.4-3.1-3.3-6-5.6-8.6c1.1-3.5,4.8-5.5,8.3-4.4s5.5,4.8,4.4,8.3c-0.9,2.8-3.4,4.7-6.4,4.7
		C282.5,277.9,282.3,277.9,282.1,277.9z"/>
	<path class="st11" d="M279.1,271.3c0-2,1.6-3.7,3.7-3.7s3.7,1.6,3.7,3.7c0,2-1.6,3.7-3.7,3.7S279.1,273.3,279.1,271.3L279.1,271.3z
		"/>
	<path class="st11" d="M267.4,303.1h21.2c0,0,4.1-11.4,10.1-8.2s2.2,18.5,2.2,18.5h-43.5"/>
	<path class="st11" d="M300.3,305.1c0,3.5-1.2,6.4-2.7,6.4s-2.7-2.9-2.7-6.4s1.2-6.4,2.7-6.4S300.3,301.6,300.3,305.1z"/>
	<path class="st11" d="M257.4,303.1h21.2c0,0,4.1-11.4,10-8.2c5.9,3.3,2.2,18.5,2.2,18.5h-43.4"/>
	<path class="st11" d="M290.3,305.1c0,3.5-1.2,6.4-2.7,6.4s-2.7-2.9-2.7-6.4s1.2-6.4,2.7-6.4S290.3,301.6,290.3,305.1z"/>
	<path class="st11" d="M249.5,290.6c0,0-3.3,17.4-1.1,19.6s15,3.8,17.9,2.7s4.6-5.4,2.7-8.7c-1.9-3.3-8.1-6.8-8.1-6.8l-0.5-2.5"/>
	<rect x="206.6" y="296.8" class="st9" width="34.5" height="16.3"/>
	<line class="st5" x1="206.8" y1="303.3" x2="240.8" y2="303.3"/>
	<path class="st11" d="M364.5,308c0,0,1.9-21.5,5.7-22s15.5-2.2,18.2,0.5s6.2,20.9,6.2,20.9s-4.1,3.2-14.1,3.5S364.5,308,364.5,308z
		"/>
	<path class="st12" d="M394.6,307.4c0,0-0.8-4.3-2-9h-27c-0.8,5-1.2,9.5-1.2,9.5s6,3.3,16,3S394.6,307.4,394.6,307.4z"/>
	<path class="st11" d="M400.1,302.8c0,0-5.4,5.7-17.7,5.7s-14.1,1.4-22-4.9s-6.8-4.4-5.2,0s6.5,8.7,18.2,9.8s26.1-3.3,31.3-9
		S408.5,296.8,400.1,302.8z"/>
	<rect x="202.2" y="336" class="st9" width="5.3" height="133.3"/>
	<path class="st12" d="M199.5,462h10.7l0,0v7.7c0,1.3-1,2.3-2.3,2.3h-6c-1.3,0-2.3-1-2.3-2.3L199.5,462L199.5,462z"/>
	<rect x="407.4" y="336" class="st9" width="5.3" height="133.3"/>
	<path class="st12" d="M404.7,462h10.7l0,0v7.7c0,1.3-1,2.3-2.3,2.3h-6c-1.3,0-2.3-1-2.3-2.3L404.7,462L404.7,462z"/>
	<path class="st15" d="M417.2,313h-218c0,0-3.4,0-1.7,5.5s-4.6,39-5.4,47.8s-1.3,16.8-1.3,16.8s3.8,3.4,12.2,2.9s25.6-4.6,34.8-2.9
		s65.4,6.7,80.9,6.7s35.6-0.4,48.6-2.5s28.9-3.4,34.8-3.8s20.1,1.3,20.1,1.3s-2-52.5-3.4-64.6C418.4,316.3,420.5,314.2,417.2,313z"
		/>
	<line class="st5" x1="207.7" y1="320.1" x2="204.3" y2="349.2"/>
	<line class="st5" x1="210.5" y1="323.2" x2="211.2" y2="343.6"/>
	<line class="st5" x1="211.5" y1="347.1" x2="211.9" y2="354"/>
	<line class="st5" x1="267" y1="318.3" x2="267" y2="344.7"/>
	<line class="st5" x1="269.4" y1="369" x2="269.5" y2="374.9"/>
	<line class="st5" x1="269.1" y1="319.7" x2="269.4" y2="362.7"/>
	<line class="st5" x1="412.4" y1="318" x2="412.7" y2="343.6"/>
	<line class="st5" x1="408.9" y1="318.3" x2="407.2" y2="332.2"/>
	<line class="st5" x1="416.5" y1="328" x2="417.2" y2="336.4"/>
</g>
<g id="freepik--character-2--inject-148">
	<path class="st2" d="M164.7,428.7c-3.4,3.1,0,18.3,0.9,20.5s12.5,12.4,10.7,15.5c-1.1,1.7-1.4,3.7-1.1,5.6c0,0-4.2,3.6-14.1,1.8
		s-16-18.2-17.9-19.6s-7.5-10.8-7.5-10.8c2.1-4.3,13.2-19,13.2-19S168.1,425.6,164.7,428.7z"/>
	<path class="st2" d="M98.3,447.9c-2.4,4.4-3.8,24.8-3.8,24.8l5.3,3.3h3.2c3.2,0,7.6,4.4,7.6,4.4c14.4,2.8,28.5-1.9,28.5-1.9
		s0.2-6.5,0-9.8s-12-3-16.4-6.6s-4.5-18.8-4.5-18.8S100.6,443.6,98.3,447.9z"/>
	<path class="st11" d="M162,233.3c0,0,15.9,22.9,22.7,17.2s5.5-34.4,5.5-34.4L162,233.3z"/>
	<path class="st11" d="M181.9,195.2c0,0,0.3,26.6,4,26.6s3.4-2.9,3.4-2.9c1.2,0,2.4-0.2,3.6-0.6c0.6-0.4,0.8-4,0.8-4
		s2.5-0.2,3.5-1.8s-1.4-5.7-1.4-5.7s3.1-1.4,2.9-2.8s-2.9-4.5-2.9-4.5L181.9,195.2z"/>
	<path class="st0" d="M98.8,283.2c0,0-2.8,7.7-3.6,21.1s0.8,61.7-1.2,68.3s-0.3,53,0.8,67s-2.4,11.3,0,14.7s21,3,25.3,0s0-4.9,0-6.3
		s4.7-64.3,7.5-68.9s8.3-47.2,8.3-47.2s16.2,26.5,21.8,38.7s-15.4,60.5-15.4,60.5s-1.6,2.1,7.9,8.5s20.6,1.1,20.6,1.1l-1.6-6.8
		c0,0,25.7-53,24.5-67.4s-36.4-80.8-36.4-80.8L98.8,283.2z"/>
	<g>
		<defs>
			<path id="SVGID_1_" d="M98.8,283.2c0,0-2.8,7.7-3.6,21.1s0.8,61.7-1.2,68.3s-0.3,53,0.8,67s-2.4,11.3,0,14.7s21,3,25.3,0
				s0-4.9,0-6.3s4.7-64.3,7.5-68.9s8.3-47.2,8.3-47.2s16.2,26.5,21.8,38.7s-15.4,60.5-15.4,60.5s-1.6,2.1,7.9,8.5s20.6,1.1,20.6,1.1
				l-1.6-6.8c0,0,25.7-53,24.5-67.4s-36.4-80.8-36.4-80.8L98.8,283.2z"/>
		</defs>
		<clipPath id="SVGID_2_">
			<use xlink:href="#SVGID_1_"  style="overflow:visible;"/>
		</clipPath>
		<g class="st20">
			<path class="st21" d="M95.3,304.3c0.8-13.5,3.6-21.1,3.6-21.1l58.5,2.6c0,0,1,2,2.8,5.3c-13.1,6.7-39.2,18.1-65.1,18.1
				C95.1,307.3,95.2,305.6,95.3,304.3z"/>
			<path class="st21" d="M114.4,443c0,0-4.2-1-2.2-6.5s12.8-41.8,6.8-38.9s-12.2-15.2-12.4-15.7c0.3,0.1,6.2,2.3,12.4-2.7
				c6.4-5.1,13.8-43.2,8.8-38.2s-14.4,6.7-14.4,6.7s-1.1-5,9.7-14.5s25.1-17.9,25.1-17.9c1.9,3.5-4.6,13.2-4.6,13.2s14.6,0.3,15,2
				s-9.6,6.5-9.6,6.5s11.6,27,24,30.2c7.4,2,15.5,1.6,20.9,1c-0.7,16.4-24.6,65.7-24.6,65.7l1.6,6.8c0,0-11.1,5.3-20.6-1.1
				s-7.9-8.5-7.9-8.5s21-48.2,15.4-60.5S136,331.9,136,331.9s-5.5,42.6-8.3,47.2s-7.5,67.5-7.5,68.9c0,0.8,1.5,1.8,1.9,3.1
				c-6.5,4.8-16.5,0.3-16.5,0.3L114.4,443z"/>
		</g>
	</g>
	<path class="st5" d="M98.8,283.2c0,0-2.8,7.7-3.6,21.1s0.8,61.7-1.2,68.3s-0.3,53,0.8,67s-2.4,11.3,0,14.7s21,3,25.3,0s0-4.9,0-6.3
		s4.7-64.3,7.5-68.9s8.3-47.2,8.3-47.2s16.2,26.5,21.8,38.7s-15.4,60.5-15.4,60.5s-1.6,2.1,7.9,8.5s20.6,1.1,20.6,1.1l-1.6-6.8
		c0,0,25.7-53,24.5-67.4s-36.4-80.8-36.4-80.8L98.8,283.2z"/>
	<path class="st2" d="M157.5,280.6c0,0,5.6,6.2,0.4,7.5c-12.9,3.3-62.5,3.8-64.9,2.7s-1.2-1.3-0.8-7.7S60,228.9,59.6,218.6
		s3-18.4,7.9-21c19.9-10.6,62.3-1.3,62.3-1.3C147.6,227.6,157.5,280.6,157.5,280.6z"/>
	<path class="st11" d="M81.3,177.7c0,0,21.5-3.3,20.7,1.8c-0.3,1.9-0.5,3.9-0.4,5.8c0,2.1,0.6,4.1,1.8,5.8c1.4,2,3.8,3.1,6.3,3
		c-7.2,9.1-29,0.4-29,0.4C85.9,191.9,81.3,177.7,81.3,177.7z"/>
	<polygon class="st22" points="133.5,238.7 171.2,234 186.9,236.7 193.2,237.7 195,238 195,243.5 194.7,243.7 192.6,244.6 
		192.6,245.6 193.8,269.4 146.7,279.3 124.3,267.9 124.3,247.2 121.9,244.8 121.9,240.1 	"/>
	<g>
		<defs>
			<polygon id="SVGID_3_" points="133.5,238.7 171.2,234 186.9,236.7 193.2,237.7 195,238 195,243.5 194.7,243.7 192.6,244.6 
				192.6,245.6 193.8,269.4 146.7,279.3 124.3,267.9 124.3,247.2 121.9,244.8 121.9,240.1 			"/>
		</defs>
		<clipPath id="SVGID_4_">
			<use xlink:href="#SVGID_3_"  style="overflow:visible;"/>
		</clipPath>
		<g class="st23">
			<polygon class="st24" points="133.5,238.7 146,240.6 186.9,236.7 193.2,237.7 143.5,246.6 121.9,240.1 121.9,240.1 			"/>
			<polygon class="st25" points="144.5,252.3 194.7,243.7 192.6,244.6 192.6,245.6 145.3,255.3 124.3,254.6 124.3,247.2 
				121.9,244.8 121.9,244.7 			"/>
		</g>
	</g>
	<polygon class="st5" points="133.5,238.7 171.2,234 186.9,236.7 193.2,237.7 195,238 195,243.5 194.7,243.7 192.6,244.6 
		192.6,245.6 193.8,269.4 146.7,279.3 124.3,267.9 124.3,247.2 121.9,244.8 121.9,240.1 	"/>
	<polyline class="st5" points="125.1,242 143.4,246.6 189.2,239.2 	"/>
	<polyline class="st5" points="121.9,244.8 144.5,252.3 194.9,243.5 	"/>
	<line class="st5" x1="145.3" y1="254.5" x2="146.7" y2="277.5"/>
	<polygon class="st0" points="149.6,168.3 199.4,181 199.6,189.5 197.1,190.6 193.8,210.4 193.8,210.6 179.1,210.6 126.4,203.1 
		126.4,202.9 127.1,189.7 127.4,184.7 124.3,182.5 124.3,175.3 	"/>
	<g>
		<defs>
			<polygon id="SVGID_5_" points="149.6,168.3 199.4,181 199.6,189.5 197.1,190.6 193.8,210.4 193.8,210.6 179.1,210.6 126.4,203.1 
				126.4,202.9 127.1,189.7 127.4,184.7 124.3,182.5 124.3,175.3 			"/>
		</defs>
		<clipPath id="SVGID_6_">
			<use xlink:href="#SVGID_5_"  style="overflow:visible;"/>
		</clipPath>
		<g class="st26">
			<polygon class="st25" points="124.3,182.3 148.1,177 199.6,189.5 197.1,190.6 148.1,179.8 127.1,189.7 127.4,184.7 124.3,182.5 
							"/>
			<path class="st25" d="M126.4,202.9l17.9-4.5c0,0,39.2,9.3,49.5,11.9v0.2h-14.7l-52.7-7.5L126.4,202.9z"/>
		</g>
	</g>
	<polygon class="st5" points="149.6,168.3 199.4,181 199.6,189.5 197.1,190.6 193.8,210.4 193.8,210.6 179.1,210.6 126.4,203.1 
		126.4,202.9 127.1,189.7 127.4,184.7 124.3,182.5 124.3,175.3 	"/>
	<polyline class="st5" points="124.3,182.5 148.1,177 194.9,189.5 	"/>
	<polyline class="st5" points="129.8,202.1 145.3,198.3 191,209.7 	"/>
	<line class="st5" x1="148.1" y1="180.7" x2="145.3" y2="198.3"/>
	<polygon class="st0" points="138,201.7 189,209.5 189.2,214.6 189.2,214.7 186.5,215.6 187.5,235.5 138.2,237.6 121.3,235.7 
		121.5,220.7 121.6,213.5 118.9,213.5 118.9,208.2 	"/>
	<g>
		<defs>
			<polygon id="SVGID_7_" points="138,201.7 189,209.5 189.2,214.6 189.2,214.7 186.5,215.6 187.5,235.5 138.2,237.6 121.3,235.7 
				121.5,220.7 121.6,213.5 118.9,213.5 118.9,208.2 			"/>
		</defs>
		<clipPath id="SVGID_8_">
			<use xlink:href="#SVGID_7_"  style="overflow:visible;"/>
		</clipPath>
		<g class="st27">
			<polygon class="st28" points="138,201.7 189,209.5 189.2,214.6 189.2,214.7 186.5,215.6 187.5,235.5 138.2,237.6 121.3,235.7 
				121.5,220.7 121.6,213.5 118.9,213.5 118.9,208.2 			"/>
			<polygon class="st29" points="118.9,213.1 137.8,209 189.2,214.6 189.2,214.7 186.5,215.6 138.8,211.9 121.5,220.7 121.6,213.5 
				118.9,213.5 			"/>
		</g>
	</g>
	<polygon class="st5" points="138,201.7 189,209.5 189.2,214.6 189.2,214.7 186.5,215.6 187.5,235.5 138.2,237.6 121.3,235.7 
		121.5,220.7 121.6,213.5 118.9,213.5 118.9,208.2 	"/>
	<polyline class="st5" points="121.9,212.1 137.8,209 185.9,214.2 	"/>
	<line class="st5" x1="138.8" y1="235.7" x2="138.8" y2="213.1"/>
	<g class="st30">
		<path class="st17" d="M76.7,221.7c3.2-2.3,13.1-3.7,13.6-2.8s0,2.8,0,2.8"/>
		<path class="st17" d="M73.7,209.7c5.6,0.2,10.9,2.6,14.8,6.6"/>
		<path class="st17" d="M88.5,198.3c12.8,4.9,24.8,0,24.8,0"/>
		<path class="st17" d="M99,266c14.6,17.3,49.9,17.9,49.9,17.9"/>
		<path class="st17" d="M84.6,231.5c9.1-3,11.5-12.9,11.5-12.9"/>
		<path class="st17" d="M109.8,245.4c8.2-8.3,9.1-29.1,9.1-29.1"/>
	</g>
	<path class="st11" d="M96.1,235.7c5.2,6.1,11.8,21.3,11.8,21.3s3.7,0.6,9.5,1.8s21.3,9.1,36.4,9.1c3.3,0,4.7-2.4,13-1.9
		c4.7,0.4,9.4-0.8,13.5-3.2c0,0,1.6,0.4,1.6,3.2c0,2.8-7,4.8-7,4.8c2.6,0.3,5.6,0.2,8.1,0.9c-0.2,1-0.6,2-1.3,2.8
		c-1.6,1-3.2,1.8-5,2.4c-0.4,0.1-1.8,1.4-2.2,1.6c-1.6,0.8-4.7-0.7-6.1-0.2c-0.5,0.2-1.4,0.6-1.9,0.7c-1.7,0.5-4.5-0.6-6.3-0.6
		c-0.9,0-2.2,0.4-3.2,0.4c-2.4-0.1-3.4-1.1-5.8-1.2c-6.2-0.3-12.2,0.6-18.4,0.1c-11-0.8-18.8-0.6-29.8-2.2c-1.2-0.2-6-2.4-7.1-2.9
		c-3.5-1.6-23.8-37-23.8-37c3.3-6.7,9.1-11.7,16.2-14C90.2,226.8,92.8,231.5,96.1,235.7z"/>
	<path class="st5" d="M103.2,257c1.6-0.3,3.2-0.3,4.8,0"/>
	<path class="st5" d="M168.8,272.1c2-0.6,4-1.1,6.1-1.3"/>
	<path class="st5" d="M136.7,326.9c3.2-10-1.3-32.7-1.3-33.7"/>
	<path class="st5" d="M137.7,314.3c0,0-6.6-0.4-6.1-4.3s-1.1-16.9-1.1-16.9"/>
	<path class="st5" d="M99,305.1c8-3.8,13.1-16.7,13.1-16.7"/>
	<path class="st5" d="M160.1,294.2c-6.1-1.3-11.2-6.6-11.2-6.6"/>
	<path class="st5" d="M146.7,434.7c0,0,0-3.7,2.2-5s9.4-32.7,11.2-36.1s1.6-16.9,3.2-18.7s0.5-3.7-4.9-13.2s-18.9-37.4-18.9-37.4"/>
	<path class="st5" d="M137.8,330.1c7.7,3.5,24.2,1.6,24.2,1.6"/>
	<path class="st5" d="M109.8,350.3c5.1-1.7,23.1-23.4,23.1-23.4"/>
	<path class="st5" d="M114,397.6c-5.6-0.3-15-24.3-15-24.3"/>
	<path class="st5" d="M180.2,379.5c-12.1,2.6-19.3-9.6-19.3-9.6"/>
	<path class="st5" d="M165.7,434.7c-10.6,6.6-19-7.8-19-7.8"/>
	<path class="st5" d="M101.6,450.5c6.6,3.1,15.3-2.6,15.3-2.6"/>
	<path class="st2" d="M101.6,185.3c0,2.1,0.6,4.1,1.8,5.8c-6-1.4-9.8-7.9-9.8-7.9S97.5,184.1,101.6,185.3z"/>
	<path class="st11" d="M90.9,183.1c0,3.7,15.2,5.5,17.5,4.4c1.3-0.6,0-10.9,0-10.9l1.5-0.5l-0.2-4.2l4.7-0.7l-5.6-9.2
		c0,0,1.9-19.5-13-23c-29.9-6.9-20.7,28.7-14.6,37.7"/>
	<path class="st5" d="M106.7,178.9c-0.7,2.1-4.8,0.6-4.8,0.6c1.3-1.6,6.5-3,6.5-3"/>
	<path class="st5" d="M98.8,156.9c2.4-3.4,7.5-2.9,7.5-2.9"/>
	<path class="st2" d="M104.1,159.9c0.5,0,0.9,0.8,0.9,1.8s-0.4,1.8-0.9,1.8s-0.9-0.8-0.9-1.8C103.2,160.8,103.6,159.9,104.1,159.9z"
		/>
	<path class="st2" d="M92,147.8c3.3,6.1-0.4,10.4-0.4,10.4v8.3c0,0-4.3,4.3-5.6,8.6s-4.7,4.8-4.7,4.8c-9.5-5.8-14.4-30.5-9.3-35.7
		s16-7.4,16-7.4l-2.8-1.1c0,0,14.5-4.5,18.9-0.1c4.5,4.3,1.8,11.2,1.8,11.2C99.4,144.8,92,147.8,92,147.8z"/>
	<path class="st11" d="M90.5,178c-1,2-5.6-3.4-6.9-6.1s-0.6-8.5,1.8-9.5s7.1,5.3,7.1,5.3"/>
</g>
</svg>
