<?xml version="1.0" encoding="utf-8"?>
<!-- Generator: Adobe Illustrator 25.0.0, SVG Export Plug-In . SVG Version: 6.00 Build 0)  -->
<svg version="1.1" id="Layer_1" xmlns="http://www.w3.org/2000/svg" xmlns:xlink="http://www.w3.org/1999/xlink" x="0px" y="0px"
	 viewBox="0 0 650.5 698.68" style="enable-background:new 0 0 650.5 698.68;" xml:space="preserve">
<style type="text/css">
	.st0{fill:#CACACA;}
	.st1{fill:#FFB6B6;}
	.st2{fill:#00A8AB;}
	.st3{fill:#3F3D56;}
	.st4{fill:#2F2E41;}
	.st5{fill:#F2F2F2;}
	.st6{fill:#FFFFFF;}
</style>
<path class="st0" d="M143.55,282.14c-30.47-30-43.34-61.3-36.24-88.12c9.11-34.43,49.61-58.23,111.09-65.31l0.23,1.97
	c-60.63,6.98-100.5,30.25-109.4,63.84c-6.91,26.11,5.77,56.72,35.72,86.2L143.55,282.14z"/>
<path class="st0" d="M436.68,390.12c-38.27,0-79.86-5.69-121.17-16.62c-51.09-13.52-97.93-33.94-135.46-59.03l1.11-1.66
	c37.35,24.98,83.98,45.3,134.86,58.76c45.97,12.17,92.29,17.81,133.93,16.32l0.07,2C445.63,390.04,441.18,390.12,436.68,390.12z"/>
<path class="st0" d="M524.48,377.54l-0.64-1.89c34.23-11.57,55.64-30.22,61.91-53.92c7.98-30.13-9.35-65.09-48.79-98.44
	c-39.64-33.52-96.8-61.34-160.96-78.32l0.51-1.93c64.44,17.06,121.88,45.02,161.74,78.73c40.06,33.88,57.62,69.57,49.43,100.48
	C581.23,346.62,559.38,365.75,524.48,377.54z"/>
<path class="st0" d="M210.17,390.96C134.97,357.6,77.02,314.33,47,269.11l1.67-1.11c29.81,44.91,87.46,87.92,162.32,121.12
	L210.17,390.96z"/>
<path class="st0" d="M474.58,448.74c-7.76,0-15.65-0.17-23.67-0.52l0.09-2c59.86,2.59,112.68-4.57,152.76-20.72l0.75,1.86
	C569.55,441.44,524.99,448.74,474.58,448.74z"/>
<path class="st0" d="M431.87,130.49c-12.35-4.02-25.06-7.77-37.76-11.13C321,100,249.13,93.13,186.27,99.49l-0.2-1.98
	c63.1-6.38,135.21,0.51,208.56,19.93c12.74,3.37,25.48,7.13,37.87,11.16L431.87,130.49z"/>
<path class="st0" d="M93.81,285.96c-30.67-30.19-43.62-61.68-36.47-88.68c9.17-34.64,49.92-58.6,111.79-65.72l0.23,1.99
	c-61.01,7.02-101.14,30.44-110.09,64.24c-6.96,26.27,5.81,57.08,35.94,86.74L93.81,285.96z"/>
<path class="st0" d="M389.68,393.12c-38.27,0-79.86-5.69-121.17-16.62c-51.09-13.52-97.93-33.94-135.46-59.03l1.11-1.66
	c37.35,24.98,83.98,45.3,134.86,58.76c45.97,12.17,92.29,17.81,133.93,16.32l0.07,2C398.63,393.04,394.18,393.12,389.68,393.12z"/>
<path class="st0" d="M477.48,380.54l-0.64-1.89c34.23-11.57,55.64-30.22,61.91-53.92c7.98-30.13-9.35-65.09-48.79-98.44
	c-39.64-33.52-96.8-61.34-160.96-78.32l0.51-1.93c64.44,17.06,121.88,45.02,161.74,78.73c40.06,33.88,57.62,69.57,49.43,100.48
	C534.23,349.62,512.38,368.75,477.48,380.54z"/>
<path class="st0" d="M163.17,393.96C87.97,360.6,30.02,317.33,0,272.11L1.67,271c29.81,44.91,87.46,87.92,162.32,121.12
	L163.17,393.96z"/>
<path class="st0" d="M427.58,451.74c-7.76,0-15.65-0.17-23.67-0.52l0.09-2c59.86,2.59,112.68-4.57,152.76-20.72l0.75,1.86
	C522.55,444.44,477.99,451.74,427.58,451.74z"/>
<path class="st0" d="M385.17,133.47c-12.35-4.02-25.06-7.77-37.76-11.13c-73.11-19.36-144.98-26.23-207.85-19.87l-0.2-1.98
	c63.1-6.38,135.21,0.51,208.56,19.93c12.74,3.37,25.48,7.13,37.87,11.16L385.17,133.47z"/>
<path id="b6badfe4-ecf7-40b3-ab9a-d2e442646810-596" class="st1" d="M396.39,313.38l17-2l6,52l15.32,71.81
	c5.46,2.66,7.73,9.25,5.07,14.71c-2.66,5.46-9.25,7.73-14.71,5.07c-5.46-2.66-7.73-9.25-5.07-14.71c0.67-1.37,1.61-2.59,2.77-3.57
	l-15.39-42.31L396.39,313.38z"/>
<path id="eb66624a-625c-4022-aac2-7acd24895291-597" class="st1" d="M371.69,684.1h14.01l6.66-54.03h-20.67L371.69,684.1z"/>
<path id="a67f4ff8-8ebc-49ff-bea4-e9dad041920e-598" d="M368.12,697.67h45.16v-0.57c0-9.71-7.87-17.58-17.58-17.58h-27.58V697.67z"
	/>
<path id="f2666089-6ab6-4bee-94c7-c04bd8c6f398-599" class="st1" d="M264.2,676.46l13.75,2.66l16.79-51.78l-20.3-3.92L264.2,676.46z
	"/>
<path id="e202d012-54d0-4120-af29-b522f4befddf-600" d="M258.12,689.11l44.34,8.56l0.11-0.56c1.84-9.53-4.39-18.75-13.93-20.59l0,0
	l-27.08-5.23L258.12,689.11z"/>
<path id="a7799203-f10e-4175-b8b3-865436e3910e-601" d="M393.65,228.17l-8.14,15.61l-60.95-13.44l6.68-30.27
	c5.28-23.96,26.47-41.27,50.43-35.98s35.14,28.7,29.86,52.67l-9.82,30.6l-9.94-2.19L393.65,228.17z"/>
<path id="fb4efb0d-4e34-4aa4-af9b-85f1b453b517-602" d="M415.39,400.38c0,0,6,30-2,74s-10,63-10,63s6,7,2,11s0,12,0,12l-9,97l-31-5
	l4-91c0,0-4-8-2-10s-2-14-2-14l-5-95l-31,104c0,0,3,4,0,7s-9,18-9,18l-20,70l-32-6l18-80c0,0-2-5,1-8c1.78-1.86,2.52-4.48,2-7
	c0,0-3-3,1-7s6-20,6-20s3-107,13-113S415.39,400.38,415.39,400.38z"/>
<circle id="b01ade62-873d-4b0f-b59f-ba4b75076aa4" class="st1" cx="370.17" cy="206.92" r="28"/>
<path id="b558b83e-b369-42dd-8f4d-22a4c2c4f5e2-603" class="st2" d="M330.71,242.76c0,0-20.32-2.38-26.32,3.62l6,121c0,0-4,3-2,10
	c1.16,4.59,1.16,9.41,0,14c0,0-6,7-3,10s111,1,111,1s4-7-2-11s-3-15-3-15s2-3-3-8s-9-46-9-46l13-50c0,0-13.09-14.77-28.04-15.89
	L330.71,242.76z"/>
<path id="f8cef0e8-06d3-4209-b80b-8403fdc77134-604" class="st2" d="M396.89,273.07l15.49-0.69c0,0,9,18,10,34l5.51,59.69
	l-35.51,5.31L396.89,273.07z"/>
<path id="f41dbfcb-858e-4d45-9b75-6131cbc8ec95-605" d="M394.16,208.31l10.4-13.38c1.28-5.87-2.42-11.66-8.28-12.97l-39.29-8.67
	c-5.87-1.28-11.66,2.42-12.97,8.28l-0.02,0.1l2.81,16.16l0.49-0.09c24.39-4.35,31.33-2.82,46.46,10.23L394.16,208.31z"/>
<path id="ed879564-5a8c-4e9d-a096-68f5b6ab9b62-606" class="st1" d="M289.51,422.12l1.88-78.74l2-56l24,3L304.5,424.23
	c3.79,4.75,3,11.67-1.75,15.46s-11.67,3-15.46-1.75c-3.79-4.75-3-11.67,1.75-15.46l0,0C289.19,422.35,289.35,422.24,289.51,422.12
	L289.51,422.12z"/>
<path id="aaf783f1-6b30-4a3e-8412-451b817d63a0-607" class="st2" d="M321.89,248.07l-17.51-1.69c0,0-3,0-6,10
	c-3,10-19.49,115.69-19.49,115.69l36.49,3.31L321.89,248.07z"/>
<circle id="af8c7bff-6816-464a-b0a9-6a679aecd372" class="st2" cx="156.17" cy="65.03" r="45.5"/>
<path class="st3" d="M166.84,93c-25.68,0-46.5-20.82-46.5-46.5c0-25.68,20.82-46.5,46.5-46.5c25.68,0,46.5,20.82,46.5,46.5
	c0,0,0,0,0,0C213.31,72.17,192.51,92.97,166.84,93z M166.84,2c-24.58,0-44.5,19.92-44.5,44.5c0,24.58,19.92,44.5,44.5,44.5
	s44.5-19.92,44.5-44.5c0,0,0,0,0,0C211.31,21.93,191.4,2.03,166.84,2z"/>
<circle id="a60e3f6d-2e55-4ba4-880b-24129c1d171d" class="st2" cx="574.83" cy="227.42" r="31.24"/>
<path class="st3" d="M582.16,246.94c-17.81,0-32.24-14.44-32.24-32.24s14.44-32.24,32.24-32.24s32.24,14.44,32.24,32.24
	C614.38,232.49,599.96,246.91,582.16,246.94z M582.16,184.45c-16.7,0-30.24,13.54-30.24,30.24s13.54,30.24,30.24,30.24
	s30.24-13.54,30.24-30.24l0,0C612.38,198,598.85,184.47,582.16,184.45z"/>
<circle id="e41ec8f5-a87e-4b16-bc24-7a000bd09eb1" class="st0" cx="94.87" cy="334.46" r="44.91"/>
<path class="st4" d="M105.4,362.08c-25.36,0-45.91-20.56-45.91-45.91c0-25.36,20.56-45.91,45.91-45.91
	c25.36,0,45.91,20.56,45.91,45.91c0,0,0,0,0,0C151.28,341.51,130.75,362.05,105.4,362.08z M105.4,272.25
	c-24.25,0-43.91,19.66-43.91,43.91c0,24.25,19.66,43.91,43.91,43.91c24.25,0,43.91-19.66,43.91-43.91
	C149.29,291.92,129.64,272.28,105.4,272.25z"/>
<circle class="st0" cx="67.75" cy="170.34" r="8"/>
<circle class="st2" cx="478.75" cy="130.34" r="8"/>
<circle class="st0" cx="531.75" cy="414.34" r="8"/>
<polygon class="st5" points="214.06,206.86 214.06,206.86 214.06,206.86 "/>
<path class="st0" d="M173.48,201.64l0.3-1.98l39.07,5.99c-3.98-3.84-17.17-15.73-29.13-16.94c-14.29-1.44-20.57,4.68-21.4,12.92
	s4.11,15.49,18.39,16.93c12.11,1.22,27.64-8.04,32.1-10.89L173.48,201.64z"/>
<polygon class="st5" points="579.41,70.28 579.41,70.28 579.41,70.28 "/>
<path class="st0" d="M547.57,96.08l-1.2-1.59l31.35-23.67c-5.5,0.17-23.1,1.33-32.25,9.01c-10.93,9.18-10.93,17.89-5.63,24.2
	s13.88,7.81,24.81-1.37c9.26-7.78,13.43-25.26,14.48-30.41L547.57,96.08z"/>
<polygon class="st5" points="495.93,306.76 495.93,306.76 495.93,306.76 "/>
<path class="st0" d="M472.89,325.06l-0.87-1.15l22.69-17.14c-3.98,0.12-16.73,0.96-23.35,6.52c-7.91,6.64-7.91,12.95-4.08,17.52
	c3.83,4.56,10.05,5.65,17.96-0.99c6.71-5.63,9.72-18.29,10.49-22.02L472.89,325.06z"/>
<path class="st0" d="M295.02,52.87c6.11-16.43,20.55-30.62,37.99-32.31C322.52,36.48,318,55.59,320.25,74.52
	c0.89,7.3,2.65,15.32-1.29,21.53c-2.45,3.86-6.76,6.24-11.21,7.32c-4.45,1.07-9.08,0.99-13.65,0.9l-1.02,0.51
	C289.86,87.54,288.91,69.3,295.02,52.87z"/>
<path class="st6" d="M331.55,20.1c-11.97,8.36-21,20.28-25.81,34.07c-1.09,2.95-1.7,6.05-1.83,9.19c-0.02,3.06,0.78,6.08,2.32,8.73
	c1.39,2.5,3.09,4.9,3.84,7.69c0.74,2.9,0.2,5.98-1.48,8.46c-1.98,3.11-4.97,5.32-7.96,7.39c-3.32,2.29-6.81,4.62-8.85,8.21
	c-0.25,0.44-0.91,0.03-0.66-0.41c3.54-6.26,10.96-8.53,15.51-13.85c2.12-2.48,3.5-5.61,2.85-8.92c-0.57-2.89-2.33-5.36-3.75-7.88
	c-1.54-2.56-2.43-5.46-2.59-8.45c-0.04-3.14,0.46-6.26,1.47-9.23c2.16-6.72,5.37-13.07,9.51-18.8c4.68-6.56,10.45-12.28,17.06-16.9
	C331.59,19.12,331.95,19.81,331.55,20.1L331.55,20.1z"/>
<path class="st6" d="M307.03,49.63c-4.55-2.31-6.75-7.59-5.21-12.45c0.15-0.48,0.9-0.26,0.75,0.22c-1.45,4.53,0.61,9.44,4.87,11.57
	C307.88,49.19,307.47,49.86,307.03,49.63L307.03,49.63z"/>
<path class="st6" d="M305.37,70.91c4.82-1.52,8.89-4.8,11.39-9.19c0.25-0.43,0.91-0.03,0.66,0.41c-2.62,4.56-6.86,7.97-11.87,9.54
	C305.07,71.81,304.89,71.06,305.37,70.91z"/>
<path class="st6" d="M319.33,30.63c1.55,1.24,3.62,1.62,5.51,1.01c0.48-0.16,0.65,0.6,0.18,0.76c-2.09,0.66-4.37,0.25-6.09-1.11
	c-0.18-0.12-0.23-0.35-0.13-0.53C318.91,30.57,319.15,30.51,319.33,30.63L319.33,30.63z"/>
<path class="st0" d="M375.06,62.44c-0.29,0.1-0.59,0.21-0.88,0.32c-3.93,1.43-7.73,3.18-11.38,5.23c-0.28,0.15-0.57,0.31-0.85,0.48
	c-8.73,5.03-16.45,11.63-22.77,19.48c-2.51,3.12-4.78,6.43-6.79,9.9c-2.78,4.79-5.4,10.21-9.48,13.7c-0.42,0.37-0.86,0.71-1.33,1.03
	l-27.81-6.58c-0.06-0.05-0.11-0.09-0.17-0.13l-1.12-0.21c0.09-0.19,0.19-0.38,0.28-0.56c0.05-0.11,0.11-0.21,0.16-0.32
	c0.04-0.07,0.07-0.14,0.1-0.21c0.01-0.02,0.02-0.05,0.04-0.07c0.03-0.07,0.06-0.13,0.09-0.19c0.55-1.07,1.1-2.14,1.67-3.2
	c0-0.01,0-0.01,0.01-0.01c4.23-8.16,9.41-15.79,15.43-22.73c0.18-0.2,0.37-0.42,0.56-0.62c2.75-3.05,5.75-5.88,8.96-8.44
	c1.76-1.4,3.6-2.71,5.49-3.92c4.9-3.13,10.27-5.46,15.89-6.92c11.22-2.91,23.24-2.19,33.14,3.55
	C374.57,62.14,374.81,62.28,375.06,62.44z"/>
<path class="st6" d="M373.63,62.22c-14.59-0.53-28.98,3.55-41.11,11.66c-2.64,1.7-5,3.81-6.99,6.24c-1.86,2.43-3.03,5.32-3.4,8.36
	c-0.4,2.83-0.48,5.77-1.56,8.45c-1.16,2.76-3.44,4.9-6.27,5.87c-3.46,1.29-7.17,1.26-10.8,1.1c-4.03-0.17-8.22-0.42-12.01,1.23
	c-0.46,0.2-0.74-0.52-0.28-0.72c6.59-2.87,13.89-0.21,20.72-1.72c3.19-0.7,6.18-2.37,7.64-5.4c1.28-2.65,1.37-5.68,1.75-8.55
	c0.31-2.97,1.35-5.82,3.02-8.3c1.86-2.53,4.13-4.72,6.73-6.49c5.78-4.07,12.16-7.2,18.91-9.28c7.69-2.42,15.74-3.51,23.79-3.22
	C374.25,61.47,374.13,62.23,373.63,62.22L373.63,62.22z"/>
<path class="st6" d="M336.27,71.04c-2.24-4.59-0.83-10.12,3.34-13.07c0.41-0.29,0.88,0.33,0.47,0.62
	c-3.89,2.74-5.19,7.91-3.08,12.17C337.22,71.2,336.49,71.48,336.27,71.04L336.27,71.04z"/>
<path class="st6" d="M322.14,87.02c4.76,1.69,9.99,1.51,14.63-0.48c0.46-0.2,0.74,0.53,0.28,0.72c-4.84,2.07-10.27,2.23-15.23,0.47
	C321.35,87.57,321.67,86.86,322.14,87.02z"/>
<path class="st6" d="M357.54,63.27c0.49,1.92,1.91,3.47,3.79,4.12c0.47,0.16,0.16,0.87-0.31,0.71c-2.07-0.73-3.64-2.43-4.2-4.55
	c-0.07-0.2,0.03-0.42,0.22-0.5C357.24,62.97,357.46,63.07,357.54,63.27z"/>
<path class="st0" d="M208.23,280.25c6.15-16.53,20.68-30.82,38.23-32.52c-10.55,16.02-15.1,35.25-12.84,54.3
	c0.9,7.34,2.66,15.42-1.3,21.67c-2.46,3.89-6.8,6.28-11.28,7.36c-4.47,1.08-9.14,1-13.74,0.91l-1.03,0.51
	C203.04,315.14,202.08,296.78,208.23,280.25z"/>
<path class="st6" d="M246.55,248.1c-11.97,8.36-21,20.28-25.81,34.07c-1.09,2.95-1.7,6.05-1.83,9.19c-0.02,3.06,0.78,6.08,2.32,8.73
	c1.39,2.5,3.09,4.9,3.84,7.69c0.74,2.9,0.2,5.98-1.48,8.46c-1.98,3.11-4.97,5.32-7.96,7.39c-3.32,2.29-6.81,4.62-8.85,8.21
	c-0.25,0.44-0.91,0.03-0.66-0.41c3.54-6.26,10.96-8.53,15.51-13.85c2.12-2.48,3.5-5.61,2.85-8.92c-0.57-2.89-2.33-5.36-3.75-7.88
	c-1.54-2.56-2.43-5.46-2.59-8.45c-0.04-3.14,0.46-6.26,1.47-9.23c2.16-6.72,5.37-13.07,9.51-18.8c4.68-6.56,10.45-12.28,17.06-16.9
	C246.59,247.12,246.95,247.81,246.55,248.1L246.55,248.1z"/>
<path class="st6" d="M222.03,277.63c-4.55-2.31-6.75-7.59-5.21-12.45c0.15-0.48,0.9-0.26,0.75,0.22c-1.45,4.53,0.61,9.44,4.87,11.57
	C222.88,277.19,222.47,277.86,222.03,277.63z"/>
<path class="st6" d="M220.37,298.91c4.82-1.52,8.89-4.8,11.39-9.19c0.25-0.43,0.91-0.03,0.66,0.41c-2.62,4.56-6.86,7.97-11.87,9.54
	C220.07,299.81,219.89,299.06,220.37,298.91L220.37,298.91z"/>
<path class="st6" d="M234.33,258.63c1.55,1.24,3.62,1.62,5.51,1.01c0.48-0.16,0.65,0.6,0.18,0.76c-2.09,0.66-4.37,0.25-6.09-1.11
	c-0.18-0.12-0.23-0.35-0.13-0.53C233.91,258.57,234.15,258.51,234.33,258.63L234.33,258.63z"/>
<path class="st0" d="M288.78,289.88c-0.29,0.11-0.59,0.21-0.89,0.32c-3.95,1.44-7.78,3.2-11.45,5.26c-0.29,0.15-0.57,0.32-0.85,0.48
	c-8.79,5.06-16.56,11.7-22.92,19.6c-2.53,3.14-4.81,6.48-6.84,9.97c-2.79,4.82-5.44,10.27-9.54,13.78
	c-0.42,0.37-0.87,0.72-1.34,1.03l-27.98-6.62c-0.06-0.05-0.11-0.09-0.17-0.13l-1.13-0.21c0.09-0.19,0.19-0.38,0.28-0.57
	c0.05-0.11,0.11-0.22,0.16-0.33c0.04-0.07,0.07-0.14,0.1-0.21c0.01-0.02,0.02-0.05,0.04-0.07c0.03-0.07,0.06-0.13,0.09-0.19
	c0.55-1.08,1.11-2.15,1.68-3.22c0-0.01,0-0.01,0.01-0.01c4.25-8.21,9.46-15.89,15.53-22.88c0.18-0.21,0.37-0.42,0.57-0.62
	c2.77-3.07,5.78-5.91,9.01-8.49c1.77-1.41,3.62-2.72,5.52-3.94c4.93-3.15,10.33-5.49,15.99-6.96c11.29-2.92,23.39-2.21,33.35,3.57
	C288.28,289.58,288.53,289.72,288.78,289.88z"/>
<path class="st6" d="M288.63,290.22c-14.59-0.53-28.98,3.55-41.11,11.66c-2.64,1.7-5,3.81-6.99,6.24c-1.86,2.43-3.03,5.32-3.4,8.36
	c-0.4,2.83-0.48,5.77-1.56,8.45c-1.16,2.76-3.44,4.9-6.27,5.87c-3.46,1.29-7.17,1.26-10.8,1.1c-4.03-0.17-8.22-0.42-12.01,1.23
	c-0.46,0.2-0.74-0.52-0.28-0.72c6.59-2.87,13.89-0.21,20.72-1.72c3.19-0.7,6.18-2.37,7.64-5.4c1.28-2.65,1.37-5.68,1.75-8.55
	c0.31-2.97,1.35-5.82,3.02-8.3c1.86-2.53,4.13-4.72,6.73-6.49c5.78-4.07,12.16-7.2,18.91-9.28c7.69-2.42,15.74-3.51,23.79-3.22
	C289.25,289.47,289.13,290.23,288.63,290.22L288.63,290.22z"/>
<path class="st6" d="M251.27,299.04c-2.24-4.59-0.83-10.12,3.34-13.07c0.41-0.29,0.88,0.33,0.47,0.62
	c-3.89,2.74-5.19,7.91-3.08,12.17C252.22,299.2,251.49,299.48,251.27,299.04L251.27,299.04z"/>
<path class="st6" d="M237.14,315.02c4.76,1.69,9.99,1.51,14.63-0.48c0.46-0.2,0.74,0.53,0.28,0.72c-4.84,2.07-10.27,2.23-15.23,0.47
	C236.35,315.57,236.67,314.86,237.14,315.02L237.14,315.02z"/>
<path class="st6" d="M272.54,291.27c0.49,1.92,1.91,3.47,3.79,4.12c0.47,0.16,0.16,0.87-0.31,0.71c-2.07-0.73-3.64-2.43-4.2-4.55
	c-0.07-0.2,0.03-0.42,0.22-0.5C272.24,290.97,272.46,291.07,272.54,291.27L272.54,291.27z"/>
<path class="st0" d="M556.57,404.17c-3.14-11.73-0.68-25.54,8.5-33.49c0.46,13.2,5.57,25.81,14.43,35.6
	c3.43,3.76,7.64,7.59,7.91,12.68c0.02,3.2-1.2,6.29-3.4,8.63c-2.18,2.3-4.65,4.31-7.35,5.98l-0.38,0.7
	C567.57,425.82,559.71,415.9,556.57,404.17z"/>
<path class="st6" d="M565.27,370.84c-3.39,9.46-3.7,19.75-0.91,29.41c0.56,2.09,1.46,4.08,2.64,5.89c1.21,1.73,2.86,3.1,4.78,3.97
	c1.85,0.71,3.6,1.65,5.22,2.78c1.57,1.34,2.5,3.28,2.55,5.34c-0.01,2.52-0.53,5.01-1.53,7.32c-0.95,2.61-1.98,5.31-1.69,8.14
	c0.04,0.34-0.5,0.38-0.53,0.04c-0.51-4.92,2.75-9.16,3.18-13.95c0.33-2.24-0.39-4.51-1.96-6.14c-1.47-1.39-3.44-2.08-5.25-2.93
	c-1.89-0.83-3.54-2.1-4.82-3.71c-1.27-1.75-2.24-3.69-2.86-5.76c-1.47-4.64-2.19-9.48-2.16-14.34c0.01-5.55,0.97-11.06,2.84-16.28
	C564.9,370.28,565.38,370.52,565.27,370.84L565.27,370.84z"/>
<path class="st6" d="M563.28,397.2c-3.48,0.51-6.81-1.57-7.88-4.91c-0.1-0.33,0.4-0.5,0.51-0.18c0.99,3.12,4.11,5.05,7.34,4.56
	C563.58,396.61,563.61,397.14,563.28,397.2L563.28,397.2z"/>
<path class="st6" d="M570.82,409.8c2.1-2.77,3.07-6.24,2.73-9.7c-0.03-0.34,0.5-0.38,0.53-0.04c0.35,3.6-0.67,7.21-2.86,10.09
	C571.02,410.43,570.62,410.07,570.82,409.8z"/>
<path class="st6" d="M562.61,381.62c1.36,0.08,2.68-0.53,3.49-1.63c0.21-0.28,0.61,0.08,0.4,0.35c-0.91,1.21-2.35,1.88-3.86,1.81
	c-0.15,0.01-0.27-0.1-0.28-0.25C562.35,381.76,562.46,381.63,562.61,381.62L562.61,381.62z"/>
<path class="st0" d="M605.62,377.46c-0.12,0.18-0.25,0.35-0.37,0.53c-1.65,2.38-3.09,4.9-4.33,7.52c-0.1,0.2-0.2,0.41-0.29,0.61
	c-2.92,6.34-4.63,13.17-5.05,20.13c-0.17,2.77-0.12,5.55,0.14,8.32c0.35,3.82,1.04,7.93,0.14,11.54c-0.09,0.38-0.2,0.75-0.34,1.11
	l-18.35,7.44c-0.05,0-0.1,0-0.15-0.01l-0.72,0.33c-0.02-0.14-0.04-0.29-0.07-0.43c-0.01-0.08-0.02-0.17-0.04-0.25
	c-0.01-0.06-0.02-0.11-0.03-0.16c0-0.02-0.01-0.04-0.01-0.05c-0.01-0.05-0.01-0.1-0.02-0.14c-0.12-0.82-0.23-1.65-0.34-2.48
	c0,0,0,0,0-0.01c-0.89-6.31-1.02-12.69-0.4-19.03c0.02-0.19,0.04-0.38,0.07-0.57c0.33-2.83,0.89-5.62,1.68-8.36
	c0.43-1.5,0.95-2.97,1.53-4.42c1.52-3.73,3.61-7.2,6.2-10.28c5.17-6.14,12.25-10.56,20.14-11.29
	C605.22,377.5,605.42,377.48,605.62,377.46z"/>
<path class="st6" d="M605.68,377.71c-8.4,5.52-14.85,13.54-18.43,22.93c-0.81,2.01-1.29,4.13-1.44,6.29
	c-0.07,2.11,0.42,4.2,1.42,6.05c1.05,1.68,1.88,3.48,2.49,5.37c0.45,2.01,0.02,4.12-1.18,5.8c-1.53,2-3.44,3.68-5.62,4.93
	c-2.33,1.51-4.78,3.04-6.25,5.48c-0.18,0.3-0.63,0-0.45-0.29c2.56-4.24,7.71-5.65,10.94-9.22c1.61-1.59,2.4-3.83,2.14-6.08
	c-0.34-2-1.5-3.73-2.43-5.5c-1.01-1.79-1.56-3.81-1.61-5.86c0.04-2.16,0.44-4.3,1.19-6.32c1.62-4.59,3.95-8.89,6.91-12.75
	c3.35-4.42,7.43-8.24,12.07-11.29C605.73,377.05,605.96,377.53,605.68,377.71L605.68,377.71z"/>
<path class="st6" d="M588.22,397.56c-3.09-1.68-4.5-5.35-3.34-8.67c0.11-0.32,0.62-0.16,0.51,0.16c-1.09,3.09,0.24,6.51,3.12,8.06
	C588.82,397.27,588.52,397.72,588.22,397.56z"/>
<path class="st6" d="M586.66,412.16c3.35-0.95,6.21-3.13,8.02-6.1c0.18-0.29,0.63,0,0.45,0.29c-1.89,3.09-4.88,5.35-8.36,6.33
	C586.44,412.78,586.33,412.26,586.66,412.16L586.66,412.16z"/>
<path class="st6" d="M597.07,384.72c1.04,0.88,2.46,1.19,3.77,0.8c0.33-0.1,0.44,0.43,0.11,0.52c-1.45,0.42-3.01,0.09-4.17-0.88
	c-0.12-0.08-0.15-0.25-0.08-0.37C596.78,384.67,596.94,384.64,597.07,384.72z"/>
</svg>
