<?xml version="1.0" encoding="utf-8"?>
<!-- Generator: Adobe Illustrator 25.0.0, SVG Export Plug-In . SVG Version: 6.00 Build 0)  -->
<svg version="1.1" id="Layer_1" xmlns="http://www.w3.org/2000/svg" xmlns:xlink="http://www.w3.org/1999/xlink" x="0px" y="0px"
	 viewBox="0 0 1920 1080" style="enable-background:new 0 0 1920 1080;" xml:space="preserve">
<style type="text/css">
	.st0{fill:#17A2B7;}
</style>
<path class="st0" d="M456.47,523.37c-42.23,35.09-82.94,67.94-122.37,102.27c-11.69,10.18-18.44,10.26-29.82,0
	c-25.41-22.9-52.23-44.24-78.63-66.03c-5.32-4.4-9.45-8.35-9.38-16.37c0.41-46.96,0.2-93.92,0.2-144.93
	c28.96,24,55.5,45.89,81.91,67.91c20.79,17.34,20.74,17.44,42.03-0.24c71.46-59.36,142.92-118.74,214.39-178.1
	c6.01-4.99,12.15-9.84,18.49-14.96c4.57,5.49,2.38,11.14,2.38,16.2c0.15,169.41-0.06,338.83,0.46,508.24
	c0.05,14.54-2.38,20.38-18.52,19.53c-28.06-1.47-56.28-1.13-84.38-0.12c-12.8,0.46-16.26-3.03-16.18-15.99
	c0.57-88.06,0.27-176.12,0.21-264.18C457.25,533.14,456.85,529.68,456.47,523.37z"/>
<path d="M65.41,272.77c36.73,30.53,72.68,60.84,109.21,90.45c7.85,6.37,6.39,13.83,6.41,21.48c0.09,98.44,0.45,196.88-0.31,295.31
	c-0.12,15.64,4.46,18.91,19.32,18.72c64.19-0.86,128.41,0.2,192.61-0.79c15.26-0.24,18.26,4.72,17.8,18.51
	c-0.96,28.71-0.63,57.47-0.14,86.2c0.16,9.6-1.44,14.1-12.75,14.05c-107.62-0.4-215.24-0.35-322.87-0.02
	c-9.85,0.03-12.22-3.2-12.2-12.58c0.3-176.08,0.29-352.17,0.39-528.26C62.88,275.43,63.53,275.02,65.41,272.77z"/>
<path d="M748.44,440.49h64.89v31.32H708.94V274.88h39.5V440.49z"/>
<path d="M837.73,351.05c6.3-12.22,14.86-21.63,25.67-28.21c10.81-6.58,22.9-9.87,36.25-9.87c11.66,0,21.87,2.35,30.61,7.05
	c8.75,4.7,15.75,10.63,21.02,17.77V315.5h39.78v156.3h-39.78v-22.85c-5.08,7.34-12.09,13.4-21.02,18.2
	c-8.94,4.8-19.23,7.19-30.89,7.19c-13.17,0-25.16-3.39-35.97-10.16c-10.82-6.77-19.38-16.32-25.67-28.64
	c-6.3-12.32-9.45-26.47-9.45-42.46C828.28,377.29,831.43,363.28,837.73,351.05z M945.65,368.97c-3.76-6.86-8.84-12.13-15.23-15.8
	c-6.4-3.67-13.26-5.5-20.6-5.5c-7.34,0-14.11,1.79-20.31,5.36c-6.21,3.58-11.24,8.79-15.09,15.66c-3.86,6.87-5.78,15-5.78,24.4
	c0,9.41,1.93,17.63,5.78,24.69c3.85,7.05,8.93,12.46,15.24,16.22c6.3,3.77,13.02,5.64,20.17,5.64c7.34,0,14.2-1.83,20.6-5.5
	c6.39-3.67,11.47-8.93,15.23-15.8c3.76-6.86,5.64-15.09,5.64-24.69C951.29,384.06,949.41,375.84,945.65,368.97z"/>
<path d="M1177.28,315.5v156.3h-39.78v-19.75c-5.08,6.77-11.71,12.09-19.89,15.94c-8.18,3.85-17.07,5.78-26.66,5.78
	c-12.23,0-23.04-2.58-32.45-7.76c-9.41-5.17-16.79-12.79-22.15-22.85c-5.36-10.06-8.04-22.05-8.04-35.97V315.5h39.5v86.05
	c0,12.41,3.1,21.96,9.31,28.64c6.21,6.68,14.67,10.02,25.39,10.02c10.91,0,19.47-3.34,25.67-10.02c6.21-6.67,9.31-16.22,9.31-28.64
	V315.5H1177.28z"/>
<path d="M1347.97,330.88c11.47,11.76,17.21,28.17,17.21,49.23v91.69h-39.5v-86.33c0-12.41-3.1-21.96-9.31-28.64
	c-6.21-6.67-14.67-10.02-25.39-10.02c-10.91,0-19.52,3.34-25.82,10.02c-6.3,6.68-9.45,16.22-9.45,28.64v86.33h-39.5V315.5h39.5
	v19.47c5.26-6.77,11.99-12.08,20.17-15.94c8.18-3.85,17.16-5.78,26.94-5.78C1321.45,313.25,1336.5,319.13,1347.97,330.88z"/>
<path d="M1402,351.05c6.3-12.22,14.91-21.63,25.82-28.21c10.91-6.58,23.04-9.87,36.4-9.87c10.16,0,19.84,2.21,29.06,6.63
	c9.21,4.42,16.55,10.3,22.01,17.63v-74.2h40.06v208.78h-40.06v-23.14c-4.89,7.71-11.76,13.92-20.6,18.62
	c-8.84,4.7-19.09,7.05-30.75,7.05c-13.17,0-25.21-3.39-36.11-10.16c-10.91-6.77-19.52-16.32-25.82-28.64
	c-6.3-12.32-9.45-26.47-9.45-42.46C1392.55,377.29,1395.7,363.28,1402,351.05z M1509.92,368.97c-3.76-6.86-8.84-12.13-15.23-15.8
	c-6.4-3.67-13.26-5.5-20.6-5.5c-7.34,0-14.11,1.79-20.31,5.36c-6.21,3.58-11.24,8.79-15.09,15.66c-3.86,6.87-5.78,15-5.78,24.4
	c0,9.41,1.93,17.63,5.78,24.69c3.85,7.05,8.93,12.46,15.24,16.22c6.3,3.77,13.02,5.64,20.17,5.64c7.34,0,14.2-1.83,20.6-5.5
	c6.39-3.67,11.47-8.93,15.23-15.8c3.76-6.86,5.64-15.09,5.64-24.69C1515.56,384.06,1513.68,375.84,1509.92,368.97z"/>
<path d="M1653.39,320.3c8.18-4.7,17.54-7.05,28.07-7.05v41.47h-10.44c-12.41,0-21.77,2.92-28.07,8.75
	c-6.3,5.83-9.45,15.99-9.45,30.47v77.87H1594V315.5h39.5v24.26C1638.57,331.49,1645.2,325.01,1653.39,320.3z"/>
<path d="M1857.51,315.5l-96.77,230.22h-42.04l33.86-77.87l-62.63-152.35h44.3l40.35,109.19l40.91-109.19H1857.51z"/>
<path d="M923.64,613.44v196.93h-39.5V682.28l-52.76,128.09h-29.91l-53.04-128.09v128.09h-39.5V613.44h44.86l62.63,146.43
	l62.63-146.43H923.64z"/>
<path d="M991.35,802.9c-12.04-6.67-21.49-16.13-28.36-28.36c-6.87-12.22-10.3-26.33-10.3-42.32c0-15.99,3.53-30.09,10.58-42.32
	c7.05-12.22,16.69-21.68,28.92-28.36c12.22-6.67,25.86-10.02,40.91-10.02c15.05,0,28.68,3.34,40.91,10.02
	c12.22,6.68,21.87,16.13,28.92,28.36c7.05,12.23,10.58,26.34,10.58,42.32c0,15.99-3.62,30.1-10.86,42.32
	c-7.24,12.23-17.03,21.68-29.34,28.36c-12.32,6.68-26.1,10.02-41.33,10.02C1016.93,812.91,1003.39,809.58,991.35,802.9z
	 M1052.15,773.27c6.3-3.48,11.33-8.7,15.09-15.66c3.76-6.96,5.64-15.42,5.64-25.39c0-14.86-3.91-26.28-11.71-34.28
	c-7.81-7.99-17.35-11.99-28.64-11.99c-11.29,0-20.74,4-28.36,11.99c-7.62,8-11.43,19.42-11.43,34.28c0,14.86,3.71,26.29,11.14,34.28
	c7.43,8,16.79,11.99,28.07,11.99C1039.13,778.49,1045.85,776.76,1052.15,773.27z"/>
<path d="M1235.12,810.37l-53.04-66.58v66.58h-39.5V601.59h39.5v118.78l52.48-66.3h51.35l-68.84,78.43l69.41,77.87H1235.12z"/>
<path d="M1346.84,601.59v208.78h-39.5V601.59H1346.84z"/>
<path d="M1529.95,744.07h-114.27c0.94,11.29,4.89,20.13,11.85,26.52c6.96,6.4,15.52,9.59,25.67,9.59c14.67,0,25.11-6.3,31.32-18.9
	h42.6c-4.51,15.05-13.17,27.42-25.96,37.1c-12.79,9.69-28.5,14.53-47.12,14.53c-15.05,0-28.54-3.34-40.49-10.02
	c-11.95-6.67-21.26-16.13-27.93-28.36c-6.68-12.22-10.02-26.33-10.02-42.32c0-16.18,3.29-30.37,9.87-42.6
	c6.58-12.22,15.8-21.63,27.65-28.21c11.85-6.58,25.49-9.87,40.91-9.87c14.86,0,28.16,3.2,39.92,9.59
	c11.75,6.4,20.88,15.47,27.37,27.23c6.49,11.76,9.73,25.25,9.73,40.49C1531.08,734.48,1530.7,739.56,1529.95,744.07z
	 M1490.17,717.55c-0.19-10.16-3.86-18.29-11-24.4c-7.15-6.11-15.9-9.17-26.24-9.17c-9.78,0-18.01,2.96-24.69,8.89
	c-6.68,5.92-10.77,14.16-12.27,24.69H1490.17z"/>
<path d="M1605.84,686.52v75.61c0,5.27,1.27,9.08,3.81,11.43c2.54,2.35,6.82,3.53,12.84,3.53h18.34v33.29H1616
	c-33.29,0-49.94-16.17-49.94-48.53v-75.33h-18.62v-32.45h18.62v-38.65h39.78v38.65h34.98v32.45H1605.84z"/>
</svg>
