<?xml version="1.0" encoding="utf-8"?>
<!-- Generator: Adobe Illustrator 25.0.0, SVG Export Plug-In . SVG Version: 6.00 Build 0)  -->
<svg version="1.1" id="Layer_1" xmlns="http://www.w3.org/2000/svg" xmlns:xlink="http://www.w3.org/1999/xlink" x="0px" y="0px"
	 viewBox="0 0 1080 1080" style="enable-background:new 0 0 1080 1080;" xml:space="preserve">
<style type="text/css">
	.st0{fill:#00A8AB;}
	.st1{fill:#039191;}
	.st2{fill:#17A2B7;}
</style>
<path d="M-378.1,1150.73h-703.49c-41.28,0-74.75-33.47-74.75-74.75V372.49c0-41.28,33.47-74.75,74.75-74.75h703.49
	c41.28,0,74.75,33.47,74.75,74.75v703.49C-303.35,1117.27-336.81,1150.73-378.1,1150.73z"/>
<path class="st0" d="M-729.84,514.69c-155.24,0-281.09,125.85-281.09,281.09s125.85,281.09,281.09,281.09
	s281.09-125.85,281.09-281.09S-574.6,514.69-729.84,514.69z M-729.84,1024.75c-126.46,0-228.97-102.51-228.97-228.97
	s102.51-228.97,228.97-228.97s228.97,102.51,228.97,228.97S-603.38,1024.75-729.84,1024.75z"/>
<path class="st0" d="M-529.81,795.78c0,110.47-89.56,200.04-200.04,200.04c-103.87,0-189.26-79.18-199.09-180.47
	c-0.62-6.44-0.95-12.96-0.95-19.56c0-110.47,89.56-200.04,200.04-200.04c97.85,0,179.3,70.26,196.63,163.09
	C-530.97,770.81-529.81,783.16-529.81,795.78z"/>
<path class="st1" d="M-529.81,795.78c0,110.47-89.56,200.04-200.04,200.04c-103.87,0-189.26-79.18-199.09-180.47
	c10.27-7.26,22.75-13.47,37.44-16.36c33.96-6.68,52.66,10.49,80.27,16.83c75.85,17.41,120.51-68.85,182.12-45.01
	c25.86,10.01,35.13,31.83,56.91,27.94c18.79-3.36,31.24-23.06,38.97-39.9C-531.02,768.93-529.81,781.45-529.81,795.78z"/>
<circle class="st1" cx="-789.49" cy="778.49" r="19.66"/>
<circle class="st1" cx="-769.83" cy="737.39" r="6.59"/>
<circle class="st1" cx="-616.02" cy="704.43" r="6.59"/>
<circle class="st1" cx="-813.95" cy="730.81" r="14.63"/>
<circle class="st1" cx="-604.93" cy="745.44" r="14.63"/>
<g>
	<path class="st0" d="M-1175.23-584.61c15.65,10.23,29.5,19.2,43.27,28.29c44.6,29.46,89.31,58.77,133.62,88.66
		c6.76,4.56,10.84,3.9,17.23-0.29c109.51-71.74,219.2-143.19,328.87-214.68c3.14-2.04,6.42-3.86,11.12-6.67c0,6.85,0,12.11,0,17.38
		c0,237.2-0.08,474.39,0.23,711.59c0.01,10.04-2.04,13.11-12.52,12.8c-28.27-0.83-56.59-0.47-84.88-0.15
		c-6.47,0.07-8.45-1.53-8.43-8.32c0.26-145.73,0.26-291.45,0.32-437.18c0.01-30.23,0.12-60.46,0.1-90.69c0-2.98,0.54-7.41-1.09-8.64
		c-3.38-2.55-6.16,1.7-8.81,3.42c-62.03,40.31-123.96,80.76-185.92,121.17c-13.63,8.89-27.43,17.51-40.85,26.71
		c-4.75,3.26-8.11,3.98-13.32,0.51c-57.72-38.41-115.6-76.57-173.53-114.67c-4.02-2.64-5.56-5.48-5.53-10.36
		C-1175.13-504.48-1175.23-543.22-1175.23-584.61z"/>
	<path d="M-1337.83-689.47c28.99,18.95,56.25,38.05,84.82,54.92c15.05,8.88,20.31,18.78,20.23,36.58
		c-0.81,177.12-0.39,354.24-0.74,531.36c-0.02,10.69,2.71,13.41,13.38,13.38c132.96-0.37,265.92-0.08,398.87-0.52
		c11.07-0.04,13.36,3.19,13.11,13.48c-0.69,27.5-0.45,55.03-0.1,82.55c0.09,7.1-1.1,10.09-9.31,10.08
		c-170.56-0.26-341.12-0.23-511.68-0.13c-6.23,0-9.67-0.3-9.66-8.43c0.3-243.4,0.31-486.79,0.38-730.19
		C-1338.52-686.73-1338.37-687.08-1337.83-689.47z"/>
</g>
<g>
	<path class="st0" d="M2491.44,1213.94c-3.82-1.8-5.77-4.59-8.08-6.9c-55.27-55.23-110.44-110.56-165.86-165.64
		c-5.15-5.12-7.34-10.11-7.33-17.46c0.22-164.67,0.17-329.35,0.17-494.02c0-3.57,0-7.14,0-13.4
		c-87.22,87.24-172.66,172.7-257.54,257.6c-150.96-151.02-301.67-301.78-452.59-452.75c1.39-1.82,4.25-0.61,6.62-0.61
		c84.16-0.08,168.32,0,252.49-0.24c6.37-0.02,10.5,2.26,14.77,6.54c53.95,54.18,108.05,108.2,162.05,162.34
		c2.56,2.57,4.4,5.85,6.18,8.26c5.43-2.73,7.63-5.79,10.21-8.37c53.85-53.8,107.74-107.57,161.37-161.6
		c5.19-5.23,10.32-7.2,17.59-7.18c83.49,0.15,166.98-0.03,250.47-0.09c11.11-0.01,11.08-1.57,11.08,10.65
		c-0.02,231.42,0.01,462.84-0.03,694.25c-0.01,59.36-0.23,118.72-0.41,178.08C2492.57,1206.67,2493.3,1210.04,2491.44,1213.94z"/>
	<path d="M2429.05,1214.26c-5.57,2.66-8.92,1.97-12.14,1.97c-269.3,0.04-538.61,0.03-807.91,0.03c-1.68,0-3.38-0.18-5.03,0.03
		c-5.55,0.71-7.03-2.17-6.66-7.07c0.2-2.67,0.03-5.36,0.03-8.05c0-267.02,0-534.04,0.03-801.06c0-4.32-0.6-8.69,0.58-12.97
		c3.09-1.05,4.17,1.64,5.66,3.12c61.71,61.62,123.31,123.35,185.13,184.85c4.12,4.1,4.72,8.34,4.72,13.48
		c-0.06,66.08-0.04,132.16-0.04,198.24c0,77.15,0,154.31,0,231.46c0,2.01,0,4.03,0,6.04c0,10.63-0.48,9.82,9.81,9.82
		c144.21,0,288.42,0.08,432.63-0.19c8.44-0.02,14.18,2.48,20.07,8.41c54.33,54.77,108.95,109.25,163.53,163.77
		C2422.05,1208.73,2425.06,1210.91,2429.05,1214.26z"/>
</g>
<path class="st2" d="M772.04,503.63C700.59,563,631.7,618.59,564.99,676.67c-19.78,17.22-31.2,17.36-50.46,0
	c-42.99-38.75-88.38-74.86-133.05-111.73c-9.01-7.44-15.99-14.12-15.87-27.7c0.69-79.46,0.34-158.92,0.34-245.22
	c49,40.61,93.9,77.64,138.59,114.91c35.18,29.34,35.1,29.51,71.11-0.4C696.57,306.09,817.47,205.61,938.4,105.18
	c10.17-8.45,20.55-16.65,31.28-25.32c7.73,9.29,4.02,18.85,4.03,27.41c0.26,286.65-0.1,573.31,0.78,859.96
	c0.08,24.6-4.03,34.48-31.33,33.05c-47.48-2.49-95.22-1.91-142.77-0.21c-21.66,0.78-27.51-5.12-27.37-27.05
	c0.97-149,0.46-298,0.36-447C773.36,520.16,772.69,514.31,772.04,503.63z"/>
<path d="M110.36,79.6c62.14,51.66,122.98,102.95,184.79,153.05c13.29,10.77,10.82,23.4,10.84,36.35
	c0.15,166.56,0.76,333.13-0.52,499.68c-0.2,26.46,7.55,32,32.69,31.67c108.62-1.45,217.28,0.34,325.9-1.33
	c25.82-0.4,30.89,7.98,30.11,31.32c-1.63,48.57-1.06,97.24-0.23,145.85c0.27,16.25-2.43,23.85-21.57,23.78
	c-182.1-0.68-364.2-0.59-546.3-0.03c-16.66,0.05-20.68-5.42-20.65-21.28c0.5-297.94,0.49-595.88,0.66-893.83
	C106.08,84.11,107.18,83.41,110.36,79.6z"/>
</svg>
