<?xml version="1.0" encoding="utf-8"?>
<!-- Generator: Adobe Illustrator 25.0.0, SVG Export Plug-In . SVG Version: 6.00 Build 0)  -->
<svg version="1.1" id="Layer_1" xmlns="http://www.w3.org/2000/svg" xmlns:xlink="http://www.w3.org/1999/xlink" x="0px" y="0px"
	 viewBox="0 0 750 500" style="enable-background:new 0 0 750 500;" xml:space="preserve">
<style type="text/css">
	.st0{fill:#FAFAFA;}
	.st1{fill:#E0E0E0;}
	.st2{fill:#EBEBEB;}
	.st3{fill:#F5F5F5;}
	.st4{fill:#FFFFFF;}
	.st5{fill:#263238;}
	.st6{fill:#966960;}
	.st7{fill:#77544D;}
	.st8{fill:#17A2B7;}
	.st9{opacity:0.3;}
	.st10{fill:#455A64;}
	.st11{fill:#FFBE9D;}
	.st12{fill:#EB996E;}
</style>
<g id="freepik--background-complete--inject-4">
	<path class="st0" d="M345.1,200.9C345.1,201,345.1,201,345.1,200.9v43.5c0,1.9-1.5,3.9-4.4,5.4c-3.8,1.8-7.9,2.6-12.1,2.5h-0.1
		c-10.3,0-16.4-4.1-16.4-7.9V201c0,0,0,0,0-0.1c0,0,0-0.1,0-0.1c0-4.2,3.1-8.7,6.3-13.1c2.1-2.9,2.6-7.1,2.7-9.6c0-0.3,0-0.6,0-0.8
		H321c-1.3,0.1-2.3-0.9-2.5-2.1v-1.8c0.1-1.3,1.2-2.2,2.5-2.1h15.4c0.9,0,1.8,0.5,2.3,1.3c0.1,0.3,0.2,0.5,0.2,0.8v1.8
		c-0.1,1.3-1.2,2.2-2.5,2.1h-0.3c0,0.2,0,0.5,0,0.8c0.1,2.5,0.6,6.7,2.7,9.6C342,192.2,345.1,196.6,345.1,200.9
		C345.1,200.9,345.1,200.9,345.1,200.9z"/>
	<path class="st1" d="M345.1,200.9c0-0.1,0-0.3,0-0.4c0-0.4-0.1-0.9-0.2-1.3c-0.4-1.6-1-3.2-1.8-4.7c-1.3-2.3-2.8-4.6-4.5-6.7
		c-1.9-2.7-2.7-6.4-2.8-10.4v-0.3h0.2c1.1,0.2,2.2-0.5,2.5-1.6c0-0.6,0-1.2,0-1.8c0.1-0.6-0.2-1.2-0.6-1.5c-0.5-0.4-1.1-0.6-1.7-0.5
		h-6.2h-8.9c-0.7-0.1-1.4,0.2-1.9,0.7c-0.2,0.2-0.4,0.5-0.5,0.9c0,0.3,0,0.8,0,1.1s0,0.8,0,1.2c0.1,0.3,0.2,0.6,0.4,0.9
		c0.5,0.5,1.3,0.8,2,0.7h0.3v0.4c0,1.8-0.2,3.6-0.6,5.3c-0.4,1.8-1.1,3.6-2.1,5.1c-2.1,3-4.4,6.1-5.7,9.6c-0.3,0.9-0.5,1.8-0.6,2.8
		c0,0.9,0,1.9,0,2.9c0,2,0,4,0,6v12.3c0,7.3,0,14.5,0,21.4c0,0.8,0,1.7,0.1,2.5c0.2,0.8,0.6,1.5,1.1,2.1c1.1,1.2,2.5,2.1,4,2.7
		c3,1.2,6.2,1.8,9.4,1.9c3.1,0.2,6.1-0.1,9.1-0.8c2.8-0.7,5.6-1.9,7.4-4c0.4-0.5,0.8-1.1,1-1.7c0.2-0.7,0.2-1.3,0.2-2
		c0-1.4,0-2.7,0-4c0-2.6,0-5.1,0-7.5c0-9.6,0.1-17.3,0.1-22.7c0-2.7,0-4.7,0.1-6.2S345.2,200.9,345.1,200.9c0.1,0.6,0.2,1.3,0.1,2.1
		c0,1.4,0,3.5,0.1,6.2c0,5.4,0.1,13.1,0.1,22.7c0,2.4,0,4.9,0,7.5c0,1.3,0,2.6,0,4c0.1,0.7,0,1.4-0.2,2.1c-0.2,0.7-0.6,1.4-1.1,1.9
		c-1.9,2.2-4.8,3.4-7.7,4.2c-3,0.7-6.2,1-9.3,0.9c-3.3-0.1-6.6-0.8-9.6-2c-1.6-0.6-3.1-1.6-4.2-2.9c-0.6-0.7-1.1-1.5-1.3-2.4
		c-0.1-0.9-0.2-1.8-0.1-2.6c0-6.9,0-14,0-21.4V203c0-1,0-1.9,0-3c0.1-1,0.3-2,0.6-2.9c1.4-3.7,3.7-6.8,5.8-9.8s2.5-6.7,2.6-10
		l0.3,0.3c-0.9,0.1-1.8-0.3-2.5-0.9c-0.3-0.3-0.5-0.8-0.6-1.2c0-0.5,0-0.8,0-1.2c0-0.4,0-0.8,0-1.2c0.1-0.5,0.3-0.9,0.6-1.2
		c0.6-0.6,1.5-0.9,2.3-0.9h8.9h6.2c0.7,0,1.4,0.2,2,0.7c0.6,0.5,0.9,1.2,0.8,1.9c0,0.6,0,1.2,0,1.9c-0.3,1.3-1.6,2.2-3,2l0.2-0.2
		c0.1,3.9,0.8,7.6,2.6,10.2c1.6,2.2,3.1,4.5,4.4,6.8c0.8,1.5,1.4,3.1,1.7,4.8c0.1,0.4,0.1,0.9,0.1,1.3
		C345.2,200.8,345.2,200.9,345.1,200.9z"/>
	<path class="st1" d="M335.2,177.3c0,0.2-3.1,0.4-6.9,0.4s-6.9-0.2-6.9-0.4s3.1-0.4,6.9-0.4S335.2,177.1,335.2,177.3z"/>
	<path class="st2" d="M343.8,206.7c-1.4-0.9-3.2-0.5-4.7,0.2s-2.9,1.7-4.5,2c-1.9,0.2-3.9-0.3-5.5-1.4c-1.6-1.1-3.3-2-5.1-2.8
		c-3.6-1.2-7.6-0.3-10.3,2.4v37.3c0,0,2,6.4,16.5,5.4s13.3-7.4,13.3-7.4L343.8,206.7z"/>
	<path class="st0" d="M309.4,200.9C309.4,201,309.4,201,309.4,200.9v43.5c0,1.9-1.5,3.9-4.4,5.4c-3.7,1.8-7.9,2.6-12,2.5h-0.1
		c-10.3,0-16.4-4.1-16.4-7.9V201c0,0,0,0,0-0.1c0,0,0-0.1,0-0.1c0-4.2,3.1-8.7,6.3-13.1c2.1-2.9,2.6-7.1,2.7-9.6c0-0.3,0-0.6,0-0.8
		h-0.3c-1.3,0.1-2.3-0.9-2.5-2.1v-1.8c0.1-1.3,1.2-2.2,2.5-2.1h15.5c0.9,0,1.8,0.5,2.3,1.3c0.1,0.3,0.2,0.5,0.2,0.8v1.8
		c-0.1,1.3-1.2,2.2-2.5,2.1h-0.3c0,0.2,0,0.5,0,0.8c0.1,2.5,0.6,6.7,2.7,9.6C306.2,192.2,309.4,196.6,309.4,200.9
		C309.4,200.9,309.4,200.9,309.4,200.9z"/>
	<path class="st1" d="M309.4,200.9c0,0,0-0.1,0-0.4s-0.1-0.7-0.2-1.3c-0.4-1.6-1-3.2-1.8-4.7c-1.3-2.3-2.8-4.6-4.5-6.7
		c-1.9-2.7-2.7-6.4-2.8-10.4v-0.3h0.2c1.1,0.2,2.2-0.5,2.5-1.6c0-0.6,0-1.2,0-1.8c0.1-0.6-0.2-1.2-0.6-1.5c-0.5-0.4-1.1-0.6-1.7-0.5
		h-6.2h-8.9c-0.7-0.1-1.4,0.2-1.9,0.7c-0.2,0.2-0.4,0.5-0.5,0.9c0,0.4,0,0.8,0,1.1c0,0.4,0,0.8,0,1.2c0,0.3,0.2,0.6,0.4,0.9
		c0.5,0.5,1.3,0.8,2,0.7h0.3v0.4c0,1.8-0.2,3.6-0.6,5.3c-0.4,1.8-1.1,3.6-2.1,5.1c-2.1,3-4.4,6.1-5.7,9.6c-0.3,0.9-0.5,1.8-0.6,2.8
		c0,0.9,0,1.9,0,2.9v18.3c0,7.3,0,14.5,0,21.4c0,0.8,0,1.7,0.1,2.5c0.2,0.8,0.6,1.5,1.2,2.1c1.1,1.2,2.5,2.1,4,2.7
		c3,1.2,6.1,1.9,9.4,1.9c3.1,0.2,6.1-0.1,9.1-0.8c2.8-0.7,5.6-1.9,7.4-4c0.4-0.5,0.8-1.1,1-1.7c0.2-0.7,0.2-1.3,0.2-2
		c0-1.4,0-2.7,0-4c0-2.6,0-5.1,0-7.5c0-9.6,0.1-17.3,0.1-22.7c0-2.7,0-4.7,0.1-6.2S309.5,200.9,309.4,200.9c0.2,0.6,0.2,1.3,0.2,2.1
		c0,1.4,0,3.5,0.1,6.2c0,5.4,0.1,13.1,0.1,22.7c0,2.4,0,4.9,0,7.5c0,1.3,0,2.6,0,4c0.1,0.7,0,1.4-0.2,2.1c-0.2,0.7-0.6,1.4-1.1,1.9
		c-1.9,2.2-4.8,3.4-7.7,4.2c-3,0.7-6.2,1-9.3,0.9c-3.3-0.1-6.6-0.8-9.6-2c-1.6-0.7-3.1-1.6-4.2-2.9c-0.6-0.7-1.1-1.5-1.3-2.4
		c-0.1-0.9-0.2-1.8-0.1-2.6c0-6.9,0-14,0-21.4c0-4.2,0-8.3,0-12.3v-6c0-1,0-1.9,0-3c0.1-1,0.3-2,0.6-2.9c1.3-3.7,3.7-6.8,5.8-9.8
		s2.5-6.7,2.6-10l0.3,0.3c-0.9,0.1-1.8-0.3-2.5-0.9c-0.3-0.3-0.5-0.8-0.6-1.2c0-0.5,0-0.8,0-1.2c0-0.4,0-0.8,0-1.2
		c0.1-0.4,0.3-0.9,0.6-1.2c0.6-0.6,1.5-0.9,2.4-0.9h8.9h6.2c0.7,0,1.4,0.2,2,0.7c0.6,0.5,0.9,1.2,0.8,1.9c0,0.6,0,1.2,0,1.9
		c-0.3,1.3-1.6,2.2-3,2l0.2-0.2c0,3.9,0.8,7.6,2.6,10.2c1.6,2.2,3.1,4.5,4.4,6.8c0.8,1.5,1.4,3.1,1.7,4.8c0.1,0.4,0.1,0.9,0.1,1.3
		C309.4,200.5,309.4,200.7,309.4,200.9z"/>
	<path class="st1" d="M299.5,177.3c0,0.2-3.1,0.4-6.9,0.4s-6.9-0.2-6.9-0.4s3.1-0.4,6.9-0.4S299.5,177.1,299.5,177.3z"/>
	<path class="st2" d="M308,206.7c-1.4-0.9-3.2-0.5-4.7,0.2s-2.9,1.7-4.5,2c-1.9,0.2-3.9-0.3-5.5-1.4c-1.6-1.1-3.3-2-5.1-2.8
		c-3.6-1.2-7.6-0.3-10.3,2.4v37.3c0,0,2,6.4,16.5,5.4s13.3-7.4,13.3-7.4L308,206.7z"/>
	<path class="st0" d="M273.6,200.9C273.6,201,273.6,201,273.6,200.9v43.5c0,1.9-1.5,3.9-4.4,5.4c-3.8,1.8-7.9,2.6-12.1,2.5h-0.1
		c-10.3,0-16.4-4.1-16.4-7.9V201c0,0,0,0,0-0.1c0,0,0-0.1,0-0.1c0-4.2,3.1-8.7,6.3-13.1c2.1-2.9,2.6-7.1,2.7-9.6c0-0.3,0-0.6,0-0.8
		h-0.3c-1.3,0.1-2.4-0.9-2.5-2.1v-1.8c0.1-1.3,1.2-2.2,2.5-2.1h15.4c0.9,0,1.8,0.5,2.3,1.3c0.1,0.3,0.2,0.5,0.2,0.8v1.8
		c-0.1,1.3-1.2,2.2-2.5,2.1h-0.3c0,0.2,0,0.5,0,0.8c0.1,2.5,0.6,6.7,2.7,9.6C270.4,192.2,273.5,196.6,273.6,200.9
		C273.6,200.9,273.6,200.9,273.6,200.9z"/>
	<path class="st1" d="M273.6,200.9c0,0,0-0.1,0-0.4c0-0.4-0.1-0.9-0.2-1.3c-0.4-1.6-1-3.2-1.8-4.7c-1.4-2.3-2.8-4.6-4.5-6.7
		c-1.9-2.7-2.7-6.4-2.8-10.4v-0.3h0.2c1.1,0.2,2.2-0.5,2.5-1.6c0-0.6,0-1.2,0-1.8c0.1-0.6-0.2-1.1-0.6-1.5c-0.5-0.4-1.1-0.6-1.7-0.5
		h-6.2h-8.9c-0.7-0.1-1.4,0.2-1.9,0.7c-0.2,0.2-0.4,0.5-0.4,0.9c0,0.4,0,0.8,0,1.1c0,0.4,0,0.8,0,1.2c0.1,0.3,0.2,0.6,0.4,0.9
		c0.5,0.5,1.3,0.8,2,0.7h0.3v0.4c0,1.8-0.2,3.6-0.6,5.3c-0.4,1.8-1.1,3.6-2.1,5.1c-2.1,3-4.4,6.1-5.7,9.6c-0.3,0.9-0.5,1.8-0.6,2.8
		c-0.1,0.9,0,1.9,0,2.9v6c0,4,0,8.1,0,12.3c0,7.3,0,14.5,0,21.4c0,0.8,0,1.7,0.1,2.5c0.2,0.8,0.6,1.5,1.1,2.1c1.1,1.2,2.5,2.1,4,2.7
		c3,1.2,6.2,1.8,9.4,1.9c3.1,0.2,6.1-0.1,9.1-0.8c2.8-0.7,5.6-1.9,7.4-4c0.4-0.5,0.8-1.1,1-1.7c0.2-0.7,0.2-1.3,0.2-2
		c0-1.4,0-2.7,0-4c0-2.6,0-5.1,0-7.5c0-9.6,0.1-17.3,0.1-22.7c0-2.7,0-4.7,0.1-6.2S273.7,200.9,273.6,200.9c0.2,0.6,0.2,1.3,0.2,2.1
		c0,1.4,0,3.5,0.1,6.2c0,5.4,0.1,13.1,0.1,22.7c0,2.4,0,4.9,0,7.5c0,1.3,0,2.6,0,4c0,0.7,0,1.4-0.2,2.1c-0.2,0.7-0.6,1.4-1.1,1.9
		c-1.9,2.2-4.8,3.4-7.7,4.2c-3,0.7-6.2,1-9.3,0.9c-3.3-0.1-6.6-0.8-9.6-2c-1.6-0.6-3.1-1.6-4.2-2.9c-0.6-0.7-1.1-1.5-1.3-2.4
		c-0.1-0.9-0.2-1.8-0.1-2.6v-39.5c0-1,0-1.9,0-3c0.1-1,0.3-2,0.6-2.9c1.4-3.7,3.7-6.8,5.8-9.8s2.5-6.7,2.6-10l0.3,0.3
		c-0.9,0.1-1.8-0.3-2.4-0.9c-0.3-0.3-0.5-0.8-0.6-1.2c0-0.5,0-0.8,0-1.2c0-0.4,0-0.8,0-1.2c0.1-0.4,0.3-0.9,0.6-1.2
		c0.6-0.6,1.5-0.9,2.4-0.9h8.9h6.2c0.7,0,1.4,0.2,2,0.7c0.6,0.5,0.9,1.2,0.8,1.9c0,0.6,0,1.2,0,1.9c-0.3,1.3-1.6,2.2-3,2l0.2-0.2
		c0,3.9,0.8,7.6,2.6,10.2c1.6,2.2,3.1,4.5,4.4,6.8c0.8,1.5,1.4,3.1,1.7,4.8c0.1,0.4,0.1,0.9,0.1,1.3
		C273.6,200.8,273.6,200.9,273.6,200.9z"/>
	<path class="st1" d="M263.7,177.3c0,0.2-3.1,0.4-6.9,0.4s-6.9-0.2-6.9-0.4s3.1-0.4,6.9-0.4C260.6,176.9,263.7,177.1,263.7,177.3z"
		/>
	<path class="st2" d="M272.2,206.7c-1.4-0.9-3.2-0.5-4.7,0.2s-2.9,1.7-4.5,2c-1.9,0.2-3.9-0.3-5.5-1.4c-1.6-1.1-3.3-2-5.1-2.8
		c-3.6-1.2-7.6-0.3-10.3,2.4v37.3c0,0,2.1,6.4,16.5,5.4c14.4-1,13.3-7.4,13.3-7.4L272.2,206.7z"/>
	<path class="st0" d="M237.8,200.9C237.8,201,237.8,201,237.8,200.9v43.5c0,1.9-1.5,3.9-4.4,5.4c-3.8,1.8-7.9,2.6-12.1,2.5h-0.1
		c-10.3,0-16.4-4.1-16.4-7.9V201c0,0,0,0,0-0.1c0,0,0-0.1,0-0.1c0-4.2,3.1-8.7,6.3-13.1c2.1-2.9,2.6-7.1,2.7-9.6c0-0.3,0-0.6,0-0.8
		h-0.3c-1.3,0.1-2.3-0.9-2.4-2.1v-1.8c0.1-1.3,1.2-2.2,2.4-2.1H229c0.9,0,1.8,0.5,2.3,1.3c0.1,0.3,0.2,0.5,0.2,0.8v1.8
		c-0.1,1.3-1.2,2.2-2.5,2.1h-0.3c0,0.2,0,0.5,0,0.8c0.1,2.5,0.6,6.7,2.7,9.6C234.6,192.2,237.7,196.6,237.8,200.9
		C237.8,200.9,237.8,200.9,237.8,200.9z"/>
	<path class="st1" d="M237.8,200.9c0-0.1,0-0.3,0-0.4c0-0.4-0.1-0.9-0.2-1.3c-0.4-1.6-1-3.2-1.8-4.7c-1.3-2.3-2.8-4.6-4.5-6.7
		c-1.9-2.7-2.7-6.4-2.8-10.4v-0.3h0.2c1.1,0.2,2.2-0.5,2.5-1.6c0-0.6,0-1.2,0-1.8c0.1-0.6-0.2-1.2-0.6-1.5c-0.5-0.4-1.1-0.6-1.7-0.5
		h-6.2h-8.9c-0.7-0.1-1.4,0.2-1.9,0.7c-0.2,0.2-0.4,0.5-0.4,0.9c0,0.4,0,0.8,0,1.1c0,0.4,0,0.8,0,1.2c0,0.3,0.2,0.6,0.4,0.9
		c0.5,0.5,1.3,0.8,2,0.7h0.3v0.4c0,1.8-0.2,3.6-0.6,5.3c-0.4,1.8-1.1,3.6-2.1,5.1c-2.1,3-4.4,6.1-5.7,9.6c-0.3,0.9-0.5,1.8-0.6,2.8
		c0,0.9,0,1.9,0,2.9c0,2,0,4,0,6v12.3c0,7.3,0,14.5,0,21.4c0,0.8,0,1.7,0.1,2.5c0.2,0.8,0.6,1.5,1.1,2.1c1.1,1.2,2.5,2.1,4,2.7
		c3,1.2,6.2,1.8,9.4,1.9c3.1,0.2,6.1-0.1,9.1-0.8c2.8-0.7,5.6-1.9,7.4-4c0.4-0.5,0.8-1.1,1-1.7c0.2-0.7,0.2-1.3,0.2-2
		c0-1.4,0-2.7,0-4c0-2.6,0-5.1,0-7.5c0.1-9.6,0.1-17.3,0.1-22.7c0-2.7,0.1-4.7,0.1-6.2S237.9,200.9,237.8,200.9
		c0.2,0.6,0.2,1.3,0.2,2.1c0,1.4,0,3.5,0.1,6.2c0,5.4,0.1,13.1,0.1,22.7c0,2.4,0,4.9,0,7.5c0,1.3,0,2.6,0,4c0.1,0.7,0,1.4-0.2,2.1
		c-0.2,0.7-0.6,1.4-1.1,1.9c-1.9,2.2-4.8,3.4-7.7,4.2c-3,0.7-6.2,1-9.3,0.9c-3.3-0.1-6.6-0.8-9.6-2c-1.6-0.6-3.1-1.6-4.2-2.9
		c-0.6-0.7-1.1-1.5-1.3-2.4c-0.1-0.9-0.2-1.8-0.1-2.6c0-6.9,0-14,0-21.4V209c0-2,0-4,0-6c0-1,0-1.9,0-3c0.1-1,0.3-2,0.6-2.9
		c1.3-3.7,3.7-6.8,5.8-9.8s2.5-6.7,2.6-10l0.3,0.3c-0.9,0.1-1.8-0.3-2.4-0.9c-0.3-0.3-0.5-0.8-0.6-1.2c0-0.5,0-0.8,0-1.2
		c0-0.4,0-0.8,0-1.2c0.1-0.5,0.3-0.9,0.6-1.2c0.6-0.6,1.5-0.9,2.3-0.9h8.9h6.2c0.7,0,1.4,0.2,2,0.7c0.6,0.5,0.9,1.2,0.8,1.9
		c0,0.6,0,1.2,0,1.9c-0.3,1.3-1.6,2.2-3,2l0.2-0.2c0.1,3.9,0.8,7.6,2.6,10.2c1.6,2.2,3.1,4.5,4.4,6.8c0.8,1.5,1.4,3.1,1.7,4.8
		c0.1,0.4,0.1,0.9,0.1,1.3C237.9,200.8,237.8,200.9,237.8,200.9z"/>
	<path class="st1" d="M227.9,177.3c0,0.2-3.1,0.4-6.9,0.4s-6.9-0.2-6.9-0.4s3.1-0.4,6.9-0.4S227.9,177.1,227.9,177.3z"/>
	<path class="st2" d="M236.4,206.7c-1.4-0.9-3.2-0.5-4.7,0.2s-2.9,1.7-4.5,2c-1.9,0.2-3.9-0.3-5.5-1.4c-1.6-1.1-3.3-2-5.1-2.8
		c-3.6-1.2-7.6-0.3-10.3,2.4v37.3c0,0,2.1,6.4,16.5,5.4s13.3-7.4,13.3-7.4L236.4,206.7z"/>
	<path class="st0" d="M202,200.9C202,201,202,201,202,200.9v43.5c0,1.9-1.5,3.9-4.4,5.4c-3.8,1.8-7.9,2.6-12.1,2.5h-0.1
		c-10.3,0-16.4-4.1-16.4-7.9V201c0,0,0,0,0-0.1c0,0,0-0.1,0-0.1c0-4.2,3.1-8.7,6.3-13.1c2.1-2.9,2.6-7.1,2.7-9.6c0-0.3,0-0.6,0-0.8
		h-0.3c-1.3,0.1-2.3-0.9-2.4-2.1v-1.8c0.1-1.3,1.2-2.2,2.4-2.1h15.4c0.9,0,1.8,0.5,2.3,1.3c0.1,0.3,0.2,0.5,0.2,0.8v1.8
		c-0.1,1.3-1.2,2.2-2.4,2.1H193c0,0.2,0,0.5,0,0.8c0.1,2.5,0.6,6.7,2.7,9.6C198.9,192.2,202,196.6,202,200.9
		C202.1,200.9,202,200.9,202,200.9z"/>
	<path class="st1" d="M202,200.9c0,0,0-0.1,0-0.4s-0.1-0.7-0.2-1.3c-0.4-1.6-1-3.2-1.8-4.7c-1.3-2.3-2.8-4.6-4.5-6.7
		c-1.9-2.7-2.7-6.4-2.8-10.4v-0.3h0.2c1.1,0.2,2.2-0.5,2.5-1.6c0-0.6,0-1.2,0-1.8c0.1-0.6-0.2-1.1-0.6-1.5c-0.5-0.4-1.1-0.6-1.7-0.5
		H187h-8.9c-0.7-0.1-1.4,0.2-1.9,0.7c-0.2,0.2-0.4,0.5-0.4,0.9c0,0.4,0,0.8,0,1.1c0,0.4,0,0.8,0,1.2c0,0.3,0.2,0.6,0.4,0.9
		c0.5,0.5,1.3,0.8,2,0.7h0.3v0.4c0,1.8-0.2,3.6-0.6,5.3c-0.4,1.8-1.1,3.6-2.1,5.1c-2.1,3-4.4,6.1-5.7,9.6c-0.3,0.9-0.5,1.8-0.6,2.8
		c0,0.9,0,1.9,0,2.9v39.7c0,0.8,0,1.7,0.1,2.5c0.2,0.8,0.6,1.5,1.1,2.1c1.1,1.2,2.5,2.1,4,2.7c3,1.2,6.2,1.8,9.4,1.9
		c3.1,0.2,6.1-0.1,9.1-0.8c2.9-0.7,5.6-1.9,7.4-4c0.4-0.5,0.8-1.1,1-1.7c0.2-0.7,0.2-1.3,0.2-2c0-1.4,0-2.7,0-4c0-2.6,0-5.1,0-7.5
		c0.1-9.6,0.1-17.3,0.1-22.7c0-2.7,0.1-4.7,0.1-6.2s0.1-2.1,0.1-2.1c0.1,0.7,0.1,1.4,0.1,2.1c0,1.4,0,3.5,0.1,6.2
		c0,5.4,0.1,13.1,0.1,22.7c0,2.4,0,4.9,0,7.5c0,1.3,0,2.6,0,4c0,0.7,0,1.4-0.2,2.1c-0.2,0.7-0.6,1.4-1.1,1.9
		c-1.9,2.2-4.8,3.4-7.7,4.2c-3,0.7-6.2,1-9.3,0.9c-3.3-0.1-6.6-0.8-9.6-2c-1.6-0.6-3.1-1.6-4.2-2.9c-0.6-0.7-1.1-1.5-1.3-2.4
		c-0.1-0.9-0.2-1.8-0.1-2.6c0-6.9,0-14,0-21.4c0-4.2,0-8.3,0-12.3v-6c0-1,0-1.9,0-3c0.1-1,0.3-2,0.6-2.9c1.3-3.7,3.7-6.8,5.8-9.8
		s2.5-6.7,2.6-10l0.3,0.3c-0.9,0.1-1.8-0.3-2.4-0.9c-0.3-0.3-0.5-0.8-0.6-1.2c0-0.5,0-0.8,0-1.2c0-0.4,0-0.8,0-1.2
		c0.1-0.4,0.3-0.9,0.6-1.2c0.6-0.6,1.5-0.9,2.4-0.9h8.9h6.2c0.7,0,1.4,0.2,2,0.7c0.6,0.5,0.9,1.2,0.8,1.9c0,0.6,0,1.2,0,1.9
		c-0.3,1.3-1.6,2.2-3,2l0.2-0.2c0.1,3.9,0.8,7.6,2.6,10.2c1.6,2.2,3.1,4.5,4.4,6.8c0.8,1.5,1.4,3.1,1.7,4.8c0.1,0.4,0.1,0.9,0.1,1.3
		C202.1,200.5,202.1,200.7,202,200.9z"/>
	<path class="st1" d="M192.1,177.3c0,0.2-3.1,0.4-6.9,0.4s-6.9-0.2-6.9-0.4s3.1-0.4,6.9-0.4S192.1,177.1,192.1,177.3z"/>
	<path class="st2" d="M200.7,206.7c-1.4-0.9-3.2-0.5-4.7,0.2s-2.9,1.7-4.5,2c-1.9,0.2-3.9-0.3-5.5-1.4c-1.6-1.1-3.3-2-5.1-2.8
		c-3.6-1.2-7.6-0.3-10.3,2.4v37.3c0,0,2.1,6.4,16.5,5.4s13.3-7.4,13.3-7.4L200.7,206.7z"/>
	<rect x="127.7" y="246.1" class="st1" width="236.8" height="11.5"/>
	<polygon class="st2" points="59.3,413.7 66.8,462.6 110,462.6 120,414.4 	"/>
	<path class="st0" d="M114,445c0,0.1-11.1,0.2-24.7,0.2s-24.8-0.1-24.8-0.2s11.1-0.3,24.7-0.3S114,444.9,114,445z"/>
	<path class="st0" d="M114.1,442.6c0,0.1-11.2,0.3-24.9,0.3s-24.9-0.1-24.9-0.3s11.2-0.2,24.9-0.2S114.1,442.5,114.1,442.6z"/>
	<path class="st0" d="M114,439.9c0,0.1-11.1,0.2-24.9,0.2s-24.9-0.1-24.9-0.2s11.1-0.2,24.9-0.2S114,439.8,114,439.9z"/>
	<path class="st0" d="M71.7,459.8c-0.6-2-1-4.1-1.3-6.1c-0.4-2.1-0.7-4.1-0.8-6.2c0.6,2,1.1,4.1,1.3,6.1
		C71.3,455.6,71.6,457.7,71.7,459.8z"/>
	<path class="st0" d="M74.7,459.3c-0.3-2-0.5-4-0.5-6c-0.2-2-0.3-4-0.3-6c0.5,2,0.7,4,0.8,6C74.9,455.3,74.9,457.3,74.7,459.3z"/>
	<path class="st0" d="M80,459.3c-0.6-2-1-4.1-1.1-6.2c-0.3-2.1-0.4-4.2-0.3-6.2c0.4,2,0.7,4.1,0.8,6.2
		C79.7,455.1,79.9,457.2,80,459.3z"/>
	<path class="st0" d="M83.8,459.5c-0.4-2.1-0.6-4.2-0.6-6.3c-0.2-2.1-0.1-4.2,0.2-6.3c0.2,2.1,0.3,4.2,0.3,6.3
		C83.8,455.4,83.9,457.5,83.8,459.5z"/>
	<path class="st0" d="M90.4,459.3c-0.3-2-0.5-3.9-0.4-5.9c-0.2-2-0.1-4,0.1-6C90.5,451.3,90.6,455.3,90.4,459.3L90.4,459.3z"/>
	<path class="st0" d="M95.3,459.5c-0.2-2-0.3-4.1-0.2-6.1c-0.1-2.1,0-4.1,0.3-6.1c0.2,2,0.3,4.1,0.2,6.1
		C95.7,455.5,95.6,457.5,95.3,459.5z"/>
	<path class="st0" d="M99.9,458.9c0.1-4.3,0.5-8.6,1.2-12.8c0,2.1-0.1,4.3-0.4,6.4C100.6,454.7,100.3,456.8,99.9,458.9z"/>
	<path class="st0" d="M105.7,458.2c0.2-3.7,1-7.3,2.3-10.7c-0.3,1.8-0.6,3.6-1.1,5.4C106.7,454.7,106.3,456.5,105.7,458.2z"/>
	<path class="st2" d="M101.6,317.3c0,0.1,0,0.2,0,0.2c0,0.2-0.1,0.4-0.2,0.7c-0.2,0.6-0.5,1.5-0.8,2.6s-0.8,2.5-1.3,4.2
		s-1,3.5-1.6,5.6s-1.1,4.4-1.7,6.8s-1.1,5.1-1.7,7.9c-1,5.6-2,11.7-2.7,18.2s-0.9,12.8-1,18.4c0,2.8,0,5.5,0.1,8s0.2,4.9,0.3,7
		s0.3,4.1,0.4,5.8s0.3,3.1,0.4,4.4s0.2,2.1,0.3,2.7c0,0.3,0,0.5,0.1,0.7c0,0.1,0,0.2,0,0.2c0-0.1-0.1-0.2-0.1-0.2
		c0-0.2-0.1-0.4-0.1-0.7c-0.1-0.7-0.2-1.6-0.4-2.7s-0.3-2.6-0.5-4.4s-0.4-3.6-0.5-5.8s-0.3-4.5-0.4-7s-0.1-5.2-0.1-8.1
		c0.1-5.7,0.3-11.9,1-18.5s1.6-12.7,2.7-18.3c0.6-2.8,1.1-5.4,1.7-7.9s1.2-4.7,1.7-6.8s1.1-3.9,1.6-5.6s1-3,1.3-4.2s0.7-2,0.9-2.6
		c0.1-0.3,0.2-0.5,0.2-0.7C101.6,317.4,101.6,317.3,101.6,317.3z"/>
	<path class="st2" d="M93.8,347.5c1.2-3.5,3.6-6.6,6.7-8.5c1.1-0.7,2.4-1.2,3.6-0.6c1.5,0.7,1.6,2.9,1.2,4.5
		c-0.8,2.7-2.5,5.1-4.9,6.7c-2.1,1.6-4.7,2.2-7.3,1.9"/>
	<path class="st2" d="M91.2,368c1.1-4.2,4.5-10.2,8-12.8c0.5-0.5,1.2-0.8,1.8-1c0.7-0.2,1.4,0,1.9,0.4c0.6,0.8,0.8,1.9,0.4,2.8
		c-1.5,6.3-6.3,11.2-12.6,12.7"/>
	<path class="st2" d="M90.4,386c1.7-4,4.5-7.5,8-10.1c0.8-0.7,1.8-1.1,2.8-1c1.5,0.3,2.2,2.1,2.1,3.7c-0.3,3.2-2.7,5.7-5.2,7.7
		c-2.3,1.6-4.8,2.9-7.4,3.8"/>
	<path class="st2" d="M90.8,398.9c1.7-3.1,4-5.7,6.8-7.8c0.6-0.5,1.3-0.8,2-0.9c0.8-0.1,1.5,0.2,2,0.8c0.7,1,0,2.4-0.7,3.3
		c-2.4,3.4-5.8,5.9-9.8,7.2"/>
	<path class="st2" d="M90.5,393.6c-3-3.6-6.2-7-9.8-10c-0.6-0.5-1.3-1-1.9-0.7c-0.5,0.2-0.9,0.7-0.9,1.3c0,0.6,0.1,1.1,0.4,1.6
		c2.4,5.3,7,9.2,12.6,10.6"/>
	<path class="st2" d="M90.8,376.8c-2.6-3.1-5.1-6.2-7.7-9.4c-0.7-0.9-1.5-1.7-2.5-2.4c-1-0.6-2.3-0.6-3.3,0
		c-0.9,0.7-1.3,1.9-1.1,3.1c0.3,1.1,0.8,2.2,1.5,3.1c1.5,2.3,3.4,4.3,5.6,6c2.3,1.6,4.3,2.6,7,2.2"/>
	<path class="st2" d="M91.9,357.9c-1.5-4.5-4.2-8.5-7.7-11.6c-0.6-0.6-1.2-1-2-1.2c-1.6-0.3-3,1-3.5,2.5c-0.5,1.7-0.2,3.6,0.7,5.1
		c0.9,1.5,2.2,2.8,3.6,3.8c2.6,2,5.5,3.5,8.6,4.6"/>
	<path class="st2" d="M95,341c-0.8-5.4-3.6-10-6.9-14.4c-0.7-0.9-1.7-1.9-2.8-1.7c-0.7,0.2-1.3,0.7-1.6,1.4
		c-0.3,0.7-0.4,1.4-0.3,2.2c0.3,6.7,4.6,12.6,10.9,15"/>
	<path class="st2" d="M97.1,332.3c-0.4-2.8-0.5-5.6-0.3-8.4c0.2-2.8,1.1-5.5,2.8-7.8c0.7-1,1.7-1.8,2.8-2.2c1.1-0.5,2.4-0.3,3.4,0.5
		c0.8,0.8,1.3,1.9,1.2,3c-0.1,1.1-0.4,2.2-0.9,3.2C104.1,325.5,100.7,330.9,97.1,332.3"/>
	<path class="st1" d="M63.6,338.8c0,0.2,0,0.5,0,0.7c0,0.5,0,1.2,0,2c0,0.9,0,1.9,0,3.1s0,2.6,0.2,4.1c0.1,3.1,0.4,6.7,0.9,10.7
		s1.2,8.4,2.1,13s2.1,8.9,3.3,12.8s2.4,7.3,3.5,10.2c0.5,1.4,1.1,2.7,1.5,3.8s0.9,2.1,1.2,2.9s0.6,1.4,0.8,1.8
		c0.1,0.2,0.2,0.4,0.2,0.6c-0.1-0.2-0.2-0.4-0.3-0.6c-0.2-0.5-0.5-1-0.9-1.8s-0.8-1.7-1.3-2.8s-1.1-2.4-1.6-3.8
		c-1.2-2.9-2.4-6.3-3.6-10.2s-2.3-8.2-3.3-12.8s-1.6-9-2.1-13s-0.7-7.7-0.8-10.8c-0.1-1.5-0.1-2.9-0.1-4.1s0-2.3,0-3.1s0-1.5,0.1-2
		C63.4,339.3,63.5,339,63.6,338.8z"/>
	<path class="st1" d="M64.8,361.1c0-2.7,1-5.2,2.7-7.2c0.5-0.8,1.4-1.2,2.3-1.2c1.2,0.2,1.7,1.6,1.8,2.8c0.1,2-0.6,4-1.9,5.5
		c-1.1,1.5-2.8,2.5-4.6,2.8"/>
	<path class="st1" d="M67.4,375.6c-0.2-3.1,0.8-7.9,2.7-10.5c0.3-0.4,0.6-0.8,1-1c0.4-0.3,0.9-0.3,1.4-0.1c0.6,0.4,0.9,1.1,0.9,1.8
		c0.4,4.6-1.9,9-5.8,11.4"/>
	<path class="st1" d="M70.8,388c0.3-3.1,1.5-6.1,3.3-8.6c0.4-0.6,1-1.1,1.7-1.3c1.1-0.1,2,1,2.2,2.1c0.5,2.2-0.6,4.5-1.9,6.4
		c-1.2,1.6-2.7,3-4.2,4.2"/>
	<path class="st1" d="M73.9,396.7c0.5-2.5,1.5-4.8,3-6.8c0.3-0.4,0.7-0.8,1.2-1.1c0.5-0.3,1.1-0.2,1.5,0.1c0.7,0.5,0.5,1.6,0.2,2.4
		c-0.9,2.8-2.7,5.3-5.1,7"/>
	<path class="st1" d="M72.5,393.2c-2.8-1.8-5.7-3.4-8.8-4.7c-0.4-0.3-1-0.3-1.5-0.1c-0.3,0.3-0.5,0.7-0.3,1.1c0.1,0.4,0.3,0.7,0.6,1
		c2.7,3.1,6.7,4.7,10.9,4.5"/>
	<path class="st1" d="M69.1,381.7l-7.3-4.7c-0.7-0.5-1.4-0.9-2.2-1.1c-0.8-0.2-1.7,0.1-2.2,0.7c-0.5,0.7-0.5,1.6,0,2.3
		c0.4,0.7,1,1.3,1.7,1.8c1.5,1.2,3.2,2.2,5.1,2.8c1.9,0.6,3.5,0.8,5.2,0"/>
	<path class="st1" d="M65.7,368.5c-2-2.7-4.7-4.9-7.7-6.2c-0.5-0.3-1.1-0.4-1.6-0.4c-1.1,0.3-1.9,1.3-1.9,2.5c0,1.3,0.6,2.5,1.5,3.3
		c1,0.8,2.1,1.4,3.3,1.8c2.2,0.8,4.5,1.2,6.8,1.3"/>
	<path class="st1" d="M64.2,356.4c-1.7-3.5-4.6-6-7.8-8.3c-0.6-0.6-1.5-0.8-2.3-0.6c-0.5,0.3-0.8,0.7-0.8,1.3c0,0.5,0.1,1.1,0.3,1.5
		c1.7,4.5,5.8,7.6,10.7,7.9"/>
	<path class="st1" d="M63.8,350c-0.8-1.8-1.5-3.7-2-5.7c-0.5-2-0.4-4,0.2-5.9c0.3-0.8,0.8-1.6,1.4-2.1c0.7-0.6,1.6-0.7,2.4-0.4
		c0.7,0.4,1.3,1,1.4,1.8c0.2,0.8,0.2,1.6,0.1,2.4C67.1,343.8,65.9,348.3,63.8,350"/>
	<path class="st2" d="M118.2,338.3c0,0.2,0.1,0.5,0.1,0.7c0,0.5,0,1.1,0.1,2s0.1,1.9,0,3.1s0,2.6-0.1,4.1c-0.1,3.1-0.3,6.7-0.8,10.8
		s-1.1,8.5-2.1,13s-2.1,8.9-3.3,12.8s-2.4,7.3-3.6,10.2c-0.5,1.4-1.1,2.7-1.6,3.8s-0.9,2.1-1.3,2.9l-0.9,1.8
		c-0.1,0.2-0.2,0.4-0.3,0.6c0.1-0.2,0.1-0.4,0.2-0.6c0.2-0.5,0.4-1.1,0.8-1.8s0.8-1.8,1.2-2.9s1-2.4,1.5-3.8
		c1.1-2.9,2.3-6.3,3.5-10.2s2.3-8.2,3.3-12.8s1.6-9,2.1-13s0.8-7.6,0.9-10.7c0.1-1.5,0.1-2.9,0.2-4.1s0-2.3,0-3.1s0-1.5,0-2
		C118.1,338.8,118.2,338.5,118.2,338.3z"/>
	<path class="st2" d="M117,360.6c0-2.7-1-5.2-2.8-7.2c-0.5-0.8-1.4-1.2-2.3-1.2c-1.2,0.2-1.7,1.6-1.8,2.8c-0.1,2,0.6,4,1.9,5.6
		c1.1,1.5,2.7,2.5,4.6,2.8"/>
	<path class="st2" d="M114.4,375.1c0.2-3.1-0.8-7.9-2.7-10.5c-0.3-0.4-0.6-0.7-1-1c-0.4-0.3-0.9-0.3-1.4-0.1
		c-0.6,0.4-0.9,1.1-0.9,1.8c-0.4,4.6,1.9,9,5.9,11.4"/>
	<path class="st2" d="M111,387.5c-0.3-3.1-1.5-6.1-3.3-8.6c-0.4-0.6-1-1.1-1.7-1.3c-1.1-0.1-2,1-2.2,2.1c-0.5,2.2,0.6,4.5,1.9,6.4
		c1.2,1.6,2.7,3,4.2,4.2"/>
	<path class="st2" d="M108,396.2c-0.5-2.5-1.5-4.8-3-6.8c-0.3-0.4-0.7-0.8-1.2-1.1c-0.5-0.3-1.1-0.2-1.5,0.1
		c-0.7,0.5-0.5,1.6-0.2,2.4c0.9,2.8,2.7,5.3,5.1,7"/>
	<path class="st2" d="M109.3,392.7c2.8-1.8,5.7-3.4,8.8-4.7c0.5-0.3,1-0.3,1.5-0.1c0.3,0.3,0.5,0.7,0.3,1.1c-0.1,0.4-0.3,0.7-0.6,1
		c-2.7,3.1-6.7,4.7-10.9,4.5"/>
	<path class="st2" d="M112.8,381.2l7.3-4.7c0.7-0.5,1.4-0.9,2.2-1.1c0.8-0.2,1.7,0.1,2.2,0.7c0.5,0.7,0.5,1.6,0.1,2.3
		c-0.4,0.7-1,1.3-1.7,1.8c-1.5,1.3-3.2,2.2-5.1,2.9c-1.9,0.6-3.5,0.8-5.2,0"/>
	<path class="st2" d="M116.1,368.1c2-2.7,4.7-4.9,7.8-6.2c0.5-0.3,1.1-0.4,1.6-0.4c1.1,0.3,1.9,1.3,1.9,2.5c0,1.3-0.6,2.5-1.6,3.3
		c-1,0.8-2.1,1.4-3.3,1.8c-2.2,0.8-4.5,1.2-6.8,1.3"/>
	<path class="st2" d="M117.6,355.9c1.7-3.5,4.6-6,7.8-8.3c0.6-0.6,1.5-0.8,2.3-0.6c0.5,0.3,0.8,0.8,0.8,1.3c0,0.5-0.1,1.1-0.3,1.5
		c-1.7,4.5-5.8,7.6-10.7,7.9"/>
	<path class="st2" d="M118,349.6c0.8-1.8,1.5-3.7,2-5.7c0.5-2,0.4-4-0.2-5.9c-0.3-0.8-0.8-1.6-1.4-2.1c-0.7-0.6-1.6-0.7-2.4-0.4
		c-0.7,0.3-1.3,1-1.4,1.8c-0.2,0.8-0.2,1.6-0.1,2.4C114.7,343.4,115.9,347.9,118,349.6"/>
	<path class="st2" d="M54.4,404v9.1c0,2,1.6,3.6,3.6,3.6h0h62.6c2,0,3.6-1.6,3.6-3.6l0,0V404H54.4z"/>
	<polygon class="st1" points="59.8,416.8 60.3,419.7 118.1,423.8 119.5,416.8 	"/>
	<path class="st1" d="M199.7,84.2c0.9-6-3.2-11.6-9.2-12.5c0,0,0,0,0,0c-0.3-0.1-0.5,0-0.8,0.1c-0.3,0.2-0.3,0.7-0.3,1
		c0.5,5.7,4.7,10.4,10.3,11.7"/>
	<path class="st2" d="M184.4,104.4c2.8,5.7,6.7,9.5,11.6,9.7c1,0,1.7-0.6,2.7-0.7c0.5,0.1,1.1,0.3,1.6,0.6c0.3,0.1,0.5,0.2,0.8,0.2
		c5.1-0.3,9.4-3.8,12.3-9.8c4.1-8.4,2.8-17.3-2.8-20.1c-0.7-0.4-1.5-0.7-2.3-0.9c-0.9-0.2-1.8-0.4-2.8-0.3c-2.2,0.1-4.3,0.6-6.4,1.4
		l-0.3,0.1c-4.6-2-8.2-2-11.7-0.3C181.6,87.1,180.3,96.1,184.4,104.4z"/>
	<path class="st0" d="M184.5,96c-0.3-0.5-0.4-1.1-0.5-1.7c-0.3-2.9,0.7-5.7,2.8-7.7c0.4-0.4,0.9-0.8,1.4-1c0,0.1-0.5,0.4-1.3,1.2
		c-1.9,2-2.9,4.7-2.8,7.5C184.4,95.3,184.6,95.9,184.5,96z"/>
	<path class="st0" d="M185.5,99.9c-0.1,0-0.3-0.4-0.4-0.9s-0.1-0.9,0-1s0.3,0.4,0.4,0.9S185.6,99.9,185.5,99.9z"/>
	<path class="st1" d="M211.3,70.6c0,0.1-1,0.5-2.6,1.4c-0.9,0.6-1.8,1.2-2.7,1.9c-2,1.7-3.7,3.7-5,6.1c-0.5,0.9-1,1.9-1.3,2.9
		c-0.6,1.7-0.8,2.9-0.9,2.8c0-0.3,0-0.5,0.1-0.8c0-0.3,0.1-0.6,0.2-0.9c0.1-0.4,0.2-0.8,0.3-1.2c0.3-1,0.8-2,1.3-3
		c1.2-2.4,3-4.5,5.1-6.2c0.9-0.7,1.8-1.3,2.7-1.8c0.4-0.2,0.7-0.4,1.1-0.6c0.3-0.1,0.6-0.3,0.9-0.4C210.7,70.7,211,70.6,211.3,70.6z
		"/>
	<path class="st1" d="M257.4,84.2c0.9-6-3.2-11.6-9.1-12.5c0,0-0.1,0-0.1,0c-0.3-0.1-0.5,0-0.8,0.1c-0.3,0.2-0.3,0.7-0.3,1
		c0.5,5.7,4.7,10.4,10.3,11.7"/>
	<path class="st2" d="M242.1,104.4c2.8,5.7,6.7,9.5,11.6,9.7c1,0,1.7-0.6,2.7-0.7c0.5,0.1,1.1,0.3,1.6,0.6c0.3,0.1,0.5,0.2,0.8,0.2
		c5.1-0.3,9.4-3.8,12.3-9.8c4-8.4,2.8-17.3-2.8-20.1c-0.7-0.4-1.5-0.7-2.3-0.9c-0.9-0.2-1.8-0.4-2.8-0.3c-2.2,0.1-4.3,0.6-6.4,1.4
		l-0.3,0.1c-4.6-2-8.2-2-11.7-0.3C239.3,87.1,238,96.1,242.1,104.4z"/>
	<path class="st0" d="M242.2,96c-0.3-0.5-0.4-1.1-0.5-1.7c-0.3-2.9,0.7-5.7,2.8-7.7c0.4-0.4,0.9-0.8,1.4-1c0,0.1-0.5,0.4-1.2,1.2
		c-1.9,2-2.9,4.7-2.8,7.4C242.1,95.3,242.3,95.9,242.2,96z"/>
	<path class="st0" d="M243.2,99.9c-0.1,0-0.3-0.4-0.4-0.9s-0.1-0.9,0-1s0.3,0.4,0.4,0.9S243.3,99.9,243.2,99.9z"/>
	<path class="st1" d="M269,70.6c0,0.1-1,0.5-2.6,1.4c-0.9,0.6-1.8,1.2-2.6,1.9c-1,0.9-1.9,1.8-2.8,2.8c-0.8,1-1.6,2.1-2.2,3.3
		c-0.5,0.9-0.9,1.9-1.3,2.9c-0.6,1.7-0.8,2.9-0.9,2.8c0-0.3,0-0.5,0.1-0.8c0-0.3,0.1-0.6,0.2-0.9c0.1-0.4,0.2-0.8,0.3-1.2
		c0.3-1,0.7-2,1.2-3c0.6-1.2,1.4-2.3,2.2-3.3c0.9-1,1.8-2,2.8-2.8c0.8-0.7,1.8-1.3,2.7-1.8c0.4-0.2,0.7-0.4,1.1-0.6
		c0.3-0.1,0.6-0.3,0.9-0.4C268.5,70.7,268.7,70.6,269,70.6z"/>
	<path class="st1" d="M170.2,84.2c0.9-6-3.2-11.6-9.2-12.5c0,0-0.1,0-0.1,0c-0.3-0.1-0.5,0-0.8,0.1c-0.3,0.2-0.3,0.7-0.3,1
		c0.5,5.7,4.7,10.4,10.3,11.7"/>
	<path class="st3" d="M154.9,104.4c2.8,5.7,6.7,9.5,11.6,9.7c1,0,1.7-0.6,2.7-0.7c0.5,0.1,1.1,0.3,1.6,0.6c0.3,0.1,0.5,0.2,0.8,0.2
		c5.1-0.3,9.4-3.8,12.3-9.8c4.1-8.4,2.8-17.3-2.8-20.1c-0.7-0.4-1.5-0.7-2.3-0.9c-0.9-0.2-1.8-0.4-2.8-0.3c-2.2,0.1-4.3,0.6-6.4,1.4
		l-0.3,0.1c-4.6-2-8.2-2-11.7-0.3C152.1,87.1,150.9,96.1,154.9,104.4z"/>
	<path class="st0" d="M155,96c-0.3-0.5-0.4-1.1-0.5-1.7c-0.3-2.9,0.7-5.7,2.8-7.7c0.4-0.4,0.9-0.8,1.4-1c0,0.1-0.5,0.4-1.3,1.2
		c-0.9,1-1.7,2.2-2.2,3.4c-0.5,1.3-0.7,2.6-0.6,4C154.9,95.3,155.1,95.9,155,96z"/>
	<path class="st0" d="M156.1,99.9c-0.1,0-0.3-0.4-0.4-0.9s-0.1-0.9,0-1s0.3,0.4,0.4,0.9S156.2,99.9,156.1,99.9z"/>
	<path class="st1" d="M181.8,70.6c0,0.1-1,0.5-2.6,1.4c-0.9,0.6-1.8,1.2-2.6,1.9c-1,0.9-1.9,1.8-2.8,2.8c-0.8,1-1.6,2.1-2.2,3.3
		c-0.5,0.9-1,1.9-1.3,2.9c-0.6,1.7-0.8,2.9-0.9,2.8c0-0.3,0-0.5,0.1-0.8c0-0.3,0.1-0.6,0.2-0.9c0.1-0.4,0.2-0.8,0.3-1.2
		c0.3-1,0.8-2,1.3-3c0.6-1.2,1.4-2.3,2.2-3.3c0.9-1,1.8-2,2.8-2.8c0.8-0.7,1.8-1.3,2.7-1.8c0.4-0.2,0.7-0.4,1.1-0.6
		c0.3-0.1,0.6-0.3,0.9-0.4C181.3,70.7,181.6,70.6,181.8,70.6z"/>
	<path class="st1" d="M227.7,84.2c0.9-6-3.2-11.6-9.1-12.5c0,0,0,0-0.1,0c-0.4-0.2-0.9,0.1-1.1,0.5c-0.1,0.2-0.1,0.4,0,0.7
		c0.5,5.7,4.7,10.4,10.3,11.7"/>
	<path class="st3" d="M212.4,104.4c2.8,5.7,6.7,9.5,11.6,9.7c1,0,1.7-0.6,2.7-0.7c0.5,0.1,1.1,0.3,1.6,0.6c0.3,0.1,0.5,0.2,0.8,0.2
		c5.1-0.3,9.4-3.8,12.3-9.8c4.1-8.4,2.8-17.3-2.8-20.1c-0.7-0.4-1.5-0.7-2.3-0.9c-0.9-0.2-1.8-0.4-2.8-0.3c-2.2,0.1-4.3,0.6-6.4,1.4
		c-0.1,0-0.2,0.1-0.3,0.1c-4.6-2-8.2-2-11.7-0.3C209.6,87.1,208.4,96.1,212.4,104.4z"/>
	<path class="st0" d="M212.5,96c-0.3-0.5-0.4-1.1-0.5-1.7c-0.2-1.4,0-2.8,0.5-4.2c0.5-1.3,1.3-2.5,2.3-3.5c0.4-0.4,0.9-0.8,1.4-1
		c0,0.1-0.5,0.4-1.3,1.2c-1,1-1.7,2.2-2.2,3.4c-0.5,1.3-0.7,2.6-0.6,4C212.4,95.3,212.6,95.9,212.5,96z"/>
	<path class="st0" d="M213.5,99.9c-0.1,0-0.3-0.4-0.4-0.9s-0.1-0.9,0-1s0.3,0.4,0.4,0.9S213.6,99.9,213.5,99.9z"/>
	<path class="st1" d="M239.3,70.6c0,0.1-1.1,0.5-2.6,1.4c-0.9,0.6-1.8,1.2-2.6,1.9c-2,1.7-3.7,3.7-5,6.1c-0.5,0.9-0.9,1.9-1.3,2.9
		c-0.6,1.7-0.8,2.9-0.9,2.8c0-0.3,0-0.5,0.1-0.8c0-0.3,0.1-0.6,0.2-0.9c0.1-0.4,0.2-0.8,0.3-1.2c0.3-1,0.8-2,1.3-3
		c0.6-1.2,1.4-2.3,2.3-3.4c0.9-1,1.8-2,2.8-2.8c0.8-0.7,1.8-1.3,2.7-1.8c0.4-0.2,0.7-0.4,1.1-0.6c0.3-0.1,0.6-0.3,0.9-0.4
		C238.8,70.7,239,70.6,239.3,70.6z"/>
	<path class="st1" d="M318.5,84.2c0.9-6-3.2-11.6-9.1-12.5c0,0,0,0-0.1,0c-0.4-0.2-0.9,0.1-1.1,0.5c-0.1,0.2-0.1,0.4,0,0.7
		c0.5,5.7,4.7,10.4,10.3,11.7"/>
	<path class="st2" d="M303.1,104.4c2.8,5.7,6.7,9.5,11.6,9.7c1,0,1.7-0.6,2.7-0.7c0.5,0.1,1.1,0.3,1.6,0.6c0.3,0.1,0.5,0.2,0.8,0.2
		c5.1-0.3,9.4-3.8,12.3-9.8c4.1-8.4,2.8-17.3-2.8-20.1c-0.7-0.4-1.5-0.7-2.3-0.9c-0.9-0.2-1.8-0.4-2.8-0.3c-2.2,0.1-4.3,0.6-6.4,1.4
		c-0.1,0-0.2,0.1-0.3,0.1c-4.5-2-8.2-2-11.7-0.3C300.3,87.1,299.1,96.1,303.1,104.4z"/>
	<path class="st0" d="M303.2,96c-0.3-0.5-0.4-1.1-0.5-1.7c-0.2-1.4,0-2.8,0.5-4.2c0.5-1.3,1.3-2.5,2.3-3.5c0.4-0.4,0.9-0.8,1.4-1
		c0,0.1-0.5,0.4-1.2,1.2c-1,1-1.7,2.2-2.2,3.4c-0.5,1.3-0.7,2.6-0.6,4C303.1,95.3,303.3,95.9,303.2,96z"/>
	<path class="st0" d="M304.3,99.9c-0.1,0-0.3-0.4-0.4-0.9s-0.1-0.9,0-1s0.3,0.4,0.4,0.9S304.4,99.9,304.3,99.9z"/>
	<path class="st1" d="M330,70.6c0,0.1-1,0.5-2.6,1.4c-0.9,0.6-1.8,1.2-2.6,1.9c-2,1.7-3.7,3.7-5,6.1c-0.5,0.9-0.9,1.9-1.3,2.9
		c-0.6,1.7-0.8,2.9-0.9,2.8c0-0.3,0-0.5,0.1-0.8c0-0.3,0.1-0.6,0.2-0.9c0.1-0.4,0.2-0.8,0.3-1.2c0.3-1,0.8-2,1.3-3
		c0.6-1.2,1.4-2.3,2.2-3.3c0.9-1,1.8-2,2.8-2.8c0.8-0.7,1.8-1.3,2.7-1.8c0.4-0.2,0.7-0.4,1.1-0.6c0.3-0.1,0.6-0.3,0.9-0.4
		C329.5,70.7,329.7,70.6,330,70.6z"/>
	<path class="st1" d="M288.8,84.2c0.9-6-3.2-11.6-9.2-12.5c0,0,0,0,0,0c-0.3-0.1-0.5,0-0.8,0.1c-0.3,0.2-0.3,0.7-0.3,1
		c0.5,5.7,4.7,10.4,10.3,11.7"/>
	<path class="st3" d="M273.5,104.4c2.8,5.7,6.7,9.5,11.6,9.7c1,0,1.7-0.6,2.7-0.7c0.6,0.1,1.1,0.3,1.6,0.6c0.3,0.1,0.5,0.2,0.8,0.2
		c5.1-0.3,9.4-3.8,12.3-9.8c4.1-8.4,2.8-17.3-2.8-20.1c-0.7-0.4-1.5-0.7-2.3-0.9c-0.9-0.2-1.8-0.4-2.8-0.3c-2.2,0.1-4.3,0.6-6.4,1.4
		l-0.3,0.1c-4.5-2-8.2-2-11.7-0.3C270.6,87.1,269.4,96.1,273.5,104.4z"/>
	<path class="st0" d="M273.5,96c-0.3-0.5-0.4-1.1-0.5-1.7c-0.3-2.9,0.7-5.7,2.8-7.7c0.4-0.4,0.9-0.8,1.5-1c0,0.1-0.5,0.4-1.3,1.2
		c-0.9,1-1.6,2.2-2.1,3.4c-0.5,1.3-0.7,2.6-0.6,4C273.4,95.3,273.6,95.9,273.5,96z"/>
	<path class="st0" d="M274.6,99.9c-0.1,0-0.3-0.4-0.4-0.9s-0.1-0.9,0-1s0.3,0.4,0.4,0.9S274.7,99.9,274.6,99.9z"/>
	<path class="st1" d="M300.3,70.6c0,0.1-1,0.5-2.6,1.4c-0.9,0.6-1.8,1.2-2.6,1.9c-1,0.9-1.9,1.8-2.8,2.8c-0.8,1-1.6,2.1-2.2,3.3
		c-0.5,0.9-1,1.9-1.3,2.9c-0.6,1.7-0.8,2.9-0.9,2.8c0-0.3,0-0.5,0.1-0.8c0-0.3,0.1-0.6,0.2-0.9c0.1-0.4,0.2-0.8,0.3-1.2
		c0.3-1,0.8-2,1.3-3c1.2-2.4,3-4.5,5-6.2c0.9-0.7,1.8-1.3,2.7-1.8c0.4-0.2,0.7-0.4,1.1-0.6c0.3-0.1,0.6-0.3,0.9-0.4
		C299.8,70.7,300.1,70.6,300.3,70.6z"/>
	<rect x="111.1" y="112.1" class="st1" width="236.8" height="11.6"/>
	<path class="st1" d="M201.5,319.5c0.9-6-3.2-11.6-9.1-12.5c0,0,0,0-0.1,0c-0.3-0.1-0.5,0-0.8,0.1c-0.3,0.3-0.4,0.7-0.3,1.1
		c0.5,5.7,4.7,10.4,10.3,11.6"/>
	<path class="st2" d="M186.1,339.7c2.8,5.7,6.7,9.5,11.6,9.7c1,0,1.7-0.6,2.7-0.7c0.5,0.1,1.1,0.3,1.6,0.6c0.3,0.1,0.5,0.2,0.8,0.2
		c5.1-0.3,9.4-3.8,12.3-9.8c4.1-8.4,2.8-17.3-2.8-20.1c-0.7-0.4-1.5-0.7-2.3-0.9c-0.9-0.2-1.8-0.4-2.8-0.3c-2.2,0.1-4.3,0.6-6.4,1.4
		c-0.1,0-0.2,0.1-0.3,0.1c-4.6-2-8.2-2-11.7-0.3C183.3,322.3,182.1,331.3,186.1,339.7z"/>
	<path class="st0" d="M186.2,331.2c-0.3-0.5-0.4-1.1-0.5-1.7c-0.3-2.9,0.7-5.7,2.8-7.7c0.4-0.4,0.9-0.8,1.4-1c0,0.1-0.5,0.4-1.2,1.2
		c-1,1-1.7,2.2-2.2,3.4c-0.5,1.3-0.7,2.6-0.6,4C186.1,330.5,186.3,331.2,186.2,331.2z"/>
	<path class="st0" d="M187.3,335.2c-0.1,0-0.3-0.4-0.4-0.9s-0.1-0.9,0-1s0.3,0.4,0.4,0.9S187.4,335.1,187.3,335.2z"/>
	<path class="st1" d="M213,305.8c0,0.1-1.1,0.5-2.6,1.4c-0.9,0.6-1.8,1.2-2.6,1.9c-2,1.7-3.7,3.7-5,6.1c-0.5,0.9-0.9,1.9-1.3,2.9
		c-0.6,1.7-0.8,2.9-0.9,2.9c0-0.3,0-0.5,0.1-0.8c0-0.3,0.1-0.6,0.2-0.9c0.1-0.4,0.2-0.8,0.3-1.2c0.3-1,0.8-2,1.3-3
		c0.6-1.2,1.4-2.3,2.2-3.4c0.9-1,1.8-2,2.8-2.8c0.9-0.7,1.8-1.3,2.7-1.8c0.4-0.2,0.8-0.4,1.1-0.6c0.3-0.1,0.6-0.3,0.9-0.4
		C212.5,306,212.7,305.9,213,305.8z"/>
	<path class="st1" d="M259.2,319.5c0.9-6-3.2-11.6-9.2-12.5c0,0,0,0,0,0c-0.3-0.1-0.5,0-0.8,0.1c-0.3,0.2-0.3,0.7-0.3,1.1
		c0.5,5.7,4.7,10.4,10.3,11.6"/>
	<path class="st2" d="M243.8,339.7c2.8,5.7,6.7,9.5,11.6,9.7c1,0,1.7-0.6,2.7-0.7c0.5,0.1,1.1,0.3,1.6,0.6c0.3,0.1,0.5,0.2,0.8,0.2
		c5.1-0.3,9.4-3.8,12.3-9.8c4.1-8.4,2.8-17.3-2.8-20.1c-0.7-0.4-1.5-0.7-2.3-0.9c-0.9-0.2-1.8-0.4-2.8-0.3c-2.2,0.1-4.3,0.6-6.4,1.4
		l-0.3,0.1c-4.6-2-8.2-2-11.7-0.3C241,322.3,239.8,331.3,243.8,339.7z"/>
	<path class="st0" d="M243.9,331.2c-0.3-0.5-0.4-1.1-0.5-1.7c-0.3-2.9,0.7-5.7,2.8-7.7c0.4-0.4,0.9-0.8,1.4-1c0,0.1-0.5,0.4-1.3,1.2
		c-0.9,1-1.7,2.2-2.2,3.4c-0.5,1.3-0.7,2.6-0.6,4C243.8,330.5,244,331.2,243.9,331.2z"/>
	<path class="st0" d="M245,335.2c-0.1,0-0.3-0.4-0.4-0.9s-0.1-0.9,0-1s0.3,0.4,0.4,0.9S245.1,335.1,245,335.2z"/>
	<path class="st1" d="M270.7,305.8c0,0.1-1,0.5-2.6,1.4c-0.9,0.6-1.8,1.2-2.6,1.9c-2,1.7-3.7,3.7-5,6.1c-0.5,0.9-0.9,1.9-1.3,2.9
		c-0.6,1.7-0.8,2.9-0.9,2.9c0-0.3,0-0.5,0.1-0.8c0-0.3,0.1-0.6,0.2-0.9c0.1-0.4,0.2-0.8,0.3-1.2c0.3-1,0.8-2,1.3-3
		c0.6-1.2,1.4-2.3,2.2-3.4c0.9-1,1.8-2,2.8-2.8c0.9-0.7,1.8-1.3,2.8-1.8c0.4-0.2,0.7-0.4,1.1-0.6c0.3-0.1,0.6-0.3,0.9-0.4
		C270.2,306,270.5,305.9,270.7,305.8z"/>
	<path class="st1" d="M172,319.5c0.9-6-3.2-11.6-9.1-12.5c0,0-0.1,0-0.1,0c-0.3-0.1-0.5,0-0.8,0.1c-0.3,0.3-0.4,0.7-0.3,1.1
		c0.5,5.7,4.7,10.4,10.3,11.6"/>
	<path class="st3" d="M156.7,339.7c2.8,5.7,6.7,9.5,11.6,9.7c1,0,1.7-0.6,2.7-0.7c0.5,0.1,1.1,0.3,1.6,0.6c0.3,0.1,0.5,0.2,0.8,0.2
		c5.1-0.3,9.4-3.8,12.3-9.8c4.1-8.4,2.8-17.3-2.8-20.1c-0.7-0.4-1.5-0.7-2.3-0.9c-0.9-0.2-1.8-0.4-2.8-0.3c-2.2,0.1-4.3,0.6-6.4,1.4
		c-0.1,0-0.2,0.1-0.3,0.1c-4.6-2-8.2-2-11.7-0.3C153.9,322.3,152.6,331.3,156.7,339.7z"/>
	<path class="st0" d="M156.8,331.2c-0.3-0.5-0.4-1.1-0.5-1.7c-0.3-2.9,0.7-5.7,2.8-7.7c0.4-0.4,0.9-0.8,1.4-1c0,0.1-0.5,0.4-1.2,1.2
		c-1,1-1.7,2.2-2.2,3.4c-0.5,1.3-0.7,2.6-0.6,4C156.6,330.5,156.8,331.2,156.8,331.2z"/>
	<path class="st0" d="M157.8,335.2c-0.1,0-0.3-0.4-0.4-0.9s-0.1-0.9,0-1s0.3,0.4,0.4,0.9S157.9,335.1,157.8,335.2z"/>
	<path class="st1" d="M183.6,305.8c0,0.1-1.1,0.5-2.6,1.4c-0.9,0.6-1.8,1.2-2.6,1.9c-2,1.7-3.7,3.7-5,6.1c-0.5,0.9-0.9,1.9-1.3,2.9
		c-0.6,1.7-0.8,2.9-0.9,2.9c0-0.3,0-0.5,0.1-0.8c0-0.3,0.1-0.6,0.2-0.9c0.1-0.4,0.2-0.8,0.3-1.2c0.3-1,0.8-2,1.3-3
		c0.6-1.2,1.4-2.3,2.2-3.4c0.9-1,1.8-2,2.8-2.8c0.9-0.7,1.8-1.3,2.7-1.8c0.4-0.2,0.8-0.4,1.1-0.6c0.3-0.1,0.6-0.3,0.9-0.4
		C183,306,183.3,305.9,183.6,305.8z"/>
	<path class="st1" d="M229.5,319.5c0.9-6-3.2-11.6-9.1-12.5c0,0-0.1,0-0.1,0c-0.3-0.1-0.5,0-0.8,0.1c-0.3,0.3-0.4,0.7-0.3,1.1
		c0.5,5.7,4.7,10.4,10.3,11.6"/>
	<path class="st3" d="M214.1,339.7c2.8,5.7,6.7,9.5,11.6,9.7c1,0,1.7-0.6,2.7-0.7c0.5,0.1,1.1,0.3,1.6,0.6c0.3,0.1,0.5,0.2,0.8,0.2
		c5.1-0.3,9.4-3.8,12.3-9.8c4.1-8.4,2.8-17.3-2.8-20.1c-0.7-0.4-1.5-0.7-2.3-0.9c-0.9-0.2-1.8-0.4-2.8-0.3c-2.2,0.1-4.3,0.6-6.4,1.4
		l-0.3,0.1c-4.6-2-8.2-2-11.7-0.3C211.3,322.3,210.1,331.3,214.1,339.7z"/>
	<path class="st0" d="M214.2,331.2c-0.3-0.5-0.4-1.1-0.5-1.7c-0.3-2.9,0.7-5.7,2.8-7.7c0.4-0.4,0.9-0.8,1.4-1c0,0.1-0.5,0.4-1.2,1.2
		c-1.9,2-2.9,4.7-2.8,7.5C214.1,330.5,214.3,331.2,214.2,331.2z"/>
	<path class="st0" d="M215.3,335.2c-0.1,0-0.3-0.4-0.4-0.9s-0.1-0.9,0-1s0.3,0.4,0.4,0.9S215.4,335.1,215.3,335.2z"/>
	<path class="st1" d="M241,305.8c0,0.1-1.1,0.5-2.6,1.4c-0.9,0.6-1.8,1.2-2.6,1.9c-2,1.7-3.7,3.8-5,6.1c-0.5,0.9-0.9,1.9-1.3,2.9
		c-0.6,1.7-0.8,2.9-0.9,2.9c0-0.3,0-0.5,0.1-0.8c0-0.3,0.1-0.6,0.2-0.9c0.1-0.4,0.2-0.8,0.3-1.2c0.3-1,0.7-2,1.2-3
		c1.3-2.4,3-4.5,5.1-6.2c0.9-0.7,1.8-1.3,2.7-1.8c0.4-0.2,0.8-0.4,1.1-0.6c0.3-0.1,0.6-0.3,0.9-0.4C240.4,306,240.7,305.9,241,305.8
		z"/>
	<path class="st1" d="M320.2,319.5c0.9-6-3.2-11.6-9.1-12.5c0,0-0.1,0-0.1,0c-0.3-0.1-0.5,0-0.8,0.1c-0.3,0.2-0.3,0.7-0.3,1.1
		c0.5,5.7,4.7,10.4,10.3,11.6"/>
	<path class="st2" d="M304.9,339.7c2.8,5.7,6.7,9.5,11.6,9.7c1,0,1.7-0.6,2.7-0.7c0.5,0.1,1.1,0.3,1.6,0.6c0.3,0.1,0.5,0.2,0.8,0.2
		c5.1-0.3,9.4-3.8,12.3-9.8c4-8.4,2.8-17.3-2.8-20.1c-0.7-0.4-1.5-0.7-2.3-0.9c-0.9-0.2-1.8-0.4-2.8-0.3c-2.2,0.1-4.3,0.6-6.4,1.4
		l-0.3,0.1c-4.5-2-8.2-2-11.7-0.3C302.1,322.3,300.8,331.3,304.9,339.7z"/>
	<path class="st0" d="M305,331.2c-0.3-0.5-0.4-1.1-0.5-1.7c-0.2-1.4,0-2.8,0.5-4.2c0.5-1.3,1.3-2.5,2.3-3.5c0.4-0.4,0.9-0.8,1.5-1
		c0,0.1-0.5,0.4-1.2,1.2c-1.9,2-2.9,4.7-2.8,7.5C304.9,330.5,305,331.2,305,331.2z"/>
	<path class="st0" d="M306,335.2c-0.1,0-0.3-0.4-0.4-0.9s-0.1-0.9,0-1s0.3,0.4,0.4,0.9S306.1,335.1,306,335.2z"/>
	<path class="st1" d="M331.8,305.8c0,0.1-1,0.5-2.6,1.4c-0.9,0.6-1.8,1.2-2.6,1.9c-1,0.9-1.9,1.8-2.8,2.8c-0.8,1-1.6,2.1-2.2,3.3
		c-0.5,0.9-1,1.9-1.3,2.9c-0.6,1.7-0.8,2.9-0.9,2.9c0-0.3,0-0.5,0.1-0.8c0-0.3,0.1-0.6,0.2-0.9c0.1-0.4,0.2-0.8,0.4-1.2
		c0.3-1,0.7-2,1.2-3c0.6-1.2,1.4-2.3,2.2-3.4c0.9-1,1.8-2,2.8-2.8c0.8-0.7,1.7-1.3,2.7-1.8c0.4-0.2,0.8-0.4,1.1-0.6
		c0.3-0.1,0.6-0.3,0.9-0.4C331.2,306,331.5,305.9,331.8,305.8z"/>
	<path class="st1" d="M290.5,319.5c0.9-6-3.2-11.6-9.1-12.5c0,0,0,0-0.1,0c-0.3-0.1-0.5,0-0.8,0.1c-0.3,0.3-0.4,0.7-0.3,1.1
		c0.5,5.7,4.7,10.4,10.3,11.6"/>
	<path class="st3" d="M275.2,339.7c2.8,5.7,6.7,9.5,11.6,9.7c1,0,1.7-0.6,2.7-0.7c0.5,0.1,1.1,0.3,1.6,0.6c0.3,0.1,0.5,0.2,0.8,0.2
		c5.1-0.3,9.4-3.8,12.3-9.8c4.1-8.4,2.8-17.3-2.8-20.1c-0.7-0.4-1.5-0.7-2.3-0.9c-0.9-0.2-1.8-0.4-2.8-0.3c-2.2,0.1-4.3,0.6-6.4,1.4
		c-0.1,0-0.2,0.1-0.3,0.1c-4.5-2-8.2-2-11.7-0.3C272.4,322.3,271.1,331.3,275.2,339.7z"/>
	<path class="st0" d="M275.3,331.2c-0.3-0.5-0.4-1.1-0.5-1.7c-0.3-2.9,0.7-5.7,2.8-7.7c0.4-0.4,0.9-0.8,1.5-1c0,0.1-0.5,0.4-1.3,1.2
		c-1,1-1.7,2.2-2.2,3.4c-0.5,1.3-0.7,2.6-0.6,4C275.2,330.5,275.4,331.2,275.3,331.2z"/>
	<path class="st0" d="M276.3,335.2c-0.1,0-0.3-0.4-0.4-0.9s-0.1-0.9,0-1s0.3,0.4,0.4,0.9S276.4,335.1,276.3,335.2z"/>
	<path class="st1" d="M302.1,305.8c0,0.1-1,0.5-2.6,1.4c-0.9,0.6-1.8,1.2-2.6,1.9c-2,1.7-3.7,3.7-5,6.1c-0.5,0.9-0.9,1.9-1.3,2.9
		c-0.6,1.7-0.8,2.9-0.9,2.9c0-0.3,0-0.5,0.1-0.8c0-0.3,0.1-0.6,0.2-0.9c0.1-0.4,0.2-0.8,0.3-1.2c0.3-1,0.8-2,1.3-3
		c0.6-1.2,1.4-2.3,2.2-3.4c0.9-1,1.8-2,2.8-2.8c0.9-0.7,1.8-1.3,2.7-1.8c0.4-0.2,0.8-0.4,1.1-0.6c0.3-0.1,0.6-0.3,0.9-0.4
		C301.5,306,301.8,305.9,302.1,305.8z"/>
	<rect x="111.1" y="347.3" class="st1" width="236.8" height="11.5"/>
	<rect x="516.8" y="58.7" class="st1" width="153.3" height="242.3"/>
	<rect x="520.9" y="63.3" class="st3" width="144.6" height="233.8"/>
	<rect x="593.2" y="76.9" class="st4" width="57.6" height="89.4"/>
	<path class="st1" d="M625.1,84.8c0,1.2-1,2.2-2.2,2.2c-1.2,0-2.1-1-2.1-2.2s1-2.1,2.1-2.2C624.1,82.6,625.1,83.6,625.1,84.8z"/>
	<rect x="535.1" y="191.2" class="st4" width="57.6" height="89.4"/>
	<path class="st1" d="M567,199.1c0,1.2-1,2.2-2.2,2.2c-1.2,0-2.1-1-2.1-2.1s1-2.1,2.1-2.2C566,197,567,197.9,567,199.1z"/>
	<rect x="534.3" y="76.9" class="st4" width="49.2" height="69.8"/>
	<path class="st1" d="M560.7,83.2c0,1-0.8,1.8-1.8,1.8s-1.8-0.8-1.8-1.8c0-1,0.8-1.8,1.8-1.8c0,0,0,0,0,0
		C559.9,81.4,560.7,82.2,560.7,83.2z"/>
	
		<rect x="601.6" y="195.3" transform="matrix(0.9937 -0.1122 0.1122 0.9937 -19.587 71.7678)" class="st4" width="53" height="29.4"/>
	<path class="st1" d="M628.8,201c0,1-0.8,1.8-1.8,1.8s-1.8-0.8-1.8-1.8s0.8-1.8,1.8-1.8S628.8,200,628.8,201L628.8,201z"/>
	<path class="st1" d="M585,211.6c0,0.2-9,0.4-20.2,0.4s-20.2-0.2-20.2-0.4s9-0.4,20.2-0.4S585,211.4,585,211.6z"/>
	<path class="st1" d="M585,218c0,0.2-9,0.4-20.2,0.4s-20.2-0.2-20.2-0.4s9-0.4,20.2-0.4S585,217.8,585,218z"/>
	<path class="st1" d="M585,224.4c0,0.2-9,0.4-20.2,0.4s-20.2-0.2-20.2-0.4s9-0.4,20.2-0.4S585,224.2,585,224.4z"/>
	<path class="st1" d="M585,230.8c0,0.2-9,0.4-20.2,0.4s-20.2-0.2-20.2-0.4s9-0.4,20.2-0.4S585,230.6,585,230.8z"/>
	<path class="st1" d="M585,237.2c0,0.2-9,0.4-20.2,0.4s-20.2-0.2-20.2-0.4s9-0.4,20.2-0.4S585,237,585,237.2z"/>
	<path class="st1" d="M585,243.6c0,0.2-9,0.4-20.2,0.4s-20.2-0.2-20.2-0.4s9-0.4,20.2-0.4S585,243.4,585,243.6z"/>
	<path class="st1" d="M585,250c0,0.2-9,0.4-20.2,0.4s-20.2-0.2-20.2-0.4s9-0.4,20.2-0.4S585,249.8,585,250z"/>
	<path class="st1" d="M647.8,204.8c0,0.2-8.9,1.7-20,3.2s-20,2.6-20.1,2.4s8.9-1.7,20-3.2S647.8,204.5,647.8,204.8z"/>
	<path class="st1" d="M648.6,208.8c0,0.2-8.9,1.7-20,3.2s-20,2.6-20.1,2.4s8.9-1.7,20-3.2S648.5,208.5,648.6,208.8z"/>
	<path class="st1" d="M649.3,212.5c0,0.2-8.9,1.7-20,3.2s-20,2.6-20.1,2.4s8.9-1.7,20-3.2S649.3,212.2,649.3,212.5z"/>
	<path class="st1" d="M645.8,95.6c0,0.2-10.2,0.4-22.8,0.4s-22.8-0.2-22.8-0.4s10.2-0.4,22.8-0.4S645.8,95.4,645.8,95.6z"/>
	<path class="st1" d="M645.8,99.4c0,0.2-10.2,0.4-22.8,0.4s-22.8-0.2-22.8-0.4s10.2-0.4,22.8-0.4S645.8,99.2,645.8,99.4z"/>
	<path class="st1" d="M645.8,103.2c0,0.2-10.2,0.4-22.8,0.4s-22.8-0.2-22.8-0.4s10.2-0.4,22.8-0.4S645.8,103,645.8,103.2z"/>
	<path class="st1" d="M645.8,107c0,0.2-10.2,0.4-22.8,0.4s-22.8-0.2-22.8-0.4s10.2-0.4,22.8-0.4S645.8,106.8,645.8,107z"/>
	<path class="st1" d="M645.8,110.8c0,0.2-10.2,0.4-22.8,0.4s-22.8-0.2-22.8-0.4s10.2-0.4,22.8-0.4S645.8,110.6,645.8,110.8z"/>
	<path class="st1" d="M645.8,114.6c0,0.2-10.2,0.4-22.8,0.4s-22.8-0.2-22.8-0.4s10.2-0.4,22.8-0.4S645.8,114.4,645.8,114.6z"/>
	<path class="st1" d="M645.8,118.4c0,0.2-10.2,0.4-22.8,0.4s-22.8-0.2-22.8-0.4s10.2-0.4,22.8-0.4S645.8,118.2,645.8,118.4z"/>
	<path class="st1" d="M645.8,129.7c0,0.2-10.2,0.4-22.8,0.4s-22.8-0.2-22.8-0.4s10.2-0.4,22.8-0.4S645.8,129.5,645.8,129.7z"/>
	<path class="st1" d="M646.1,133.7c0,0.2-10.2,0.4-22.8,0.4s-22.8-0.2-22.8-0.4s10.2-0.4,22.8-0.4S646.1,133.5,646.1,133.7z"/>
	<path class="st1" d="M646.4,137.8c0,0.2-10.2,0.4-22.8,0.4s-22.8-0.2-22.8-0.4s10.2-0.4,22.8-0.4S646.4,137.5,646.4,137.8z"/>
	<path class="st1" d="M646.7,141.8c0,0.2-10.2,0.4-22.8,0.4S601,142,601,141.8s10.2-0.4,22.8-0.4S646.7,141.5,646.7,141.8z"/>
	<path class="st1" d="M647,145.8c0,0.2-10.2,0.4-22.8,0.4s-22.8-0.2-22.8-0.4s10.2-0.4,22.8-0.4S647,145.6,647,145.8z"/>
	<path class="st1" d="M647.4,149.8c0,0.2-10.2,0.4-22.8,0.4s-22.8-0.2-22.8-0.4s10.2-0.4,22.8-0.4S647.4,149.6,647.4,149.8z"/>
	
		<ellipse transform="matrix(0.159 -0.9873 0.9873 0.159 277.0861 499.1639)" class="st2" cx="431.5" cy="86.9" rx="43.6" ry="43.7"/>
	<circle class="st3" cx="432" cy="86.5" r="39.5"/>
	<path class="st1" d="M392.1,84.1c0,0,0,0.2,0,0.6s0,1.1,0,1.9c0,0.4,0,0.9,0,1.4s0.1,1.1,0.1,1.7s0.1,1.2,0.2,2
		c0.1,0.7,0.2,1.5,0.4,2.2c0.7,3.8,1.9,7.4,3.7,10.8c2.3,4.5,5.5,8.5,9.3,11.9l1.6,1.4c0.6,0.4,1.2,0.8,1.8,1.3s1.2,0.9,1.9,1.2
		l2,1.1l1,0.6l1.1,0.5l2.2,1c0.7,0.3,1.5,0.5,2.3,0.8c0.8,0.3,1.6,0.5,2.4,0.7c1.6,0.4,3.3,0.7,5,0.9c0.9,0.1,1.7,0.2,2.6,0.3h2.6
		c0.4,0,0.9,0,1.3,0l1.3-0.1c0.9-0.1,1.8-0.1,2.7-0.3c1.8-0.3,3.6-0.7,5.4-1.2l1.3-0.4l0.7-0.2l0.6-0.3l2.6-1.1
		c0.9-0.4,1.7-0.9,2.5-1.3c0.4-0.2,0.9-0.4,1.3-0.7l1.2-0.8c1.6-1.1,3.2-2.2,4.7-3.5l2.1-2.1l0.5-0.5l0.5-0.6l1-1.2l1-1.2l0.9-1.2
		l0.9-1.3l0.4-0.6c0.1-0.2,0.3-0.4,0.4-0.7l1.5-2.7c0.4-0.9,0.8-1.9,1.3-2.8c1.6-3.9,2.5-8.1,2.9-12.3c0.2-4.2-0.2-8.5-1.3-12.6
		l-0.9-3c-0.4-1-0.8-1.9-1.2-2.9l-0.3-0.7l-0.4-0.7l-0.7-1.4l-0.7-1.3l-0.8-1.3l-0.8-1.3l-0.4-0.6l-0.5-0.6l-1.9-2.3
		c-1.3-1.5-2.7-2.8-4.2-4.1l-1.1-1c-0.4-0.3-0.8-0.6-1.2-0.8c-0.8-0.5-1.6-1.1-2.4-1.6l-2.5-1.4l-0.6-0.3c-0.2-0.1-0.4-0.2-0.6-0.3
		l-1.3-0.6c-1.7-0.7-3.4-1.4-5.2-1.9c-0.9-0.2-1.8-0.4-2.6-0.6l-1.3-0.3c-0.4-0.1-0.9-0.1-1.3-0.2l-2.6-0.3c-0.9-0.1-1.7,0-2.6-0.1
		c-1.7,0-3.3,0.1-5,0.2c-0.8,0.1-1.6,0.2-2.4,0.4c-0.8,0.2-1.6,0.3-2.4,0.5L420,49l-1.1,0.3l-1.1,0.4l-2.1,0.8c-0.7,0.3-1.3,0.7-2,1
		s-1.3,0.7-1.9,1l-1.8,1.2c-4.2,2.8-7.9,6.4-10.8,10.6c-2.2,3.1-3.9,6.6-5.1,10.2c-0.3,0.7-0.5,1.4-0.7,2.1
		c-0.2,0.7-0.3,1.3-0.4,1.9s-0.3,1.1-0.4,1.6s-0.1,1-0.2,1.4l-0.2,1.9C392.2,83.9,392.2,84.1,392.1,84.1c0,0,0-0.2,0.1-0.7
		s0.1-1.1,0.2-1.9c0-0.4,0.1-0.9,0.1-1.4s0.2-1,0.3-1.6s0.3-1.2,0.4-1.9c0.2-0.7,0.4-1.4,0.6-2.1c1.1-3.7,2.8-7.2,5-10.3
		c2.9-4.2,6.6-7.8,10.8-10.7l1.8-1.2c0.6-0.4,1.3-0.7,1.9-1s1.3-0.7,2-1l2.1-0.9l1.1-0.4l1.1-0.3l2.3-0.7c0.8-0.2,1.6-0.3,2.4-0.5
		c0.8-0.2,1.6-0.3,2.4-0.4c1.7-0.2,3.4-0.3,5.1-0.3c0.9,0,1.7,0,2.6,0.1l2.6,0.3c0.4,0.1,0.9,0.1,1.3,0.2l1.3,0.3
		c0.9,0.2,1.8,0.4,2.7,0.6c1.8,0.5,3.5,1.2,5.2,1.9l1.3,0.6l0.6,0.3l0.6,0.3l2.5,1.4c0.8,0.5,1.6,1.1,2.4,1.6
		c0.4,0.3,0.8,0.5,1.2,0.9l1.1,1c1.5,1.3,2.9,2.7,4.3,4.1c0.6,0.8,1.2,1.6,1.9,2.4l0.5,0.6l0.4,0.6l0.8,1.3l0.8,1.3L467,68l0.7,1.4
		l0.4,0.7l0.3,0.7l1.2,2.9c0.3,1,0.6,2,0.9,3c1,4.2,1.5,8.4,1.2,12.7c-0.3,4.3-1.3,8.5-2.9,12.4l-1.3,2.9l-1.5,2.7
		c-0.1,0.2-0.2,0.5-0.4,0.7l-0.5,0.6l-0.9,1.3l-0.9,1.3l-1,1.2l-1,1.2l-0.5,0.6l-0.5,0.5l-2.2,2.1c-1.5,1.3-3.1,2.5-4.8,3.5
		l-1.2,0.8c-0.4,0.3-0.9,0.5-1.3,0.7c-0.9,0.4-1.7,0.9-2.6,1.3l-2.7,1.1l-0.7,0.3c-0.2,0.1-0.5,0.1-0.7,0.2l-1.4,0.4
		c-1.8,0.5-3.6,0.9-5.4,1.2c-0.9,0.1-1.8,0.2-2.7,0.3l-1.3,0.1c-0.5,0-0.9,0-1.3,0h-2.6c-0.9,0-1.7-0.2-2.6-0.3
		c-1.7-0.2-3.4-0.5-5-0.9c-0.8-0.2-1.6-0.4-2.4-0.7c-0.8-0.3-1.6-0.5-2.3-0.8l-2.2-1l-1.1-0.5l-1-0.6l-2-1.1
		c-0.7-0.4-1.2-0.8-1.9-1.2s-1.2-0.8-1.8-1.3l-1.6-1.4c-3.9-3.4-7-7.4-9.3-12c-1.8-3.4-3-7.1-3.6-10.9c-0.2-0.7-0.3-1.5-0.4-2.2
		c0-0.7-0.1-1.4-0.2-2s-0.1-1.2-0.1-1.7s0-1,0-1.4c0-0.8,0-1.4,0-1.9S392.1,84.1,392.1,84.1z"/>
	<path class="st1" d="M450,87.6c-0.5,0.1-0.9,0.1-1.4,0.1l-3.9,0.1c-3.3,0-7.9,0.1-13,0.1h-0.3V85c0-5.8,0-11,0.1-14.7
		c0-1.8,0.1-3.3,0.1-4.5c0-0.5,0-1.1,0.1-1.6c0.1,0.5,0.1,1.1,0.1,1.6c0,1.1,0,2.7,0.1,4.5c0,3.8,0.1,9,0.1,14.7v2.6l-0.3-0.3
		c5.1,0,9.7,0,13,0.1l3.9,0.1C449.1,87.5,449.5,87.5,450,87.6z"/>
	<path class="st1" d="M431.9,53.2c0.3,1.1,0.3,2.2,0.3,3.3c0.1,1.1,0,2.2-0.3,3.3c-0.3-1.1-0.3-2.2-0.3-3.3
		C431.5,55.4,431.6,54.3,431.9,53.2z"/>
	<path class="st1" d="M450,58.5c-0.6,0.9-1.3,1.8-2.2,2.5c-0.7,0.8-1.6,1.6-2.5,2.1c0.6-0.9,1.3-1.8,2.1-2.5
		C448.2,59.8,449.1,59.1,450,58.5z"/>
	<path class="st1" d="M460.6,70.1c-0.8,0.7-1.7,1.3-2.7,1.8c-0.9,0.6-1.8,1.2-2.8,1.6c0.7-0.8,1.6-1.5,2.6-2
		C458.5,70.9,459.5,70.4,460.6,70.1z"/>
	<path class="st1" d="M466.8,87.2c-3,0.3-6.1,0.3-9.1,0C460.7,86.9,463.8,86.9,466.8,87.2z"/>
	<path class="st1" d="M403.7,86.6c-2.9,0.3-5.7,0.3-8.6,0C397.9,86.3,400.8,86.3,403.7,86.6z"/>
	<path class="st1" d="M408.1,99.4c-1,1.1-2.1,2.1-3.2,3c-1.1,1-2.3,1.8-3.6,2.6c1-1.1,2-2.1,3.2-3C405.6,101,406.8,100.1,408.1,99.4
		z"/>
	<path class="st1" d="M419.1,109.3c-0.6,1.3-1.4,2.6-2.2,3.8c-0.7,1.3-1.5,2.6-2.4,3.8c0.4-1.4,1.1-2.8,1.9-4
		C417.2,111.6,418.1,110.3,419.1,109.3z"/>
	<path class="st1" d="M431.9,122c-0.3-1.5-0.3-3-0.3-4.6c-0.1-1.5,0-3,0.3-4.6c0.3,1.5,0.3,3,0.3,4.6
		C432.2,119,432.1,120.5,431.9,122z"/>
	<path class="st1" d="M451.5,116c-1.4-0.6-2.7-1.5-3.8-2.6c-1.2-0.9-2.2-2.1-3.1-3.4c1.2,0.9,2.3,1.9,3.4,3
		C449.3,114,450.4,115,451.5,116z"/>
	<path class="st1" d="M460.7,106.1c-1.1-0.8-2.1-1.6-3-2.7c-1-0.9-1.9-1.9-2.7-3c1.1,0.8,2.1,1.6,3,2.7
		C459.1,103.9,460,105,460.7,106.1z"/>
	<path class="st1" d="M407.7,74.4c-1-0.6-1.9-1.4-2.7-2.3c-0.9-0.8-1.7-1.7-2.3-2.7c1,0.6,1.9,1.4,2.7,2.3
		C406.3,72.5,407.1,73.4,407.7,74.4z"/>
	<path class="st1" d="M419.1,62.4c-1-0.6-1.9-1.4-2.6-2.2c-0.9-0.8-1.6-1.6-2.3-2.6c1,0.6,1.9,1.4,2.6,2.2
		C417.7,60.6,418.5,61.5,419.1,62.4z"/>
	<path class="st1" d="M396.7,86.9c0-20.9,16.3-38.2,37.1-39.4c-0.8,0-1.6-0.1-2.4-0.1c-21.8,0.5-39.1,18.6-38.6,40.4
		c0.5,21.1,17.5,38.1,38.6,38.6c0.8,0,1.6,0,2.4-0.1C412.9,125.1,396.7,107.8,396.7,86.9z"/>
</g>
<g id="freepik--character-1--inject-4">
	<path class="st5" d="M195.2,168.8c5.9-3.7,7.7-11.4,4.1-17.3c-1.2-2-2.9-3.5-5-4.6l-15.1-2.9c0.4,18.9,0.7,37.9,0.8,56.9
		c3.9-0.7,7.8-1.9,10.7-4.6s4.4-7.1,2.8-10.6c4.9-2.5,7-8.5,4.5-13.4C197.3,170.8,196.4,169.7,195.2,168.8z"/>
	<path class="st6" d="M122.8,167.3l-0.3-6.7l40.1-8.9c12.4-1.7,26.3,10.4,27.4,22.8c1.3,13.9,2.4,30.8,1,41.2
		c-2.7,20.9-18.6,24.1-18.6,24.1l1.3,20.6c0.5,12-9.5,15-21.6,15.5l0,0c-11.7,0.5-21.8-8.4-22.7-20.1L122.8,167.3z"/>
	<path class="st5" d="M184.5,188.1c0.1,1.4-1.1,2.7-2.5,2.8c-1.4,0.2-2.7-0.8-2.8-2.2c0,0,0-0.1,0-0.1c-0.1-1.4,1-2.7,2.5-2.8
		C183.1,185.7,184.4,186.7,184.5,188.1C184.5,188.1,184.5,188.1,184.5,188.1z"/>
	<path class="st5" d="M186,183.4c-0.3,0.4-2.4-1.1-5.3-1s-4.9,1.6-5.3,1.3c-0.2-0.1,0.2-0.8,1.1-1.5c1.2-0.9,2.7-1.4,4.2-1.4
		c1.5-0.1,3,0.4,4.2,1.2C185.8,182.7,186.1,183.3,186,183.4z"/>
	<path class="st5" d="M157.8,189.9c0.1,1.4-1,2.7-2.5,2.8c-1.4,0.2-2.7-0.8-2.8-2.2c0,0,0-0.1,0-0.1c-0.1-1.4,1-2.7,2.5-2.8
		C156.4,187.4,157.6,188.4,157.8,189.9C157.8,189.8,157.8,189.9,157.8,189.9z"/>
	<path class="st5" d="M157.7,184.9c-0.3,0.4-2.4-1.1-5.3-1s-4.9,1.6-5.3,1.3c-0.2-0.2,0.2-0.8,1.1-1.5c1.2-0.9,2.7-1.4,4.2-1.4
		c1.5-0.1,3,0.4,4.2,1.2C157.6,184.1,157.9,184.7,157.7,184.9z"/>
	<path class="st5" d="M168.8,205.9c0-0.2,1.8-0.5,4.6-1c0.7-0.1,1.4-0.3,1.5-0.8c0-0.8-0.1-1.5-0.6-2.2l-2.4-5.5
		c-3.3-7.9-5.6-14.3-5.3-14.5s3.2,6.1,6.5,14l2.3,5.6c0.5,0.9,0.7,1.9,0.5,2.9c-0.2,0.5-0.6,0.9-1.2,1.1c-0.4,0.1-0.8,0.2-1.2,0.2
		C170.6,206,168.8,206,168.8,205.9z"/>
	<path class="st7" d="M172.6,239.8c-10,0.5-20-1.8-28.8-6.6c0,0,7.5,14.4,29,11.8L172.6,239.8z"/>
	<path class="st7" d="M167.8,212.8c-1.2-1.4-2.9-2-4.7-1.8c-1.3,0.2-2.4,0.8-3.2,1.9c-0.8,1-0.8,2.4-0.1,3.4c1,1,2.5,1.3,3.8,0.8
		c1.3-0.5,2.6-1.3,3.6-2.3c0.3-0.2,0.6-0.5,0.8-0.9c0.2-0.3,0.2-0.7,0-1.1"/>
	<path class="st5" d="M160.4,208.1c0.5-0.1,0.6,3.1,3.3,5.2s6.1,1.7,6.1,2.1c0.1,0.2-0.7,0.6-2.1,0.7c-1.8,0.1-3.6-0.5-5.1-1.6
		c-1.4-1.1-2.3-2.6-2.6-4.4C159.9,208.9,160.2,208.1,160.4,208.1z"/>
	<path class="st5" d="M158.1,176.7c-0.3,0.8-3.1,0.5-6.5,1s-6.1,1.5-6.5,0.8c-0.2-0.3,0.2-1.1,1.3-1.9c2.9-2,6.6-2.5,9.9-1.4
		C157.6,175.8,158.2,176.3,158.1,176.7z"/>
	<path class="st5" d="M185.6,173.6c-0.5,0.7-2.5,0-4.9,0.1s-4.4,0.6-4.9-0.1c-0.2-0.3,0.1-1,1-1.6c2.4-1.6,5.5-1.6,7.9,0
		C185.5,172.6,185.8,173.3,185.6,173.6z"/>
	<path class="st8" d="M127.3,249.6c0,0-21.8,23.8-21.8,51.9s17.8,63.2,16.1,83.3s-17.2,46.9-21.8,60.3s-3.8,17.6-3.8,17.6h114.7
		l-2.3-76.8l-0.2-40.4l0.7-36.6l-32.5-44v-9l-47.7-12.6L127.3,249.6z"/>
	<path class="st6" d="M209.5,404c0,0,39.7,42.1,40.5,42.8s31.4,0,31.4,0l18.7,10.5c0,0-1.1,3.6-7.4,1.8c0,0,1.5,2-1,3.8h-10.7
		l-9.5-0.1h-31.4L210.3,442L209.5,404z"/>
	<g class="st9">
		<path d="M115.7,281.9c-0.2,14,3.8,28.3,12.1,39.6s21.1,19.5,35,21.4c4.7,0.6,9.5,0.6,14,1.9c4.1,1.1,7.8,3.3,11.8,4.7
			c4.6,1.6,9.6,2.1,14.5,1.4c1.9-0.2,4-0.9,4.7-2.7c1-2.6-1.9-5-4.4-6.3C172.9,325.2,141.1,305.4,115.7,281.9"/>
	</g>
	<path class="st6" d="M164.2,326.5c0,0,72.5,32,82.6,32s67-51.6,67-51.6l-13.5-16.3l-54.8,32.1l-62.8-34.4L164.2,326.5z"/>
	<path class="st6" d="M290.9,296.7l13.3-8.3c0,0,5.8-11.5,8.9-12.8s20.5-7.8,20.5-7.8l17.7-1.6c0,0,1.6,2.3-3.3,5.6
		c-3.7,2.5-10.8,3.8-10.8,3.8l-4.4,2c0,0,3.3,3.7,5.9,3.6c2.3-0.1,10.5-4.9,13.1-3.9s-0.8,7.7-0.8,7.7l0,0
		c-1.8,3.6-9.3,15.5-11.6,18.2c-1.6,1.8-12.3,1.8-12.3,1.8l-11.5,1.4l-12.9,10L290.9,296.7z"/>
	<path class="st8" d="M137.8,253.2c0,0-11.2,0.9-18.4,12.4c-5.5,8.9-4,17.5-0.3,28.9c1.6,5,5.6,10.4,9.8,14.5
		c9.8,9.5,30.8,22.5,30.8,22.5l32.8-37.1C192.5,294.4,156.4,258.3,137.8,253.2z"/>
	<path class="st5" d="M151.1,259l0.2,0.1l0.6,0.5l2.2,1.9l8.5,7.2l30,25.6l0.2,0.1l-0.1,0.2l-32,36.3c-0.3,0.3-0.5,0.6-0.8,0.9
		l-0.1,0.2l-0.2-0.1c-6-3.6-11.8-7.4-17.2-11.2s-10.6-7.7-14.5-12.4c-3.9-4.3-7.1-9.2-9.3-14.5c-2.7-6.8-3.3-14.2-1.5-21.3
		c0.5-1.9,1.2-3.7,2-5.5c1.3-2.9,3-5.5,5.2-7.8c1.4-1.4,2.9-2.7,4.5-3.8l1.3-0.8c0.3-0.2,0.5-0.2,0.5-0.2l-0.4,0.3l-1.3,0.8
		c-1.6,1.1-3.1,2.4-4.4,3.9c-2.1,2.3-3.8,4.9-5.1,7.8c-0.8,1.8-1.4,3.6-1.9,5.5c-0.5,2.1-0.8,4.3-0.9,6.5c-0.2,5,0.7,10,2.5,14.6
		c2.2,5.3,5.4,10.2,9.3,14.4c3.9,4.6,9.1,8.5,14.4,12.3s11.2,7.5,17.2,11.1l-0.3,0.1l0.8-0.9l32-36.2v0.3l-29.9-25.7l-8.4-7.3
		l-2.2-1.9l-0.6-0.5L151.1,259z"/>
	<path class="st5" d="M176.4,255.7c0,0.3,0,0.5-0.1,0.8c-0.1,0.5-0.2,1.3-0.4,2.2c-0.6,2.7-1.6,5.3-3,7.7l-0.1,0.2l-0.2-0.1
		c-5.2-3.4-10.8-6.2-16.7-8.4c-6.6-2.6-13.4-4.7-20.2-6.4c-2.6-0.7-4.8-1.2-6.3-1.5l-1.7-0.4c-0.2,0-0.4-0.1-0.6-0.2
		c0.2,0,0.4,0,0.6,0.1l1.7,0.3c1.5,0.3,3.7,0.7,6.3,1.4c6.9,1.6,13.7,3.7,20.3,6.3c5.9,2.2,11.5,5.1,16.8,8.6l-0.3,0.1
		c1.4-2.4,2.4-4.9,3.1-7.6c0.2-0.9,0.4-1.7,0.5-2.2C176.3,256.2,176.4,256,176.4,255.7z"/>
	<path class="st5" d="M196.8,155.6c4.1-3.2,5.9-8.5,4.6-13.5c-1.4-5-5.4-8.8-10.4-10.1c-1-0.2-2-0.4-3-0.5c-2-1.1-4.2-1.7-6.5-1.6
		c-0.4-2.7-2.9-4.7-5.5-5.3c-2.7-0.5-5.4-0.3-8,0.6c-4.9-5.7-13.5-6.4-19.2-1.5c-1,0.9-2,2-2.7,3.1c-5.4-3-12.2-1-15.1,4.4
		c-0.5,0.9-0.9,1.9-1.1,3c-3.1,0.2-5.9,1.6-7.8,4c-0.7,0.9-1.3,1.9-1.7,2.9c-0.9,1.2-1.5,2.7-1.8,4.2c-6.9,0.9-11.7,7.2-10.7,14.1
		c0.5,3.7,2.6,6.9,5.7,8.9c-4.4,4.6-4.2,11.8,0.3,16.2c0.8,0.8,1.7,1.4,2.7,1.9c-1.1,3.8-0.5,8,1.5,11.4c0.8,1.5,2.2,2.7,3.8,3.3
		c0.1,0.3,0.2,0.5,0.3,0.8c1.3,1.9,4.3,1,6.1-0.5c4.3-3.6,6.5-9.2,7.6-14.7s1.2-11.2,2.2-16.7c0-0.1,0-0.2,0.1-0.4
		c0.4-2.3,1.4-4.5,2.8-6.4c1.6,1.1,3.3,2.2,5.1,3.1c6.7,2.9,14.4,1.1,19.2-4.4c4.5,3.5,10,5.3,15.6,5.2c5.6-0.2,11.1-1.4,15.3-5.1
		c1.1-0.9,1.9-2.2,2.3-3.6C198.7,157,197.9,155.9,196.8,155.6z"/>
	<path class="st6" d="M127.1,194.7c-0.3-0.1-11.3-3.9-11.5,7.5s11.3,9.3,11.4,8.9S127.1,194.7,127.1,194.7z"/>
	<path class="st7" d="M123.5,206.8c0,0-0.2,0.1-0.5,0.3c-0.5,0.2-1,0.2-1.5,0c-1.2-0.5-2.2-2.4-2.2-4.4c0-1,0.2-2,0.6-2.9
		c0.2-0.7,0.8-1.3,1.5-1.5c0.5-0.1,1,0.1,1.2,0.6c0.2,0.3,0.1,0.6,0.1,0.6s0.2-0.2,0.2-0.7c-0.1-0.3-0.2-0.5-0.4-0.7
		c-0.3-0.2-0.7-0.3-1.1-0.3c-1,0.2-1.8,0.8-2.1,1.7c-0.5,1-0.8,2.1-0.7,3.2c0,2.3,1.2,4.5,2.8,5c0.6,0.2,1.3,0.1,1.8-0.3
		C123.5,207,123.5,206.8,123.5,206.8z"/>
	<path class="st10" d="M200.8,140.2c0,0,0,0.1,0.1,0.3c0.1,0.3,0.2,0.5,0.2,0.8c0.5,2.8-0.4,5.7-2.4,7.7c-1.6,1.6-3.8,2.6-6.1,2.6
		l0.2-0.2c-0.5,3.7-2.1,7.2-4.6,10c-1.4,1.6-3.1,2.9-5,3.9c-2.1,0.9-4.3,1.3-6.6,1.1c-2.2-0.2-4.3-0.7-6.4-1.5
		c-2-0.7-3.8-1.8-5.3-3.1h0.4c-2.6,2.6-5.9,4.5-9.5,5.5c-2.9,0.6-5.8,0.4-8.6-0.6c-1.8-0.6-3.5-1.5-5-2.7c-0.4-0.3-0.8-0.6-1.1-1
		c-0.1-0.1-0.3-0.2-0.4-0.4c0,0,0.5,0.5,1.6,1.2c1.5,1.1,3.2,2,5,2.6c2.7,0.9,5.6,1.1,8.4,0.5c3.5-0.9,6.7-2.8,9.2-5.4l0.2-0.2
		l0.2,0.1c1.5,1.3,3.3,2.3,5.2,3c2,0.8,4.1,1.3,6.2,1.5c2.2,0.2,4.3-0.1,6.3-1c1.8-0.9,3.5-2.2,4.8-3.7c2.4-2.8,4-6.1,4.5-9.7v-0.2
		h0.2c2.2-0.1,4.3-0.9,5.8-2.4c1.2-1.2,2-2.7,2.4-4.3c0.2-1,0.3-2.1,0.1-3.2C200.9,140.6,200.8,140.2,200.8,140.2z"/>
	<path class="st10" d="M120.1,144.5c-0.4,1.3-0.8,2.6-1,3.9c-0.5,3.5,0.2,7.1,1.9,10.2l0.1,0.2l-0.2,0.1c-1.4,1.3-2.4,2.9-3,4.7
		c-0.6,2-0.6,4.1,0,6.1c0.8,2.5,2.6,4.7,4.9,6l0.2,0.1l-0.1,0.2c-1.1,2.2-1.5,4.7-1.3,7.1c0.2,1.9,0.8,3.8,1.7,5.5
		c0.9,1.5,2,2.9,3.3,4c-0.1-0.1-0.2-0.1-0.3-0.2c-0.3-0.2-0.6-0.4-0.8-0.6c-1-0.9-1.8-1.9-2.4-3c-1-1.7-1.6-3.7-1.8-5.6
		c-0.3-2.5,0.1-5.1,1.3-7.4l0.1,0.3c-2.5-1.4-4.3-3.6-5.2-6.3c-0.6-2.1-0.6-4.3,0.1-6.4c0.6-1.9,1.7-3.6,3.2-4.9v0.3
		c-1.7-3.2-2.4-6.9-1.8-10.4c0.2-1,0.4-2,0.8-2.9c0.1-0.2,0.2-0.5,0.3-0.7C120.1,144.6,120.1,144.5,120.1,144.5z"/>
	<path class="st5" d="M120.8,210.8c-0.2,0.7-0.2,1.4-0.2,2.1c0,0.7,0.3,1.4,0.8,1.9c0.6,0.6,1.5,0.9,2.3,0.7c0.8-0.3,1.4-1,1.4-1.9
		c0.1-0.7-0.1-1.5-0.4-2.1c-0.6-1.1-1.1-1.8-1-1.9c0.5,0.5,1,1.1,1.3,1.7c0.4,0.7,0.6,1.5,0.6,2.3c0,0.5-0.2,1-0.5,1.4
		c-0.3,0.5-0.8,0.8-1.3,0.9c-1,0.3-2.1-0.1-2.8-0.8c-0.6-0.6-0.9-1.4-0.9-2.2C120.2,212.1,120.4,211.4,120.8,210.8z"/>
	<path class="st5" d="M185.9,288.8c0,0-0.1,0.1-0.3,0.4l-1,1l-3.8,3.8c-3.2,3.2-7.6,7.7-12.3,12.9s-8.8,9.9-11.7,13.4l-3.4,4.1
		l-1,1.1c-0.1,0.1-0.2,0.3-0.4,0.4c0,0,0.1-0.2,0.3-0.4l0.9-1.2c0.8-1,1.9-2.5,3.3-4.3c2.8-3.6,6.9-8.4,11.6-13.5s9.1-9.6,12.4-12.8
		c1.6-1.6,3-2.8,3.9-3.7l1.1-1C185.6,288.9,185.7,288.9,185.9,288.8z"/>
</g>
<g id="freepik--character-2--inject-4">
	<path class="st11" d="M132.7,425.8l9.1-9l10.9-1.9l38.3,14.9c0,0,6,10.6,1.4,18.3s-9,7.5-9,7.5l-8.1-5.2l-29,3.2
		c0,0-12.2-8.4-12.5-10s-0.3-11.4-0.3-11.4l-1.1-1.6C131.2,429.1,131.4,427.1,132.7,425.8z"/>
	<path class="st11" d="M134.1,440.6c5.8,3.5,12,6.4,18.3,8.8c1.4,0.6,2.9,0.9,4.4,0.9c1.5-0.1,2.9-0.8,3.8-2c0.9-1.2,1-2.8,0.4-4.2
		c-0.8-1.2-1.9-2.2-3.3-2.8l-11.6-6.6"/>
	<path class="st12" d="M134,440.7c3.3,2,6.7,3.8,10.2,5.4c3.3,1.7,6.8,3.1,10.3,4.1c2.5,0.6,5.5-0.1,6.6-2.7s-0.7-4.8-2.9-6.1
		c-4-2.4-8.1-4.6-12.1-6.9c-0.1,0-0.1,0-0.2,0c0,0.1,0,0.1,0,0.2l0,0l11.2,6.4c1.8,1,3.8,2.1,4,4.4c0.1,2.4-1.7,4.4-4.1,4.7
		c-2.1,0.3-4.3-0.7-6.2-1.5s-4-1.6-5.9-2.5c-3.7-1.7-7.3-3.6-10.9-5.7C133.9,440.4,133.8,440.6,134,440.7L134,440.7z"/>
	<path class="st11" d="M133.8,443.9c5,5.6,11.8,10.7,17.6,16.6c2.6-2.6,3.1-6.6,1.4-9.8"/>
	<path class="st12" d="M133.7,444c5.4,6,11.9,10.8,17.6,16.6c0.1,0,0.1,0,0.2,0c2.6-2.7,3.2-6.7,1.4-10c-0.1-0.1-0.3,0-0.2,0.1
		c1.3,2.3,1.3,5.1,0.1,7.5c-0.3,0.7-0.7,1.2-1.2,1.7c-0.4,0.3-0.3,0.2-0.7-0.1s-0.5-0.5-0.7-0.7c-1.1-1.1-2.3-2.2-3.4-3.2
		c-4.4-4-9-7.7-12.9-12.1C133.8,443.7,133.6,443.9,133.7,444L133.7,444z"/>
	<path class="st10" d="M151.6,422.3c-6.7-3.9-17.4-5.5-29.2-7.5L110.8,436c0,0,20.9,3.2,29.8,7c12.7,5.5,19.6,22.1,19.6,22.1
		l16.8-20.8C176.9,444.4,172.5,432.4,151.6,422.3z"/>
	<path class="st4" d="M149.9,428l-2.1,3.9c1.4,0.9,2.7,1.9,2.2,3.6c-0.6,2-2.7,2.7-5.2,2l-0.9,1.7l-0.8-0.2l0.9-1.7
		c-1.3-0.4-2.3-1.3-3-2.4l0.8-0.7c0.6,1,1.6,1.8,2.7,2.2l2.1-3.9c-1.3-0.9-2.6-1.9-2-3.6c0.6-2,2.7-2.7,5.1-2l0.9-1.7l0.8,0.2
		l-0.9,1.7c1,0.4,1.9,1,2.6,1.8l-0.8,0.8C151.7,428.9,150.9,428.3,149.9,428z M147.3,432.9l-2,3.7c1.8,0.5,3.1,0,3.5-1.2
		C149.1,434.3,148.3,433.6,147.3,432.9z M147.1,431.5l2-3.7c-1.7-0.4-3,0.1-3.4,1.3C145.4,430.1,146.2,430.8,147.1,431.5z"/>
	<path class="st4" d="M150.7,423.9l0.5,0.2l1.5,0.7c0.7,0.3,1.5,0.7,2.4,1.3s2,1.1,3.2,1.9c2.9,1.8,5.6,3.7,8.1,5.9
		c3.4,2.9,6.3,6.2,8.6,9.9l0.1,0.1l-0.1,0.1l-14,17.7l-0.2,0.3l-0.2-0.4c-1.6-3.6-3.6-7-6-10.1c-2.5-3.3-5.6-6.2-9.1-8.4
		c-2.4-1.4-5-2.5-7.7-3.2c-2.7-0.8-5.3-1.5-7.9-2.2c-5.2-1.3-10.2-2.5-15-3.5l-0.3-0.1l0.2-0.3c3.6-6.2,6.9-11.9,9.8-16.9l0.1-0.1
		h0.1c8.2,1.4,14.9,2.6,19.4,4c1.7,0.5,3.4,1.2,5,1.9C149.7,423.2,150.3,423.5,150.7,423.9c-0.1-0.1-0.3-0.2-0.4-0.2
		c-0.3-0.1-0.7-0.4-1.3-0.6c-1.6-0.7-3.3-1.3-5.1-1.8c-6.4-1.6-12.9-2.9-19.4-3.8l0.2-0.1l-9.7,16.9l-0.2-0.4c4.8,1,9.8,2.1,15,3.5
		c2.6,0.7,5.3,1.4,7.9,2.2c2.8,0.7,5.4,1.8,7.9,3.3c3.6,2.3,6.7,5.1,9.3,8.5c2.4,3.1,4.5,6.6,6.1,10.2l-0.4-0.1l14.1-17.6v0.2
		c-2.3-3.7-5.2-7-8.5-9.9c-2.5-2.2-5.2-4.2-8-6c-1.1-0.8-2.2-1.4-3.1-1.9s-1.7-1-2.4-1.3l-1.5-0.8
		C150.9,424,150.7,423.9,150.7,423.9z"/>
	<path class="st11" d="M160.5,420.4c-0.2,0.2-22.2,7.1-22.2,7.1l-7.3,3.1c0,0,3.1,4.9,7.9,3.9s6.2-2,6.2-2l7.7,0.4
		c0,0,3.2,13.6,27.6,7.1"/>
	<path class="st12" d="M180.4,439.9c-0.2,0.1-0.4,0.1-0.6,0.2l-1.7,0.4c-2.1,0.5-4.3,0.9-6.4,1.1c-1.5,0.2-3.1,0.2-4.6,0.1h-1.3
		l-1.3-0.2l-1.4-0.2l-1.4-0.4c-0.9-0.3-1.9-0.6-2.8-1c-0.9-0.5-1.8-1-2.6-1.7c-1.8-1.4-3.1-3.3-3.8-5.4l0.2,0.2l-7.7-0.4l0.2,0
		c-1.2,0.7-2.5,1.1-3.8,1.5c-1,0.3-2,0.5-3,0.7c-1,0.1-2.1,0-3.1-0.4c-1.8-0.8-3.4-2.1-4.5-3.7l-0.2-0.2l0.3-0.1l7.3-3.1l0,0l16.1-5
		l4.5-1.4l1.2-0.4c0.1-0.1,0.3-0.1,0.4-0.1c-0.1,0.1-0.3,0.1-0.4,0.2l-1.2,0.4l-4.5,1.5l-16.1,5.2l0,0l-7.3,3.1l0.1-0.4
		c1,1.6,2.5,2.8,4.3,3.5c0.9,0.3,1.9,0.5,2.8,0.4c1-0.2,2-0.4,3-0.6c1.3-0.3,2.5-0.8,3.7-1.4l0.1,0h0.1l7.7,0.4h0.2v0.2
		c0.3,1,0.8,2,1.5,2.9c0.6,0.8,1.4,1.6,2.2,2.3c0.8,0.6,1.7,1.1,2.6,1.5c0.9,0.4,1.8,0.7,2.7,1l1.3,0.4l1.3,0.2l1.3,0.2l1.3,0.1
		c1.5,0.1,3,0.1,4.5-0.1c2.2-0.2,4.3-0.5,6.4-1l1.7-0.4C180,440,180.2,439.9,180.4,439.9z"/>
	<path class="st4" d="M128.9,420.5c0,0.9-1,1.6-2.1,1.6s-2.1-0.7-2.1-1.6s1-1.6,2.1-1.6S128.9,419.6,128.9,420.5z"/>
	<path class="st4" d="M160,456c0,1.1,0.7,2.1,1.5,2.1s1.5-0.9,1.5-2.1s-0.7-2.1-1.5-2.1S160,454.9,160,456z"/>
	<polygon class="st5" points="424,555.3 420.7,556.2 285.8,560 281.4,610.5 426.8,610.7 429.5,607.2 	"/>
	<path class="st8" d="M325,363.7l16.7-7.6l7.8-9.9l51.5-6.9l7.2,9.4l40.2,26.1c0,0-12.4,144.1-14.1,156.8S424,555.3,424,555.3
		s-87.3,23.3-118.1,11.4c0,0-20.9-13-18.8-34.2s13.4-79.7,13.4-79.7L325,363.7z"/>
	<path class="st8" d="M188.6,425.8l70.7,19.7c0,0-0.4-7.8,6.2-9.3c0,0,41.6-58.9,46.2-63.9s13.3-8.6,13.3-8.6l-29.8,118
		c0,0-25.9,13.8-36.5,11.7s-38-11.6-54.2-22.9L179.5,455L188.6,425.8z"/>
	<path class="st5" d="M269.4,471.6c-0.1-0.4-0.2-0.7-0.3-1.1c-0.2-0.8-0.4-1.8-0.6-3c-0.7-3.3-1.5-6.5-2.6-9.6
		c-0.6-1.7-1.3-3.4-2.1-5c-0.7-1.3-1.4-2.6-2.2-3.9c-1.4-2.1-2.4-3.3-2.3-3.4c0.3,0.2,0.6,0.5,0.8,0.8c0.3,0.3,0.6,0.7,0.8,1
		c0.3,0.4,0.7,0.9,1,1.4c0.8,1.2,1.6,2.5,2.3,3.9c0.8,1.7,1.5,3.4,2.2,5.1c1.1,3.2,1.9,6.4,2.5,9.7c0.2,1.3,0.4,2.3,0.4,3
		C269.4,470.8,269.4,471.2,269.4,471.6z"/>
	<path class="st8" d="M445.7,373.6c0,0-30.5-3.1-42.3,23.3s-12.7,100.6-12.7,100.6c-1.4-2.8-26.5,18-31.5,22.9l-51.4,14.2l9,33
		c0,0,63.2-6.5,79.8-14.7c18.7-9.3,32.2-12.2,37.6-22.5c5.4-10.3,18.7-72.1,20.1-92.1S461.3,378.7,445.7,373.6z"/>
	<path class="st5" d="M367.6,362.1c-0.1,0.1-0.1,0.3-0.2,0.4c-0.2,0.2-0.4,0.6-0.7,1.1c-0.6,1-1.6,2.3-2.8,4c-2.4,3.3-6,7.8-9.6,13
		l-0.2,0.4l-0.2-0.4c-0.3-0.6-0.7-1.3-1-2c-3.2-6.2-6-11.8-8-15.8c-1-2-1.8-3.6-2.4-4.8l-0.6-1.3c-0.1-0.1-0.1-0.3-0.2-0.5
		c0,0,0.1,0.1,0.3,0.4c0.2,0.3,0.4,0.8,0.7,1.3l2.5,4.7c2.1,4,5,9.6,8.1,15.8l1,2h-0.4c3.7-5.3,7.3-9.7,9.8-13l2.9-3.9
		C366.9,363,367.2,362.5,367.6,362.1z"/>
	<path class="st5" d="M406,350.6c-0.1,0.2-0.3,0.3-0.5,0.4l-1.3,1.2c-1.2,1.1-2.9,2.6-4.9,4.5c-5.3,5-10.3,10.4-14.9,16.1
		c-2.3,2.9-4.5,5.7-6.4,8.3l-0.2,0.4l-0.2-0.4l-6-13.5l-1.7-3.9c-0.2-0.4-0.3-0.8-0.4-1.1c-0.1-0.1-0.1-0.2-0.1-0.4
		c0.1,0.1,0.1,0.2,0.2,0.3c0.1,0.3,0.3,0.6,0.5,1c0.5,1,1.1,2.3,1.8,3.9l6.2,13.5l-0.4,0c1.9-2.6,4-5.5,6.4-8.3
		c4.6-5.7,9.7-11,15.1-16c2.1-1.9,3.8-3.4,5-4.4l1.4-1.1C405.6,350.9,405.8,350.7,406,350.6z"/>
	<path class="st5" d="M435.4,527.7c0,0-0.1,0.2-0.2,0.6l-0.8,1.7c-1.1,2.2-2.4,4.3-3.8,6.2c-2.3,3.1-5.1,5.9-8.3,8.2
		c-4.2,3.1-8.8,5.5-13.7,7.3c-6,2.2-12.2,3.8-18.5,4.8c-3.4,0.7-6.9,1.2-10.5,2s-7.3,1.6-11.2,2.3c-15.5,2.6-32.9,4.9-51.5,7.2h-0.2
		l-0.1-0.2c-2.9-10.6-5.9-21.6-9-33l-0.1-0.3l0.3,0c3.3-0.6,6.7-1.4,10.2-2.2c7.3-1.7,14.3-3.7,21.3-5.6c7-1.9,13.9-3.4,20.1-6.5
		c3-1.5,5.8-3.5,8.4-5.7c2.5-2.2,4.9-4.5,7.2-6.8c2.3-2.2,4.7-4.3,7.3-6.2c2.5-1.8,5.3-3.2,8.3-4.1l-0.2,0.2
		c3.9-27.4,7.1-50.3,9.4-66.4c1.2-8,2.1-14.4,2.7-18.7c0.3-2.1,0.5-3.8,0.7-4.9c0.1-0.5,0.2-1,0.2-1.3s0.1-0.4,0.1-0.4
		c0,0.1,0,0.3,0,0.4c0,0.3-0.1,0.7-0.2,1.3c-0.2,1.1-0.4,2.8-0.7,4.9c-0.6,4.3-1.5,10.7-2.6,18.7c-2.2,16.1-5.4,39.1-9.2,66.5v0.1
		h-0.2c-2.9,0.8-5.7,2.2-8.2,4c-2.6,1.9-5,4-7.3,6.2c-2.4,2.2-4.7,4.6-7.2,6.8c-2.6,2.3-5.4,4.2-8.5,5.8c-6.2,3.1-13.2,4.6-20.2,6.6
		s-14.1,3.9-21.3,5.6c-3.5,0.8-7,1.6-10.2,2.2l0.2-0.3c3.1,11.3,6.1,22.4,9,33l-0.3-0.2c18.6-2.3,36-4.6,51.5-7.2
		c15.3-3.4,29.4-4.7,40.2-8.9c4.9-1.7,9.5-4.2,13.7-7.2c5.1-3.7,9.2-8.5,12.1-14.1c0.3-0.7,0.6-1.3,0.8-1.7S435.4,527.7,435.4,527.7
		z"/>
	<g class="st9">
		<path d="M425.3,509.3c-0.2-1.3-0.8-2.6-1.6-3.6c-3.7-5.2-10.1-8.1-16.4-9s-10-0.4-16.3,0.7l-0.4,0.3c10.7-0.8,18.5,3.4,25.6,11.6
			c0.9,1.3,2,2.4,3.3,3.3c1.3,0.9,3,1,4.4,0.3C424.9,512,425.5,510.6,425.3,509.3z"/>
	</g>
	<path class="st5" d="M420.7,505.1c-1-1.2-2.2-2.4-3.4-3.4c-3-2.4-6.6-4.1-10.4-4.8c-3.8-0.7-7.7-0.7-11.6-0.1
		c-1.5,0.2-2.7,0.4-3.5,0.5c-0.4,0.1-0.9,0.1-1.3,0.1c0.4-0.2,0.8-0.3,1.3-0.3c0.8-0.2,2-0.4,3.5-0.7c3.9-0.7,7.9-0.7,11.7,0
		c3.9,0.7,7.5,2.4,10.6,5c0.9,0.8,1.7,1.7,2.4,2.6C420.3,504.4,420.6,504.7,420.7,505.1z"/>
	<path class="st5" d="M440.3,374.8c-2.2-0.5-4.5-0.9-6.7-1c-1.1,0-2.3,0-3.4,0.1c-0.6,0.1-1.2,0.2-1.9,0.3c-0.7,0.1-1.3,0.2-2,0.4
		c-2.9,0.8-5.7,2-8.1,3.8c-2.5,1.7-4.7,3.8-6.5,6.2c-0.5,0.5-0.8,1.1-1.2,1.6s-0.8,1-1.1,1.6c-0.6,1.1-1.2,2-1.7,3s-0.9,1.8-1.2,2.6
		s-0.6,1.4-0.8,2s-0.4,0.9-0.5,1.3c-0.1,0.4-0.2,0.4-0.2,0.4c0-0.2,0.1-0.3,0.1-0.5c0.1-0.4,0.3-0.8,0.4-1.3s0.4-1.2,0.7-2l1.2-2.6
		c0.5-1,1.1-1.9,1.7-3c0.3-0.5,0.7-1,1.1-1.6s0.7-1.1,1.2-1.7c1.9-2.4,4.1-4.5,6.6-6.3c2.5-1.8,5.3-3.1,8.3-3.8
		c0.7-0.2,1.3-0.3,2-0.4c0.7-0.1,1.3-0.2,1.9-0.3c1.2-0.1,2.3-0.1,3.5,0l1.5,0.1c0.5,0.1,0.9,0.1,1.3,0.2c0.7,0.1,1.4,0.3,2.1,0.5
		l1.3,0.4C439.9,374.7,440.1,374.7,440.3,374.8z"/>
	<path class="st5" d="M305.6,404.5c0,0.1,0,0.2,0,0.3c0,0.2,0,0.5,0,0.8c0,0.8-0.1,1.8-0.2,3.1c-0.2,2.7-0.6,6.7-1,11.5
		c-1,9.7-2.5,23.1-4.7,37.9s-4.6,28.1-6.5,37.7c-0.9,4.8-1.7,8.7-2.3,11.4c-0.3,1.3-0.5,2.3-0.7,3.1c-0.1,0.3-0.1,0.6-0.2,0.8
		c0,0.1,0,0.2-0.1,0.3c0-0.1,0-0.2,0-0.3c0-0.2,0.1-0.5,0.1-0.8c0.1-0.7,0.3-1.8,0.6-3.1c0.5-2.7,1.3-6.6,2.2-11.4
		c1.8-9.6,4.1-22.9,6.3-37.7s3.8-28.2,4.8-37.9c0.5-4.8,0.9-8.8,1.2-11.5c0.2-1.3,0.3-2.4,0.3-3.1c0-0.3,0.1-0.6,0.1-0.8
		C305.6,404.7,305.6,404.6,305.6,404.5z"/>
	<g class="st9">
		<path d="M295.1,481.7c3.4-12.5,4.7-26.3,6.4-39.5c-2.1,14.9-9.4,32.3-17.7,44.9C287.9,485.3,291.8,483.5,295.1,481.7z"/>
	</g>
	<g class="st9">
		<path d="M369.7,363.3c1.8,7.5,3.3,15.3,6,22.5c0.2,0.8,0.7,1.6,1.3,2.2c0.8,0.6,1.9,0.7,2.8,0.3c0.9-0.4,1.7-0.9,2.4-1.7
			c3.6-3.6,5.6-8.5,7.9-13.1c3.8-7.7,12.4-19.6,14.2-21.4c-10.7,9-18.7,19.3-26.5,29.2L369.7,363.3z"/>
	</g>
	<g class="st9">
		<path d="M342.7,357.9c2.5,10.1,5.8,19.9,9.9,29.5c0.2,0.4,0.5,1,1,1s0.8-0.4,1.1-0.7c4.8-6.5,9.7-16.9,12.2-24.3l-12.7,17.1
			L342.7,357.9z"/>
	</g>
	<path class="st5" d="M375.3,467.9c-0.2,0.1-0.3,0.2-0.5,0.3l-1.6,0.7c-1.4,0.6-3.4,1.4-5.9,2.3c-5,1.9-12,4.3-19.8,6.6
		s-15,4.1-20.2,5.2c-2.6,0.6-4.7,1-6.2,1.3l-1.7,0.3c-0.2,0-0.4,0.1-0.6,0.1c0.2-0.1,0.4-0.1,0.6-0.2l1.7-0.4l6.1-1.4
		c5.2-1.2,12.3-3,20.1-5.3s14.8-4.7,19.8-6.4l6-2.1l1.6-0.6C375,468,375.2,468,375.3,467.9z"/>
	<path class="st4" d="M361.8,405.5c0,0-0.1,0.1-0.2,0.2l-0.7,0.4c-0.6,0.4-1.5,1-2.7,1.7c-2.3,1.5-5.5,3.9-9.6,6.7
		c-2.2,1.5-4.6,2.8-7.1,3.9c-2.9,1.2-5.9,2-9,2.2c-3.5,0.3-6.9-0.4-10-2c-1.6-0.9-3-2.1-4.1-3.6c-1.1-1.6-1.7-3.4-1.7-5.4
		c0-1,0.3-1.9,0.8-2.8c0.5-0.8,1.2-1.5,2.1-2c1.6-0.9,3.6-1.2,5.4-0.8c1.8,0.3,3.4,1.4,4.4,2.9c0.9,1.4,1.4,3.1,1.4,4.9
		c0,1.6-0.4,3.2-1.2,4.7c-0.7,1.4-1.7,2.5-2.9,3.5c-2.2,1.6-4.8,2.6-7.5,2.8c-2.2,0.2-4.5,0-6.7-0.6c-1.6-0.4-3.2-1-4.8-1.6
		c-1.3-0.5-2.2-1-2.9-1.4l-0.7-0.4c-0.2-0.1-0.2-0.1-0.2-0.1c0.1,0,0.2,0.1,0.3,0.1l0.8,0.4c0.7,0.3,1.6,0.8,2.9,1.3
		c1.5,0.6,3.1,1.2,4.7,1.5c2.1,0.5,4.3,0.7,6.5,0.5c2.7-0.2,5.2-1.2,7.3-2.8c1.2-0.9,2.1-2,2.8-3.3c0.7-1.4,1.1-2.9,1.1-4.5
		c0-1.6-0.4-3.2-1.3-4.6c-0.9-1.4-2.4-2.4-4.1-2.7c-1.7-0.4-3.5-0.1-5,0.8c-0.8,0.4-1.4,1-1.9,1.8c-0.5,0.8-0.7,1.6-0.8,2.5
		c0,1.8,0.5,3.6,1.6,5c1,1.4,2.4,2.6,3.9,3.5c3,1.6,6.4,2.3,9.7,2c3.1-0.2,6.1-0.9,8.9-2.1c2.4-1.1,4.8-2.4,7-3.8
		c4.1-2.7,7.3-5.1,9.7-6.5c1.2-0.7,2.1-1.3,2.7-1.6l0.7-0.4C361.7,405.5,361.8,405.5,361.8,405.5z"/>
	<path class="st4" d="M399.3,432.2c0,0-0.1,0-0.2-0.1l-0.6-0.4c-0.8-0.5-1.6-1-2.4-1.4c-3.1-1.5-6.5-2.2-10-2
		c-5.2,0.4-9.9,2.8-13.3,6.7c-2,2.2-3.4,5-3.9,7.9c-0.2,1.6,0,3.1,0.6,4.6c0.6,1.5,1.7,2.7,3.2,3.4c1.5,0.6,3.2,0.7,4.7,0.1
		c1.5-0.5,2.8-1.5,3.7-2.8c0.5-0.6,0.8-1.3,1-2c0.2-0.7,0.3-1.5,0.3-2.2c0-1.5-0.4-2.9-1.1-4.2c-0.6-1.2-1.5-2.3-2.6-3.2
		c-1-0.8-2.2-1.5-3.4-1.9c-2.2-0.8-4.6-1-7-0.7c-3.4,0.5-6.7,1.7-9.7,3.4c-1.1,0.6-1.9,1.1-2.4,1.4l-0.6,0.4l-0.2,0.1
		c0,0,0.1-0.1,0.2-0.2l0.6-0.4c0.5-0.4,1.3-0.9,2.4-1.5c1.3-0.7,2.6-1.4,4-2c1.8-0.8,3.8-1.3,5.8-1.6c2.4-0.3,4.9-0.1,7.2,0.7
		c1.3,0.5,2.5,1.1,3.6,2c1.1,0.9,2,2.1,2.7,3.3c0.7,1.3,1.1,2.9,1.2,4.4c0,0.8-0.1,1.6-0.3,2.4c-0.2,0.8-0.5,1.5-1,2.2
		c-1,1.4-2.3,2.4-3.9,3c-1.6,0.6-3.4,0.6-5-0.1c-1.6-0.8-2.8-2.1-3.4-3.7c-0.6-1.5-0.9-3.2-0.6-4.9c0.5-3.1,2-5.9,4.1-8.2
		c5.9-6.8,15.8-8.7,23.8-4.5C397.4,430.7,398.4,431.4,399.3,432.2z"/>
	<path class="st4" d="M456.6,408l-0.2,0.1l-0.7,0.2c-0.9,0.2-1.8,0.4-2.7,0.6c-3.4,0.5-6.8,0.3-10.1-0.5c-2.3-0.6-4.5-1.4-6.5-2.6
		c-1.2-0.6-2.2-1.4-3.2-2.3c-1-1-1.8-2.2-2.3-3.5c-0.5-1.4-0.5-3,0-4.4c0.5-1.5,1.6-2.8,3.2-3.3c1.6-0.4,3.3,0,4.6,1.1
		c1.3,1.1,2.2,2.6,2.4,4.2c0.2,1.7,0,3.3-0.7,4.9c-0.6,1.5-1.4,2.9-2.4,4.1c-3.5,4.6-8.5,7.7-14.1,8.9c-2.3,0.5-4.7,0.6-7,0.4
		c-3.4-0.3-6.7-1.4-9.6-3.1c-1.1-0.6-2.1-1.3-3-2.2l0.2,0.1l0.6,0.4c0.7,0.5,1.5,1,2.3,1.5c2.9,1.6,6.2,2.6,9.5,2.9
		c2.3,0.2,4.6,0.1,6.9-0.4c5.5-1.2,10.4-4.3,13.8-8.8c0.9-1.2,1.7-2.6,2.3-4c0.6-1.5,0.8-3,0.7-4.6c-0.2-1.5-1-2.9-2.3-3.9
		c-1.1-1-2.7-1.4-4.1-1c-1.4,0.5-2.5,1.6-2.9,3c-0.5,1.3-0.5,2.8,0,4.1c1.1,2.4,2.9,4.4,5.3,5.6c2,1.2,4.2,2,6.4,2.6
		c3.3,0.8,6.7,1.1,10,0.6c1.2-0.2,2.1-0.3,2.7-0.5l0.7-0.2C456.5,408,456.5,408,456.6,408z"/>
	<path class="st4" d="M300.7,433.5c-0.4-0.7-0.9-1.3-1.4-1.9c-1.4-1.6-3.3-2.8-5.3-3.5c-3.1-0.9-6.4-0.5-9.1,1.2
		c-1.6,0.9-2.9,2.3-3.5,4.1c-0.2,0.9-0.1,1.9,0.5,2.6c0.7,0.7,1.6,1.2,2.5,1.3c1,0.2,2,0,2.8-0.5c0.8-0.5,1.5-1.2,2-2
		c0.9-1.6,1.3-3.5,1.3-5.4c0-3.2-0.9-6.3-2.5-9.1c-1.1-1.8-2.5-3.5-4.2-4.9c-1.2-0.9-2-1.3-1.9-1.4c0.2,0.1,0.4,0.2,0.6,0.3
		c0.5,0.3,1,0.6,1.5,1c4.4,3.3,7.1,8.5,7.1,14.1c0.1,2-0.4,3.9-1.3,5.6c-0.5,0.9-1.3,1.7-2.2,2.2c-1,0.5-2.1,0.7-3.2,0.6
		c-1.1-0.1-2.1-0.7-2.9-1.5c-0.7-0.9-0.9-2-0.6-3.1c0.6-1.9,2-3.4,3.7-4.4c2.9-1.7,6.3-2.1,9.5-1.1c2.1,0.7,4,2,5.4,3.7
		c0.4,0.5,0.7,1,1,1.5C300.6,433.2,300.6,433.4,300.7,433.5z"/>
	<path class="st4" d="M356.7,358.1c-1.9,0.4-3.8,1-5.6,1.9c-1.7,1-3.3,2.2-4.7,3.6c1.1-1.7,2.6-3.1,4.5-4
		C352.6,358.5,354.6,358,356.7,358.1z"/>
	<path class="st4" d="M389.3,365.9c-0.8-0.1-1.5-0.3-2.2-0.7c-3.3-1.7-5.7-4.9-6.3-8.6c-0.2-0.7-0.2-1.5,0-2.3
		c0.1,0,0.1,0.9,0.4,2.2c0.8,3.5,3,6.6,6.1,8.4C388.5,365.6,389.3,365.9,389.3,365.9z"/>
	<path class="st4" d="M325.2,506.9c-0.4,0.2-0.9,0.4-1.3,0.5c-0.5,0.2-1.1,0.3-1.6,0.4c-0.6,0.1-1.3,0.3-2.2,0.4
		c-1.9,0.3-3.8,0.5-5.7,0.5c-4.7,0-9.4-0.8-13.8-2.5c-1.8-0.7-3.5-1.5-5.2-2.5c-0.7-0.4-1.3-0.8-1.9-1.2c-0.5-0.3-0.9-0.6-1.3-1
		c-0.4-0.3-0.8-0.6-1.1-0.9c0.1-0.1,1.7,1.2,4.5,2.7c1.7,0.9,3.4,1.7,5.2,2.4c2.2,0.8,4.4,1.4,6.7,1.8c2.3,0.4,4.6,0.6,6.9,0.6
		c1.9,0,3.8-0.1,5.7-0.4C323.2,507.5,325.2,506.9,325.2,506.9z"/>
	<path class="st4" d="M389,485.3c-0.1,0-0.2,0-0.2-0.1l-0.7-0.3l-1.1-0.5c-0.5-0.2-1-0.3-1.6-0.5c-3.4-1.1-6.9-1.6-10.4-1.5
		c-5.2,0.1-10.4,1.4-15,3.9c-2.7,1.4-5.2,3.3-7.3,5.5c-1.1,1.1-2,2.5-2.6,4c-0.6,1.5-0.6,3.2,0,4.8c0.5,1.6,1.9,2.7,3.5,3
		c1.6,0.1,3.1-0.5,4.2-1.7c1.1-1.1,1.7-2.6,1.6-4.1c-0.1-1.5-0.5-2.9-1.3-4.1c-1.5-2.3-3.8-4.1-6.4-5.1c-2.3-0.9-4.7-1.2-7.1-1.1
		c-3.5,0.2-6.9,1.4-9.7,3.6c-1,0.8-1.9,1.7-2.8,2.7c0-0.1,0.1-0.1,0.1-0.2l0.5-0.6c0.2-0.3,0.5-0.6,0.8-0.9c0.4-0.4,0.8-0.8,1.2-1.1
		c4.8-3.8,11.3-4.9,17.1-2.7c2.7,1,5,2.8,6.6,5.2c0.9,1.3,1.4,2.8,1.4,4.4c0,1.7-0.6,3.3-1.8,4.5c-1.1,1.3-2.9,2-4.6,1.9
		c-1.8-0.3-3.3-1.6-3.9-3.3c-0.6-1.6-0.6-3.5,0-5.1c0.6-1.6,1.5-3,2.7-4.2c2.2-2.2,4.7-4.1,7.5-5.6c4.7-2.5,9.9-3.8,15.2-3.8
		c3.6,0,7.1,0.5,10.5,1.7c0.6,0.2,1.1,0.4,1.6,0.6l1.1,0.5l0.7,0.3C388.9,485.2,388.9,485.2,389,485.3z"/>
	<path class="st4" d="M439.3,473.6c0,0-0.1,0.1-0.4,0.3l-1.2,0.7c-0.5,0.3-1.2,0.6-1.9,1s-1.6,0.8-2.6,1.2s-2.1,0.9-3.3,1.3
		s-2.5,0.8-3.8,1.2c-3,0.8-6,1.4-9,1.7c-3.1,0.3-6.1,0.4-9.2,0.3c-1.4-0.1-2.8-0.1-4-0.3s-2.4-0.3-3.5-0.5s-2-0.4-2.8-0.6
		s-1.5-0.4-2.1-0.5l-1.3-0.4c-0.2,0-0.3-0.1-0.5-0.2c0.2,0,0.3,0,0.5,0.1l1.3,0.3c0.6,0.1,1.3,0.3,2.1,0.5s1.8,0.4,2.8,0.5
		s2.2,0.3,3.5,0.4s2.6,0.2,4,0.3c3.1,0.1,6.1,0,9.1-0.3c3-0.4,6-0.9,9-1.7c1.3-0.4,2.7-0.7,3.8-1.1s2.3-0.8,3.3-1.2s1.9-0.8,2.7-1.1
		s1.4-0.6,2-0.9l1.2-0.6C439.1,473.7,439.2,473.7,439.3,473.6z"/>
	<path class="st4" d="M234.2,484.5c0-0.2,0.1-0.3,0.1-0.5l0.5-1.2c0.2-0.5,0.5-1.2,0.8-2c0.3-0.8,0.6-1.6,1-2.6
		c0.7-1.9,1.4-4.3,2.1-6.9c0.7-2.9,1.3-5.8,1.7-8.7c0.4-2.9,0.6-5.9,0.6-8.9c0-2.4-0.2-4.8-0.5-7.2c-0.1-0.5-0.1-1-0.2-1.5
		s-0.2-0.9-0.3-1.3c-0.1-0.7-0.3-1.4-0.5-2l-0.4-1.3c-0.1-0.1-0.1-0.3-0.1-0.5c0,0,0.1,0.1,0.2,0.4l0.5,1.3c0.2,0.7,0.4,1.3,0.6,2
		c0.1,0.4,0.2,0.8,0.3,1.3s0.2,0.9,0.3,1.5c0.4,2.4,0.6,4.8,0.6,7.3c0,3-0.2,6-0.6,8.9c-0.4,3-1,5.9-1.8,8.8c-0.7,2.6-1.5,5-2.2,7
		c-0.4,1-0.7,1.8-1,2.6s-0.6,1.4-0.9,1.9l-0.6,1.2C234.4,484.3,234.3,484.4,234.2,484.5z"/>
	<path class="st5" d="M369.2,362.3c0,0.1,0,0.2,0,0.3c0,0.2-0.1,0.5-0.1,0.9l-0.4,3.4c-0.4,3-1,7.2-1.7,12.5
		c-1.6,10.5-4,25.1-7.3,41s-6.6,30.3-9.1,40.6c-1.2,5.1-2.3,9.3-3,12.2c-0.4,1.4-0.6,2.5-0.8,3.3c-0.1,0.4-0.2,0.6-0.2,0.9
		c0,0.1-0.1,0.2-0.1,0.3c0-0.1,0-0.2,0-0.3c0-0.2,0.1-0.5,0.2-0.9l0.8-3.4c0.7-2.9,1.7-7.1,2.8-12.3c2.4-10.4,5.7-24.7,8.9-40.6
		s5.8-30.4,7.4-41c0.8-5.3,1.5-9.5,1.9-12.5c0.2-1.5,0.4-2.6,0.5-3.4c0.1-0.4,0.1-0.6,0.1-0.9C369.1,362.4,369.2,362.3,369.2,362.3z
		"/>
	<path class="st5" d="M344.1,478.4c0,0-0.1,0.1-0.4,0.4l-1.2,1.1c-0.7,0.6-1.3,1.2-1.9,1.8l-1.1,1.2c-0.4,0.4-0.8,0.9-1.2,1.4
		c-0.9,1.1-1.7,2.2-2.5,3.3c-0.4,0.6-0.9,1.2-1.3,1.9l-1.2,2.1c-1.7,3.2-3.1,6.6-4.1,10c-1,3.5-1.6,7.1-2,10.7
		c-0.1,1.7-0.3,3.3-0.3,4.8c0,0.8,0,1.5,0,2.2c0,0.7,0,1.4,0,2c0,1.3,0.1,2.4,0.1,3.4s0.1,1.9,0.2,2.6l0.1,1.6c0,0.2,0,0.4,0,0.6
		c-0.1-0.2-0.1-0.4-0.1-0.6c-0.1-0.4-0.1-1-0.2-1.6s-0.2-1.6-0.3-2.6s-0.2-2.1-0.2-3.4c0-0.6,0-1.3-0.1-2s0-1.4,0-2.2
		c0-1.5,0.1-3.1,0.2-4.8c0.4-3.7,1-7.3,2-10.8c1-3.5,2.4-6.9,4.2-10.1l1.2-2.1c0.4-0.7,0.9-1.3,1.3-1.9c0.8-1.1,1.7-2.2,2.6-3.3
		c0.4-0.5,0.8-0.9,1.2-1.3l1.2-1.1c0.6-0.6,1.3-1.2,1.9-1.7l1.3-1C343.8,478.6,343.9,478.5,344.1,478.4z"/>
	<path class="st11" d="M399.4,277.8c0.6-20.9-13.8-38.5-34.8-38.5l-1.9,0.1c-19.5,1.1-34.8,16.9-35.3,36.4
		c-0.4,18.1-0.7,38.1,0,47.8c1.4,20,21.6,22,21.6,22l0.1,3.1l19.6,12.7l32.1-21.8L399.4,277.8z"/>
	<path class="st5" d="M332.3,289.4c0.1,1.6,1.4,2.8,2.9,2.7c1.5,0,2.8-1.2,2.8-2.7c0,0,0-0.1,0-0.1c-0.1-1.6-1.4-2.8-2.9-2.7
		C333.6,286.6,332.4,287.8,332.3,289.4C332.3,289.4,332.3,289.4,332.3,289.4z"/>
	<path class="st5" d="M331.9,284.3c0.4,0.4,2.5-1.4,5.5-1.5c3.1-0.2,5.4,1.2,5.7,0.8c0.2-0.2-0.2-0.8-1.3-1.5
		c-1.4-0.9-3-1.2-4.6-1.1c-1.6,0.1-3.1,0.7-4.4,1.7C332,283.5,331.7,284.2,331.9,284.3z"/>
	<path class="st5" d="M362.3,288.4c0.1,1.5,1.4,2.8,2.9,2.7c1.5,0,2.8-1.2,2.8-2.7c0,0,0-0.1,0-0.1c-0.1-1.5-1.4-2.8-2.9-2.7
		C363.6,285.6,362.4,286.8,362.3,288.4C362.3,288.3,362.3,288.3,362.3,288.4z"/>
	<path class="st5" d="M362.5,281.7c0.3,0.4,2.6-1.1,5.7-0.9s5.3,1.8,5.6,1.5c0.2-0.2-0.2-0.9-1.1-1.6c-1.3-1-2.8-1.6-4.5-1.6
		c-1.6-0.1-3.2,0.3-4.5,1.2C362.7,280.9,362.4,281.6,362.5,281.7z"/>
	<path class="st5" d="M352.7,307.7c0-0.2-1.9-0.4-5-0.6c-0.8,0-1.5-0.1-1.7-0.7c-0.1-0.8,0-1.6,0.4-2.4c0.7-1.9,1.3-4,2-6.1
		c2.8-8.7,4.7-15.9,4.3-16s-2.9,6.9-5.6,15.6l-1.9,6.1c-0.4,1-0.5,2.1-0.2,3.1c0.3,0.5,0.8,0.9,1.3,1.1c0.4,0.1,0.9,0.1,1.3,0.1
		C350.7,307.9,352.7,307.9,352.7,307.7z"/>
	<path class="st5" d="M361.8,309.3c-0.5,0-0.3,3.3-3,5.9s-6.3,2.4-6.3,2.8c0,0.2,0.8,0.6,2.3,0.6c2-0.1,3.8-0.9,5.3-2.2
		c1.4-1.3,2.2-3,2.3-4.9C362.5,310.1,362.1,309.3,361.8,309.3z"/>
	<path class="st1" d="M362.3,271.6c0.3,0.9,3.4,0.5,7,1.1s6.5,1.6,7,0.9c0.2-0.4-0.3-1.2-1.4-2c-3.1-2.1-7.1-2.7-10.7-1.5
		C362.9,270.5,362.2,271.2,362.3,271.6z"/>
	<path class="st1" d="M332.9,276.4c0.6,0.7,2.7-0.2,5.2-0.4s4.7,0.2,5.2-0.6c0.2-0.4-0.2-1-1.2-1.7c-1.3-0.7-2.8-1.1-4.3-0.9
		c-1.5,0.1-2.9,0.7-4.1,1.6C332.9,275.3,332.6,276.1,332.9,276.4z"/>
	<path class="st1" d="M386.5,247.2c1-0.6,5.2,3.9,6,4.6c4.8,4.3,6.8,12.3,7.4,18.7c0.8,6.1,0.7,12.3-0.1,18.4
		c-0.1,0.8-0.6,4.1-0.6,4.1c-0.8,0.8-1.7,7.9-2.9,8c-1.6,0.1-3.2-10.8-3.5-11.6c-0.3-2.5-0.7-5-1.3-7.4c-1.1-3.9-1.9-7.8-2.3-11.9
		c-0.3-5.6-2.4-13.8-2.7-19.4C386.6,249.6,385.6,247.7,386.5,247.2z"/>
	<path class="st0" d="M387,254.6l11.6,8.4c0.6,2.1,1,4.3,1.2,6.5l-11.6-7L387,254.6z"/>
	<path class="st11" d="M396.3,292.7c0.3-0.2,13.5-4.9,13.9,8.9s-13.5,11.2-13.5,10.8C396.6,312,396.3,292.7,396.3,292.7z"/>
	<path class="st12" d="M400.7,307.1c0.1,0,0.2,0.2,0.7,0.3c0.6,0.2,1.2,0.2,1.8,0c1.4-0.6,2.6-2.9,2.6-5.4c0-1.2-0.3-2.3-0.8-3.4
		c-0.3-0.9-1-1.5-1.8-1.8c-0.6-0.1-1.2,0.2-1.4,0.7c-0.2,0.4-0.1,0.7-0.2,0.7c-0.1,0-0.3-0.2-0.2-0.8c0.1-0.3,0.3-0.6,0.5-0.9
		c0.4-0.3,0.8-0.4,1.3-0.4c1.2,0.2,2.1,1,2.5,2.1c0.6,1.2,0.9,2.5,0.9,3.8c0,2.8-1.4,5.4-3.3,6c-0.7,0.2-1.5,0.1-2.2-0.3
		C400.7,307.4,400.6,307.1,400.7,307.1z"/>
	<path class="st12" d="M348.7,345.6c0,0,13.2,0.3,26.6-9.2c0,0-5.6,14.7-22,15c-0.3,0-4.2-2.7-4.2-2.7L348.7,345.6z"/>
	<path class="st12" d="M343.5,293c0.2,0.2-1.9,1.8-5,1.9s-5.3-1.1-5.2-1.3c0.1-0.2,2.3,0.6,5.1,0.4S343.3,292.8,343.5,293z"/>
	<path class="st12" d="M343.7,282.5c-0.1,0.1-0.5-0.4-1.3-0.8c-1-0.6-2.2-0.9-3.3-1c-1.2-0.1-2.4,0-3.6,0.2c-1,0.1-1.5,0.1-1.6,0
		c0-0.1,0.5-0.4,1.5-0.7c1.2-0.4,2.5-0.5,3.8-0.4c1.3,0.1,2.6,0.6,3.7,1.4C343.6,281.8,343.8,282.4,343.7,282.5z"/>
	<path class="st12" d="M382.4,281.4c0.2,0.2-1,1.5-3,2.1s-3.7,0.2-3.6-0.1s1.6-0.3,3.3-0.9S382.3,281.2,382.4,281.4z"/>
	<path class="st12" d="M383.4,285.6c0.1,0.2-1.2,1.1-3.1,1s-3.1-1.2-2.9-1.4s1.4,0.4,3,0.5C382,285.7,383.3,285.3,383.4,285.6z"/>
	<path class="st12" d="M374.4,280.5c-0.2,0.2-2.3-1.7-5.6-1.8s-5.7,1.5-5.8,1.2c-0.1-0.1,0.4-0.6,1.4-1.2c2.8-1.5,6.1-1.3,8.7,0.5
		C374.1,279.8,374.5,280.4,374.4,280.5z"/>
	<path class="st12" d="M371.8,291.2c0.2,0.2-1.2,1.6-3.5,2.1s-4.2-0.1-4.1-0.4s1.8-0.1,3.9-0.6S371.7,290.9,371.8,291.2z"/>
	<path class="st12" d="M364.4,309.5c-0.2,0.2-0.9-0.5-2.1-0.7s-2,0.1-2.2-0.1s0.8-1.1,2.4-0.8S364.7,309.4,364.4,309.5z"/>
	<path class="st12" d="M366.8,308.6c-0.2,0.1-0.8-0.5-1.7-1s-1.7-0.6-1.7-0.9c0-0.3,1-0.6,2.2,0.1
		C366.8,307.4,367.1,308.5,366.8,308.6z"/>
	<path class="st12" d="M386.6,328.3c0,0,0.3,0.2,0.4,0.7c0,0.7-0.2,1.4-0.5,2.1c-0.4,0.7-0.1,1.6,0.6,2c0.1,0,0.1,0.1,0.2,0.1
		c0.6,0.3,1.1,0.7,1.6,1.2c0.5,0.7,0.6,1.5,0.3,2.3c-0.5,1.5-1.6,2.3-2,3.2c-0.4,0.8-0.3,1.8,0.2,2.5c0.9,1.4,1.8,2.1,1.6,2.2
		s-1.1-0.4-2.2-1.9c-0.7-0.9-0.9-2.2-0.4-3.3c0.5-1.2,1.5-2,1.8-3.2c0.2-0.5,0.1-1-0.1-1.4c-0.4-0.4-0.8-0.7-1.3-1
		c-0.6-0.3-1-0.8-1.2-1.5c-0.1-0.5,0-1.1,0.2-1.6c0.3-0.6,0.6-1.2,0.7-1.8C386.6,328.6,386.5,328.4,386.6,328.3z"/>
	<path class="st12" d="M395.1,341.8c-0.1,0.1-0.8-0.5-1.6-1.9c-0.5-0.8-0.7-1.8-0.5-2.8c0.2-1.2,1.3-2,1.2-2.7s-1.2-1.3-2-2
		c-0.8-0.7-1.2-1.7-1-2.7c0.1-0.6,0.4-1.2,0.9-1.7c0.4-0.3,0.6-0.3,0.6-0.3c-0.5,0.6-0.8,1.3-0.9,2c-0.1,0.8,0.3,1.5,0.9,1.9
		c0.3,0.3,0.8,0.5,1.3,0.8c0.6,0.4,1,1,1.1,1.6c0,0.7-0.2,1.3-0.6,1.9c-0.3,0.4-0.5,0.8-0.6,1.2c-0.2,0.8-0.1,1.6,0.2,2.3
		C394.7,340.9,395.2,341.8,395.1,341.8z"/>
	<path class="st12" d="M365.2,260.7c0.1,0.1-1,1-3.1,1.1c-2.1,0.1-4.9-0.5-7.7,0.2c-1.4,0.4-2.7,1.1-4,1.5c-1.1,0.5-2.4,0.7-3.6,0.6
		c-0.8-0.1-1.6-0.4-2.3-0.9c-0.4-0.4-0.6-0.7-0.5-0.8c0.8,0.6,1.8,0.9,2.9,1c1.1,0,2.2-0.2,3.2-0.7c1.3-0.6,2.6-1.2,4-1.6
		c1.5-0.3,3-0.4,4.4-0.2c1.3,0.1,2.5,0.2,3.5,0.2C363.1,261.1,364.1,261,365.2,260.7z"/>
	<path class="st12" d="M360.6,257.9c0,0.3-3.5,0.4-7.8,0.6c-4.3,0.2-7.8,0.4-7.8,0.1c0-0.3,3.4-0.8,7.8-1
		C357.1,257.4,360.6,257.6,360.6,257.9z"/>
	<path class="st12" d="M357.8,254.6c-0.1,0.3-1.4,0.1-3,0s-3-0.2-3-0.4s1.3-0.7,3.1-0.5C356.6,253.8,357.9,254.4,357.8,254.6z"/>
	<path class="st12" d="M331.6,286.8c0.1,0.2-0.9,0.8-2.2,0.4s-1.7-1.6-1.5-1.7s0.8,0.5,1.8,0.8C330.6,286.6,331.5,286.6,331.6,286.8
		z"/>
	<path class="st12" d="M330.4,288.4c0.1,0.2-0.4,0.7-0.8,1.3s-0.7,1.2-1,1.2c-0.3,0-0.4-0.9,0.2-1.7
		C329.3,288.3,330.3,288.1,330.4,288.4z"/>
	<path class="st5" d="M260,535.8l-24.5-6.3c-2.2-0.6-4.4,0.7-5,2.9c0,0,0,0,0,0l-6.9,27.1c-0.6,2.2,0.7,4.4,2.9,5c0,0,0,0,0.1,0
		l51.6,13.2c2.2,0.6,4.4-0.7,5-2.9c0,0,0,0,0,0l6.9-27.1c0.6-2.2-0.7-4.4-2.9-5c0,0,0,0,0,0L260,535.8z"/>
	<path class="st10" d="M264.2,572.2c-0.1,0,1.8-7.1,4.3-15.7s4.6-15.6,4.8-15.6s-1.8,7.1-4.3,15.7S264.3,572.2,264.2,572.2z"/>
	<path class="st11" d="M308.7,539.2c0,0-7.6,0.7-9.8,0.1s-15.7-5.2-18.4-5.6c-0.7-0.1-1.3-0.2-2-0.2c-2.1,0-4.1,0.4-6,1.3l-5.8,2.7
		l12.5,3.2c0,0,0,1.1-2.1,3.1s-26.2,11.8-27.8,12.7c-1.6,0.8-3.3,2-2.1,3.8s4.5,2.9,5.7,3s4.6-1,4.6-1s-7,3.8-7.1,5.2
		c-0.1,1.4,0.8,3.9,2.2,3.7c1.2-0.2,7.2-1.4,7.2-1.4s15.6-3.3,16.1-2.8c0.5,0.5-7.3,5.2-8.4,5.5s-6,0.2-7.1,0.8
		c-1.3,0.6-1.8,2.1-1.2,3.4c0.2,0.5,0.6,0.9,1.1,1.1c2.1,1.2,4.3,2.2,6.6,2.8c-0.9,0.8-1.2,2.2-0.7,3.3c1,1.8,1.6,1.8,3,2.2
		c1.4,0.4,4.9-0.6,6.2-1.5s24.5-9.6,26-10.6s6.3-6.3,8.3-7.9c1.8-1.3,3.6-2.4,5.5-3.5L308.7,539.2z"/>
	<path class="st12" d="M252.8,565.2c0.3-0.3,0.6-0.6,1-0.8c0.4-0.3,0.8-0.6,1.3-0.9l0.8-0.5l1-0.5c3.5-1.7,7.2-3.1,11-4.1
		c3.8-1.1,7.5-2.3,11.1-3.8l1-0.4l0.9-0.4c0.5-0.3,1-0.5,1.4-0.7c0.4-0.2,0.7-0.4,1.1-0.6c-0.3,0.3-0.7,0.5-1.1,0.8
		c-0.4,0.3-0.9,0.5-1.3,0.8l-0.9,0.5l-1,0.4c-3.6,1.6-7.3,2.9-11.1,3.9c-3.8,1.1-7.4,2.4-11,4l-1,0.5l-0.8,0.5
		c-0.5,0.2-0.9,0.5-1.3,0.8C253.5,564.7,253.2,565,252.8,565.2z"/>
	<path class="st12" d="M280.5,564.1c3.7,0,7.2-1.5,9.6-4.2c-0.2,0.5-0.6,0.9-1,1.3c-0.9,0.9-2,1.7-3.2,2.2c-1.2,0.5-2.5,0.8-3.8,0.9
		C281.5,564.3,281,564.2,280.5,564.1z"/>
	<path class="st12" d="M266.3,580.4c0.3-0.1,0.7-0.2,1-0.3c0.7-0.2,1.6-0.4,2.8-0.8c6.1-1.7,12-4.2,17.5-7.2
		c1.1-0.6,1.9-1.1,2.5-1.4c0.3-0.2,0.6-0.4,0.9-0.5c-0.3,0.2-0.5,0.5-0.8,0.6c-0.6,0.4-1.4,0.9-2.4,1.5c-5.5,3.2-11.4,5.7-17.5,7.3
		c-1.2,0.3-2.1,0.5-2.8,0.6C267,580.4,266.7,580.4,266.3,580.4z"/>
	<polygon class="st10" points="239.6,524.5 236.5,531.4 276.8,541.1 	"/>
	<path class="st10" d="M274.5,541.1c-0.1,0-0.3,0-0.4,0c-0.3,0-0.7,0-1.2-0.1c-1.1-0.1-2.6-0.3-4.5-0.6c-4.9-0.9-9.7-2-14.5-3.5
		c-5.6-1.5-10.8-2.6-14.4-3.6c-1.8-0.5-3.3-1-4.3-1.3c-0.5-0.2-1-0.4-1.5-0.6c0.5,0.1,1.1,0.3,1.6,0.4c1,0.3,2.5,0.7,4.4,1.2
		c3.7,1,8.9,2,14.5,3.5s10.7,2.9,14.4,3.6c1.9,0.4,3.4,0.6,4.4,0.8C273.4,540.9,273.9,541,274.5,541.1z"/>
</g>
<g id="freepik--cash-register--inject-4">
	<rect x="232.6" y="429.5" class="st10" width="56.2" height="26.3"/>
	<path class="st5" d="M268.9,462.6c0,0,9.5-26.7,12.5-34.9c0.6-1.6,2.2-2.7,3.9-2.7h151.3v37.6L268.9,462.6z"/>
	<rect x="226.4" y="425" class="st5" width="6.2" height="34.2"/>
	<path class="st10" d="M285.8,425v-18.1c0-1.9,1.4-3.6,3.3-3.9l109.2-17.2h26c2.7,0,4.9,2.2,4.9,4.9v0V425H285.8z"/>
	<rect x="406.8" y="361.5" class="st10" width="10.6" height="24.4"/>
	<path class="st10" d="M391.8,343h40.6c1.2,0,2.1,0.9,2.1,2.1v14.3c0,1.2-0.9,2.1-2.1,2.1h-40.6c-1.2,0-2.1-0.9-2.1-2.1v-14.3
		C389.6,344,390.6,343,391.8,343z"/>
	<path class="st5" d="M288.8,403.1c0.1,0,0.2-0.1,0.3-0.1l1-0.2l4-0.7l14.5-2.4l48-7.6l41.9-6.5l0,0l19.2,0.1l5.3,0.1h1.4
		c0.2,0,0.3,0,0.5,0h-0.5H423l-5.3,0l-19.2,0.1l0,0l-41.9,6.6l-48,7.5l-14.6,2.2l-4,0.6l-1,0.1L288.8,403.1z"/>
	<path class="st5" d="M424.9,361.5c0,0.1-5.9,0.3-13.2,0.3s-13.2-0.1-13.2-0.3s5.9-0.3,13.2-0.3S424.9,361.4,424.9,361.5z"/>
	<rect x="393.1" y="345.5" class="st5" width="38.4" height="13"/>
	<path class="st4" d="M426.3,349.3l-0.5,2.5c0.9,0.3,1.9,0.6,1.9,1.6c0,1.2-1.1,2-2.6,2l-0.2,1.1h-0.5l0.2-1.1
		c-0.8,0-1.5-0.3-2.1-0.8l0.3-0.5c0.5,0.5,1.2,0.8,1.9,0.8l0.5-2.5c-0.9-0.3-1.7-0.6-1.7-1.6c0-1.2,1-1.9,2.5-2l0.2-1.1h0.5
		l-0.2,1.1c0.6,0,1.3,0.2,1.8,0.6l-0.3,0.6C427.4,349.5,426.9,349.3,426.3,349.3z M425.4,351.7l0.5-2.4c-1,0.1-1.7,0.6-1.7,1.3
		C424.2,351.3,424.7,351.5,425.4,351.7z M425.7,352.5l-0.5,2.4c1,0,1.8-0.5,1.8-1.3C426.9,353,426.4,352.7,425.7,352.5z"/>
	<path class="st4" d="M419.8,349.3l-0.5,2.5c0.9,0.3,1.8,0.6,1.8,1.6c0,1.2-1.1,2-2.6,2l-0.2,1.1h-0.5l0.2-1.1
		c-0.8,0-1.5-0.3-2.1-0.8l0.4-0.5c0.5,0.5,1.2,0.8,1.9,0.8l0.5-2.5c-0.9-0.3-1.8-0.6-1.8-1.6c0-1.2,1-1.9,2.5-2l0.2-1.1h0.5
		l-0.2,1.1c0.6,0,1.3,0.2,1.8,0.6l-0.3,0.6C421,349.5,420.4,349.3,419.8,349.3z M418.9,351.7l0.5-2.4c-1,0.1-1.7,0.6-1.7,1.3
		C417.7,351.3,418.2,351.5,418.9,351.7L418.9,351.7z M419.2,352.5l-0.5,2.4c1,0,1.8-0.5,1.8-1.3C420.5,353,419.9,352.7,419.2,352.5
		L419.2,352.5z"/>
	<path class="st4" d="M413.4,349.3l-0.5,2.5c0.9,0.3,1.9,0.6,1.9,1.6c0,1.2-1.1,2-2.6,2l-0.2,1.1h-0.5l0.2-1.1
		c-0.8,0-1.5-0.3-2.1-0.8l0.3-0.5c0.5,0.5,1.2,0.8,1.9,0.8l0.5-2.5c-0.9-0.3-1.7-0.6-1.7-1.6c0-1.2,1-1.9,2.5-2l0.2-1.1h0.5
		l-0.2,1.1c0.6,0,1.3,0.2,1.8,0.6l-0.3,0.6C414.5,349.5,414,349.3,413.4,349.3z M412.4,351.7l0.5-2.4c-1,0.1-1.7,0.6-1.7,1.3
		C411.2,351.3,411.8,351.5,412.4,351.7z M412.8,352.5l-0.5,2.4c1,0,1.8-0.5,1.8-1.3C414,353,413.4,352.7,412.8,352.5z"/>
	<path class="st5" d="M397.9,426.4c-0.1,0-0.3-8.9-0.3-20s0.1-20,0.3-20s0.3,8.9,0.3,20S398,426.4,397.9,426.4z"/>
	<path class="st5" d="M281.3,429.5c0,0.1-10.9,0.3-24.4,0.3s-24.4-0.1-24.4-0.3s10.9-0.3,24.4-0.3
		C270.4,429.2,281.3,429.4,281.3,429.5z"/>
</g>
<g id="freepik--Counter--inject-4">
	<path class="st5" d="M715.4,462.6c0,0.1-148.3,0.3-331.3,0.3s-331.3-0.1-331.3-0.3s148.3-0.3,331.3-0.3S715.4,462.5,715.4,462.6z"
		/>
</g>
<g id="freepik--speech-bubble--inject-4">
	<path class="st3" d="M240.5,197l10.5-18.5c-14.4-23.3-7.1-53.9,16.2-68.2s53.9-7.1,68.2,16.2c14.4,23.3,7.1,53.9-16.2,68.2
		c-17.6,10.8-40,9.6-56.3-3l0,0L240.5,197z"/>
	<path class="st5" d="M240.5,197l22.4-5.4l-0.1,0.2l0,0l-0.6-0.8l0.8,0.6c3.1,2.4,6.6,4.4,10.2,6c4.3,1.9,8.8,3.2,13.5,3.8
		c2.6,0.4,5.2,0.5,7.8,0.4c1.3-0.1,2.7-0.1,4.1-0.2l4.1-0.6c12.3-2.5,23.3-9.5,30.6-19.7c4.1-5.7,6.9-12.1,8.3-18.9
		c1.4-7.2,1.2-14.7-0.6-21.8c-1.9-7.5-5.5-14.4-10.5-20.1l-2-2.2c-0.6-0.7-1.4-1.3-2.1-2s-1.4-1.4-2.2-1.9l-2.4-1.8
		c-0.8-0.6-1.6-1.1-2.4-1.6l-2.5-1.5l-2.6-1.3c-0.9-0.4-1.7-0.8-2.6-1.2c-7-2.8-14.5-3.9-22-3.4c-7.1,0.5-14,2.5-20.2,5.9
		c-11.1,6.2-19.5,16.4-23.3,28.6c-1.5,5.2-2.3,10.6-2.2,16c0.1,4.7,0.9,9.3,2.4,13.8c1.2,3.7,2.9,7.3,4.9,10.6v0.1v0.1
		C244.3,190.4,241,196.2,240.5,197l10.4-18.6v0.1c-2.1-3.3-3.8-6.9-5-10.7c-1.5-4.5-2.3-9.2-2.4-13.9c-0.1-5.4,0.6-10.9,2.2-16.1
		c3.9-12.3,12.3-22.6,23.5-28.9c6.3-3.5,13.2-5.5,20.4-6c7.6-0.5,15.1,0.6,22.2,3.4c0.9,0.3,1.8,0.7,2.6,1.2l2.6,1.3l2.5,1.5
		c0.9,0.5,1.7,1,2.4,1.6l2.4,1.8c0.8,0.6,1.5,1.3,2.2,2c0.7,0.7,1.5,1.3,2.2,2l2,2.2c5.1,5.8,8.7,12.8,10.6,20.4
		c1.8,7.2,2,14.7,0.6,22c-1.4,6.9-4.2,13.4-8.4,19.1c-7.4,10.3-18.5,17.4-30.9,19.9l-4.2,0.6c-1.4,0.1-2.8,0.1-4.1,0.2
		c-2.6,0.1-5.2,0-7.8-0.4c-4.7-0.6-9.3-1.9-13.6-3.8c-3.6-1.6-7-3.7-10.2-6.1l0.2-0.2l0,0l0.1,0.2h-0.2L240.5,197z"/>
	<polygon class="st8" points="276.7,153.3 281.7,148.3 291.4,156.9 310.3,138.6 315,143.6 290.6,166.5 	"/>
</g>
</svg>
