<?xml version="1.0" encoding="utf-8"?>
<!-- Generator: Adobe Illustrator 25.0.0, SVG Export Plug-In . SVG Version: 6.00 Build 0)  -->
<svg version="1.1" id="Layer_1" xmlns="http://www.w3.org/2000/svg" xmlns:xlink="http://www.w3.org/1999/xlink" x="0px" y="0px"
	 viewBox="0 0 500 500" style="enable-background:new 0 0 500 500;" xml:space="preserve">
<style type="text/css">
	.st0{fill:#FAFAFA;}
	.st1{fill:#E0E0E0;}
	.st2{fill:#EBEBEB;}
	.st3{fill:#F5F5F5;}
	.st4{fill:#FFFFFF;}
	.st5{fill:#263238;}
	.st6{fill:#17A2B7;}
	.st7{opacity:0.5;fill:#17A2B7;enable-background:new    ;}
	.st8{fill:#455A64;}
	.st9{opacity:0.3;}
	.st10{fill:#FFBE9D;}
	.st11{fill:#EB996E;}
</style>
<g id="freepik--background-complete--inject-263">
	<rect x="89.3" y="34.5" class="st0" width="377.6" height="295.4"/>
	<path class="st1" d="M89,34.5v-0.2h0.2h377.6h0.3v0.3c0,106.5,0,207.2,0,295.4v0.2h-0.2L89.3,330l377.6-0.2l-0.2,0.2
		c0-88.1,0-188.9,0-295.4l0.3,0.3l0,0H89.4l0.2-0.2c-0.1,178.2-0.2,293.6-0.2,295.4C89.3,328.1,89.3,212.8,89,34.5z"/>
	<path class="st2" d="M411.8,106.8c-1.5,0-2.8-1.3-2.8-2.8V81.7l11-11.3h14.1c1.5,0,2.8,1.3,2.8,2.8V104l0,0c0,1.5-1.2,2.8-2.8,2.8
		H411.8L411.8,106.8z"/>
	<path class="st3" d="M409.1,81.7h8.3c1.4,0,2.6-1.2,2.6-2.6v-8.7L409.1,81.7z"/>
	<path class="st1" d="M417.4,81.7h-8.3V84c0,0.2,7.2-1.1,8.3-1.3c0.1,0,0.2,0,0.3-0.1c1.3-0.3,2.3-1.4,2.3-2.8
		C419.5,81.6,417.4,81.7,417.4,81.7z"/>
	<path class="st1" d="M411.7,106.7h-0.4c-0.5-0.1-0.9-0.3-1.3-0.6c-0.6-0.5-1-1.2-1-2c0-0.9,0-1.9,0-3.1c0-4.7,0-11.3,0-19.4l0,0
		l0,0l11-11.3l0,0h13.5c0.4,0,0.7,0,1.1,0c0.8,0.1,1.4,0.5,1.9,1.2c0.3,0.4,0.5,0.9,0.5,1.5c0,0.5,0,1,0,1.5v8.9c0,3.8,0,7.6,0,11.1
		v8.7c0,0.4,0,0.8,0,1.2c-0.2,0.8-0.6,1.5-1.3,1.9c-0.3,0.2-0.7,0.3-1.1,0.4c-0.4,0-0.7,0-1.1,0h-4.2h-12.7h-3.4l0,0h3.4h12.7h4.2
		c0.4,0,0.7,0,1.1,0c1.1-0.2,2.1-1,2.3-2.2c0-0.4,0-0.8,0-1.2v-3.7c0-1.7,0-3.4,0-5.2v-11c0-1.9,0-3.9,0-5.9v-3c0-0.5,0-1,0-1.5
		c-0.1-0.5-0.2-1-0.5-1.3c-0.4-0.6-1-1-1.7-1.2c-0.4,0-0.7,0-1.1,0H420h0.1l-11,11.2l0,0c0,8.1,0,14.7,0,19.4c0,1.2,0,2.2,0,3.1
		c0,0.8,0.4,1.5,1,2c0.4,0.3,0.8,0.5,1.3,0.6c0.3,0.1,0.5,0.1,0.5,0.1L411.7,106.7z"/>
	<path class="st1" d="M409.5,81.5h0.6h2.3h3.3h2c0.7,0,1.3-0.3,1.8-0.8s0.7-1.2,0.6-1.9c0-0.7,0-1.4,0-2c0-1.2,0-2.4,0-3.3
		s0-1.7,0-2.3c0-0.2,0-0.4,0-0.6c0-0.1,0-0.1,0-0.2c0,0,0,0.1,0,0.2s0,0.4,0,0.6c0,0.6,0,1.3,0,2.3s0,2.1,0,3.3v2
		c0,0.4,0,0.7-0.1,1.1s-0.3,0.7-0.5,1c-0.5,0.6-1.2,0.9-1.9,0.9h-2h-3.4h-2.3h-0.6h-0.2C409.1,81.7,409.1,81.7,409.5,81.5z"/>
	<path class="st1" d="M426.3,78.1c3.2,0,5.9,0,5.9,0.1s-2.6,0.1-5.9,0.1c-3.2,0-5.9,0-5.9-0.1S423,78.1,426.3,78.1z"/>
	<path class="st1" d="M423.5,82.4c4.8,0,8.7,0,8.7,0.1s-3.9,0.1-8.7,0.1s-8.6-0.1-8.6-0.1C414.9,82.4,418.7,82.4,423.5,82.4z"/>
	<path class="st1" d="M423.5,86.7c4.8,0,8.7,0,8.7,0.1s-3.9,0.1-8.7,0.1s-8.6,0-8.6-0.1C414.9,86.8,418.7,86.7,423.5,86.7z"/>
	<path class="st1" d="M423.5,91.1c4.8,0,8.7,0,8.7,0.1s-3.9,0.1-8.7,0.1s-8.6-0.1-8.6-0.1C414.9,91.1,418.7,91.1,423.5,91.1z"/>
	<path class="st1" d="M423.5,95.4c4.8,0,8.7,0,8.7,0.1s-3.9,0.1-8.7,0.1s-8.6-0.1-8.6-0.1C414.9,95.4,418.7,95.4,423.5,95.4z"/>
	<path class="st1" d="M423.5,100.7c4.8,0,8.7,0,8.7,0.1s-3.9,0.1-8.7,0.1s-8.6,0-8.6-0.1C414.9,100.8,418.7,100.7,423.5,100.7z"/>
	<path class="st1" d="M423,115.8c7.6,0,13.8,0.1,13.8,0.3s-6.2,0.3-13.8,0.3c-7.6,0-13.8-0.1-13.8-0.3S415.4,115.8,423,115.8z"/>
	<path class="st1" d="M423,119.4c3-0.1,5.9,0,8.9,0.3c-3,0.3-5.9,0.4-8.9,0.3c-3,0.1-5.9,0-8.9-0.3C417.1,119.4,420,119.3,423,119.4
		z"/>
	<path class="st2" d="M409.1,182.8v-22.3l10.9-11.3h14.1c1.5,0,2.8,1.3,2.8,2.8v30.8c0,1.5-1.2,2.8-2.8,2.8h-22.3
		C410.3,185.6,409.1,184.3,409.1,182.8z"/>
	<path class="st3" d="M409.1,160.5h8.3c1.4,0,2.6-1.2,2.6-2.6v-8.7L409.1,160.5z"/>
	<path class="st1" d="M417.4,160.5h-8.3v2.3c0,0.2,7.2-1.1,8.3-1.3l0.3-0.1c1.3-0.3,2.3-1.4,2.3-2.8
		C419.5,160.4,417.4,160.5,417.4,160.5z"/>
	<path class="st1" d="M411.7,185.5h-0.4c-0.5-0.1-0.9-0.3-1.3-0.6c-0.6-0.5-1-1.2-1-2c0-0.9,0-1.9,0-3.1c0-4.7,0-11.3,0-19.4l0,0
		l0,0l10.9-11.3l0,0h13.4c0.4,0,0.7,0,1.1,0c0.8,0.1,1.4,0.5,1.9,1.2c0.3,0.4,0.5,0.9,0.5,1.5c0,0.5,0,1,0,1.5v8.9
		c0,3.9,0,7.6,0,11.1v8.7c0,0.4,0,0.8,0,1.2c-0.2,0.8-0.6,1.5-1.3,1.9c-0.3,0.2-0.7,0.3-1.1,0.4c-0.4,0-0.7,0-1.1,0h-4.2h-12.7H413
		l0,0h3.4h12.7h4.2c0.4,0,0.7,0,1.1,0c1.1-0.2,2.1-1,2.3-2.1c0-0.4,0-0.8,0-1.2v-3.7c0-1.7,0-3.4,0-5.2v-11.1c0-1.9,0-3.9,0-5.9v-3
		c0-0.5,0-1,0-1.5s-0.2-1-0.5-1.4c-0.4-0.6-1-1-1.7-1.2c-0.4,0-0.7,0-1.1,0H420h0.1l-11,11.2v-0.1c0,8.1,0,14.7,0,19.4
		c0,1.2,0,2.2,0,3.1c0,0.8,0.4,1.5,1,2c0.4,0.3,0.8,0.5,1.3,0.6c0.3,0.1,0.5,0.1,0.5,0.1L411.7,185.5z"/>
	<path class="st1" d="M409.5,160.2h0.6h2.3h3.3h2c0.7,0,1.3-0.3,1.8-0.9c0.5-0.5,0.7-1.2,0.6-1.9c0-0.7,0-1.4,0-2c0-1.2,0-2.4,0-3.4
		s0-1.7,0-2.3c0-0.2,0-0.4,0-0.6c0-0.1,0-0.1,0-0.2c0,0,0,0.1,0,0.2s0,0.4,0,0.6c0,0.6,0,1.3,0,2.3s0,2.1,0,3.4v2
		c0,0.4,0,0.7-0.1,1.1c-0.1,0.4-0.3,0.7-0.5,1c-0.5,0.6-1.2,0.9-1.9,0.9h-2h-3.4h-2.3h-0.6h-0.2
		C409.1,160.5,409.1,160.4,409.5,160.2z"/>
	<path class="st1" d="M426.3,156.8c3.2,0,5.9,0,5.9,0.1s-2.6,0.1-5.9,0.1c-3.2,0-5.9,0-5.9-0.1C420.4,156.9,423,156.8,426.3,156.8z"
		/>
	<path class="st1" d="M423.5,161.2c4.8,0,8.7,0.1,8.7,0.1s-3.9,0.1-8.7,0.1s-8.6-0.1-8.6-0.1C414.9,161.2,418.7,161.2,423.5,161.2z"
		/>
	<path class="st1" d="M423.5,165.5c4.8,0,8.7,0,8.7,0.1s-3.9,0.1-8.7,0.1s-8.6,0-8.6-0.1S418.7,165.5,423.5,165.5z"/>
	<path class="st1" d="M423.5,169.8c4.8,0,8.7,0.1,8.7,0.1s-3.9,0.1-8.7,0.1s-8.6-0.1-8.6-0.1S418.7,169.8,423.5,169.8z"/>
	<path class="st1" d="M423.5,174.1c4.8,0,8.7,0,8.7,0.1s-3.9,0.1-8.7,0.1s-8.6,0-8.6-0.1C414.9,174.2,418.7,174.1,423.5,174.1z"/>
	<path class="st1" d="M423.5,179.5c4.8,0,8.7,0,8.7,0.1s-3.9,0.1-8.7,0.1s-8.6,0-8.6-0.1S418.7,179.5,423.5,179.5z"/>
	<path class="st1" d="M423,194.6c7.6,0,13.8,0.1,13.8,0.3s-6.2,0.3-13.8,0.3c-7.6,0-13.8-0.1-13.8-0.3
		C409.2,194.7,415.4,194.6,423,194.6z"/>
	<path class="st1" d="M423,198.2c3-0.1,5.9,0,8.9,0.3c-3,0.3-5.9,0.4-8.9,0.3c-3,0.1-5.9,0-8.9-0.3C417.1,198.2,420,198.1,423,198.2
		z"/>
	<path class="st2" d="M410.6,279.4v-22.3l10.9-11.3h14.1c1.5,0,2.8,1.3,2.8,2.8v30.8c0,1.5-1.2,2.8-2.8,2.8h-22.3
		C411.8,282.2,410.6,281,410.6,279.4z"/>
	<path class="st3" d="M410.6,257.1h8.3c1.4,0,2.6-1.2,2.6-2.6v-8.7L410.6,257.1z"/>
	<path class="st1" d="M418.9,257.1h-8.3v2.3c0,0.2,7.2-1.1,8.2-1.3c0.1,0,0.2,0,0.3-0.1c1.3-0.3,2.3-1.4,2.3-2.8
		C421,257,418.9,257.1,418.9,257.1z"/>
	<path class="st1" d="M413.2,282.1c-0.1,0-0.2,0-0.4,0c-0.5-0.1-0.9-0.3-1.3-0.6c-0.6-0.5-1-1.2-1-2c0-0.9,0-1.9,0-3.1
		c0-4.7,0-11.3,0-19.4l0,0l0,0l11-11.3l0,0H435c0.4,0,0.7,0,1.1,0.1c1.3,0.2,2.3,1.3,2.4,2.6c0,0.5,0,1,0,1.5v8.9
		c0,3.8,0,7.6,0,11.1v7.6c0,0.4,0,0.8,0,1.2c0,0.4,0,0.8,0,1.2c-0.3,1.1-1.3,2-2.4,2.1c-0.4,0-0.7,0-1.1,0h-4.2H418h-3.5h3.4h12.7
		h4.2c0.4,0,0.7,0,1.1,0c1.1-0.2,2.1-1,2.3-2.1c0.1-0.4,0.1-0.9,0.1-1.3V275c0-1.7,0-3.4,0-5.2v-11.1c0-1.9,0-3.9,0-5.9v-3
		c0-0.5,0-1,0-1.5s-0.2-1-0.5-1.4c-0.4-0.6-1-1-1.7-1.1c-0.4,0-0.7,0-1.1,0h-13.5h0.1l-11,11.2l0,0c0,8.1,0,14.7,0,19.4
		c0,1.2,0,2.2,0,3.1c0,0.8,0.4,1.5,1,2c0.4,0.3,0.8,0.5,1.3,0.6c0.3,0.1,0.5,0.1,0.5,0.1L413.2,282.1z"/>
	<path class="st1" d="M411,256.9h0.6h2.3h3.3h2c0.7,0,1.3-0.3,1.8-0.8s0.7-1.2,0.6-1.9c0-0.7,0-1.4,0-2c0-1.3,0-2.4,0-3.4
		s0-1.7,0-2.3v-0.6c0-0.1,0-0.1,0-0.2c0,0,0,0.1,0,0.2s0,0.4,0,0.6c0,0.6,0,1.3,0,2.3s0,2.1,0,3.4v2c0,0.4,0,0.7-0.1,1.1
		c-0.1,0.4-0.3,0.7-0.6,1c-0.5,0.6-1.2,0.9-1.9,0.9h-2h-3.4h-2.3h-0.6h-0.2C410.6,257.1,410.7,257.1,411,256.9z"/>
	<path class="st1" d="M427.8,253.5c3.2,0,5.9,0,5.9,0.1s-2.6,0.1-5.9,0.1c-3.2,0-5.9-0.1-5.9-0.1S424.6,253.5,427.8,253.5z"/>
	<path class="st1" d="M425,257.8c4.8,0,8.7,0,8.7,0.1s-3.9,0.1-8.7,0.1s-8.6,0-8.6-0.1S420.2,257.8,425,257.8z"/>
	<path class="st1" d="M425,262.1c4.8,0,8.7,0,8.7,0.1s-3.9,0.1-8.7,0.1s-8.6,0-8.6-0.1C416.4,262.2,420.2,262.1,425,262.1z"/>
	<path class="st1" d="M425,266.4c4.8,0,8.7,0,8.7,0.1s-3.9,0.1-8.7,0.1s-8.6-0.1-8.6-0.1S420.2,266.4,425,266.4z"/>
	<path class="st1" d="M425,270.8c4.8,0,8.7,0,8.7,0.1s-3.9,0.1-8.7,0.1s-8.6,0-8.6-0.1S420.2,270.8,425,270.8z"/>
	<path class="st1" d="M425,276.1c4.8,0,8.7,0,8.7,0.1s-3.9,0.1-8.7,0.1s-8.6-0.1-8.6-0.1S420.2,276.1,425,276.1z"/>
	<path class="st1" d="M424.5,291.2c7.6,0,13.8,0.1,13.8,0.3s-6.2,0.3-13.8,0.3c-7.6,0-13.8-0.1-13.8-0.3S416.9,291.2,424.5,291.2z"
		/>
	<path class="st1" d="M424.5,294.8c3-0.1,5.9,0,8.9,0.3c-3,0.3-5.9,0.3-8.9,0.3c-3,0.1-5.9,0-8.9-0.3
		C418.6,294.8,421.6,294.7,424.5,294.8z"/>
	<path class="st2" d="M264.2,277.2v-22.3l10.9-11.3h14.1l0,0c1.5,0,2.8,1.3,2.8,2.8v30.8l0,0c0,1.5-1.3,2.8-2.8,2.8H267
		C265.4,280,264.2,278.8,264.2,277.2z"/>
	<path class="st3" d="M264.2,254.9h8.3c1.4,0,2.6-1.2,2.6-2.6v-8.7L264.2,254.9z"/>
	<path class="st1" d="M272.5,254.9h-8.3v2.3c0,0.2,7.2-1.1,8.3-1.3l0.3-0.1c1.3-0.3,2.3-1.4,2.3-2.8
		C274.6,254.8,272.5,254.9,272.5,254.9z"/>
	<path class="st1" d="M266.8,279.7c-0.1,0-0.2,0-0.4,0c-0.5-0.1-0.9-0.3-1.3-0.6c-0.6-0.5-1-1.2-1-2c0-0.9,0-1.9,0-3.1
		c0-4.7,0-11.3,0-19.4l0,0l0,0l10.9-11.3l0,0h13.5c0.4,0,0.7,0,1.1,0c0.8,0.1,1.4,0.5,1.9,1.2c0.3,0.4,0.5,0.9,0.5,1.5
		c0,0.5,0,1,0,1.5v8.9c0,3.8,0,7.6,0,11.1v8.9c0,0.4,0,0.8-0.1,1.2c-0.2,0.8-0.6,1.5-1.3,1.9c-0.3,0.2-0.7,0.3-1.1,0.4
		c-0.4,0-0.7,0-1.1,0h-4.2h-12.7h-3.4h3.4h12.7h4.2c0.4,0,0.7,0,1.1,0c1.1-0.2,2.1-1,2.3-2.1c0.1-0.4,0.1-0.8,0.1-1.2v-3.7
		c0-1.7,0-3.4,0-5.2v-20c0-0.5,0-1,0-1.5s-0.2-1-0.5-1.4c-0.4-0.6-1-1-1.7-1.1c-0.4,0-0.7,0-1.1,0h-13.5h0.1l-11,11.2v-0.1
		c0,8.1,0,14.7,0,19.4c0,1.2,0,2.2,0,3.1c0,0.8,0.4,1.5,1,2c0.4,0.3,0.8,0.5,1.3,0.6c0.2,0,0.3,0,0.5,0L266.8,279.7z"/>
	<path class="st1" d="M264.6,254.8h0.6h2.3h3.4h2c0.7,0,1.3-0.3,1.8-0.8s0.7-1.2,0.6-1.9c0-0.7,0-1.4,0-2c0-1.3,0-2.4,0-3.4
		s0-1.7,0-2.3v-0.6c0-0.1,0-0.1,0-0.2c0,0.1,0,0.1,0,0.2c0,0.2,0,0.4,0,0.6c0,0.6,0,1.3,0,2.3s0,2.1,0,3.4c0,0.6,0,1.3,0,2
		c0,0.4,0,0.7-0.1,1.1c-0.3,1.1-1.3,1.9-2.5,1.9h-2h-3.4l-2.2-0.1h-0.6c-0.1,0-0.2,0-0.2,0L264.6,254.8z"/>
	<path class="st1" d="M281.4,251.3c3.2,0,5.9,0.1,5.9,0.1s-2.6,0.1-5.9,0.1s-5.9-0.1-5.9-0.1C275.5,251.3,278.1,251.3,281.4,251.3z"
		/>
	<path class="st1" d="M278.6,255.6c4.8,0,8.7,0,8.7,0.1s-3.9,0.1-8.7,0.1s-8.7,0-8.7-0.1C270,255.6,273.8,255.6,278.6,255.6z"/>
	<path class="st1" d="M278.6,259.9c4.8,0,8.7,0,8.7,0.1s-3.9,0.1-8.7,0.1s-8.7,0-8.7-0.1C270,260,273.8,259.9,278.6,259.9z"/>
	<path class="st1" d="M278.6,264.2c4.8,0,8.7,0,8.7,0.1s-3.9,0.1-8.7,0.1s-8.7-0.1-8.7-0.1C270,264.3,273.8,264.2,278.6,264.2z"/>
	<path class="st1" d="M278.6,268.6c4.8,0,8.7,0,8.7,0.1s-3.9,0.1-8.7,0.1s-8.7,0-8.7-0.1C270,268.6,273.8,268.6,278.6,268.6z"/>
	<path class="st1" d="M278.6,273.9c4.8,0,8.7,0,8.7,0.1s-3.9,0.1-8.7,0.1S270,274,270,274S273.8,273.9,278.6,273.9z"/>
	<path class="st1" d="M278.1,289c7.6,0,13.8,0.1,13.8,0.3s-6.2,0.3-13.8,0.3c-7.6,0-13.8-0.1-13.8-0.3
		C264.3,289.1,270.5,289,278.1,289z"/>
	<path class="st1" d="M278.1,292.6c3-0.1,5.9,0,8.9,0.3c-2.9,0.3-5.9,0.3-8.9,0.3c-3,0.1-5.9,0-8.9-0.3
		C272.2,292.6,275.2,292.5,278.1,292.6z"/>
	<path class="st2" d="M354.2,55.5h-8c-0.3,0-0.6,0.1-0.8,0.4l-3.3,3.8c-0.2,0.2-0.5,0.4-0.8,0.4l-18.8-0.2c-0.7,0.1-1.2,0.7-1.2,1.3
		v15.5c0,0.7,0.5,1.3,1.1,1.3h30.7c0.7-0.1,1.2-0.6,1.2-1.2l1-19.9C355.3,56.2,354.8,55.5,354.2,55.5z"/>
	<rect x="321.2" y="57.5" class="st3" width="33.6" height="23.4"/>
	<path class="st2" d="M357.5,59.5c0-0.5-0.3-0.9-0.7-0.9h-36.9l0,0c-0.5,0.1-0.8,0.5-0.7,0.9l1.6,24.4c0,0.4,0.3,0.8,0.7,0.8h32.7
		c0.4,0,0.7-0.4,0.7-0.8L357.5,59.5L357.5,59.5z"/>
	<path class="st1" d="M338.3,96.9c7.6,0,13.8,0.1,13.8,0.3s-6.2,0.3-13.8,0.3s-13.8-0.1-13.8-0.3S330.6,96.9,338.3,96.9z"/>
	<path class="st1" d="M338.2,100.5c3-0.1,5.9,0,8.9,0.3c-3,0.3-5.9,0.4-8.9,0.3c-3,0.1-5.9,0-8.9-0.3
		C332.3,100.5,335.3,100.4,338.2,100.5z"/>
	<path class="st2" d="M354.3,150.4c0-0.7-0.5-1.3-1.2-1.4h-8c-0.3,0-0.6,0.1-0.8,0.4l-3.3,3.8c-0.2,0.2-0.5,0.4-0.8,0.4l-18.9-0.1
		l0,0c-0.7,0.1-1.2,0.7-1.2,1.3v15.5c-0.1,0.7,0.5,1.3,1.1,1.3H352c0.7,0,1.2-0.6,1.2-1.3L354.3,150.4
		C354.3,150.5,354.3,150.4,354.3,150.4z"/>
	<rect x="320.1" y="151.1" class="st3" width="33.6" height="23.4"/>
	<path class="st2" d="M356.4,153.1c0-0.5-0.3-0.9-0.7-0.9h-36.9l0,0c-0.5,0.1-0.8,0.5-0.7,0.9l1.6,24.4c0,0.4,0.3,0.8,0.7,0.8h32.7
		c0.4,0,0.7-0.4,0.7-0.8L356.4,153.1C356.4,153.2,356.4,153.2,356.4,153.1z"/>
	<path class="st1" d="M337.2,190.5c7.6,0,13.8,0.1,13.8,0.3s-6.2,0.3-13.8,0.3s-13.8-0.1-13.8-0.3
		C323.4,190.6,329.6,190.5,337.2,190.5z"/>
	<path class="st1" d="M337.1,194.1c3-0.1,5.9,0,8.9,0.3c-3,0.3-5.9,0.3-8.9,0.3c-3,0.1-5.9,0-8.9-0.3
		C331.2,194.1,334.2,194,337.1,194.1z"/>
	<path class="st2" d="M370.5,265.9c0.1-0.7-0.4-1.3-1.1-1.4h-8c-0.3,0-0.6,0.1-0.8,0.4l-3.3,3.8c-0.2,0.2-0.5,0.4-0.8,0.4l-18.9-0.1
		l0,0c-0.7,0.1-1.2,0.7-1.2,1.3v15.5c0,0.7,0.5,1.3,1.2,1.3h30.7c0.7,0,1.2-0.6,1.1-1.3L370.5,265.9L370.5,265.9z"/>
	<rect x="336.4" y="266.6" class="st3" width="33.6" height="23.4"/>
	<path class="st2" d="M372.6,268.6c0-0.5-0.3-0.9-0.7-0.9H335l0,0c-0.5,0.1-0.8,0.5-0.7,0.9l1.6,24.4c0,0.4,0.3,0.8,0.7,0.8h32.7
		c0.4,0,0.7-0.4,0.7-0.8L372.6,268.6L372.6,268.6z"/>
	<path class="st1" d="M353.4,306c7.6,0,13.8,0.1,13.8,0.3s-6.2,0.3-13.8,0.3s-13.8-0.1-13.8-0.3S345.8,306,353.4,306z"/>
	<path class="st1" d="M353.4,309.6c3-0.1,5.9,0,8.9,0.3c-3,0.3-5.9,0.3-8.9,0.3c-3,0.1-5.9,0-8.9-0.3
		C347.5,309.6,350.5,309.5,353.4,309.6z"/>
	<rect x="35.8" y="51.3" class="st4" width="222.2" height="195.4"/>
	<path class="st1" d="M35.6,51.3V51h0.2H258h0.3v0.3c0,71,0,137.9,0,195.4v0.2H258l-222.2-0.2l222.2-0.2l-0.2,0.2
		c0-57.5,0-124.4,0-195.4l0.3,0.3l0,0H35.8l0.2-0.2C35.9,169,35.8,245,35.8,246.8C35.8,244.9,35.7,168.9,35.6,51.3z"/>
	<path class="st1" d="M145.3,71.2c60.9,0,110.2,0.1,110.2,0.2s-49.4,0.2-110.2,0.2S35.2,71.5,35.2,71.4S84.5,71.2,145.3,71.2z"/>
	<path class="st2" d="M245.2,60L245.2,60c1.3,0,2.3,1.1,2.3,2.3c0,1.3-1.1,2.3-2.3,2.2c-1.3,0-2.3-1.1-2.2-2.3
		C242.9,61,243.9,60,245.2,60z"/>
	<path class="st2" d="M237.7,60L237.7,60c1.3,0,2.3,1.1,2.3,2.3c0,1.3-1.1,2.3-2.3,2.2c-1.3,0-2.3-1.1-2.2-2.3
		C235.4,61,236.4,60,237.7,60z"/>
	<path class="st2" d="M230.2,60L230.2,60c1.3,0,2.3,1.1,2.3,2.3c0,1.3-1.1,2.3-2.3,2.2c-1.3,0-2.3-1.1-2.2-2.3
		C227.9,61,229,60,230.2,60z"/>
	<path class="st1" d="M45.7,88.5c-0.4-0.1-0.7-0.4-0.8-0.7c-0.1-0.3-0.1-0.5-0.1-0.8s0-0.6,0-1c0-0.7,0-1.5,0-2.5s0-2,0-3.1
		c0-0.3,0-0.6,0-0.9c0.1-0.7,0.6-1.2,1.3-1.2h1h9.1h52.5c0.8,0,1.4,0.6,1.5,1.3v7.2c0,0.3,0,0.7-0.2,1s-0.5,0.5-0.8,0.7
		c-0.2,0.1-0.3,0.1-0.5,0.1h-3.2h-14H67.9L52,88.4h-4.3h-1.1c-0.1,0-0.3,0-0.4,0h0.4h1.1H52l15.9-0.1h23.6h17.1c0.1,0,0.3,0,0.4-0.1
		c0.3-0.1,0.5-0.3,0.6-0.5c0.1-0.3,0.2-0.5,0.1-0.8v-7.5c-0.1-0.6-0.5-1-1.1-1H56.1H47h-1c-0.6,0-1.1,0.5-1.1,1.1c0,0.3,0,0.6,0,0.9
		c0,1.1,0,2.2,0,3.1s0,1.8,0,2.5c0,0.4,0,0.7,0,1s0,0.5,0.1,0.8S45.4,88.4,45.7,88.5c0.2,0,0.3,0.1,0.5,0.1
		C46,88.6,45.8,88.6,45.7,88.5z"/>
	<path class="st1" d="M104.7,85.2c-0.9,0-1.3-0.4-1.3-0.9c0-1.2,2-0.7,2-1.5c0-0.3-0.2-0.5-0.8-0.5c-0.3,0-0.6,0.1-0.9,0.3l-0.1-0.4
		c0.3-0.2,0.7-0.3,1-0.3c0.9,0,1.2,0.4,1.2,0.9c0,1.2-2,0.7-2,1.5c0,0.3,0.2,0.5,0.8,0.5c0.4,0,0.8-0.1,1.1-0.4l0.2,0.4
		C105.6,85.1,105.2,85.2,104.7,85.2z"/>
	<path class="st1" d="M100.6,84L100.6,84c0-0.8,0.6-1.3,1.2-1.3c0,0,0,0,0.1,0c0.7,0,1.2,0.6,1.2,1.3c0,0,0,0,0,0.1
		c0,0.7-0.6,1.2-1.3,1.2c-0.4,0-0.7-0.1-1-0.4l0.2-0.3c0.2,0.2,0.4,0.3,0.7,0.3c0.4,0,0.8-0.3,0.9-0.7L100.6,84
		C100.6,84.1,100.6,84,100.6,84z M102.6,83.8c0-0.4-0.4-0.7-0.8-0.7s-0.8,0.3-0.8,0.7H102.6L102.6,83.8z"/>
	<path class="st1" d="M99.1,82.7c0.4,0,0.7,0.1,1,0.3l-0.2,0.3c-0.2-0.2-0.5-0.3-0.8-0.3c-0.5,0-0.7,0.2-0.7,0.6v0.1h0.7
		c0.7,0,1,0.3,1,0.7s-0.4,0.7-0.9,0.7c-0.3,0-0.6-0.1-0.8-0.3v0.3H98v-1.5C98,83,98.4,82.7,99.1,82.7z M99.2,84.9
		c0.3,0,0.5-0.2,0.5-0.4s-0.1-0.4-0.6-0.4h-0.7v0.3C98.6,84.7,98.9,84.9,99.2,84.9z"/>
	<path class="st1" d="M96.8,83.1v-0.4h0.4v2.5h-0.5V84v-0.1c0-0.4-0.4-0.7-0.8-0.7h-0.1v-0.4C96.3,82.6,96.6,82.8,96.8,83.1z"/>
	<path class="st1" d="M95.6,84.1c-0.1,0.7-0.7,1.2-1.3,1.1c-0.4,0-0.8-0.2-1-0.5l0.3-0.2c0.1,0.2,0.4,0.4,0.7,0.4
		c0.4,0,0.7-0.4,0.8-0.8c0.1-0.5-0.3-0.9-0.8-1c-0.3,0-0.5,0.1-0.7,0.4l-0.3-0.2c0.2-0.3,0.6-0.6,1-0.5c0.1,0,0.1,0,0.2,0
		C95.1,82.7,95.6,83.3,95.6,84.1C95.6,84,95.6,84,95.6,84.1z"/>
	<path class="st1" d="M90.4,83.7c0-0.6,0.5-1,1-1c0.3,0,0.7,0.1,0.9,0.4v-1.3h0.5v3.5h-0.5V84v-0.1c0-0.4-0.4-0.7-0.8-0.7
		s-0.7,0.2-0.7,0.7v1.4h-0.5L90.4,83.7L90.4,83.7z"/>
	<path class="st1" d="M89.7,84.9c0,0.2-0.1,0.3-0.3,0.3c-0.2,0-0.3-0.1-0.3-0.3c0-0.2,0.1-0.3,0.3-0.3l0,0
		C89.6,84.6,89.7,84.7,89.7,84.9L89.7,84.9z"/>
	<path class="st1" d="M88.7,84.9c0,0.2-0.1,0.3-0.3,0.3c-0.2,0-0.3-0.1-0.3-0.3c0-0.2,0.1-0.3,0.3-0.3l0,0
		C88.5,84.6,88.7,84.7,88.7,84.9L88.7,84.9z"/>
	<path class="st1" d="M87.6,84.9c0,0.2-0.1,0.3-0.3,0.3c-0.2,0-0.3-0.1-0.3-0.3c0-0.2,0.1-0.3,0.3-0.3l0,0
		C87.5,84.6,87.6,84.7,87.6,84.9L87.6,84.9z"/>
	<path class="st1" d="M120.4,105.3c0-1.7-1.4-3-3-3H80.8c-1.7,0-3,1.3-3,3v35h42.6V105.3L120.4,105.3z"/>
	<polyline class="st3" points="80.8,115.8 80.8,108.4 118.1,108.4 118.4,121.3 	"/>
	<rect x="83.1" y="105" class="st3" width="32.6" height="3.5"/>
	<path class="st1" d="M115.6,105.1h-0.5h-1.9h-6.9l-23.1,0.1l0.2-0.2v3.5c-0.4-0.3-0.1-0.1-0.2-0.2h10.4h9.2l13,0.1l-0.1,0.1
		c0-1.1,0-2,0-2.6c0-0.3,0-0.5,0-0.7C115.7,105.1,115.7,105,115.6,105.1C115.7,105.1,115.7,105.1,115.6,105.1
		c0.1,0.3,0.1,0.5,0.1,0.8c0,0.6,0,1.5,0,2.6v0.1h-0.1l-13,0.1h-9.2H83.1c-0.1-0.1,0.2,0.2-0.2-0.2c0-1.2,0-2.4,0-3.5v-0.1h0.2
		l23.2,0.1l6.9,0.1h1.9L115.6,105.1L115.6,105.1z"/>
	<path class="st1" d="M97.4,148.9c10,0,18.2,0.1,18.2,0.2s-8.1,0.2-18.2,0.2s-18.2-0.1-18.2-0.2C79.3,149,87.4,148.9,97.4,148.9z"/>
	<path class="st2" d="M123.7,114.7c0-1.2-1-2.2-2.2-2.2h-20.6l-3.8,3.3H77.8v24.6h42.6l3.3-25.4
		C123.7,114.9,123.7,114.8,123.7,114.7z"/>
	<path class="st1" d="M99.9,125.6c5.8,0,10.4,0.1,10.4,0.2s-4.7,0.2-10.4,0.2s-10.4-0.1-10.4-0.2C89.5,125.6,94.2,125.6,99.9,125.6z
		"/>
	<path class="st1" d="M99.9,128c5.8,0,10.4,0.1,10.4,0.2s-4.7,0.2-10.4,0.2s-10.4-0.1-10.4-0.2S94.2,128,99.9,128z"/>
	<path class="st1" d="M99.7,153.7c6.3,0,11.4,0.1,11.4,0.2s-5.1,0.2-11.4,0.2s-11.4-0.1-11.4-0.2C88.3,153.8,93.4,153.7,99.7,153.7z
		"/>
	<path class="st1" d="M213,105.3c0-1.7-1.4-3-3-3h-36.6c-1.7,0-3,1.3-3,3v35H213V105.3L213,105.3z"/>
	<polyline class="st3" points="173.5,115.8 173.5,108.4 210.7,108.4 211,121.3 	"/>
	<rect x="175.7" y="105" class="st3" width="32.6" height="3.5"/>
	<path class="st1" d="M208.1,105.1h-0.5h-1.9h-6.9l-23.1,0.1l0.2-0.2v3.5c-0.4-0.3-0.1-0.1-0.2-0.2h10.5h9.2l13,0.1l-0.1,0.1
		c0-1.1,0-2,0-2.6c0-0.3,0-0.5,0-0.7c0-0.1,0-0.2,0-0.2c0,0.1,0,0.1,0,0.2c0,0.2,0,0.4,0,0.7c0,0.6,0,1.5,0,2.6v0.1h-0.1l-13,0.1
		H186h-10.4c-0.1-0.1,0.2,0.2-0.2-0.2c0-1.2,0-2.4,0-3.5v-0.1h0.2l23.2,0.1l6.9,0.1h1.9H208.1L208.1,105.1z"/>
	<path class="st1" d="M190.1,148.9c10,0,18.2,0.1,18.2,0.2s-8.1,0.2-18.2,0.2s-18.2-0.1-18.2-0.2C172,149,180.1,148.9,190.1,148.9z"
		/>
	<path class="st2" d="M216.3,114.8c0-1.2-1-2.2-2.2-2.3h-20.6l-3.8,3.3h-19.4v24.6H213l3.3-25.4
		C216.3,114.9,216.3,114.8,216.3,114.8z"/>
	<path class="st1" d="M192.6,125.6c5.8,0,10.4,0.1,10.4,0.2s-4.7,0.2-10.4,0.2s-10.4-0.1-10.4-0.2
		C182.1,125.6,186.8,125.6,192.6,125.6z"/>
	<path class="st1" d="M192.6,128c5.8,0,10.4,0.1,10.4,0.2s-4.7,0.2-10.4,0.2s-10.4-0.1-10.4-0.2S186.8,128,192.6,128z"/>
	<path class="st1" d="M192.3,153.7c6.3,0,11.4,0.1,11.4,0.2s-5.1,0.2-11.4,0.2s-11.4-0.1-11.4-0.2
		C180.9,153.8,186,153.7,192.3,153.7z"/>
	<path class="st1" d="M214.3,179.7c0-1.7-1.4-3-3-3h-36.6c-1.7,0-3,1.3-3,3v35h42.6L214.3,179.7
		C214.4,179.7,214.3,179.7,214.3,179.7z"/>
	<polyline class="st3" points="174.8,190.2 174.8,182.9 212.1,182.9 212.4,195.8 	"/>
	<rect x="177.1" y="179.4" class="st3" width="32.6" height="3.5"/>
	<path class="st1" d="M209.8,179.6h-0.7h-1.9h-6.9l-23.1,0.1l0.2-0.2v3.5c-0.4-0.3-0.1-0.1-0.2-0.2h10.4h9.2l13,0.1l-0.1,0.1
		c0-1.1,0-2,0-2.6c0-0.3,0-0.5,0-0.7c0-0.1,0-0.2,0-0.2C209.7,179.5,209.7,179.5,209.8,179.6c-0.1,0.3-0.1,0.5-0.1,0.7
		c0,0.6,0,1.5,0,2.6v0.1h-0.1l-13,0.1h-9.2H177c-0.1-0.1,0.2,0.2-0.2-0.2v-3.6h0.2l23.2,0.1l6.9,0.1h1.9h0.5h0.2L209.8,179.6z"/>
	<path class="st1" d="M191.4,223.4c10,0,18.2,0.1,18.2,0.2s-8.1,0.2-18.2,0.2s-18.2-0.1-18.2-0.2
		C173.3,223.5,181.4,223.4,191.4,223.4z"/>
	<path class="st2" d="M217.6,189.2c0-1.2-1-2.2-2.2-2.2h-20.6l-3.8,3.3h-19.3v24.6h42.6l3.3-25.4
		C217.6,189.3,217.6,189.2,217.6,189.2z"/>
	<path class="st1" d="M193.9,200c5.8,0,10.4,0.1,10.4,0.2s-4.7,0.2-10.4,0.2s-10.4-0.1-10.4-0.2S188.2,200,193.9,200z"/>
	<path class="st1" d="M193.9,202.5c5.8,0,10.4,0.1,10.4,0.2s-4.7,0.2-10.4,0.2s-10.4-0.1-10.4-0.2S188.2,202.5,193.9,202.5z"/>
	<path class="st1" d="M193.7,228.1c6.3,0,11.4,0.1,11.4,0.2s-5.1,0.2-11.4,0.2s-11.4-0.1-11.4-0.2
		C182.3,228.2,187.4,228.1,193.7,228.1z"/>
	<path class="st1" d="M120.7,179.7c0-1.7-1.4-3-3-3H81.1c-1.7,0-3,1.3-3,3v35h42.6V179.7L120.7,179.7z"/>
	<polyline class="st3" points="81.1,190.2 81.1,182.9 118.4,182.9 118.7,195.8 	"/>
	<rect x="83.4" y="179.4" class="st3" width="32.6" height="3.5"/>
	<path class="st1" d="M116.1,179.6h-0.7h-1.9h-6.9l-23.1,0.1l0.2-0.2v3.5c-0.4-0.3-0.1-0.1-0.2-0.2h10.4h9.2l13,0.1L116,183
		c0-1.1,0-2,0-2.6C116,180.1,116,179.9,116.1,179.6c-0.1,0-0.1-0.1-0.1-0.1S116,179.5,116.1,179.6c-0.1,0.3-0.1,0.5-0.1,0.7
		c0,0.6,0,1.5,0,2.6v0.1l0,0l-13,0.1h-9.2H83.4l-0.2-0.2v-3.6h0.2l23.2,0.1l6.9,0.1h1.9h0.5C116,179.5,116,179.5,116.1,179.6
		L116.1,179.6z"/>
	<path class="st1" d="M97.8,223.4c10,0,18.2,0.1,18.2,0.2s-8.1,0.2-18.2,0.2s-18.2-0.1-18.2-0.2C79.6,223.5,87.8,223.4,97.8,223.4z"
		/>
	<path class="st2" d="M124,189.2c0-1.2-1-2.2-2.2-2.2h-20.6l-3.8,3.3H78.1v24.6h42.6l3.3-25.4C124,189.3,124,189.2,124,189.2z"/>
	<path class="st1" d="M100.3,200c5.7,0,10.4,0.1,10.4,0.2s-4.7,0.2-10.4,0.2s-10.4-0.1-10.4-0.2C89.8,200.1,94.5,200,100.3,200z"/>
	<path class="st1" d="M100.2,202.5c5.8,0,10.4,0.1,10.4,0.2s-4.7,0.2-10.4,0.2s-10.4-0.1-10.4-0.2S94.5,202.5,100.2,202.5z"/>
	<path class="st1" d="M99.9,228.1c6.3,0,11.4,0.1,11.4,0.2s-5.1,0.2-11.4,0.2s-11.4-0.1-11.4-0.2C88.6,228.2,93.7,228.1,99.9,228.1z
		"/>
</g>
<path class="st0" d="M426.8,286.9h-83.5l-16,23.6l-15.6-23.6h-82c-5.2,0-9.5-4.3-9.5-9.5V114.8c0-5.2,4.2-9.5,9.5-9.5l0,0h197.1
	c5.2,0,9.5,4.3,9.5,9.5l0,0v162.7C436.3,282.7,432.1,286.9,426.8,286.9z"/>
<path class="st5" d="M426.8,286.9h0.5c0.5,0,1-0.1,1.5-0.2c3.5-0.8,6.3-3.5,7.1-7c0.1-0.4,0.2-0.8,0.2-1.2c0-0.4,0.1-0.9,0-1.3
	c0-0.9,0-1.8,0-2.8c0-3.9,0-8.4,0-13.5c0-20.4-0.1-49.8-0.1-86.2c0-18.2,0-38.1,0-59.5c0.1-4.1-2.5-7.8-6.4-9.1
	c-1.3-0.4-2.7-0.5-4-0.5h-52h-75.5H230c-0.4,0-0.8,0-1.3,0c-0.4,0-0.8,0.1-1.2,0.2c-3.4,0.8-6,3.4-6.8,6.8c-0.3,1.5-0.4,3.1-0.3,4.6
	V186c0,23.8,0,46.9,0,69v20.4c-0.1,1.3,0,2.6,0.2,4c0.5,2.6,2.1,4.8,4.3,6.1c1.1,0.7,2.3,1.1,3.6,1.2s2.6,0.1,3.9,0.1h23h56.3h0.1
	l0.1,0.1l15.5,23.6h-0.3l16-23.6l0.1-0.1h0.1l61.6,0.3h16.3h4.2h1.4h-1.4h-4.2h-16.3l-61.6,0.1l0.1-0.1
	c-4.9,7.4-10.3,15.3-15.9,23.7l-0.2,0.2l-0.2-0.2L311.7,287l0.2,0.1h-56.3h-23c-1.3,0-2.6,0.1-3.9-0.1c-4.1-0.5-7.5-3.5-8.4-7.6
	c-0.2-1.3-0.3-2.7-0.2-4.1V255c0-22.1,0-45.1,0-69v-71.1c-0.1-4.5,3-8.5,7.5-9.6c0.4-0.1,0.9-0.2,1.3-0.2c0.4,0,0.9,0,1.3,0h195.7
	c1.4-0.1,2.8,0.1,4.2,0.5c1.3,0.5,2.6,1.2,3.6,2.1s1.8,2.1,2.4,3.4c0.5,1.3,0.8,2.6,0.8,4c0,21.4,0,41.3,0,59.5
	c0,36.4-0.1,65.9-0.1,86.2c0,5.1,0,9.6,0,13.5c0,1,0,1.9,0,2.8c0,0.5,0,0.9-0.1,1.3c0,0.4-0.1,0.8-0.2,1.3c-0.9,3.5-3.7,6.3-7.2,7.1
	c-0.5,0.1-1,0.2-1.5,0.2L426.8,286.9z"/>
<g>
	<path class="st5" d="M304.2,205.3c0,2.1-1.6,3.4-4.1,3.4h-1.9v2.6H296v-9.5h4.1C302.6,201.9,304.2,203.2,304.2,205.3z M302,205.3
		c0-1.1-0.7-1.7-2-1.7h-1.8v3.3h1.8C301.3,207,302,206.4,302,205.3z"/>
	<path class="st5" d="M312,207.2v4.1h-2v-0.9c-0.5,0.7-1.3,1.1-2.2,1c-1.7,0-2.7-0.9-2.7-2.2s0.9-2.1,3.1-2.1h1.7
		c0-0.9-0.5-1.4-1.7-1.4c-0.8,0-1.5,0.2-2.1,0.7l-0.8-1.5c0.9-0.6,2-0.9,3.1-0.9C310.7,204,312,205,312,207.2z M309.8,209.1v-0.7
		h-1.5c-1,0-1.3,0.4-1.3,0.8c0,0.5,0.5,0.9,1.2,0.9C309,210.1,309.6,209.7,309.8,209.1L309.8,209.1z"/>
	<path class="st5" d="M313.2,210.7l0.7-1.5c0.8,0.5,1.6,0.7,2.5,0.7c1,0,1.3-0.2,1.3-0.7c0-1.2-4.4,0-4.4-2.9c0-1.4,1.2-2.4,3.4-2.4
		c1,0,1.9,0.2,2.8,0.6l-0.7,1.5c-0.7-0.4-1.4-0.6-2.1-0.5c-0.9,0-1.4,0.3-1.4,0.7c0,1.2,4.4,0,4.4,2.9c0,1.4-1.3,2.3-3.4,2.3
		C315.2,211.4,314.1,211.2,313.2,210.7z"/>
	<path class="st5" d="M320.4,210.7l0.7-1.5c0.8,0.5,1.6,0.7,2.5,0.7c1,0,1.3-0.2,1.3-0.7c0-1.2-4.4,0-4.4-2.9c0-1.4,1.2-2.4,3.4-2.4
		c1,0,1.9,0.2,2.8,0.6L326,206c-0.6-0.4-1.4-0.5-2.1-0.5c-0.9,0-1.3,0.3-1.3,0.7c0,1.2,4.4,0,4.4,2.9c0,1.4-1.3,2.3-3.4,2.3
		C322.4,211.5,321.3,211.2,320.4,210.7z"/>
	<path class="st5" d="M339.8,204.1l-2.6,7.3h-2l-1.6-4.5l-1.7,4.5h-2.1l-2.6-7.3h2l1.7,4.9l1.8-4.9h1.8l1.7,4.9l1.8-4.9H339.8z"/>
	<path class="st5" d="M340,207.7c-0.1-2.2,1.5-4.1,3.7-4.2c2.2-0.1,4.1,1.5,4.2,3.7s-1.5,4.1-3.7,4.2c-0.1,0-0.2,0-0.2,0
		c-2.1,0.1-3.8-1.4-4-3.5C340,207.9,340,207.8,340,207.7z M345.9,207.7c-0.1-1-1-1.8-2-1.7s-1.8,1-1.7,2c0.1,1,0.9,1.7,1.9,1.7
		s1.8-0.8,1.8-1.9C345.9,207.8,345.9,207.8,345.9,207.7L345.9,207.7z"/>
	<path class="st5" d="M353.9,204v1.9h-0.5c-1-0.1-1.9,0.6-1.9,1.6c0,0.1,0,0.3,0,0.4v3.4h-2.1V204h2v1
		C352,204.3,352.9,203.9,353.9,204z"/>
	<path class="st5" d="M362.5,201.3v10h-2v-0.8c-0.6,0.6-1.4,1-2.3,0.9c-2.1,0-3.8-1.7-3.8-3.8s1.7-3.8,3.8-3.8
		c0.8,0,1.6,0.3,2.1,0.9v-3.5L362.5,201.3z M360.5,207.8c-0.1-1-1-1.8-2-1.7s-1.8,1-1.7,2c0.1,1,0.9,1.7,1.9,1.7s1.9-0.8,1.9-1.8
		C360.5,207.9,360.5,207.8,360.5,207.8L360.5,207.8z"/>
</g>
<path class="st2" d="M261.6,227.7h13.7c3.3,0,5.9,2.6,5.9,5.9V257c0,3.3-2.6,5.9-5.9,5.9h-13.7c-3.3,0-5.9-2.6-5.9-5.9v-23.5
	C255.7,230.3,258.4,227.7,261.6,227.7z"/>
<path class="st2" d="M322.4,227.7h13c3.3,0,5.9,2.6,5.9,5.9V257c0,3.3-2.6,5.9-5.9,5.9h-13c-3.3,0-5.9-2.6-5.9-5.9v-23.5
	C316.5,230.3,319.2,227.7,322.4,227.7z"/>
<path class="st2" d="M292.6,227.7h13c3.3,0,5.9,2.6,5.9,5.9V257c0,3.3-2.6,5.9-5.9,5.9h-13c-3.3,0-5.9-2.6-5.9-5.9v-23.5
	C286.7,230.3,289.4,227.7,292.6,227.7z"/>
<path class="st2" d="M352,227.7h13.7c3.3,0,5.9,2.6,5.9,5.9V257c0,3.3-2.6,5.9-5.9,5.9H352c-3.3,0-5.9-2.6-5.9-5.9v-23.5
	C346.2,230.3,348.8,227.7,352,227.7z"/>
<path class="st2" d="M381.3,227.7H395c3.3,0,5.9,2.6,5.9,5.9V257c0,3.3-2.6,5.9-5.9,5.9h-13.7c-3.3,0-5.9-2.6-5.9-5.9v-23.5
	C375.4,230.3,378,227.7,381.3,227.7z"/>
<path class="st6" d="M271.7,244.4l2.7,1.5l-1.2,2.1l-2.7-1.6v3h-2.3v-3.1l-2.8,1.7l-1.2-2.1l2.7-1.5l-2.7-1.5l1.2-2.1l2.8,1.7v-3.1
	h2.3v3.1l2.7-1.7l1.2,2.1L271.7,244.4z"/>
<path class="st6" d="M301.4,244.2l2.7,1.5l-1.2,2.1l-2.8-1.6l0.1,3h-2.4v-3.1l-2.8,1.7l-1.2-2.1l2.7-1.5l-2.7-1.5l1.2-2.1l2.8,1.7
	v-3.1h2.4l-0.1,3.1l2.8-1.7l1.2,2.1L301.4,244.2z"/>
<path class="st6" d="M331.9,244.2l2.7,1.5l-1.2,2.1l-2.8-1.6l0.1,3h-2.4v-3.1l-2.8,1.7l-1.2-2.1l2.7-1.5l-2.7-1.5l1.2-2.1l2.8,1.7
	v-3.1h2.4l-0.1,3.1l2.8-1.7l1.2,2.1L331.9,244.2z"/>
<path class="st6" d="M361.3,244.2l2.7,1.5l-1.2,2.1l-2.8-1.6l0.1,3h-2.4v-3.1l-2.8,1.7l-1.2-2.1l2.7-1.5l-2.7-1.5l1.2-2.1l2.8,1.7
	v-3.1h2.4l-0.1,3.1l2.8-1.7l1.2,2.1L361.3,244.2z"/>
<path class="st5" d="M275.1,263.1h-13.2c-3.4,0-6.1-2.8-6.1-6.1v-23.4c0-3.4,2.8-6.1,6.1-6.1h13.2c3.4,0,6.1,2.8,6.1,6.1l0,0V257
	C281.2,260.4,278.4,263.1,275.1,263.1z M261.9,227.8c-3.2,0-5.7,2.6-5.7,5.7v23.4c0,3.2,2.6,5.7,5.7,5.7h13.2c3.2,0,5.7-2.6,5.7-5.7
	v-23.3c0-3.2-2.6-5.7-5.7-5.7L261.9,227.8z"/>
<path class="st5" d="M305.7,263.1h-13.2c-3.4,0-6.1-2.8-6.1-6.1v-23.4c0-3.4,2.8-6.1,6.1-6.1h13.2c3.4,0,6.1,2.8,6.1,6.1V257
	C311.8,260.4,309,263.1,305.7,263.1z M292.5,227.8c-3.2,0-5.7,2.6-5.7,5.7v23.4c0,3.2,2.6,5.7,5.7,5.7h13.2c3.2,0,5.7-2.6,5.7-5.7
	v-23.3c0-3.2-2.6-5.7-5.7-5.7L292.5,227.8z"/>
<path class="st5" d="M335.4,263.1h-13.2c-3.4,0-6.1-2.8-6.1-6.1v-23.4c0-3.4,2.8-6.1,6.1-6.1h13.2c3.4,0,6.1,2.8,6.1,6.1V257
	C341.5,260.4,338.8,263.1,335.4,263.1z M322.2,227.8c-3.2,0-5.7,2.6-5.7,5.7v23.4c0,3.2,2.6,5.7,5.7,5.7h13.2c3.2,0,5.7-2.6,5.7-5.7
	v-23.3c0-3.2-2.6-5.7-5.7-5.7L322.2,227.8z"/>
<path class="st5" d="M365.5,263.1h-13.2c-3.4,0-6.1-2.8-6.1-6.1v-23.4c0-3.4,2.8-6.1,6.1-6.1l0,0h13.2c3.4,0,6.1,2.8,6.1,6.1V257
	C371.6,260.4,368.9,263.1,365.5,263.1z M352.3,227.8c-3.2,0-5.7,2.6-5.7,5.7v23.4c0,3.2,2.6,5.7,5.7,5.7h13.2c3.2,0,5.7-2.6,5.7-5.7
	v-23.3c0-3.2-2.6-5.7-5.7-5.7L352.3,227.8z"/>
<path class="st5" d="M394.7,263.1h-13.2c-3.4,0-6.1-2.8-6.1-6.1v-23.4c0-3.4,2.8-6.1,6.1-6.1l0,0h13.2c3.4,0,6.1,2.8,6.1,6.1V257
	C400.8,260.4,398.1,263.1,394.7,263.1z M381.5,227.8c-3.2,0-5.7,2.6-5.7,5.7v23.4c0,3.2,2.6,5.7,5.7,5.7h13.2c3.2,0,5.7-2.6,5.7-5.7
	v-23.3c0-3.2-2.6-5.7-5.7-5.7L381.5,227.8z"/>
<path class="st6" d="M395.2,253.8c-2.3,0.3-4.7,0.4-7.1,0.3c-2.4,0.1-4.7,0-7.1-0.3c2.3-0.3,4.7-0.4,7.1-0.3
	C390.5,253.4,392.8,253.5,395.2,253.8z"/>
<g>
	<circle class="st6" cx="567.8" cy="164.9" r="28.5"/>
	<path class="st4" d="M562.7,159.7h-0.4V157c-0.1-3.1,2.2-5.7,5.3-5.8s5.7,2.2,5.8,5.3c0,0.2,0,0.3,0,0.5v2.1h-0.5V157
		c0.1-2.8-2-5.2-4.8-5.3s-5.2,2-5.3,4.8c0,0.2,0,0.3,0,0.5L562.7,159.7L562.7,159.7z"/>
	<path class="st4" d="M574.8,178.3h-14.1c-1.3,0-2.3-1-2.3-2.3l0,0v-14.1c0-1.3,1-2.3,2.3-2.3h14.1c1.3,0,2.3,1.1,2.3,2.3V176
		C577.2,177.2,576.1,178.3,574.8,178.3z M560.7,159.9c-1,0-1.9,0.8-1.9,1.9l0,0v14.1c0,1,0.8,1.9,1.9,1.9l0,0h14.1
		c1,0,1.9-0.8,1.9-1.9l0,0v-14.1c0-1-0.8-1.9-1.9-1.9l0,0H560.7z"/>
	<path class="st4" d="M567.8,169.3c-1.2,0-2.2-1-2.2-2.2s1-2.2,2.2-2.2s2.2,1,2.2,2.2l0,0C570,168.3,569,169.3,567.8,169.3z
		 M567.8,165.4c-1,0-1.7,0.8-1.7,1.7c0,1,0.8,1.7,1.7,1.7c1,0,1.7-0.8,1.7-1.7l0,0C569.6,166.2,568.8,165.4,567.8,165.4L567.8,165.4
		L567.8,165.4z"/>
</g>
<rect x="329.2" y="166.8" class="st4" width="0.5" height="4"/>
<ellipse transform="matrix(0.2149 -0.9766 0.9766 0.2149 208.8854 502.8047)" class="st7" cx="417.2" cy="121.5" rx="8.8" ry="8.8"/>
<path class="st4" d="M414.4,124.5c-0.1,0-0.1,0-0.2-0.1s-0.1-0.3,0-0.4l0,0l5.7-5.7c0.1-0.1,0.3-0.1,0.4,0l0,0
	c0.1,0.1,0.1,0.3,0,0.4l0,0l-5.7,5.7C414.5,124.5,414.5,124.5,414.4,124.5z"/>
<path class="st4" d="M420.1,124.5c-0.1,0-0.1,0-0.2-0.1l-5.7-5.7c-0.1-0.1-0.1-0.3,0-0.4l0,0c0.1-0.1,0.3-0.1,0.4,0l0,0l5.7,5.7
	c0.1,0.1,0.1,0.3,0,0.4l0,0C420.2,124.5,420.2,124.5,420.1,124.5z"/>
<g>
	<g id="freepik--Table--inject-263">
		<path class="st5" d="M244,465.4c121.2,0,219.4,0.1,219.4,0.3S365.1,466,244,466s-219.4-0.1-219.4-0.3
			C24.6,465.5,122.8,465.4,244,465.4z"/>
	</g>
	<g id="freepik--Plant--inject-263">
		<path class="st8" d="M399.5,406.8c0,0,18.2-20.9,28.4-35.2s23.7-43.8,23.7-43.8s4.7-3.5-5.2,26.9S410,415.5,410,415.5L399.5,406.8
			z"/>
		<path class="st8" d="M396,357.8c-2.4,13.3-4.4,57-4.4,57h11c0,0,0.2-8.2,0-29.3c-0.1-16.2,3.4-41.3,5-52c0.1-0.6-0.2-1.3-0.8-1.6
			c-0.7-0.4-1.7-0.2-2.1,0.6C401.5,338.1,397.8,348.5,396,357.8z"/>
		<path class="st8" d="M390.5,412.1c0,0-8.5-20.2-10.8-33.4s0.7-20.1,3.4-33.9c1-5.1,4.8-13.2,6.2-15.5c0.5-0.8,1.3-1.4,2.3-1.4
			c1.4,0,2.6,1.1,2.6,2.6c0,5.2-0.5,10.4-1.4,15.5c-2.4,14-4,24.5-3.1,32.3c1.4,11.3,4.4,22.4,9.1,32.8L390.5,412.1z"/>
		<path class="st8" d="M388.8,414h-9.9c0,0-22.3-64.6-27.5-77.5s-4-24.1-3.2-25.3c0.8-1.2,7.6,20.1,9.6,29.4s31,71.6,31,71.6"/>
		<path class="st5" d="M402.6,408.7c0.5-0.4,1.2-1,2.2-1.8c1.9-1.6,4.5-3.9,7.6-7c8-8.1,15-17.2,20.8-27c5.8-9.9,10.6-20.2,14.5-31
			c1.5-4.1,2.6-7.5,3.4-9.8c0.4-1.1,0.7-2,0.9-2.7c0.1-0.3,0.2-0.6,0.4-0.9c0,0.3-0.1,0.7-0.2,1c-0.2,0.6-0.4,1.5-0.8,2.7
			c-0.7,2.4-1.8,5.7-3.2,9.9c-3.8,10.8-8.6,21.2-14.4,31.1s-12.9,19-21,27c-3.2,3.1-5.9,5.4-7.8,6.9c-1,0.8-1.7,1.3-2.2,1.7
			c-0.3,0.2-0.5,0.4-0.8,0.6C402.1,409.1,402.3,408.9,402.6,408.7z"/>
		<path class="st5" d="M398.7,377.6c0-1.2,0.2-2.9,0.3-5c0.3-4.2,1-10.1,2-16.5s2.2-12.2,3.2-16.3c0.5-2.1,0.9-3.7,1.2-4.9
			c0.1-0.6,0.3-1.2,0.6-1.8c-0.1,0.6-0.2,1.2-0.3,1.8c-0.3,1.3-0.6,2.9-1.1,4.9c-0.9,4.1-2,9.9-3.1,16.3c-1,6.4-1.7,12.2-2.2,16.4
			c-0.2,2-0.4,3.7-0.5,5c0,0.6-0.1,1.2-0.3,1.8C398.6,378.8,398.7,378.2,398.7,377.6z"/>
		<path class="st5" d="M391.6,329.7l-0.8,2.4c-0.3,1-0.8,2.3-1.1,3.7c-0.4,1.5-0.9,3.1-1.3,5c-0.2,0.9-0.5,1.9-0.7,2.9
			s-0.4,2.1-0.6,3.2c-0.4,2.2-0.7,4.6-1.1,7.1c-0.6,5.5-0.8,10.9-0.6,16.4c0.2,5.5,0.8,10.9,1.8,16.4c0.6,2.5,1,4.8,1.6,7
			c0.3,1.1,0.5,2.1,0.8,3.1s0.6,2,0.9,2.9c0.5,1.9,1.2,3.4,1.7,4.9s1,2.7,1.4,3.6s0.7,1.7,0.9,2.3c0.1,0.3,0.2,0.5,0.3,0.8
			c-0.2-0.2-0.3-0.5-0.4-0.8l-1-2.2c-0.5-1-1-2.2-1.5-3.6s-1.2-3-1.8-4.9l-0.9-2.9c-0.3-1-0.6-2.1-0.9-3.2c-0.6-2.1-1.1-4.5-1.6-7
			c-1-5.4-1.6-10.9-1.9-16.4c-0.2-5.5,0.1-11,0.7-16.5c0.4-2.5,0.6-4.9,1.1-7.1c0.2-1.1,0.4-2.2,0.6-3.2l0.7-2.9
			c0.4-1.9,1-3.5,1.4-5s0.9-2.7,1.2-3.7L391.6,329.7c0-0.3,0.1-0.6,0.3-0.9C391.8,329.2,391.7,329.5,391.6,329.7z"/>
		<path class="st5" d="M348.5,312.8c0.1,0.2,0.1,0.5,0.2,0.8c0.2,0.7,0.4,1.8,0.7,3.1c0.6,2.7,1.6,6.5,3.1,11.1s3.5,10.1,5.9,16.1
			s5.1,12.6,7.7,19.6s4.6,13.8,6.5,20s3.6,11.7,5.2,16.4c1.6,4.6,3.2,8.2,4.4,10.7c0.6,1.2,1.1,2.2,1.4,2.8l0.4,0.7
			c0,0.1,0.1,0.2,0.1,0.3c0,0-0.1-0.1-0.2-0.2l-0.4-0.7c-0.3-0.6-0.9-1.6-1.5-2.8c-1.7-3.5-3.2-7-4.5-10.7
			c-1.7-4.6-3.5-10.1-5.4-16.3c-1.9-6.2-3.9-13-6.5-20s-5.3-13.6-7.6-19.6s-4.3-11.5-5.8-16.2s-2.4-8.5-3-11.2
			c-0.3-1.3-0.4-2.4-0.6-3.1C348.5,313.2,348.4,313,348.5,312.8c-0.1-0.1-0.1-0.2-0.1-0.3C348.5,312.6,348.5,312.7,348.5,312.8z"/>
		<path class="st8" d="M413.4,342.5c-10.4,18.5-21.1,69.6-21.1,69.6L404,414c0,0,7.7-31.2,13.2-47.9c5.5-16.7,17.2-47.1,21.2-55.6
			c1.4-3,2.6-6.2,3.6-9.4c0.3-0.9,0.1-1.8-0.6-2.5c-1-1-2.5-1-3.5,0C430.3,306.3,421.8,327.7,413.4,342.5z"/>
		<path class="st5" d="M413.6,378.1c-0.3,1.1-0.7,2.4-1.2,4c-1,3.4-2.2,8.1-3.5,13.2s-2.5,9.8-3.4,13.3c-0.4,1.6-0.8,2.9-1.1,4
			c-0.1,0.5-0.3,1-0.5,1.5c0-0.5,0.1-1,0.2-1.5c0.2-1,0.5-2.4,0.9-4c0.8-3.4,1.9-8.1,3.2-13.3s2.6-9.9,3.7-13.2c0.5-1.7,1-3,1.4-3.9
			c0.1-0.5,0.4-1,0.6-1.4C413.9,377.1,413.8,377.6,413.6,378.1z"/>
		<path class="st5" d="M398.1,412.8l0.1-0.9c0.1-0.8,0.2-2,0.4-3.6c0.5-4.4,1.3-8.7,2.3-13c1.4-6.4,3.2-12.6,5.4-18.8
			c2.4-7,5.4-14.5,8.8-22.3c6.9-15.5,13.9-29.2,18.5-39.3c2.3-5,4.2-9.1,5.4-12c0.6-1.4,1.1-2.5,1.4-3.3l0.4-0.9
			c0-0.1,0.1-0.2,0.1-0.3c0,0.1,0,0.2-0.1,0.3c-0.1,0.2-0.2,0.5-0.3,0.9c-0.3,0.8-0.7,1.9-1.3,3.3c-1.2,2.9-2.9,7-5.2,12.1
			c-4.5,10.2-11.4,23.9-18.3,39.4c-3.4,7.8-6.4,15.3-8.8,22.2c-2.2,6.1-4,12.4-5.5,18.7c-1.3,5.4-2,9.8-2.5,12.9
			c-0.2,1.5-0.4,2.7-0.5,3.5C398.2,412.2,398.1,412.5,398.1,412.8c0.1,0.1,0,0.2,0,0.3C398.1,413,398.1,412.9,398.1,412.8z"/>
		<path class="st5" d="M392.4,410.1c0.1-1.3,0.4-3.1,0.7-5.4c0.9-5.9,2.1-11.8,3.7-17.7c1.5-5.8,3.3-11.6,5.4-17.2
			c0.8-2.2,1.5-3.9,2-5.1c0.2-0.6,0.5-1.2,0.8-1.8c-0.2,0.7-0.4,1.3-0.6,1.9c-0.5,1.3-1.1,3-1.8,5.1c-1.5,4.4-3.4,10.4-5.2,17.2
			s-3,13-3.8,17.6c-0.4,2.2-0.7,4-0.9,5.4c-0.1,0.7-0.2,1.3-0.4,2C392.3,411.5,392.3,410.8,392.4,410.1z"/>
		<rect x="368.2" y="410.5" class="st6" width="45.7" height="55.7"/>
		<g class="st9">
			<rect x="368.2" y="410.5" width="45.7" height="55.7"/>
		</g>
		<rect x="382.8" y="410.5" class="st6" width="40.5" height="55.7"/>
	</g>
	<g id="freepik--Character--inject-263">
		<polygon class="st10" points="95.1,306.4 106.9,323.7 138.1,333 184.3,324.5 186.7,295 173.2,290.2 125.1,283.1 101.1,286.6 		"/>
		<path class="st6" d="M85.9,289.4L49.6,465.7l152.4-0.2l-2.8-54.7c0,0,2.8-11.8,4.8-20.5c8.7-37.5,0.8-90.3,0.8-90.3l-20.6-6.6
			c0,0-0.3,31.9-28.9,33.5c-35.1,1.9-49.3-42.1-49.3-42.1L85.9,289.4L85.9,289.4z"/>
		<g class="st9">
			<path d="M82.9,442l-30.4,7.3l-1.3,7.5c8,4.3,17.6,4.8,26.6,3.4c6.6-1,13-3,19.6-4.1c8.8-1.4,17.8-1.2,26.7-1
				c7.4,0.2,14.3-0.5,21.7-0.3L82.9,442z"/>
		</g>
		<path class="st6" d="M258.9,465.9l-48.4,0.2l-14.8-98.9l7.8-67.9c0,0,11.6,3.8,18.6,12.8C232.2,325.2,258.9,465.9,258.9,465.9z"/>
		<path class="st6" d="M83.1,334.6l-5.8,69.1c7.8-0.2,21.9,2.6,19.1,17.8l-5,15.9c-2,8-3.1,15.5-14,18c-3.3,0.7-6.8,0.9-10.2,0.4
			L50,453.4c-13.7-1.8-21.2-23.4-19.8-37.1c1.9-19,8.6-47.3,13.9-71.4c11.7-53.4,44.2-56,44.2-56L83.1,334.6z"/>
		<path class="st5" d="M207.6,337.9c0.1,0.6,0.1,1.3,0.2,2.2c0.1,0.5,0.1,1,0.2,1.6c0.1,0.6,0.1,1.2,0.1,1.9
			c0.1,1.3,0.2,2.9,0.3,4.5c0.2,3.4,0.2,7.4,0,11.8s-0.7,9.3-1.5,14.4s-1.7,9.9-2.6,14.3s-1.8,8.3-2.6,11.6s-1.4,5.9-1.9,7.8
			c-0.2,0.9-0.4,1.6-0.5,2.1c-0.1,0.2-0.1,0.5-0.1,0.7c0.1-0.2,0.2-0.5,0.2-0.7c0.1-0.5,0.3-1.2,0.6-2.1c0.5-1.8,1.2-4.5,2-7.7
			s1.8-7.2,2.7-11.5s1.9-9.2,2.6-14.3c0.7-4.8,1.2-9.6,1.4-14.5c0.2-4,0.2-7.9-0.1-11.9c-0.1-1.7-0.2-3.2-0.4-4.5
			c-0.1-0.7-0.1-1.3-0.2-1.9s-0.2-1.1-0.2-1.6c-0.1-0.9-0.2-1.6-0.3-2.1c0-0.3-0.1-0.5-0.1-0.7C207.6,337.4,207.6,337.7,207.6,337.9
			z"/>
		<path class="st5" d="M53.6,417.6c3.6-7.4,10.7-12.6,18.8-13.7c1.7-0.2,3.3-0.3,5-0.3c-0.4-0.1-0.9-0.2-1.4-0.2
			c-1.2-0.1-2.5,0-3.7,0.1c-8.4,0.9-15.6,6.2-19.1,13.9c-0.5,1.1-0.9,2.3-1.3,3.5c-0.1,0.4-0.2,0.9-0.2,1.4
			C52.3,420.8,52.9,419.2,53.6,417.6z"/>
		<path class="st5" d="M62.2,396.2c4.6,0.7,9,2.5,12.8,5.3c1.4,1.1,2.3,1.8,2.3,1.8s-0.2-0.2-0.5-0.6c-0.5-0.5-1-1-1.6-1.4
			c-1.9-1.5-3.9-2.7-6.1-3.6s-4.5-1.5-6.9-1.7c-0.7-0.1-1.4-0.1-2.1-0.1c-0.3,0-0.5,0-0.8,0.1C59.3,395.9,60.4,395.9,62.2,396.2z"/>
		<path class="st5" d="M93.1,325.3c0.1-0.9,0.1-2.2,0-3.9c-0.4-8.6-2.7-17-6.9-24.6c-0.8-1.4-1.5-2.6-2-3.3
			c-0.2-0.4-0.5-0.8-0.9-1.1c0.2,0.4,0.4,0.9,0.7,1.3c0.5,0.8,1.1,1.9,1.9,3.4c3.9,7.6,6.3,15.9,6.9,24.4c0.1,1.6,0.2,2.9,0.2,3.9
			c0,0.5,0,1,0.1,1.4C93.1,326.3,93.1,325.8,93.1,325.3z"/>
		<path class="st5" d="M154.5,377.2c-0.8,1.9-1.8,3.7-2.8,5.4c-7.3,11.6-20.6,18-34.2,16.4c-2-0.2-4-0.6-6-1.1
			c-1.4-0.4-2.1-0.6-2.1-0.6c0.2,0.1,0.3,0.2,0.5,0.2c0.4,0.1,0.9,0.4,1.6,0.6c2,0.6,4,1.1,6,1.3c13.8,1.8,27.3-4.7,34.6-16.6
			c1.1-1.7,2-3.6,2.7-5.5c0.3-0.7,0.4-1.2,0.5-1.6c0.1-0.2,0.1-0.4,0.1-0.6C155.3,375.1,155,375.9,154.5,377.2z"/>
		<path class="st5" d="M86.3,450.7c-0.4,0.5-0.8,0.9-1.3,1.3c-1.8,1.4-3.8,2.4-6,3c-3.2,0.9-6.6,1.2-9.9,1
			c-3.8-0.2-7.9-0.7-12.1-1.3c-4.1-0.5-8-1.4-11.9-2.8c-1.6-0.7-3.2-1.7-4.4-3c-1.1-1.1-2.1-2.3-3-3.5c-1.3-1.8-2.4-3.8-3.2-5.9
			c-0.3-0.7-0.5-1.3-0.6-1.7c-0.1-0.2-0.1-0.4-0.2-0.6c0.1,0.2,0.2,0.4,0.3,0.6c0.2,0.4,0.4,0.9,0.7,1.7c0.9,2,2,4,3.3,5.8
			c0.9,1.2,1.9,2.4,3,3.5c1.3,1.2,2.7,2.2,4.3,2.9c3.8,1.3,7.8,2.2,11.8,2.7c4.3,0.6,8.4,1.1,12.1,1.3c3.3,0.2,6.6-0.1,9.8-0.9
			c2.2-0.5,4.2-1.5,6-2.8c1.2-1,1.7-1.7,1.8-1.7C86.6,450.4,86.5,450.6,86.3,450.7z"/>
		<path class="st5" d="M84.9,373.6c-4.1,16.5-7.5,29.8-7.7,29.8s3.1-13.4,7.2-29.9s7.5-29.8,7.7-29.8
			C92.2,343.8,89,357.1,84.9,373.6z"/>
		<path class="st5" d="M96.2,417.9c0-1,0-2-0.1-3c-0.2-1.4-0.7-2.8-1.5-4c-0.5-0.7-1-1.4-1.6-2c-0.7-0.6-1.4-1.2-2.2-1.6
			c-2.9-1.5-6-2.6-9.3-3.1c-2.5-0.4-4.1-0.5-4.1-0.6c0.4-0.1,0.7-0.1,1.1,0c1,0,2,0.1,3,0.3c3.3,0.5,6.5,1.5,9.5,3.1
			c0.8,0.5,1.6,1.1,2.3,1.7c0.6,0.6,1.2,1.3,1.7,2.1c0.8,1.3,1.4,2.7,1.5,4.3c0.1,1,0,2-0.1,3c0,0.4-0.1,0.7-0.2,1.1
			C96.2,418.6,96.2,418.2,96.2,417.9z"/>
		<g class="st9">
			<path d="M205.8,381.9c3.3-15.4,3.8-31.3,1.5-46.9c7.2,14.6,7.1,32.9-1.2,47"/>
		</g>
		<path class="st10" d="M162,417.1L162,417.1L162,417.1z"/>
		<path class="st10" d="M161.6,417.3l0.1-0.1L161.6,417.3z"/>
		<path class="st10" d="M161.7,417.2l0.3-0.1L161.7,417.2z"/>
		<path class="st10" d="M162.1,417.1l0.1-0.1L162.1,417.1z"/>
		<path class="st10" d="M192.9,451.3c-0.6,1.2-3.7,0.7-5.7-1.1s-13.5-8.8-13.5-8.8s12,11.7,11.7,12.9s-1.1,5.1-5,3
			s-14.3-9.3-14.3-9.3l-4.9-0.6c1.2,2.2,2.9,4.1,5,5.5c2.8,1.5,5.8,2.8,8.8,3.9c0,0,3.6,0.3,3.4,2.8s-3.2,4-7.8,3
			c-3.8-1.1-7.6-2.4-11.3-3.9l-13.7-3.8l-64.7-5.1c-1.4-2.2-0.1-6.2-0.1-6.2c1.2-8.2,4.9-19.6,12.2-25.3l0,0
			c0,0,52.8,11.9,54.4,11.6s7.8-6.8,10-8.4l4.8-4.4c1.8-0.9,13.2-2.6,13.2-2.6l12.1,7.3l2.6,12.4c0,0-3.8,3.3-6,0.1
			c-1.3-1.7-2.2-3.6-2.6-5.7l-6.1-2.6l-5.5,1.3c0,0,20.4,13.1,23,18C195.4,450,193.5,450.1,192.9,451.3z"/>
		<path class="st10" d="M161.5,417.4l0.1-0.1L161.5,417.4z"/>
		<path class="st10" d="M161.4,417.4"/>
		<path class="st10" d="M161.4,417.4L161.4,417.4L161.4,417.4z"/>
		<path class="st11" d="M137.1,443.4c0.7-2.3,1.9-4.3,3.4-6.2c1.5-1.9,3.1-3.6,4.8-5.2c0.7-0.6,1.5-1.3,2.1-2.1
			c-0.8,0.5-1.6,1.1-2.4,1.8c-1.8,1.6-3.5,3.3-5,5.2c-1.5,1.9-2.7,4.1-3.3,6.4c-0.1,0.4-0.2,0.8-0.2,1.2c-0.1,0.3-0.1,0.6-0.1,0.9
			s0,0.5,0.1,0.8C136.7,446.3,136.6,445.1,137.1,443.4z"/>
		<path class="st11" d="M166,426c-1.8-0.6-3-1.5-3.1-1.4c1.7,1.7,4.1,2.5,6.5,2.2C169.3,426.6,167.8,426.5,166,426z"/>
		<path class="st11" d="M167.7,438c-1.7-0.8-3.4-1.4-5.2-1.9c3.3,1.7,6.7,3.1,10.2,4.2C171.1,439.4,169.4,438.6,167.7,438z"/>
		<path class="st11" d="M156.5,445.1c0.8,0.5,1.7,0.8,2.6,1.1c0.8,0.4,1.7,0.7,2.7,1C160.2,446,158.4,445.3,156.5,445.1z"/>
		<path class="st11" d="M170.2,441.4c-0.6,0.3-1.2,0.7-1.6,1.3c-0.4,0.5-0.7,1.2-0.8,1.9c-0.1,0.5-0.1,0.9,0,0.9
			c0.3-0.9,0.7-1.7,1.2-2.4c0.6-0.7,1.3-1.3,2-1.8C171,441.1,170.7,441.1,170.2,441.4z"/>
		<path class="st11" d="M174,435c-0.5,0.7-0.6,1.5-0.3,2.3c0.2-0.7,0.4-1.4,0.7-2c0.6-1,1.5-1.5,1.4-1.6
			C175.8,433.5,174.7,433.8,174,435z"/>
		<path class="st11" d="M174.3,417.8c0.2-0.7,0.6-1.4,1-2.1c0-0.1-0.3,0.1-0.6,0.4c-0.4,0.4-0.7,1-0.9,1.6s-0.2,1.2,0,1.8
			c0.2,0.4,0.3,0.6,0.4,0.6C174.1,419.4,174.2,418.6,174.3,417.8z"/>
		<path class="st5" d="M80.3,450.1c0-0.5,0-1.1,0-1.8s0-1.5,0.1-2.3c0.3-4.5,1.2-8.9,2.7-13.1c0.9-2.3,1.9-4.6,3.1-6.7
			c0.6-1,1.1-1.9,1.8-2.7c0.3-0.4,0.6-0.9,0.9-1.2s0.6-0.7,0.9-1c0.6-0.7,1.1-1.2,1.6-1.7c0.4-0.4,0.8-0.8,1.3-1.2
			c0.4-0.4,0.7-0.7,1.2-0.9c0.1,0.1-1.6,1.4-3.7,4.1c-0.3,0.3-0.6,0.6-0.8,1s-0.5,0.8-0.8,1.2c-0.6,0.8-1.1,1.7-1.7,2.7
			c-1.2,2.1-2.2,4.3-3.1,6.6c-1.5,4.2-2.5,8.6-2.8,13c-0.1,0.8-0.1,1.6-0.2,2.3s-0.1,1.3-0.1,1.7c0,0.5,0,1-0.1,1.5
			C80.3,451.1,80.3,450.6,80.3,450.1z"/>
		<g class="st9">
			<path d="M47.1,419.9c0,1.2,0.4,2.8,1.7,3s2.2-1.3,2.7-2.5c4.2-10.5,14.6-17.3,25.9-16.7l0,0c-6.4-1.4-13.1-0.8-19.2,1.8
				C52.2,407.8,47.1,413.4,47.1,419.9z"/>
		</g>
		<path class="st4" d="M211,331c2.4-1.3,4.7-2.8,6.8-4.4c2.2-1.6,4.2-3.4,6.2-5.2c1.5-1.4,2.4-2.4,2.4-2.3s-0.2,0.3-0.5,0.8
			s-0.9,1.1-1.6,1.9c-1.9,2-3.9,3.8-6.1,5.4c-2.2,1.6-4.5,3.1-7,4.3c-0.9,0.4-1.7,0.8-2.3,1c-0.3,0.1-0.6,0.2-0.9,0.3
			C207.9,332.5,209.1,332,211,331z"/>
		<path class="st4" d="M92.9,336.5l0.8,0.4c0.6,0.4,1.7,0.9,3,1.6c3.8,1.8,7.7,3.4,11.7,4.7c5.9,1.9,12,3.3,18.2,4.2
			c7.6,1.1,15.2,1.7,22.8,1.9c8.1,0.2,15.9,0.1,22.9-0.1c6.2-0.1,12.5-0.5,18.7-1.3c4.2-0.6,8.3-1.5,12.3-2.7
			c1.4-0.5,2.5-0.8,3.2-1.1l0.8-0.3l0.3-0.1c-0.1,0.1-0.2,0.1-0.3,0.1l-0.8,0.4c-0.7,0.3-1.8,0.7-3.2,1.2c-4,1.3-8.1,2.3-12.3,2.9
			c-6.2,0.9-12.4,1.3-18.7,1.4c-7.1,0.1-14.9,0.3-23,0.1c-7.7-0.1-15.3-0.8-22.9-1.9c-6.2-0.9-12.3-2.4-18.2-4.4
			c-4-1.3-7.9-3-11.6-4.9c-1.3-0.7-2.3-1.2-3-1.7l-0.8-0.5c-0.1,0-0.2-0.1-0.2-0.2C92.5,336.4,92.6,336.4,92.9,336.5z"/>
		<path class="st4" d="M208.8,371.5l3.3-1.1c2.8-0.9,6.6-2.1,10.9-3.3s8.1-2.4,10.9-3.2l3.3-0.9c0.4-0.1,0.8-0.2,1.2-0.3
			c-0.4,0.2-0.8,0.3-1.2,0.5l-3.3,1.1c-2.8,0.9-6.6,2.1-10.9,3.3s-8.1,2.4-10.9,3.2l-3.3,0.9c-0.4,0.1-0.8,0.2-1.2,0.3
			C208,371.8,208.4,371.7,208.8,371.5z"/>
		<path class="st4" d="M226.9,420.4c12.3-3.7,22.3-6.5,22.3-6.4s-9.9,3.2-22.1,6.9s-22.3,6.5-22.3,6.4
			C204.7,427.1,214.6,424,226.9,420.4z"/>
		<path class="st4" d="M61.4,308.4l3.2,2c2.7,1.7,6.6,3.9,11,6s8.5,3.9,11.5,5l3.6,1.3c0.4,0.1,0.9,0.3,1.3,0.5
			c-0.5-0.1-0.9-0.2-1.4-0.3c-0.9-0.2-2.1-0.6-3.6-1.2c-7.9-2.8-15.5-6.5-22.6-11.1C63,309.7,62,309,61.4,308.4
			c-0.5-0.2-0.9-0.4-1.2-0.8C60.6,307.9,61,308.1,61.4,308.4z"/>
		<path class="st4" d="M41.9,365.1c1.1,0.4,2.6,1,4.6,1.6c5.1,1.7,10.3,3.1,15.5,4.2c5.3,1,10.6,1.7,16,2.1c2.1,0.1,3.7,0.2,4.9,0.2
			c0.6,0,1.2,0,1.8,0.1c-0.6,0.1-1.2,0.1-1.8,0.1c-1.2,0-2.8,0-4.9-0.1c-10.8-0.5-21.4-2.6-31.6-6.3c-1.9-0.7-3.5-1.3-4.5-1.8
			c-0.6-0.2-1.1-0.5-1.6-0.8C40.8,364.7,41.4,364.8,41.9,365.1z"/>
		<path class="st4" d="M69,454.8c-0.1-0.4-0.2-0.9-0.4-1.6s-0.3-1.5-0.4-2.5s-0.3-2.1-0.4-3.3c0-0.6-0.1-1.3-0.1-1.9
			s-0.1-1.4-0.1-2.1c-0.1-1.5,0-3,0.1-4.7c0.4-7.1,2.1-14.2,5-20.7c0.6-1.5,1.3-2.9,2-4.2c0.3-0.6,0.6-1.3,1-1.9l1-1.7
			c0.6-1.1,1.3-2,1.9-2.8c0.5-0.7,1-1.4,1.5-2l1-1.2c0.1-0.1,0.2-0.3,0.4-0.4c-0.1,0.2-0.2,0.3-0.3,0.5l-0.9,1.3
			c-0.5,0.5-0.9,1.2-1.5,2.1s-1.2,1.7-1.8,2.8l-1,1.7c-0.4,0.6-0.7,1.2-1,1.9c-0.7,1.3-1.3,2.7-2,4.2c-1.4,3.3-2.5,6.6-3.3,10.1
			c-0.8,3.4-1.3,7-1.6,10.5c-0.1,1.6-0.1,3.2-0.1,4.6c0,0.7,0,1.4,0,2.1s0.1,1.3,0.1,1.9c0,1.2,0.2,2.3,0.3,3.3s0.2,1.9,0.4,2.5
			S68.9,454.4,69,454.8c0,0.2,0,0.4,0,0.5C69,455.2,69,455,69,454.8z"/>
		<path class="st4" d="M30.4,424.2c0-0.6,0-1.1,0.1-1.7c0.3-2.1,0.9-4.1,1.8-6c1.4-2.8,3.3-5.3,5.7-7.3c2.9-2.5,6.2-4.5,9.8-5.8
			c3.6-1.2,7.4-1.9,11.2-1.9c3.1-0.1,6.2,0.1,9.2,0.5c2.6,0.3,4.7,0.6,6.2,0.8l1.7,0.3c0.2,0,0.4,0.1,0.6,0.1c-0.2,0-0.4,0-0.6,0
			l-1.7-0.2c-1.5-0.2-3.6-0.4-6.2-0.7c-3-0.3-6.1-0.4-9.2-0.4c-3.7,0.1-7.5,0.7-11,1.9c-3.5,1.2-6.8,3.2-9.6,5.6
			c-2.3,2-4.2,4.4-5.6,7.1c-1,1.8-1.6,3.8-2,5.8c-0.2,1.4-0.3,2.3-0.3,2.3C30.4,424.6,30.4,424.4,30.4,424.2z"/>
		<path class="st4" d="M138.6,395.9l1.6,0.1l6,0.3l19.8,1.1c7.7,0.4,14.8,0.7,19.8,0.9l6,0.1h1.6c0.2,0,0.4,0,0.6,0
			c-0.2,0-0.4,0.1-0.6,0.1h-1.6c-1.4,0-3.5,0-6,0c-5.1-0.1-12.1-0.3-19.9-0.7s-14.8-0.9-19.8-1.3l-6-0.5L138.6,395.9
			c-0.2,0-0.4,0-0.6-0.1C138.2,395.8,138.4,395.8,138.6,395.9z"/>
		<g class="st9">
			<path d="M149.2,386.3c-0.6,8.3-8,16.4-16.1,18.6s-17.3-0.2-22.1-7.1c6.2,2.3,14.9,1.9,21.2,0C138.5,396,145.3,391.6,149.2,386.3z
				"/>
		</g>
		<path class="st4" d="M81.6,391.3l1.5,0.2l5.4,0.8c4.6,0.7,10.9,1.6,17.9,2.5s13.3,1.5,17.9,1.9l5.4,0.5l1.5,0.1
			c0.2,0,0.3,0,0.5,0.1c-0.2,0-0.3,0-0.5,0h-1.5c-1.3-0.1-3.2-0.2-5.5-0.3c-4.6-0.3-11-0.9-18-1.7s-13.3-1.8-17.9-2.6
			c-2.3-0.4-4.1-0.7-5.4-1L81.6,391.3c-0.2,0-0.4,0-0.5-0.1C81.3,391.3,81.5,391.3,81.6,391.3z"/>
		<g class="st9">
			<path d="M91.7,347.5l-13.6,52c-0.4,1.6-0.6,3.9,0.9,4.6c1.1,0.4,2.3,0.1,3-0.8s1.1-1.9,1.3-3c4.9-17.5,9.8-35.5,8.2-53.6"/>
		</g>
		<path class="st1" d="M344.9,364c0-2.1-1.8-3.9-3.9-3.8l-136.3,1.5c-1.8,0-3.4,1.3-3.8,3.1l-19,93.8H146c-2,0-3.6,1.6-3.6,3.6l0,0
			c0,2,1.6,3.6,3.6,3.6h178.4l20.5-100.9C344.8,364.5,344.9,364.2,344.9,364z"/>
		<path class="st5" d="M344.8,363.6c-0.1-1.2-0.8-2.3-1.9-2.9c-0.4-0.2-0.7-0.4-1.1-0.5c-0.5-0.1-0.9-0.1-1.4-0.1h-3.2l-8,0.1
			l-51.6,0.6l-35.9,0.4l-20.1,0.2l-10.6,0.1l-5.4,0.1c-0.4,0-0.9,0-1.3,0c-0.4,0-0.8,0.2-1.2,0.4c-0.8,0.4-1.4,1-1.7,1.8
			c-0.2,0.4-0.3,0.8-0.4,1.3l-0.3,1.4c-0.2,0.9-0.4,1.8-0.6,2.7c-0.4,1.8-0.7,3.7-1.1,5.5l-2.3,11.4c-1.5,7.6-3.1,15.3-4.7,23.2
			c-3.2,15.8-6.6,32.2-10,49.2v0.2h-35.6c-0.4,0-0.9,0-1.3,0.1c-0.8,0.2-1.5,0.7-2,1.4c-0.1,0.1-0.1,0.2-0.2,0.3
			c-0.9,1.6-0.3,3.6,1.3,4.5c0.5,0.2,1,0.4,1.5,0.4h94.8h83.8l-0.2,0.2l15.1-73.7c1.8-8.7,3.2-15.5,4.1-20.1l1.1-5.2
			c0.2-1.2,0.4-1.8,0.4-1.8s-0.1,0.6-0.3,1.8s-0.5,3-1,5.3c-0.9,4.6-2.3,11.4-4.1,20.2c-3.5,17.5-8.6,42.7-14.9,73.7v0.1h-0.1h-83.8
			h-48.3h-46.5c-0.6,0-1.2-0.2-1.7-0.5c-0.1-0.1-0.2-0.1-0.3-0.2c-1.7-1.2-2.2-3.6-1-5.3c0.5-0.8,1.4-1.4,2.3-1.7
			c0.5-0.1,0.9-0.1,1.4-0.1h35.3l-0.2,0.2c3.4-17,6.8-33.4,10-49.2c1.6-7.9,3.2-15.7,4.7-23.2l2.3-11.2c0.4-1.8,0.8-3.7,1.1-5.5
			c0.2-0.9,0.4-1.8,0.5-2.7l0.3-1.4c0.1-0.5,0.2-0.9,0.4-1.4c0.4-0.9,1.1-1.6,2-2c0.4-0.2,0.9-0.4,1.4-0.4s0.9,0,1.4,0h5.4l10.6-0.1
			l20.1-0.2l35.9-0.4l51.5-0.5l8-0.1h3.2c0.5,0,0.9,0,1.4,0.1c0.4,0.1,0.8,0.2,1.2,0.5C344,361.3,344.7,362.3,344.8,363.6
			c0.1,0.3,0.1,0.6,0.1,0.9c0,0.1,0,0.2-0.1,0.3C344.8,364.4,344.8,364,344.8,363.6z"/>
		<path class="st7" d="M262.6,411c0-3.3,2.6-5.9,5.9-5.9s5.9,2.6,5.9,5.9s-2.6,5.9-5.9,5.9S262.6,414.3,262.6,411L262.6,411z"/>
		<path class="st5" d="M344,365.7h-1.8l-6.9,0.1l-25.5,0.3l-84.2,0.7l-12.2,0.1h-3c-0.5,0-1,0-1.4,0.1c-0.5,0.1-0.9,0.2-1.3,0.5
			c-0.8,0.5-1.4,1.3-1.6,2.2c-0.2,0.9-0.4,1.9-0.6,2.8c-1.5,7.6-3,14.9-4.4,21.9l-7.4,37.1c-2.1,10.5-3.9,19.1-5.1,25
			c-0.6,2.9-1.1,5.2-1.4,6.8c-0.2,0.8-0.3,1.4-0.4,1.8s-0.1,0.6-0.1,0.6s0-0.2,0.1-0.6s0.2-1,0.3-1.8c0.3-1.6,0.8-3.9,1.3-6.8
			l4.9-25c2.1-10.6,4.6-23.1,7.3-37.1c1.4-7,2.8-14.3,4.4-21.9c0.2-1,0.4-1.9,0.6-2.9c0.3-1,0.9-1.9,1.8-2.5
			c0.4-0.3,0.9-0.5,1.4-0.6s1-0.1,1.5-0.1h3l12.2-0.1l84.1-0.6l25.5-0.1h8.7c0.4,0,0.6,0,0.6,0L344,365.7z"/>
		<path class="st5" d="M136.9,234.9c-3.1,9.1-6.3,18.2-9.4,27.3c-13.8-12.9-21.5-31-21.1-49.9"/>
		<path class="st5" d="M192.6,177.3L130,250.2c-6.8-1.6-20.7-6.4-23.6-12.8c-3.2-6.9-6.1-26-5.7-33.6c0.6-9.5,6.4-21.6,12.2-29
			c3.2-4,7.7-6.9,12.2-9.5c8-4.6,16.4-8.7,25.4-10.5s18.8-1.2,26.9,3.2C184.8,162.2,190.3,169.1,192.6,177.3z"/>
		<path class="st5" d="M206,207.9c0.7,9.7-12.2,34.2-17.7,42.2c-4.7-20.7-6.9-65.4-15.1-84.9l15,2.7
			C206,166.2,205.4,198.2,206,207.9z"/>
		<path class="st10" d="M116.9,200.8l7.7,89.5l37.3,51.5l11.6-47.9c0-7.3,0-19.2,0-19.2s19.2-3.2,23.1-28.2c2-12.4,1.3-30,0.2-46.7
			c-1-15-11-33.4-25.9-31.8l-34.6,8.8c-11.1,2.8-18.5,12.2-19.3,23.6C117,201,116.9,200.3,116.9,200.8z"/>
		<path class="st5" d="M189.3,218.6c-0.1-1.7-1.6-2.9-3.3-2.8c-1.7,0.1-3.1,1.5-3.1,3.2c0,0,0,0,0,0.1c0.1,1.7,1.6,3,3.3,2.8
			C187.9,221.8,189.3,220.4,189.3,218.6L189.3,218.6z"/>
		<path class="st5" d="M191.8,207.8c-1.5-1-3.2-1.6-5-1.6s-3.6,0.5-5.1,1.6c-1.1,0.8-1.5,1.6-1.3,1.8c0.4,0.4,2.9-1.3,6.4-1.3
			s5.9,1.8,6.3,1.4C193.2,209.4,192.9,208.6,191.8,207.8z"/>
		<path class="st5" d="M159.2,218.6c-0.1-1.7-1.6-2.9-3.3-2.8c-1.7,0.1-3.1,1.5-3.1,3.2v0.1c0.1,1.7,1.6,2.9,3.3,2.8
			C157.8,221.8,159.2,220.4,159.2,218.6L159.2,218.6z"/>
		<path class="st5" d="M159,207.8c-1.5-1-3.2-1.6-5-1.6s-3.6,0.6-5.1,1.6c-1.1,0.8-1.5,1.6-1.3,1.8c0.4,0.4,2.9-1.3,6.4-1.3
			s5.9,1.8,6.3,1.4C160.5,209.4,160.1,208.6,159,207.8z"/>
		<path class="st5" d="M176.7,236.6c0.5,0,1-0.1,1.5-0.2c0.7-0.2,1.2-0.7,1.5-1.3c0.3-1.2,0.1-2.4-0.5-3.5c-0.8-2.1-1.6-4.4-2.5-6.7
			c-3.6-9.5-6.9-17.1-7.3-17s2.2,8,5.9,17.5c0.9,2.3,1.8,4.6,2.6,6.7c0.5,0.8,0.7,1.7,0.6,2.6c-0.1,0.6-1,0.8-1.9,0.9
			c-3.5,0.4-5.6,0.8-5.6,1C171.1,236.9,173.2,236.8,176.7,236.6z"/>
		<path class="st11" d="M173.5,274.7v5.9c-25,2.4-33.2-14.8-33.2-14.8C150.4,271.8,161.9,274.9,173.5,274.7z"/>
		<path class="st5" d="M157.1,195.4c-2-0.7-4.1-1-6.1-0.7c-2.1,0.2-4.1,0.9-5.8,2c-1.3,0.9-1.9,1.8-1.6,2.2c0.5,0.8,3.8-0.3,7.9-0.8
			s7.5-0.1,7.8-1C159.3,196.6,158.6,195.9,157.1,195.4z"/>
		<path class="st5" d="M190.8,197c-2.8-2-6.5-2.1-9.4-0.3c-1,0.8-1.4,1.5-1.2,1.9c0.6,0.8,3,0.2,5.8,0.3s5.2,0.8,5.8,0.1
			C192.2,198.6,191.8,197.8,190.8,197z"/>
		<path class="st5" d="M190,176.9c1.8-4.2-1.7-7.3-5-10.4c-5.8-5.2-13.2-8.1-20.9-8.3c-7.7-0.1-15.3,1.8-22,5.7
			c-10.2,5.7-18.1,15-23.9,25.1c-1.3,1.9-2,4.1-2.3,6.4c-0.1,2.2,0.8,4.5,0.2,6.7c-0.6,2.5-2.9,4.1-4.1,6.4
			c-1.7,2.9-1.5,6.6-0.4,9.8c1.3,3.1,3,6,5.1,8.6c-1.7-3.9,0.3-8.5,3.4-11.4s7.8-0.9,11.4-3.1c14.7-8.9,22.4-29.7,37.3-38.3
			c3.5-2,7.5-3.6,11.5-3.4S188.5,173.2,190,176.9"/>
		<path class="st10" d="M120.4,237.4c0,0.4-13.6,3-13.5-10.4c0.2-13.9,13.2-9.2,13.5-8.4C120.4,218.6,120.4,237,120.4,237.4z"/>
		<path class="st11" d="M115.8,232.9c-0.6,0.4-1.4,0.6-2.1,0.3c-1.9-0.6-3.3-3.1-3.4-5.9c0-1.3,0.3-2.6,0.9-3.7
			c0.4-1.1,1.3-1.9,2.5-2.1c0.5-0.1,0.9,0.1,1.3,0.4c0.3,0.2,0.4,0.5,0.5,0.8c0.1,0.6-0.1,0.8-0.2,0.8s0-0.3-0.2-0.7
			c-0.2-0.5-0.8-0.8-1.4-0.6c-0.9,0.3-1.5,0.9-1.8,1.8c-0.5,1.1-0.7,2.2-0.7,3.4c0,2.4,1.2,4.7,2.6,5.2c0.6,0.2,1.2,0.2,1.8,0
			c0.4-0.2,0.6-0.3,0.6-0.3C116.3,232.3,116.3,232.6,115.8,232.9z"/>
		<path class="st8" d="M115.8,211.1c0.5-0.4,1.3-0.8,2.2-1.5c2.6-2,5-4.3,7.1-6.7c3.1-3.7,6-7.6,8.8-11.6c3.3-5,7-9.7,11.1-14
			c2.2-2.2,4.7-4.1,7.3-5.8c2.5-1.5,5.1-2.7,7.9-3.5c4.7-1.5,9.6-2,14.5-1.6c3.3,0.2,6.5,0.9,9.6,2.1c0.8,0.3,1.7,0.6,2.5,1
			c0.3,0.1,0.6,0.3,0.8,0.4c-0.3-0.1-0.6-0.2-0.9-0.3c-0.6-0.2-1.4-0.6-2.5-0.9c-3.1-1-6.3-1.7-9.6-1.9c-4.8-0.3-9.7,0.3-14.3,1.8
			c-2.7,0.9-5.3,2-7.7,3.5c-2.6,1.6-5,3.5-7.2,5.7c-4.1,4.3-7.8,8.9-11.1,13.8c-2.7,4-5.7,7.9-8.9,11.6c-2.2,2.5-4.6,4.7-7.3,6.6
			C117.2,210.4,116.4,210.9,115.8,211.1c-0.2,0.2-0.5,0.4-0.7,0.5C115.3,211.4,115.6,211.3,115.8,211.1z"/>
		<path class="st4" d="M115.4,234.9c1.1,0.5,1.7,1.7,1.5,2.9c-0.3,1.4-1.6,2.4-3.1,2.1c-1.4-0.3-2.4-1.6-2.1-3.1
			c0.3-1.4,1.6-2.4,3.1-2.1"/>
		<path class="st5" d="M116,235.1c0.5,0.4,0.8,0.9,1,1.4c0.3,0.9,0.1,1.9-0.5,2.6c-0.5,0.6-1.3,1-2.1,1.1c-1.6,0.1-3-1.1-3.1-2.7
			c-0.1-0.9,0.3-1.9,1.1-2.4c0.5-0.4,1.1-0.6,1.7-0.6c0.4,0,0.6,0.1,0.6,0.1c-0.7,0-1.4,0.3-2,0.8s-0.9,1.2-0.8,2
			c0.1,0.6,0.4,1.2,0.8,1.6c1,0.8,2.5,0.7,3.3-0.3c0.5-0.6,0.7-1.4,0.5-2.1c-0.2-0.7-0.6-1.3-1.2-1.8
			C115.4,234.8,115.6,234.9,116,235.1z"/>
		<path class="st5" d="M136,196.3c-1.4,8.6-1.9,17.2-3.2,25.8c-0.4,3-1.2,6.3-3.8,7.8c-3.2,1.8-7.5-0.4-9.2-3.7s-1.5-7.2-1.3-10.8
			L136,196.3z"/>
		<path class="st8" d="M185.8,170.3c-0.8-0.2-1.7-0.3-2.5-0.4c-3.1-0.2-6.2,0.3-9.1,1.4c-2,0.7-3.9,1.7-5.7,2.9
			c-2,1.3-4,2.8-5.9,4.4c-4.3,3.6-8.1,7.7-11.4,12.2c-1.7,2.4-3.2,4.9-4.9,7.2c-1.5,2.2-3.3,4.2-5.3,6c-3.4,3-7.2,5.5-11.2,7.7
			c-3.4,1.9-6.2,3.2-8.2,4.2l-2.2,1.1c-0.3,0.1-0.5,0.3-0.8,0.4c0.3-0.1,0.6-0.2,0.8-0.3l2.3-1c2-0.9,4.9-2.2,8.3-4
			c4.1-2.1,7.9-4.7,11.4-7.6c2-1.8,3.8-3.8,5.4-6.1c1.6-2.3,3.2-4.8,4.9-7.2c3.3-4.5,7-8.6,11.3-12.2c1.8-1.6,3.8-3.1,5.8-4.4
			c1.8-1.2,3.6-2.1,5.6-2.9c2.8-1.1,5.9-1.7,8.9-1.6c2.1,0.1,3.3,0.4,3.3,0.3C186.4,170.4,186.1,170.3,185.8,170.3z"/>
		<path class="st8" d="M116.9,207.7l-3.5,1.8c-0.7,0.5-1.6,0.8-2.4,1c-0.4,0-0.8-0.2-0.8-0.6c0.1-0.5,0.3-0.9,0.6-1.3l4-6.3l1.1-1.7
			l-1.6,1.2c-1.2,0.9-2.6,1.6-4.1,2s-3,0.6-4.6,0.6c-0.7,0-1.5-0.2-1.6-0.6s0.3-1,0.8-1.4c1.8-1.8,3.3-3.8,4.6-6
			c0.8-1.5,1.5-3,2-4.7c0.2-0.6,0.4-1.2,0.4-1.8c-0.8,2.1-1.8,4.2-2.9,6.2c-1.3,2.1-2.8,4.1-4.6,5.8c-0.3,0.3-0.5,0.5-0.8,0.8
			c-0.3,0.4-0.4,0.9-0.2,1.4c0.2,0.4,0.6,0.8,1,0.9c0.4,0.1,0.8,0.2,1.2,0.2c3.3,0.2,6.5-0.8,9.1-2.7l-0.5-0.5l-4,6.3
			c-0.4,0.5-0.6,1.1-0.6,1.7c0,0.4,0.2,0.7,0.5,0.9s0.6,0.2,0.9,0.2c0.5,0,1-0.2,1.5-0.5l1.1-0.6l3.4-2c0.4-0.2,0.8-0.5,1.2-0.8
			C117.7,207.3,117.3,207.5,116.9,207.7z"/>
		<path class="st11" d="M160.6,248.2c2,0.8,4.3,0.4,5.8-1.2l0.1-0.3c0.5-1.5,0.5-3.1-0.2-4.5s-2.1-2.4-3.6-2.6
			c-2.2-0.1-4.1,1.3-4.6,3.4C157.5,245.1,158.6,247.3,160.6,248.2z"/>
		<path class="st5" d="M166.6,247.7c-2-0.1-3.8-1-5.1-2.5c-1.4-1.5-2.2-3.5-2.2-5.5c0-1.6,0.4-2.4,0.6-2.4c0.5,0,0.3,3.7,2.9,6.6
			s6.1,2.7,6.1,3.2C168.9,247.3,168,247.8,166.6,247.7z"/>
		<path class="st4" d="M51.5,459.1h0.7l2.7,0.1l9.9,0.5c8.3,0.4,19.8,0.9,32.5,1.1s24.2,0.1,32.5,0l9.9-0.2h2.7h0.7h0.2H143h-0.7
			l-2.7,0.1c-2.3,0.1-5.7,0.2-9.9,0.3c-8.3,0.2-19.8,0.3-32.5,0.1S73,460.4,64.7,460c-4.2-0.2-7.5-0.5-9.8-0.7l-2.7-0.2L51.5,459.1
			c-0.1-0.1-0.2-0.1-0.2-0.1L51.5,459.1z"/>
	</g>
</g>
<g>
	<path class="st6" d="M339.7,157c-3.2,2.7-6.3,5.2-9.3,7.8c-0.9,0.8-1.4,0.8-2.3,0c-1.9-1.7-4-3.4-6-5c-0.4-0.3-0.7-0.6-0.7-1.2
		c0-3.6,0-7.1,0-11c2.2,1.8,4.2,3.5,6.2,5.2c1.6,1.3,1.6,1.3,3.2,0c5.4-4.5,10.9-9,16.3-13.6c0.5-0.4,0.9-0.8,1.4-1.1
		c0.3,0.4,0.2,0.8,0.2,1.2c0,12.9,0,25.8,0,38.7c0,1.1-0.2,1.6-1.4,1.5c-2.1-0.1-4.3-0.1-6.4,0c-1,0-1.2-0.2-1.2-1.2
		c0-6.7,0-13.4,0-20.1C339.7,157.7,339.7,157.5,339.7,157z"/>
	<path d="M309.9,137.9c2.8,2.3,5.5,4.6,8.3,6.9c0.6,0.5,0.5,1.1,0.5,1.6c0,7.5,0,15,0,22.5c0,1.2,0.3,1.4,1.5,1.4
		c4.9-0.1,9.8,0,14.7-0.1c1.2,0,1.4,0.4,1.4,1.4c-0.1,2.2,0,4.4,0,6.6c0,0.7-0.1,1.1-1,1.1c-8.2,0-16.4,0-24.6,0
		c-0.8,0-0.9-0.2-0.9-1c0-13.4,0-26.8,0-40.2C309.7,138.1,309.8,138.1,309.9,137.9z"/>
</g>
</svg>
