<?xml version="1.0" encoding="utf-8"?>
<!-- Generator: Adobe Illustrator 25.0.0, SVG Export Plug-In . SVG Version: 6.00 Build 0)  -->
<svg version="1.1" id="Layer_1" xmlns="http://www.w3.org/2000/svg" xmlns:xlink="http://www.w3.org/1999/xlink" x="0px" y="0px"
	 viewBox="0 0 1920 1080" style="enable-background:new 0 0 1920 1080;" xml:space="preserve">
<style type="text/css">
	.st0{fill:#17A2B7;}
</style>
<path class="st0" d="M456.5,523.4c-42.2,35.1-82.9,67.9-122.4,102.3c-11.7,10.2-18.4,10.3-29.8,0c-25.4-22.9-52.2-44.2-78.6-66
	c-5.3-4.4-9.4-8.3-9.4-16.4c0.4-47,0.2-93.9,0.2-144.9c29,24,55.5,45.9,81.9,67.9c20.8,17.3,20.7,17.4,42-0.2
	c71.5-59.4,142.9-118.7,214.4-178.1c6-5,12.2-9.8,18.5-15c4.6,5.5,2.4,11.1,2.4,16.2c0.2,169.4-0.1,338.8,0.5,508.2
	c0,14.5-2.4,20.4-18.5,19.5c-28.1-1.5-56.3-1.1-84.4-0.1c-12.8,0.5-16.3-3-16.2-16c0.6-88.1,0.3-176.1,0.2-264.2
	C457.2,533.1,456.9,529.7,456.5,523.4z"/>
<path d="M65.4,272.8c36.7,30.5,72.7,60.8,109.2,90.4c7.9,6.4,6.4,13.8,6.4,21.5c0.1,98.4,0.4,196.9-0.3,295.3
	c-0.1,15.6,4.5,18.9,19.3,18.7c64.2-0.9,128.4,0.2,192.6-0.8c15.3-0.2,18.3,4.7,17.8,18.5c-1,28.7-0.6,57.5-0.1,86.2
	c0.2,9.6-1.4,14.1-12.8,14c-107.6-0.4-215.2-0.3-322.9,0c-9.8,0-12.2-3.2-12.2-12.6c0.3-176.1,0.3-352.2,0.4-528.3
	C62.9,275.4,63.5,275,65.4,272.8z"/>
<path d="M748.4,440.5h64.9v31.3H708.9V274.9h39.5V440.5z"/>
<path d="M837.7,351c6.3-12.2,14.9-21.6,25.7-28.2s22.9-9.9,36.2-9.9c11.7,0,21.9,2.4,30.6,7c8.8,4.7,15.8,10.6,21,17.8v-22.3h39.8
	v156.3h-39.8v-22.9c-5.1,7.3-12.1,13.4-21,18.2c-8.9,4.8-19.2,7.2-30.9,7.2c-13.2,0-25.2-3.4-36-10.2c-10.8-6.8-19.4-16.3-25.7-28.6
	c-6.3-12.3-9.5-26.5-9.5-42.5C828.3,377.3,831.4,363.3,837.7,351z M945.7,369c-3.8-6.9-8.8-12.1-15.2-15.8
	c-6.4-3.7-13.3-5.5-20.6-5.5c-7.3,0-14.1,1.8-20.3,5.4c-6.2,3.6-11.2,8.8-15.1,15.7c-3.9,6.9-5.8,15-5.8,24.4
	c0,9.4,1.9,17.6,5.8,24.7c3.8,7,8.9,12.5,15.2,16.2c6.3,3.8,13,5.6,20.2,5.6c7.3,0,14.2-1.8,20.6-5.5c6.4-3.7,11.5-8.9,15.2-15.8
	c3.8-6.9,5.6-15.1,5.6-24.7C951.3,384.1,949.4,375.8,945.7,369z"/>
<path d="M1177.3,315.5v156.3h-39.8V452c-5.1,6.8-11.7,12.1-19.9,15.9s-17.1,5.8-26.7,5.8c-12.2,0-23-2.6-32.4-7.8
	c-9.4-5.2-16.8-12.8-22.2-22.9s-8-22-8-36v-91.7h39.5v86c0,12.4,3.1,22,9.3,28.6c6.2,6.7,14.7,10,25.4,10c10.9,0,19.5-3.3,25.7-10
	c6.2-6.7,9.3-16.2,9.3-28.6v-86H1177.3z"/>
<path d="M1348,330.9c11.5,11.8,17.2,28.2,17.2,49.2v91.7h-39.5v-86.3c0-12.4-3.1-22-9.3-28.6c-6.2-6.7-14.7-10-25.4-10
	c-10.9,0-19.5,3.3-25.8,10c-6.3,6.7-9.4,16.2-9.4,28.6v86.3h-39.5V315.5h39.5V335c5.3-6.8,12-12.1,20.2-15.9
	c8.2-3.9,17.2-5.8,26.9-5.8C1321.4,313.2,1336.5,319.1,1348,330.9z"/>
<path d="M1402,351c6.3-12.2,14.9-21.6,25.8-28.2c10.9-6.6,23-9.9,36.4-9.9c10.2,0,19.8,2.2,29.1,6.6c9.2,4.4,16.6,10.3,22,17.6V263
	h40.1v208.8h-40.1v-23.1c-4.9,7.7-11.8,13.9-20.6,18.6c-8.8,4.7-19.1,7-30.8,7c-13.2,0-25.2-3.4-36.1-10.2
	c-10.9-6.8-19.5-16.3-25.8-28.6c-6.3-12.3-9.4-26.5-9.4-42.5C1392.6,377.3,1395.7,363.3,1402,351z M1509.9,369
	c-3.8-6.9-8.8-12.1-15.2-15.8c-6.4-3.7-13.3-5.5-20.6-5.5s-14.1,1.8-20.3,5.4c-6.2,3.6-11.2,8.8-15.1,15.7c-3.9,6.9-5.8,15-5.8,24.4
	c0,9.4,1.9,17.6,5.8,24.7c3.8,7,8.9,12.5,15.2,16.2c6.3,3.8,13,5.6,20.2,5.6c7.3,0,14.2-1.8,20.6-5.5c6.4-3.7,11.5-8.9,15.2-15.8
	c3.8-6.9,5.6-15.1,5.6-24.7C1515.6,384.1,1513.7,375.8,1509.9,369z"/>
<path d="M1653.4,320.3c8.2-4.7,17.5-7,28.1-7v41.5H1671c-12.4,0-21.8,2.9-28.1,8.8c-6.3,5.8-9.4,16-9.4,30.5v77.9H1594V315.5h39.5
	v24.3C1638.6,331.5,1645.2,325,1653.4,320.3z"/>
<path d="M1857.5,315.5l-96.8,230.2h-42l33.9-77.9l-62.6-152.4h44.3l40.3,109.2l40.9-109.2L1857.5,315.5L1857.5,315.5z"/>
<path d="M923.6,613.4v196.9h-39.5V682.3l-52.8,128.1h-29.9l-53-128.1v128.1h-39.5V613.4h44.9l62.6,146.4l62.6-146.4H923.6z"/>
<path d="M991.3,802.9c-12-6.7-21.5-16.1-28.4-28.4c-6.9-12.2-10.3-26.3-10.3-42.3s3.5-30.1,10.6-42.3c7-12.2,16.7-21.7,28.9-28.4
	c12.2-6.7,25.9-10,40.9-10c15.1,0,28.7,3.3,40.9,10c12.2,6.7,21.9,16.1,28.9,28.4s10.6,26.3,10.6,42.3c0,16-3.6,30.1-10.9,42.3
	c-7.2,12.2-17,21.7-29.3,28.4c-12.3,6.7-26.1,10-41.3,10C1016.9,812.9,1003.4,809.6,991.3,802.9z M1052.2,773.3
	c6.3-3.5,11.3-8.7,15.1-15.7c3.8-7,5.6-15.4,5.6-25.4c0-14.9-3.9-26.3-11.7-34.3c-7.8-8-17.3-12-28.6-12c-11.3,0-20.7,4-28.4,12
	c-7.6,8-11.4,19.4-11.4,34.3c0,14.9,3.7,26.3,11.1,34.3c7.4,8,16.8,12,28.1,12C1039.1,778.5,1045.8,776.8,1052.2,773.3z"/>
<path d="M1235.1,810.4l-53-66.6v66.6h-39.5V601.6h39.5v118.8l52.5-66.3h51.3l-68.8,78.4l69.4,77.9H1235.1z"/>
<path d="M1346.8,601.6v208.8h-39.5V601.6H1346.8z"/>
<path d="M1529.9,744.1h-114.3c0.9,11.3,4.9,20.1,11.8,26.5c7,6.4,15.5,9.6,25.7,9.6c14.7,0,25.1-6.3,31.3-18.9h42.6
	c-4.5,15-13.2,27.4-26,37.1c-12.8,9.7-28.5,14.5-47.1,14.5c-15.1,0-28.5-3.3-40.5-10c-11.9-6.7-21.3-16.1-27.9-28.4
	c-6.7-12.2-10-26.3-10-42.3c0-16.2,3.3-30.4,9.9-42.6c6.6-12.2,15.8-21.6,27.7-28.2s25.5-9.9,40.9-9.9c14.9,0,28.2,3.2,39.9,9.6
	c11.8,6.4,20.9,15.5,27.4,27.2s9.7,25.2,9.7,40.5C1531.1,734.5,1530.7,739.6,1529.9,744.1z M1490.2,717.5
	c-0.2-10.2-3.9-18.3-11-24.4c-7.2-6.1-15.9-9.2-26.2-9.2c-9.8,0-18,3-24.7,8.9c-6.7,5.9-10.8,14.2-12.3,24.7L1490.2,717.5
	L1490.2,717.5z"/>
<path d="M1605.8,686.5v75.6c0,5.3,1.3,9.1,3.8,11.4s6.8,3.5,12.8,3.5h18.3v33.3H1616c-33.3,0-49.9-16.2-49.9-48.5v-75.3h-18.6v-32.5
	h18.6v-38.7h39.8v38.7h35v32.5L1605.8,686.5L1605.8,686.5z"/>
</svg>
