<?xml version="1.0" encoding="utf-8"?>
<!-- Generator: Adobe Illustrator 25.0.0, SVG Export Plug-In . SVG Version: 6.00 Build 0)  -->
<svg version="1.1" id="Layer_1" xmlns="http://www.w3.org/2000/svg" xmlns:xlink="http://www.w3.org/1999/xlink" x="0px" y="0px"
	 viewBox="0 0 1080 1080" style="enable-background:new 0 0 1080 1080;" xml:space="preserve">
<style type="text/css">
	.st0{fill:#00A8AB;}
	.st1{fill:#039191;}
	.st2{fill:#17A2B7;}
</style>
<path d="M-378.1,1150.7h-703.5c-41.3,0-74.8-33.5-74.8-74.8V372.5c0-41.3,33.5-74.8,74.8-74.8h703.5c41.3,0,74.8,33.5,74.8,74.8
	V1076C-303.4,1117.3-336.8,1150.7-378.1,1150.7z"/>
<path class="st0" d="M-729.8,514.7c-155.2,0-281.1,125.8-281.1,281.1s125.8,281.1,281.1,281.1s281-125.9,281-281.1
	S-574.6,514.7-729.8,514.7z M-729.8,1024.8c-126.5,0-229-102.5-229-229s102.5-229,229-229s229,102.5,229,229
	S-603.4,1024.8-729.8,1024.8z"/>
<path class="st0" d="M-529.8,795.8c0,110.5-89.6,200-200,200c-103.9,0-189.3-79.2-199.1-180.5c-0.6-6.4-1-13-1-19.6
	c0-110.5,89.6-200,200-200c97.8,0,179.3,70.3,196.6,163.1C-531,770.8-529.8,783.2-529.8,795.8z"/>
<path class="st1" d="M-529.8,795.8c0,110.5-89.6,200-200,200c-103.9,0-189.3-79.2-199.1-180.5c10.3-7.3,22.8-13.5,37.4-16.4
	c34-6.7,52.7,10.5,80.3,16.8c75.8,17.4,120.5-68.8,182.1-45c25.9,10,35.1,31.8,56.9,27.9c18.8-3.4,31.2-23.1,39-39.9
	C-531,768.9-529.8,781.5-529.8,795.8z"/>
<circle class="st1" cx="-789.5" cy="778.5" r="19.7"/>
<circle class="st1" cx="-769.8" cy="737.4" r="6.6"/>
<circle class="st1" cx="-616" cy="704.4" r="6.6"/>
<circle class="st1" cx="-814" cy="730.8" r="14.6"/>
<circle class="st1" cx="-604.9" cy="745.4" r="14.6"/>
<g>
	<path class="st2" d="M772,503.6c-71.4,59.4-140.3,115-207,173c-19.8,17.2-31.2,17.4-50.5,0c-43-38.8-88.4-74.9-133-111.7
		c-9-7.4-16-14.1-15.9-27.7c0.7-79.5,0.3-158.9,0.3-245.2c49,40.6,93.9,77.6,138.6,114.9c35.2,29.3,35.1,29.5,71.1-0.4
		c120.9-100.4,241.8-200.9,362.8-301.4c10.2-8.4,20.5-16.7,31.3-25.3c7.7,9.3,4,18.8,4,27.4c0.3,286.6-0.1,573.3,0.8,860
		c0.1,24.6-4,34.5-31.3,33c-47.5-2.5-95.2-1.9-142.8-0.2c-21.7,0.8-27.5-5.1-27.4-27c1-149,0.5-298,0.4-447
		C773.4,520.2,772.7,514.3,772,503.6z"/>
	<path d="M110.4,79.6c62.1,51.7,123,102.9,184.8,153C308.4,243.4,306,256,306,269c0.1,166.6,0.8,333.1-0.5,499.7
		c-0.2,26.5,7.5,32,32.7,31.7c108.6-1.5,217.3,0.3,325.9-1.3c25.8-0.4,30.9,8,30.1,31.3c-1.6,48.6-1.1,97.2-0.2,145.8
		c0.3,16.2-2.4,23.8-21.6,23.8c-182.1-0.7-364.2-0.6-546.3,0c-16.7,0-20.7-5.4-20.7-21.3c0.5-297.9,0.5-595.9,0.7-893.8
		C106.1,84.1,107.2,83.4,110.4,79.6z"/>
</g>
<path class="st2" d="M1900.2,404.5c-71.4,59.4-140.3,115-207,173c-19.8,17.2-31.2,17.4-50.5,0c-43-38.8-88.4-74.9-133-111.7
	c-9-7.4-16-14.1-15.9-27.7c0.7-79.5,0.3-158.9,0.3-245.2c49,40.6,93.9,77.6,138.6,114.9c35.2,29.3,35.1,29.5,71.1-0.4
	C1824.7,207,1945.6,106.5,2066.6,6c10.2-8.4,20.5-16.7,31.3-25.3c7.7,9.3,4,18.8,4,27.4c0.3,286.6-0.1,573.3,0.8,860
	c0.1,24.6-4,34.5-31.3,33c-47.5-2.5-95.2-1.9-142.8-0.2c-21.7,0.8-27.5-5.1-27.4-27c1-149,0.5-298,0.4-447
	C1901.6,421.1,1900.9,415.2,1900.2,404.5z"/>
<path d="M1238.6-19.5c62.1,51.7,123,102.9,184.8,153c13.2,10.8,10.8,23.4,10.8,36.4c0.1,166.6,0.8,333.1-0.5,499.7
	c-0.2,26.5,7.5,32,32.7,31.7c108.6-1.5,217.3,0.3,325.9-1.3c25.8-0.4,30.9,8,30.1,31.3c-1.6,48.6-1.1,97.2-0.2,145.8
	c0.3,16.2-2.4,23.8-21.6,23.8c-182.1-0.7-364.2-0.6-546.3,0c-16.7,0-20.7-5.4-20.7-21.3c0.5-297.9,0.5-595.9,0.7-893.8
	C1234.3-15,1235.4-15.7,1238.6-19.5z"/>
<rect x="1247.6" y="1062.3" class="st2" width="855.1" height="855.1"/>
</svg>
