<?xml version="1.0" encoding="utf-8"?>
<!-- Generator: Adobe Illustrator 25.0.0, SVG Export Plug-In . SVG Version: 6.00 Build 0)  -->
<svg version="1.1" id="Layer_1" xmlns="http://www.w3.org/2000/svg" xmlns:xlink="http://www.w3.org/1999/xlink" x="0px" y="0px"
	 viewBox="0 0 500 500" style="enable-background:new 0 0 500 500;" xml:space="preserve">
<style type="text/css">
	.st0{fill:#E6E6E6;}
	.st1{fill:#F5F5F5;}
	.st2{fill:#FAFAFA;}
	.st3{fill:#E0E0E0;}
	.st4{fill:#EBEBEB;}
	.st5{fill:#FFBE9D;}
	.st6{fill:#263238;}
	.st7{fill:#17A2B7;}
	.st8{opacity:0.3;enable-background:new    ;}
	.st9{fill:#EF9D78;}
	.st10{opacity:0.6;fill:#FAFAFA;enable-background:new    ;}
	.st11{opacity:0.2;enable-background:new    ;}
	.st12{opacity:0.4;fill:#FAFAFA;enable-background:new    ;}
</style>
<g id="freepik--background-complete--inject-8">
	<rect y="382.4" class="st0" width="500" height="0.2"/>
	<rect x="422.3" y="388.8" class="st0" width="23.2" height="0.2"/>
	<rect x="250.6" y="394.3" class="st0" width="110.4" height="0.2"/>
	<rect x="192.5" y="394.4" class="st0" width="10.8" height="0.2"/>
	<rect x="78" y="391.4" class="st0" width="37.6" height="0.2"/>
	<rect x="390.7" y="388.8" class="st0" width="22" height="0.2"/>
	<rect x="51.7" y="391.4" class="st0" width="18.2" height="0.2"/>
	<path class="st0" d="M237,337.8H43.9c-3.1,0-5.7-2.6-5.7-5.7V60.7c0-3.1,2.6-5.7,5.7-5.7H237c3.2,0,5.7,2.6,5.7,5.7l0,0v271.4
		C242.7,335.2,240.2,337.8,237,337.8z M43.9,55.2c-3,0-5.5,2.4-5.5,5.5v271.4c0,3,2.4,5.5,5.5,5.5H237c3,0,5.5-2.4,5.5-5.5V60.7
		c0-3-2.4-5.5-5.5-5.5H43.9z"/>
	<path class="st0" d="M453.3,337.8H260.2c-3.2,0-5.7-2.6-5.7-5.7V60.7c0-3.1,2.6-5.7,5.7-5.7h193.1c3.1,0,5.7,2.5,5.7,5.7v271.4
		C459,335.2,456.5,337.8,453.3,337.8z M260.2,55.2c-3,0-5.5,2.4-5.5,5.5v271.4c0,3,2.4,5.5,5.5,5.5h193.1c3,0,5.5-2.4,5.5-5.5V60.7
		c0-3-2.4-5.5-5.5-5.5H260.2z"/>
	<rect x="323.6" y="73.6" class="st0" width="75.6" height="131.6"/>
	<rect x="319.5" y="73.6" class="st1" width="75.6" height="131.6"/>
	<rect x="326.8" y="79.7" class="st2" width="60.9" height="119.2"/>
	<rect x="326.8" y="79.7" class="st0" width="3.1" height="119.2"/>
	<rect x="322.5" y="161.9" class="st1" width="69.5" height="8.3"/>
	<rect x="195.1" y="73.6" class="st0" width="75.6" height="131.6"/>
	<rect x="191.1" y="73.6" class="st1" width="75.6" height="131.6"/>
	<rect x="198.4" y="79.7" class="st2" width="60.9" height="119.2"/>
	<rect x="198.4" y="79.7" class="st0" width="3.1" height="119.2"/>
	<rect x="194.1" y="161.9" class="st1" width="69.5" height="8.3"/>
	<rect x="66.7" y="73.6" class="st0" width="75.6" height="131.6"/>
	<rect x="62.6" y="73.6" class="st1" width="75.6" height="131.6"/>
	<rect x="70" y="79.7" class="st2" width="60.9" height="119.2"/>
	<rect x="70" y="79.7" class="st0" width="3.1" height="119.2"/>
	<rect x="65.7" y="161.9" class="st1" width="69.5" height="8.3"/>
	<path class="st0" d="M140,286.5c-13.6,1.9-22.1-27.7,8-52.8C146.4,262.7,163.8,283.2,140,286.5z"/>
	<path class="st3" d="M130,325.3c-19.8-13.9-6.2-62.2,54.9-58.7C158.5,302.2,164.5,349.5,130,325.3z"/>
	<path class="st3" d="M137,325c13.1-14.1-5.6-49.7-52.8-36.7C110.8,311.7,114.1,349.6,137,325z"/>
	<path class="st1" d="M120.1,304.4c-4.5-5.5-9.9-11.8-8.6-18.3s4.6-11.5,2-18.5c-3.1-8.4-2.5-18.4,2.7-17.6s11.1,7,11,15.1
		c-0.1,7.9,5,10.4,9.9,14.6s6.6,10.3,7.5,16.3c1.5,9.5,13.9,7.7,17.1,16c3.4,8-3.4,18.6-14.2,21.1s-18.5,4-25.9-4.5
		C114.3,319.7,126.9,312.3,120.1,304.4z"/>
	<polygon class="st4" points="157.3,382.4 116.7,382.4 113.7,327.1 160.4,327.1 	"/>
	<rect x="110.6" y="326" class="st4" width="52.8" height="6"/>
	<rect x="396.7" y="256.4" class="st4" width="27.3" height="118.5"/>
	<rect x="182.6" y="374.9" class="st4" width="236.2" height="7.5"/>
	<rect x="177.4" y="256.4" class="st1" width="219.3" height="118.5"/>
	<rect x="188.1" y="271" class="st4" width="197.9" height="38.9"/>
	<rect x="188.1" y="321.5" class="st4" width="197.9" height="38.9"/>
	<path class="st1" d="M225.5,293.1h123.1c1.5,0,2.7-1.2,2.7-2.7l0,0c0-1.5-1.2-2.7-2.7-2.7H225.5c-1.5,0-2.7,1.2-2.7,2.7l0,0
		C222.9,291.9,224.1,293.1,225.5,293.1z"/>
	<path class="st1" d="M225.5,343.5h123.1c1.5,0,2.7-1.2,2.7-2.7l0,0c0-1.5-1.2-2.7-2.7-2.7H225.5c-1.5,0-2.7,1.2-2.7,2.7l0,0
		C222.9,342.3,224.1,343.5,225.5,343.5z"/>
	<path class="st1" d="M336.2,239.1c0,0,31.3,29.7,49.9-0.1c0,0-4.9-9.6-10.1-10.4s-5.4,8.3-10,5.5s-9.9-12.4-12.9-7.3
		s-6.9-2.2-11.3-2.6S336.2,239.1,336.2,239.1z"/>
	<path class="st4" d="M388.1,237.1c0,0-0.7,19.3-27.1,19.3s-27.1-19.3-27.1-19.3L388.1,237.1z"/>
	<path class="st1" d="M254.6,227h15.2v29.4h-44.6C225.2,240.2,238.4,227,254.6,227z"/>
	<rect x="269.8" y="227" class="st0" width="14" height="29.4"/>
</g>
<g id="freepik--Shadow--inject-8">
	<ellipse class="st1" cx="250.9" cy="417.1" rx="193.9" ry="11.3"/>
</g>
<path class="st5" d="M287.6,201l0.4,0.5l0.5,0.6c0.3,0.4,0.6,0.8,1,1.2c0.7,0.8,1.5,1.6,2.2,2.4c1.5,1.6,3.2,3,4.9,4.4
	c1.8,1.3,3.6,2.6,5.5,3.7c1,0.6,1.9,1.1,2.9,1.6l1.5,0.7l0.3,0.2l0,0h-0.1c-0.1,0-0.1,0,0.1,0c0.2-0.1,0.5-0.2,0.6-0.4
	c0.7-0.6,1.3-1.3,1.8-2c1.2-1.8,2.3-3.7,3.2-5.7c1-2.1,1.9-4.2,2.7-6.4c0.9-2.2,1.6-4.4,2.4-6.6l4.2,0.9c-0.7,4.9-1.8,9.8-3.4,14.5
	c-0.8,2.5-1.9,4.9-3.2,7.2c-0.8,1.3-1.7,2.5-2.8,3.6c-0.7,0.7-1.5,1.2-2.3,1.7c-1.1,0.6-2.2,0.8-3.4,0.9c-0.6,0-1.2-0.1-1.9-0.2
	c-0.3-0.1-0.6-0.2-0.9-0.3l-0.5-0.2l-1.8-0.7c-1.2-0.5-2.4-1.1-3.5-1.6c-2.3-1.2-4.5-2.6-6.6-4.1s-4.1-3.2-6-5
	c-0.9-0.9-1.8-1.9-2.7-2.9c-0.4-0.6-0.9-1-1.3-1.6c-0.2-0.3-0.4-0.5-0.6-0.8l-0.7-1L287.6,201z"/>
<polygon class="st6" points="296.7,208.6 291,219.6 287.3,217.3 292.4,205.2 "/>
<path class="st7" d="M273.1,204.5c0.7,4.6,15.3,16.4,15.3,16.4l6.5-15.4c-0.2-0.3-8.6-10.7-16.9-10.6
	C272.8,195,272.3,199.7,273.1,204.5z"/>
<path class="st8" d="M273.1,204.5c0.7,4.6,15.3,16.4,15.3,16.4l6.5-15.4c-0.2-0.3-8.6-10.7-16.9-10.6
	C272.8,195,272.3,199.7,273.1,204.5z"/>
<path class="st5" d="M316.7,196.6l-0.1,1.6c3,1.9,8.5-0.3,8.5-0.3l-1.2-8.8l-5.7,4.4C317.3,194.3,316.8,195.4,316.7,196.6z"/>
<polygon class="st5" points="324,189.1 325.1,197.9 331.2,195.4 331.6,188.7 "/>
<path class="st5" d="M207.9,191.7c1.4-5-4.3-7.3-4.3-7.3l-6.2,6.3l8.8,2.2L207.9,191.7z"/>
<polygon class="st5" points="197.5,190.7 203.7,184.4 193.8,182.2 193,189.1 "/>
<polygon class="st5" points="242,395.9 250.2,396.7 243.3,416.1 235.1,415.3 "/>
<polygon class="st5" points="162.6,362.3 168.6,368.2 153.1,380.3 147,374.5 "/>
<path class="st6" d="M155,380.7c-0.5,2.9-0.9,6.5,1.1,12.9c0.5,1.4-2.7,3-4.4-0.1s-4.2-8.2-5.5-10.5c-2.1-3.6-3-4.9-4.7-7.8
	c0,0,0-0.1-0.1-0.1c-0.3-0.7,0-1.5,0.7-1.8l7.1-2.7c0.3-0.1,0.7,0,0.8,0.3l4.7,8.3C155.1,379.7,155.1,380.2,155,380.7z"/>
<path class="st6" d="M246.4,414.2c2.1,2,7.8,4,14.6,5.6c1.5,0.3,0.8,4-2.9,4s-12.6-0.3-15.3-0.3c-4.4,0-6.1,0.2-9.6,0.3
	c-0.1,0-0.3,0-0.4-0.1c-0.7-0.2-1-0.9-0.8-1.5l2.2-7.9c0.1-0.4,0.4-0.6,0.8-0.6h10C245.5,413.6,246,413.8,246.4,414.2z"/>
<polygon class="st9" points="242,395.9 238.1,406.7 246.7,406.7 250.2,396.7 "/>
<polygon class="st9" points="154.5,368.6 160.6,374.5 168.6,368.2 162.6,362.3 "/>
<path class="st7" d="M273.1,191.1c-4.8-1.9-9.8-3.5-14.8-4.8c-4.7-1.2-9.5-2.1-14.4-2.7c-2.5,29.3-5.2,37.5-10,50.6l32.7,10.6
	c22.9-44.7,19.5-47.3,19.5-47.3S279.3,193.8,273.1,191.1z"/>
<path class="st8" d="M273.1,191.1c-4.8-1.9-9.8-3.5-14.8-4.8c-4.7-1.2-9.5-2.1-14.4-2.7c-2.5,29.3-5.2,37.5-10,50.6l32.7,10.6
	c22.9-44.7,19.5-47.3,19.5-47.3S279.3,193.8,273.1,191.1z"/>
<path class="st5" d="M271.8,180.8c-2.1,3.4-3.5,7.3,1.4,10.3c0,0,3.5,6.5-6.2,3.3c-8.9-2.9-8.6-8.1-8.6-8.1
	c4.4-2.1,6.3-11.1,6.9-16.2L271.8,180.8z"/>
<path class="st5" d="M277.4,199.5c-8.4,0.2-19.8-5.6-25.2-10c-1.7-2.4-2.4-4.2-2.1-4.9c2.4,0.4,5.3,1,8.2,1.8
	c5.1,1.2,10,2.9,14.9,4.8c2.9,1.2,6,2.8,8.4,4C282,196.6,281.1,198.1,277.4,199.5z"/>
<path class="st6" d="M277.4,199.5c-4,1.3-8.1,2.2-12.3,2.8c-4.9-3.6-9.2-7.9-12.9-12.8C257.7,193.9,269.1,199.7,277.4,199.5z"/>
<path class="st9" d="M266.5,177.3c-0.5,2.2,2,5.1,3.9,6c0.4-0.9,0.8-1.7,1.3-2.5l-3.9-6.3C267.3,175.3,266.8,176.3,266.5,177.3z"/>
<path class="st5" d="M264.7,155.7c3.1-5.5,10.1-7.5,15.6-4.4c7.7,4.3,7.4,16.8,4.7,24c-3,8.1-13.4,9.3-18.9,2.1
	c-3.7-4.8-3.3-8.3-2.8-16.7C263.3,159,263.8,157.3,264.7,155.7z"/>
<circle class="st6" cx="261.7" cy="142.3" r="15.4"/>
<path class="st7" d="M273.6,148.6c1.2,1.9-0.3,5.1-3.5,7.2s-6.8,2.3-8,0.4c-1.2-1.9,0.4-5.1,3.5-7.2
	C268.8,146.9,272.3,146.7,273.6,148.6z"/>
<path class="st10" d="M273.6,148.6c1.2,1.9-0.3,5.1-3.5,7.2s-6.8,2.3-8,0.4c-1.2-1.9,0.4-5.1,3.5-7.2
	C268.8,146.9,272.3,146.7,273.6,148.6z"/>
<path class="st6" d="M264,169.2c0,0-1.6-2.9-2.7-5.6s-0.2-11.4,9.8-13.7c9.4-2.1,13.5,3,14.8,6.8c1.4,4-15.5-1.5-17.1,0.1
	c0.6,2.1-2.3,7.8-1.4,9.8L264,169.2z"/>
<path class="st5" d="M261.2,166.9c0.5-1.4,2.1-2.1,3.5-1.6c1.9,0.8,2.2,3.7,1.8,5.5c-0.5,2-2.3,3.1-3.8,1.6
	c-1.1-1.2-1.7-2.7-1.7-4.4C261,167.7,261,167.3,261.2,166.9z"/>
<path class="st7" d="M238.4,235.8c0,0,15.9,74.5,12.2,102.3c-2.7,20.2-13.7,64.9-13.7,64.9l13.4,0.8c0,0,14.3-35.4,23.1-60.7
	c8.4-24.4-6.7-98.2-6.7-98.2L238.4,235.8z"/>
<path class="st10" d="M238.4,235.8c0,0,15.9,74.5,12.2,102.3c-2.7,20.2-13.7,64.9-13.7,64.9l13.4,0.8c0,0,14.3-35.4,23.1-60.7
	c8.4-24.4-6.7-98.2-6.7-98.2L238.4,235.8z"/>
<polygon class="st7" points="236.7,396.4 253.7,398.1 251.2,404.2 235.8,403.3 "/>
<polygon class="st11" points="236.7,396.4 253.7,398.1 251.2,404.2 235.8,403.3 "/>
<path class="st7" d="M243.3,261.2c1.1,6.1,2.2,12.9,3.3,19.9c4.4-9,6.3-21.9,4-30.5C248,253,245.5,256.8,243.3,261.2z"/>
<path class="st12" d="M243.3,261.2c1.1,6.1,2.2,12.9,3.3,19.9c4.4-9,6.3-21.9,4-30.5C248,253,245.5,256.8,243.3,261.2z"/>
<path class="st7" d="M233.9,234.3c-15.2,11.2-9.7,33.8-36.3,85.6c-8.3,16.2-41.6,45.7-41.6,45.7l8,8.5c0,0,44.5-25,56.5-48.8
	c14.9-29.5,37.4-83.2,37.4-83.2L233.9,234.3z"/>
<path class="st10" d="M233.9,234.3c-15.2,11.2-9.7,33.8-36.3,85.6c-8.3,16.2-41.6,45.7-41.6,45.7l8,8.5c0,0,44.5-25,56.5-48.8
	c14.9-29.5,37.4-83.2,37.4-83.2L233.9,234.3z"/>
<polygon class="st7" points="159.8,359.6 172.5,372.5 165.6,376.2 154.6,364.5 "/>
<polygon class="st11" points="159.8,359.6 172.5,372.5 165.6,376.2 154.6,364.5 "/>
<path class="st6" d="M234.7,232.1l33.1,10.7c0.3,0.1,0.5,0.4,0.4,0.6l-1.2,2.8c-0.1,0.1-0.4,0.2-0.7,0.1l-34.2-11
	c-0.4-0.1-0.6-0.4-0.4-0.6l2.4-2.4C234.2,232.1,234.4,232.1,234.7,232.1z"/>
<path class="st7" d="M237.7,237.3l1.6-3.7c0-0.1-0.1-0.3-0.2-0.3l-0.9-0.3c-0.2-0.1-0.4,0-0.4,0.1l-1.6,3.7c0,0.1,0.1,0.2,0.2,0.3
	l0.9,0.3C237.5,237.5,237.6,237.4,237.7,237.3z"/>
<path class="st10" d="M237.7,237.3l1.6-3.7c0-0.1-0.1-0.3-0.2-0.3l-0.9-0.3c-0.2-0.1-0.4,0-0.4,0.1l-1.6,3.7c0,0.1,0.1,0.2,0.2,0.3
	l0.9,0.3C237.5,237.5,237.6,237.4,237.7,237.3z"/>
<path class="st7" d="M264.1,245.8l1.6-3.7c0-0.1-0.1-0.2-0.2-0.3l-0.9-0.3c-0.2-0.1-0.4,0-0.4,0.1l-1.6,3.7c0,0.1,0.1,0.2,0.2,0.3
	l0.9,0.3C263.8,246,264,245.9,264.1,245.8z"/>
<path class="st10" d="M264.1,245.8l1.6-3.7c0-0.1-0.1-0.2-0.2-0.3l-0.9-0.3c-0.2-0.1-0.4,0-0.4,0.1l-1.6,3.7c0,0.1,0.1,0.2,0.2,0.3
	l0.9,0.3C263.8,246,264,245.9,264.1,245.8z"/>
<path class="st7" d="M250.9,241.6l1.6-3.7c0.1-0.1-0.1-0.2-0.2-0.3l-0.9-0.3c-0.2-0.1-0.4,0-0.4,0.1l-1.6,3.7c0,0.1,0.1,0.3,0.2,0.3
	l0.9,0.3C250.6,241.7,250.8,241.7,250.9,241.6z"/>
<path class="st10" d="M250.9,241.6l1.6-3.7c0.1-0.1-0.1-0.2-0.2-0.3l-0.9-0.3c-0.2-0.1-0.4,0-0.4,0.1l-1.6,3.7
	c0,0.1,0.1,0.3,0.2,0.3l0.9,0.3C250.6,241.7,250.8,241.7,250.9,241.6z"/>
<path class="st6" d="M276.5,163.5c0.4,0.1,0.7,0.6,0.6,1.3s-0.5,1.2-1,1.1c-0.4-0.1-0.7-0.7-0.6-1.3
	C275.6,163.9,276,163.4,276.5,163.5z"/>
<path class="st6" d="M284.1,164.4c0.4,0.1,0.7,0.7,0.6,1.3c-0.1,0.7-0.5,1.2-1,1.1c-0.4-0.1-0.7-0.6-0.6-1.3
	C283.3,164.8,283.7,164.3,284.1,164.4z"/>
<path class="st6" d="M285.6,164.2l-1.7,0.3C284.6,165.3,285.6,164.2,285.6,164.2z"/>
<path class="st9" d="M280.4,171.2c0.8,0.3,1.7,0.2,2.5-0.2c-0.8-1.4-1.5-3-1.9-4.6L280.4,171.2z"/>
<path class="st6" d="M277.7,173.6c-1.8-0.2-3.5-1.2-4.4-2.9l0,0c0-0.1,0-0.2,0.1-0.3l0,0c0.1,0,0.2,0,0.3,0.1
	c0.9,1.5,2.4,2.4,4.1,2.6c0.1,0,0.2,0.1,0.2,0.2C277.9,173.5,277.8,173.6,277.7,173.6L277.7,173.6z"/>
<path class="st6" d="M274.3,162.1L274.3,162.1c-0.2-0.2-0.2-0.4,0-0.6c1-0.9,2.3-1.2,3.5-0.9l0,0c0.2,0.1,0.3,0.3,0.3,0.5l0,0
	c-0.1,0.2-0.3,0.3-0.5,0.3c-1-0.2-2,0.1-2.8,0.8c-0.1,0.1-0.2,0.1-0.3,0.1C274.5,162.2,274.4,162.1,274.3,162.1z"/>
<path class="st6" d="M286.8,162.3c-0.4-0.9-1.3-1.6-2.3-1.8l0,0l0,0c-0.2,0-0.4-0.2-0.3-0.4c0-0.2,0.2-0.4,0.4-0.4
	c1.3,0.2,2.3,1,2.9,2.2c0.1,0.2,0,0.4-0.2,0.5c-0.1,0-0.1,0-0.2,0C287,162.4,286.8,162.4,286.8,162.3z"/>
<path class="st5" d="M244.4,196.3c-0.3,0.4-0.4,0.6-0.6,0.9l-0.6,0.8c-0.4,0.5-0.8,1-1.2,1.5c-0.9,0.9-1.7,1.9-2.6,2.7
	c-1.8,1.7-3.7,3.3-5.8,4.7c-2,1.4-4.1,2.7-6.3,3.9c-1.1,0.6-2.2,1.1-3.3,1.6l-1.7,0.7l-0.9,0.4c-0.4,0.1-0.7,0.3-1.1,0.4
	c-1.7,0.5-3.4,0.7-5.2,0.4s-3.4-1.1-4.8-2.4c-1.1-1-2.1-2.2-2.8-3.6c-0.7-1.2-1.2-2.4-1.6-3.7c-1.5-4.7-2.2-9.6-2.1-14.5l4.3-0.3
	c0.4,2.2,0.9,4.3,1.5,6.4c0.6,2.1,1.3,4.1,2.2,6c0.7,1.6,1.7,3,3.1,4.1c0.4,0.3,0.9,0.5,1.4,0.5c0.6,0,1.1-0.1,1.6-0.3
	c0.2-0.1,0.3-0.1,0.5-0.2l0.7-0.4l1.4-0.7c0.9-0.5,1.9-1,2.8-1.6c1.8-1.1,3.6-2.3,5.3-3.6s3.3-2.7,4.8-4.2c0.8-0.7,1.5-1.5,2.2-2.2
	c0.4-0.4,0.7-0.8,1-1.1l0.5-0.6l0.4-0.5L244.4,196.3z"/>
<polygon class="st6" points="233.7,193.9 239.5,204.4 236.4,207.3 230.2,196.8 "/>
<path class="st7" d="M248.8,194c0,4.7-9.7,13.2-9.7,13.2l-7.6-13.2c0,0,8.7-10.3,12.3-10.3C248,183.8,248.8,189.1,248.8,194z"/>
<path class="st8" d="M248.8,194c0,4.7-9.7,13.2-9.7,13.2l-7.6-13.2c0,0,8.7-10.3,12.3-10.3C248,183.8,248.8,189.1,248.8,194z"/>
<path class="st7" d="M156.1,383.6c-1-0.3-1.7-2.2-2-3.3c0-0.1,0-0.2,0.1-0.2s0.2,0,0.2,0c0.3,0.2,3,1.6,3.1,2.7
	c0,0.2-0.1,0.5-0.3,0.6c-0.2,0.2-0.5,0.3-0.8,0.3C156.3,383.7,156.2,383.7,156.1,383.6z M154.6,380.7c0.5,1.4,1.1,2.4,1.6,2.5
	c0.3,0.1,0.5,0,0.7-0.2c0.1-0.1,0.2-0.2,0.1-0.3C157,382.2,155.7,381.3,154.6,380.7L154.6,380.7z"/>
<path class="st7" d="M154.2,380.5c-0.1,0-0.1-0.1-0.1-0.2s0-0.1,0.1-0.2c0.1,0,2.2-1.2,3.4-0.8c0.3,0.1,0.5,0.3,0.6,0.6
	c0.2,0.3,0.1,0.6-0.2,0.9c-0.4,0.2-0.8,0.3-1.2,0.3C155.9,381.1,155,380.9,154.2,380.5z M157,379.6c-0.8,0.1-1.5,0.3-2.2,0.7
	c1,0.4,2.6,0.6,3.1,0.2c0-0.1,0.1-0.2,0-0.4c-0.1-0.2-0.2-0.3-0.4-0.4C157.3,379.6,157.2,379.6,157,379.6L157,379.6z"/>
<path class="st7" d="M246.7,414.8c-0.1,0-0.1-0.1-0.1-0.2s0-0.2,0.1-0.2c0.7-0.3,4.1-1.9,5-1.2c0.2,0.1,0.3,0.3,0.2,0.5
	c0,0.4-0.2,0.8-0.5,1c-0.6,0.4-1.3,0.5-2,0.5C248.5,415.2,247.6,415.1,246.7,414.8z M251,413.5c-1.3,0.2-2.5,0.6-3.7,1.1
	c1.1,0.2,3,0.4,3.8-0.2c0.2-0.2,0.3-0.4,0.4-0.7c0-0.1,0-0.1-0.1-0.2C251.3,413.5,251.1,413.5,251,413.5L251,413.5z"/>
<path class="st7" d="M246.6,414.8c-0.1-0.1-0.1-0.1-0.1-0.2s0.9-3.8,2.9-3.5c0.5,0.1,0.7,0.3,0.7,0.5c0.1,0.9-2.1,2.8-3.3,3.2H246.6
	C246.7,414.9,246.6,414.9,246.6,414.8z M249.2,411.5c-1.2,0-1.9,1.9-2.2,2.8c1.2-0.6,2.7-2.1,2.7-2.6c0-0.1-0.1-0.2-0.3-0.2
	L249.2,411.5L249.2,411.5z"/>
<path class="st6" d="M277.9,163.2l-1.7,0.3C277,164.4,277.9,163.2,277.9,163.2z"/>
<path class="st7" d="M330.7,124.7c0.5,8.3,20.8,10.8,20.8,10.8s9.3-20.2,6.7-37.7c-7.8,0.7-17.5-1.9-19.3-4.1
	C338.8,93.6,330.2,116.3,330.7,124.7z"/>
<path class="st12" d="M330.7,124.7c0.5,8.3,20.8,10.8,20.8,10.8s9.3-20.2,6.7-37.7c-7.8,0.7-17.5-1.9-19.3-4.1
	C338.8,93.6,330.2,116.3,330.7,124.7z"/>
<path class="st7" d="M190.7,117.8c-1.1,9.9-20,11.6-20,11.6s-7.1-24.6-3.2-45.4c7.1,1.3,16.3-1.2,18.1-3.8
	C185.5,80.3,191.8,107.9,190.7,117.8z"/>
<path class="st12" d="M190.7,117.8c-1.1,9.9-20,11.6-20,11.6s-7.1-24.6-3.2-45.4c7.1,1.3,16.3-1.2,18.1-3.8
	C185.5,80.3,191.8,107.9,190.7,117.8z"/>
<path class="st7" d="M318.2,259.9c-0.6-0.1-1-0.6-1-1.3L341,90.2l0,0c0.1-0.6,0.6-1,1.2-0.9l0,0l0,0c0.6,0.1,1,0.6,1,1.3L319.5,259
	l0,0C319.4,259.6,318.9,260,318.2,259.9L318.2,259.9C318.3,259.9,318.2,259.9,318.2,259.9z"/>
<path class="st11" d="M318.2,259.9c-0.6-0.1-1-0.6-1-1.3L341,90.2l0,0c0.1-0.6,0.6-1,1.2-0.9l0,0l0,0c0.6,0.1,1,0.6,1,1.3L319.5,259
	l0,0C319.4,259.6,318.9,260,318.2,259.9L318.2,259.9C318.3,259.9,318.2,259.9,318.2,259.9z"/>
<path class="st7" d="M206,246.1L182.2,77.7l0,0c-0.1-0.6-0.6-1-1.3-1l0,0l0,0c-0.6,0.1-1,0.7-0.9,1.3l23.8,168.5l0,0
	c0.1,0.6,0.6,1,1.3,1l0,0C205.7,247.3,206.1,246.7,206,246.1z"/>
<path class="st11" d="M206,246.1L182.2,77.7l0,0c-0.1-0.6-0.6-1-1.3-1l0,0l0,0c-0.6,0.1-1,0.7-0.9,1.3l23.8,168.5l0,0
	c0.1,0.6,0.6,1,1.3,1l0,0C205.7,247.3,206.1,246.7,206,246.1z"/>
<path class="st7" d="M343.2,92.4C270.8,68.9,192,77.6,180.5,79.1c-0.8,0.1-1.4,0.8-1.3,1.6c0.7,6.1,3.5,30,5.1,38.4
	c0.1,0.7,0.8,1.3,1.6,1.2c85.9-9.1,141.9,5.2,151.9,8.1c0.1,0,0.1,0,0.2,0c0.8,0.1,1.5-0.5,1.6-1.3l4.5-33.1
	C344.3,93.3,343.9,92.7,343.2,92.4z"/>
<path class="st10" d="M343.2,92.4C270.8,68.9,192,77.6,180.5,79.1c-0.8,0.1-1.4,0.8-1.3,1.6c0.7,6.1,3.5,30,5.1,38.4
	c0.1,0.7,0.8,1.3,1.6,1.2c85.9-9.1,141.9,5.2,151.9,8.1c0.1,0,0.1,0,0.2,0c0.8,0.1,1.5-0.5,1.6-1.3l4.5-33.1
	C344.3,93.3,343.9,92.7,343.2,92.4z"/>
<g>
	<path class="st2" d="M198.2,89.7l4.8-0.3l2.1,9.1l2.2-9.4l4.8-0.3l2.9,9l1.3-9.3l4.8-0.3l-2.9,16.7l-5,0.3L210,95l-2.5,10.5l-5,0.3
		L198.2,89.7z"/>
	<path class="st2" d="M223.5,88.3l13.6-0.1v3.5l-8.5,0.1v2.6l7.9-0.1v3.4l-7.9,0.1l-0.1,3.2l8.8-0.1v3.7l-13.9,0.1L223.5,88.3z"/>
	<path class="st2" d="M240.6,88.3l5.1,0.1l-0.6,12.4l7.9,0.2l-0.2,4l-13.1-0.4L240.6,88.3z"/>
	<path class="st2" d="M266.1,99.2l4.3,1.6c-0.3,1.1-0.9,2.2-1.7,3c-0.7,0.8-1.6,1.4-2.6,1.8c-1.2,0.4-2.4,0.5-3.7,0.4
		c-1.5,0-3-0.4-4.3-1.1c-1.1-0.7-2.1-1.7-2.6-2.9c-0.7-1.6-1-3.4-0.8-5.1c0.1-2.3,1-4.5,2.7-6.1c1.8-1.4,4-2.1,6.3-1.8
		c1.7,0,3.4,0.6,4.8,1.6c1.2,1.1,2,2.5,2.3,4l-4.6,0.7c-0.1-0.4-0.2-0.8-0.4-1.1c-0.3-0.4-0.6-0.7-1-1c-1.4-0.8-3.2-0.5-4.1,0.8
		c-0.6,1-1,2.1-1,3.2c-0.2,1.8,0,3.1,0.5,3.8c0.5,0.7,1.4,1.2,2.2,1.2c0.8,0.1,1.7-0.1,2.3-0.7C265.4,100.8,265.8,100.1,266.1,99.2z
		"/>
	<path class="st2" d="M272.7,98.2c0.2-2.3,1.2-4.5,3-6c1.9-1.4,4.2-2,6.5-1.6c2.3,0.1,4.5,1.1,6,2.9c1.3,1.8,1.9,4.1,1.4,6.4
		c-0.1,1.6-0.7,3.2-1.5,4.6c-0.8,1.2-1.9,2.1-3.2,2.6c-1.5,0.6-3.1,0.8-4.7,0.5c-1.6-0.1-3.1-0.6-4.5-1.4c-1.2-0.7-2.1-1.8-2.6-3.1
		C272.6,101.5,272.4,99.8,272.7,98.2z M277.7,98.7c-0.3,1.2-0.1,2.5,0.5,3.7c0.5,0.8,1.4,1.3,2.4,1.3c1,0.2,1.9-0.1,2.7-0.8
		c0.9-1.1,1.3-2.4,1.4-3.7c0.3-1.2,0.1-2.4-0.5-3.5c-0.5-0.8-1.4-1.3-2.4-1.3c-0.9-0.1-1.9,0.2-2.6,0.8
		C278.2,96.2,277.8,97.4,277.7,98.7L277.7,98.7z"/>
	<path class="st2" d="M293.8,92.2l6.6,0.9l0.9,10.3l4.2-9.5l6.6,1l-2.7,16.3l-4.1-0.6l2.1-12.4l-5.2,12l-3.7-0.5l-1.1-12.9
		l-2.1,12.4l-4.1-0.6L293.8,92.2z"/>
	<path class="st2" d="M315.7,95.5l13.4,2.5l-0.7,3.5L320,100l-0.5,2.6l7.8,1.4l-0.7,3.2l-7.8-1.4l-0.6,3.2l8.6,1.6l-0.8,3.7
		l-13.6-2.5L315.7,95.5z"/>
</g>
</svg>
