<?xml version="1.0" encoding="utf-8"?>
<!-- Generator: Adobe Illustrator 25.0.0, SVG Export Plug-In . SVG Version: 6.00 Build 0)  -->
<svg version="1.1" id="Layer_1" xmlns="http://www.w3.org/2000/svg" xmlns:xlink="http://www.w3.org/1999/xlink" x="0px" y="0px"
	 viewBox="0 0 1920 1080" style="enable-background:new 0 0 1920 1080;" xml:space="preserve">
<style type="text/css">
	.st0{opacity:0.3;fill:#17A2B7;enable-background:new    ;}
	.st1{fill:#FFFFFF;}
</style>
<rect x="0.2" y="0.4" class="st0" width="1920" height="1080"/>
<g>
	
		<image style="overflow:visible;opacity:0.25;enable-background:new    ;" width="5713" height="3354" xlink:href="FDE33DB7.png"  transform="matrix(0.2396 0 0 0.2396 -1758.4912 106.3515)">
	</image>
	<g>
		<rect x="-1736.7" y="122.3" class="st1" width="1325.4" height="758.9"/>
	</g>
</g>
<rect x="2006" y="89.3" class="st1" width="256.8" height="758.9"/>
<g>
	
		<image style="overflow:visible;opacity:0.3;" width="1374" height="808" xlink:href="FDE33DB5.png"  transform="matrix(1 0 0 1 253 72)">
	</image>
	<g>
		<path class="st1" d="M1577.9,848.2H302.5c-13.8,0-25-11.2-25-25V114.3c0-13.8,11.2-25,25-25h1275.4c13.8,0,25,11.2,25,25v708.9
			C1602.9,837,1591.7,848.2,1577.9,848.2z"/>
	</g>
</g>
</svg>
